<?xml version="1.0" standalone="no"?>
<!DOCTYPE svg PUBLIC "-//W3C//DTD SVG 1.1//EN" "http://www.w3.org/Graphics/SVG/1.1/DTD/svg11.dtd" >
<svg>
<metadata>
Created by FontForge 20090914 at Sun May  7 21:55:43 2017
 By www-data
Copyright (c) 2012 by Super Spitze Prima Toll. All rights reserved.
</metadata>
<defs>
<font id="SuperspitzeGrotesk-SemiBold" horiz-adv-x="1531" >
  <font-face 
    font-family="SuperspitzeGrotesk-SemiBold"
    font-weight="600"
    font-stretch="normal"
    units-per-em="2048"
    panose-1="2 0 5 3 0 0 0 2 0 3"
    ascent="1536"
    descent="-512"
    x-height="950"
    cap-height="1462"
    bbox="-221 -727 2615 1968"
    underline-thickness="73"
    underline-position="-72"
    unicode-range="U+000D-U+FB04"
  />
<missing-glyph horiz-adv-x="731" 
 />
    <glyph glyph-name="afii61352" unicode="N&#xb0;" horiz-adv-x="2240" 
d="M1761 870c58.667 0 108.334 21.999 149.001 65.999c40 44 60 95.667 60 155s-20 110.333 -60 153s-89.333 64.334 -148 65.001c-58.667 0 -108.334 -21.667 -149.001 -65c-40.667 -42.667 -61 -94 -61 -154s20 -111.667 60 -155s89.667 -65 149 -65zM1364 1090
c0 110.667 38.667 204 116 280s170.666 114.333 279.999 115c108.667 0 202 -38.333 280 -115c78 -76 117 -169.333 117 -280s-39 -204.334 -117 -281.001s-171.333 -115 -280 -115c-109.333 0 -202.666 38.333 -279.999 115s-116 170.334 -116 281.001zM1384 433.999v180
h756v-180h-756zM184 -0.000976562v1462h262l570 -1149v1149h194v-1462h-241l-590 1149v-1149h-195z" />
    <glyph glyph-name="ff" unicode="ff" horiz-adv-x="1306" 
d="M403 754l0.000976562 -754h-219v754h-123v196h123v183c0 139.333 38 243.333 114 312s168.333 103 277 103c38 0 67.667 -4 89 -12l-70 -197c-126.667 0 -190.334 -78.333 -191.001 -235v-154h357v183c0 139.333 37.667 243.333 113 312c76 68.667 167.667 103 275 103
s199 -27.333 275 -82v-45l-114 -114c-42 22 -88.667 32.667 -140 32c-126.667 0 -190 -78.333 -190 -235v-154h151v-196h-151v-754h-219v754h-357z" />
    <glyph glyph-name="fi" unicode="fi" horiz-adv-x="1132" 
d="M1014 0h-218.999v754h-389v-754h-220v754h-125v196h125v183c0 136.667 41.667 240 125 310s184.333 105 303 105c91.333 0 175.666 -20.667 252.999 -62s128.333 -97.666 153 -168.999l-184 -90c-32.667 75.333 -101.667 112.666 -207 111.999
c-61.333 0 -114 -20 -158 -60s-65.667 -98.333 -65 -175v-154h530l78 -78v-872z" />
    <glyph glyph-name="fl" unicode="fl" horiz-adv-x="1179" 
d="M997 1536v-1323h84v-213h-215l-92 94v1368l72 74h151zM61 754v196h123v183c0 139.333 38 243.333 114 312s168.333 103 277 103c32.667 0 59.334 -3.33301 80.001 -10l-30 -201c-8 1.33301 -18.333 2 -31 2c-126.667 0 -190.334 -78.333 -191.001 -235v-154h152v-196
h-152v-754h-219v754h-123z" />
    <glyph glyph-name="ffi" unicode="ffi" horiz-adv-x="1705" 
d="M1587 0h-218.998v754h-389v-754h-219v754h-357v-754h-219v754h-123v196h123v183c0 139.333 38 243.333 114 312s168.333 103 277 103c38 0 67.667 -4 89 -12l-70 -197c-126.667 0 -190.334 -78.333 -191.001 -235v-154h357v183c0 136.667 41.667 240 125 310
s184.333 105 303 105c91.333 0 175.666 -20.667 252.999 -62s128 -97.666 152 -168.999l-184 -90c-32.667 75.333 -101.667 112.666 -207 111.999c-61.333 0 -114 -20 -158 -60s-65.667 -98.333 -65 -175v-154h530l78 -78v-872z" />
    <glyph glyph-name="ffl" unicode="ffl" horiz-adv-x="1722" 
d="M1540 1536v-1323h84v-213h-215l-92 94v1368l72 74h151zM403 754v-754h-219v754h-123v196h123v183c0 139.333 38 243.333 114 312s168.333 103 277 103c38 0 67.667 -4 89 -12l-70 -197c-126.667 0 -190.334 -78.333 -191.001 -235v-154h355v183
c0 139.333 37.667 243.333 113 312c76 68.667 168.667 103 278 103c32.667 0 59.334 -3.33301 80.001 -10l-31 -201c-8 1.33301 -18.333 2 -31 2c-126.667 0 -190 -78.333 -190 -235v-154h151v-196h-151v-754h-219v754h-355z" />
    <glyph glyph-name="f_f_j" unicode="ffj" horiz-adv-x="1705" 
d="M1368 -170l0.00292969 924h-389v-754h-219v754h-357v-754h-219v754h-123v196h123v183c0 139.333 38 243.333 114 312s168.333 103 277 103c38 0 67.667 -4 89 -12l-70 -197c-126.667 0 -190.334 -78.333 -191.001 -235v-154h357v183c0 136.667 41.667 240 125 310
s184.333 105 303 105c91.333 0 175.666 -20.667 252.999 -62s128 -97.666 152 -168.999l-184 -90c-32.667 75.333 -101.667 112.666 -207 111.999c-61.333 0 -114 -20 -158 -60s-65.667 -98.333 -65 -175v-154h530l78 -78v-1036c0 -124 -30.333 -215 -91 -273
s-141.667 -87 -243 -87c-120 0 -216.667 54 -290 162l190 98c18 -28.667 46.667 -43 86 -43c39.333 -0.666992 70.666 11 93.999 35s35 58 35 102z" />
    <glyph glyph-name="f_j" unicode="fj" horiz-adv-x="1132" 
d="M795 -170l0.00195312 924h-389v-754h-220v754h-125v196h125v183c0 136.667 41.667 240 125 310s184.333 105 303 105c91.333 0 175.666 -20.667 252.999 -62s128.333 -97.666 153 -168.999l-184 -90c-32.667 75.333 -101.667 112.666 -207 111.999
c-61.333 0 -114 -20 -158 -60s-65.667 -98.333 -65 -175v-154h530l78 -78v-1036c0 -124 -30.333 -215 -91 -273s-141.667 -87 -243 -87c-120 0 -217 54 -291 162l191 98c18 -28.667 46.667 -43 86 -43c39.333 -0.666992 70.666 11 93.999 35s35 58 35 102z" />
    <glyph glyph-name="gj" unicode="gj" horiz-adv-x="1617" 
d="M536 397c51.333 -0.666992 93.999 17 127.999 53s51 80 51 132s-17 95.667 -51 131s-76.667 53 -128 53s-94 -17.667 -128 -53c-34.667 -35.333 -52 -79 -52 -131s17.333 -96 52 -132s77.334 -53.667 128.001 -53zM308.999 -184c0 -40 15.667 -73 47 -99s75 -39 131 -39
h117c52 0 92.667 13 122 39s44 54.333 44 85s-10 56 -30 76s-47.667 30 -83 30h-256l-20 -2c-48 -20 -72 -50 -72 -90zM970.999 950l-0.00195312 -195.998h-97c28.667 -60 43.334 -117.333 44.001 -172c0 -106.667 -37.333 -197.334 -112 -272.001s-165 -111.667 -271 -111
c-60 0 -119.667 15.667 -179 47c-20 -12 -30 -30 -30 -54s6.33301 -43.333 19 -58s31.334 -21.667 56.001 -21h256c95.333 -0.666992 171.666 -32.334 228.999 -95.001s86.333 -136 87 -220c0 -84 -34.667 -158.667 -104 -224s-157.666 -98 -264.999 -98h-117
c-110.667 0 -200.667 30.667 -270 92s-104 132.333 -104 213c0.666992 42 11.667 83.667 33 125s47 70 77 86c-57.333 44 -86 101.333 -86 172s32 132 96 184c-52.667 65.333 -79 147 -79 245s36.667 185 110 261s160 113.667 260 113c100 0 184.667 -29.333 254 -88l72 71
h121zM1184 1335c0 44 15.332 81.334 45.999 112.001s67.334 46 110.001 46s79.667 -15.333 111 -46c30.667 -31.333 46 -68.333 46 -111s-15.333 -79.334 -46 -110.001s-68 -46 -112 -46c-44.667 0 -81.667 14.667 -111 44s-44 66.333 -44 111zM1255 -169.997
l-0.00195312 924h-127v196h269l78 -78v-1036c0.666992 -124 -29.666 -215 -90.999 -273s-142.333 -87 -243 -87c-46.667 0 -85.667 6.66699 -117 20l41 213c22 -10.667 47.667 -16 77 -16c29.333 -0.666992 55.333 11 78 35s34.334 58 35.001 102z" />
    <glyph glyph-name=".notdef" horiz-adv-x="731" 
 />
    <glyph glyph-name=".null" horiz-adv-x="0" 
 />
    <glyph glyph-name=".null" horiz-adv-x="0" 
 />
    <glyph glyph-name="CR" unicode="&#xd;" horiz-adv-x="675" 
 />
    <glyph glyph-name="space" unicode=" " horiz-adv-x="512" 
 />
    <glyph glyph-name="exclam" unicode="!" horiz-adv-x="741" 
d="M223 117c0 40.667 14.0029 75.666 42.0029 104.999c27.333 29.333 61.666 44 102.999 44s76.666 -14.667 105.999 -44s44 -64.333 44 -105s-14.667 -75 -44 -103s-64.333 -42.333 -105 -43c-40.667 0 -75.334 14 -104.001 42c-28 28.667 -42 63.334 -42 104.001z
M254.003 400.999v1061h233v-1061h-233z" />
    <glyph glyph-name="quotedbl" unicode="&#x22;" horiz-adv-x="702" 
d="M403 995v541h259l-80 -541h-179zM82 995v541h258l-80 -541h-178z" />
    <glyph glyph-name="numbersign" unicode="#" horiz-adv-x="1495" 
d="M618 889l-86 -318h377l84 318h-375zM172 889v162h311l103 383h157v-76l-81 -307h376l103 383h157v-76l-84 -307h240v-162h-280l-87 -318h236v-163h-279l-110 -408h-158v76l90 332h-377l-110 -408h-158v76l90 332h-270v163h313l86 318h-268z" />
    <glyph glyph-name="dollar" unicode="$" horiz-adv-x="1292" 
d="M375 1080c0 -48.667 16.667 -89 50 -121s81.333 -59.333 144 -82v387c-57.333 -9.33301 -104 -30 -140 -62s-54 -72.667 -54 -122zM967 389c-0.666992 53.333 -21 95.002 -61 125.002s-99 57.333 -177 82v-395c65.333 9.33301 121.333 29.666 168 60.999
s70 73.666 70 126.999zM1190 368.002c0 -70.667 -25.001 -137.333 -75.001 -200c-87.333 -109.333 -216 -173.666 -386 -192.999v-157h-160v159c-112 14 -210.333 51.667 -295 113s-142 142 -172 242l191 69c15.333 -50.667 48.333 -93 99 -127s109.667 -57 177 -69v440
c-58.667 19.333 -108.667 38.333 -150 57c-114 52.667 -188.667 119.667 -224 201c-22 49.333 -33 106.666 -33 171.999c0 119.333 40 214.333 120 285s175.667 113.667 287 129v139h160v-141c170.667 -18 297.667 -86.333 381 -205l-158 -137
c-43.333 60 -117.666 99 -222.999 117v-437c56 -16.667 100.667 -30.667 134 -42s73.666 -29.333 120.999 -54s84 -51 110 -79c26.667 -28 49.334 -64.667 68.001 -110c18.667 -44 28 -101.333 28 -172z" />
    <glyph glyph-name="percent" unicode="%" horiz-adv-x="1226" 
d="M351 1055c38.667 0 71.667 14.334 99 43.001c26.667 28.667 39.667 62.667 39 102c0 39.333 -12.667 73.666 -38 102.999c-26 28.667 -59 43 -99 43s-73.333 -14.333 -100 -43c-27.333 -28.667 -41 -63 -41 -103s13.667 -74 41 -102c27.333 -28.667 60.333 -43 99 -43z
M1022 264.001c0 41.333 -13.667 77.333 -41 108s-61.666 46 -102.999 46s-76 -15 -104 -45s-42.333 -66.333 -43 -109c0.666992 -42.667 15 -78.667 43 -108c28 -30 62.667 -45 104 -45s75.666 15 102.999 45s41 66 41 108zM66 1200c0 80.667 28 148.334 84 203.001
s123 82 201 82c78.667 0 145.667 -27.333 201 -82s83 -122.334 83 -203.001s-27.667 -148.667 -83 -204s-122.333 -83 -201 -83c-78 0 -145 27.667 -201 83s-84 123.333 -84 204zM878 549.001c78.667 0 145.333 -27.333 200 -82s82.334 -122.334 83.001 -203.001
c0 -80.667 -27.667 -148.667 -83 -204c-54.667 -55.333 -121.334 -83 -200.001 -83s-146 27.667 -202 83s-84 123.333 -84 204s28 148.334 84 203.001s123.333 82 202 82zM60.999 0.000976562v39l943 1423h161v-37l-942 -1425h-162z" />
    <glyph glyph-name="ampersand" unicode="&#x26;" horiz-adv-x="1642" 
d="M324 475c0 -80.667 32.335 -149.334 97.002 -206.001s139.667 -84.667 225 -84s150.666 15.334 195.999 44.001s86.333 71 123 127l-359 430c-78.667 -8 -145.334 -41.667 -200.001 -101s-82 -129.333 -82 -210zM1540 0l-243.999 -0.00195312l-176 197
c-62.667 -75.333 -127.667 -131.666 -195 -168.999s-157.333 -56.333 -270 -57c-152.667 0 -283 51.333 -391 154s-162 226.334 -162 371.001c0 109.333 32.667 208.333 98 297s149.666 152 252.999 190l-226 266v213h893v-221h-585l538 -655l164 389h295v-199h-152
l-143 -354l303 -348v-74z" />
    <glyph glyph-name="quotesingle" unicode="'" horiz-adv-x="380" 
d="M82 995v541h258l-80 -541h-178z" />
    <glyph glyph-name="parenleft" unicode="(" horiz-adv-x="663" 
d="M274 717c0 -174 36.332 -339 108.999 -495s159.334 -267 260.001 -333l-68 -116c-125.333 64 -233.666 181.667 -324.999 353s-137 368.333 -137 591s45.667 419.667 137 591s199.666 289 324.999 353l68 -117c-102 -65.333 -189 -176 -261 -332s-108 -321 -108 -495z
" />
    <glyph glyph-name="parenright" unicode=")" horiz-adv-x="663" 
d="M389 717c0 174.667 -36 339.667 -108 495c-72.667 155.333 -159.667 266 -261 332l68 117c125.333 -64 234 -181.667 326 -353s137.667 -368.333 137 -591c0 -222.667 -45.667 -419.667 -137 -591s-200 -289 -326 -353l-68 116c101.333 65.333 188.333 176 261 332
c72 156 108 321.333 108 496z" />
    <glyph glyph-name="asterisk" unicode="*" horiz-adv-x="927" 
d="M383 1188l-6 350h174l-6 -350l332 115l51 -164l-334 -105l211 -278l-141 -101l-199 289l-199 -291l-141 103l209 278l-334 103l53 163z" />
    <glyph glyph-name="plus" unicode="+" horiz-adv-x="1011" 
d="M408 1108h196v-338h346v-197h-346v-340h-196v340h-347v197h347v338z" />
    <glyph glyph-name="comma" unicode="," horiz-adv-x="505" 
d="M387 201v-66l-274 -473h-154v68l178 471h250z" />
    <glyph glyph-name="hyphen" unicode="-" horiz-adv-x="847" 
d="M127 457v196h594v-196h-594z" />
    <glyph glyph-name="period" unicode="." horiz-adv-x="403" 
d="M41 131c0 44 15.667 82 47 114s69 48 113 48c43.333 0 81 -16 113 -48s48 -70 48 -114s-16 -81.667 -48 -113s-70 -47 -114 -47s-81.333 15.667 -112 47c-31.333 31.333 -47 69 -47 113z" />
    <glyph glyph-name="slash" unicode="/" horiz-adv-x="841" 
d="M31 -100v75l637 1559h143v-76l-637 -1558h-143z" />
    <glyph glyph-name="zero" unicode="0" horiz-adv-x="1363" 
d="M682 188c82 0 151.333 26.666 208 79.999c104.667 98.667 157 243.334 157 434.001c0 191.333 -52.333 336.333 -157 435c-56.667 53.333 -126 80 -208 80c-120 0 -210.667 -51.667 -272 -155s-92 -223.666 -92 -360.999c0 -136.667 30.667 -256.334 92 -359.001
s152 -154 272 -154zM682 1434c128.667 0 238.667 -36.332 330 -108.999c172 -136.667 258.333 -344.334 259 -623.001c0.666992 -278 -85.666 -485.333 -258.999 -622c-91.333 -72.667 -201.333 -109 -330 -109c-96.667 0.666992 -183.667 21.667 -261 63
c-144 77.333 -241.667 210.333 -293 399c-24 85.333 -36 175 -36 269c0 194 47.333 361.333 142 502c47.333 69.333 109.666 125 186.999 167s164.333 63 261 63z" />
    <glyph glyph-name="one" unicode="1" horiz-adv-x="655" 
d="M252 1210h-172v209h391v-1419h-219v1210z" />
    <glyph glyph-name="two" unicode="2" horiz-adv-x="1087" 
d="M104 1030c0 109.333 38.332 204.001 114.999 284.001s182 120 316 120s241 -37.333 321 -112s119.667 -170.667 119 -288c0 -117.333 -52 -233.333 -156 -348l-432 -475h617v-211h-922v172l561 647c71.333 80.667 107 150.667 107 210s-20.667 109 -62 149
s-92 60.333 -152 61c-59.333 0 -108.666 -20.667 -147.999 -62c-38.667 -42 -58 -91 -58 -147c0 -28.667 5.33301 -55.334 16 -80.001l-209 -82c-22 49.333 -33 103.333 -33 162z" />
    <glyph glyph-name="three" unicode="3" horiz-adv-x="1091" 
d="M508 188c64 0 123.335 23.332 178.002 69.999s82 105.334 82 176.001s-26 128.667 -78 174c-52 46.667 -116 70 -192 70s-126.667 -3.33301 -152 -10l-63 170l376 372h-538v209h833v-178l-385 -389c121.333 -13.333 221.666 -58.333 300.999 -135s119 -175.667 119 -297
s-48.667 -226.666 -146 -315.999c-97.333 -88.667 -214.333 -133 -351 -133c-102.667 -0.666992 -192.334 19.666 -269.001 60.999s-134 96.333 -172 165l185 118c24 -39.333 59.333 -70.333 106 -93s102 -34 166 -34z" />
    <glyph glyph-name="four" unicode="4" horiz-adv-x="1189" 
d="M745 473v606l-450 -606h450zM745 0v279h-684v194l730 946h174v-946h174v-194h-174v-279h-220z" />
    <glyph glyph-name="five" unicode="5" horiz-adv-x="1169" 
d="M535 -31c-80.667 0 -155.001 11.002 -223.001 33.002s-116.333 43.667 -145 65c-29.333 21.333 -54.333 43.333 -75 66c28.667 45.333 68.334 104.666 119.001 177.999c91.333 -82 198.333 -123 321 -123c83.333 0 158 23 224 69c65.333 46 98 110.667 98 194
s-32.667 147.666 -98 192.999s-142 68.333 -230 69c-88 0 -169.667 -19.333 -245 -58l-140 140l99 624h745v-209h-579l-52 -327c75.333 28.667 151.333 43 228 43c138 0 255 -44.333 351 -133s144 -204 144 -346s-47.667 -257 -143 -345s-228.333 -132.333 -399 -133z" />
    <glyph glyph-name="six" unicode="6" horiz-adv-x="1054" 
d="M526 188c68 0 125.667 24.666 173 73.999s71 108 71 176s-23.333 126.667 -70 176s-104.667 74 -174 74s-127.333 -24.667 -174 -74s-70 -107.666 -70 -174.999s24 -126 72 -176c46.667 -50 104 -75 172 -75zM545 888.999c118.667 0 223.002 -41.999 313.002 -125.999
s135 -191.667 135 -323c0 -130.667 -46 -241.334 -138 -332.001s-202 -136 -330 -136c-127.333 0 -236.333 45.333 -327 136s-136.334 200.667 -137.001 330c0 91.333 21.333 171.333 64 240l455 741h241l-334 -536c19.333 4 38.666 6 57.999 6z" />
    <glyph glyph-name="seven" unicode="7" horiz-adv-x="993" 
d="M47 1079v340h946v-209l-678 -1210h-249l684 1210h-484v-131h-219z" />
    <glyph glyph-name="eight" unicode="8" horiz-adv-x="1155" 
d="M385 1036c-0.666992 -50.667 17.666 -94.666 54.999 -131.999s83 -56 137 -56s99.333 18.667 136 56s55 81.666 55 132.999s-18 95.333 -54 132s-81.333 55 -136 55s-100.667 -18.667 -138 -56s-55.666 -81.333 -54.999 -132zM577 180.001
c70 0 129.333 23.668 178 71.001s73 103.333 73 168s-24 120.667 -72 168s-108 71 -180 71s-131.333 -24 -178 -72c-46.667 -46.667 -70 -102.334 -70 -167.001s24 -120.667 72 -168s107 -71 177 -71zM578 -28.998c-130 0 -241.667 43.332 -335 129.999
s-140.333 192.334 -141 317.001c0 74 17.333 141.333 52 202s81 106.667 139 138c-42 26.667 -75.667 65.334 -101 116.001s-38 104.667 -38 162c0 112 41.667 206.333 125 283s183.333 115 300 115s216.667 -38.333 300 -115s125 -171 125 -283
c0 -56 -12.667 -109.333 -38 -160s-59.333 -90 -102 -118c57.333 -31.333 103 -77.333 137 -138s51.333 -128 52 -202c0 -124 -46.667 -229.333 -140 -316s-205 -130.334 -335 -131.001z" />
    <glyph glyph-name="nine" unicode="9" horiz-adv-x="1046" 
d="M539 1227c-66.667 0 -122.334 -24 -167.001 -72s-67 -104.667 -67 -170s22.333 -121.666 67 -168.999s100.334 -71 167.001 -71s122.334 23.667 167.001 71s66.667 103.666 66 168.999c0 65.333 -22 122 -66 170c-44.667 48 -100.334 72 -167.001 72zM520 555
c-120 0 -222.999 40 -308.999 120s-129 183 -129 309c0 126.667 44.667 233.334 134 320.001s196.666 130 321.999 130s233 -43.333 323 -130c89.333 -86.667 134 -193 134 -319c0 -80.667 -25 -163.334 -75 -248.001l-451 -737h-242l344 557
c-10.667 -1.33301 -27.667 -2 -51 -2z" />
    <glyph glyph-name="colon" unicode=":" horiz-adv-x="505" 
d="M414 789c0 -44.667 -15.667 -82.334 -47 -113.001s-69.333 -46.334 -114 -47.001c-44.667 0.666992 -82.667 16.334 -114 47.001s-47 68.334 -47 113.001s15.667 82.667 47 114s69.333 47 114 47s82.667 -15.667 114 -47s47 -69.333 47 -114zM92 131
c0 44 15.667 82 47 114s69.333 48 114 48s82.667 -16 114 -48s47 -70 47 -114s-15.667 -81.667 -47 -113s-69.333 -47 -114 -47s-82.667 15.667 -114 47s-47 69 -47 113z" />
    <glyph glyph-name="semicolon" unicode=";" horiz-adv-x="581" 
d="M432 201v-66l-274 -473h-154v68l178 471h250zM471 787c0 -44.667 -15.667 -82.334 -47 -113.001s-69.333 -46.334 -114 -47.001c-45.333 0.666992 -83.333 16.334 -114 47.001s-46 68.334 -46 113.001s15.667 83 47 115s69 48 113 48s82 -16 114 -48
c31.333 -32 47 -70.333 47 -115z" />
    <glyph glyph-name="less" unicode="&#x3c;" horiz-adv-x="1011" 
d="M930 147l-889 463v125l889 463v-203l-654 -321l654 -324v-203z" />
    <glyph glyph-name="equal" unicode="=" horiz-adv-x="1218" 
d="M164 274v197h889v-197h-889zM164 698v197h889v-197h-889z" />
    <glyph glyph-name="greater" unicode="&#x3e;" horiz-adv-x="1011" 
d="M971 610l-889 -463v203l653 324l-653 321v203l889 -463v-125z" />
    <glyph glyph-name="question" unicode="?" horiz-adv-x="1071" 
d="M338 117c0 40.667 14 75.667 42 105s62.333 44 103 44s75.667 -14.667 105 -44s44.333 -64.333 45 -105c0 -40.667 -14.667 -75 -44 -103c-28.667 -28 -63.667 -42.333 -105 -43c-41.333 0.666992 -76 15 -104 43s-42 62.333 -42 103zM539 1493
c115.333 -0.666992 210.332 -36.3311 284.999 -106.998s112 -156.334 112 -257.001s-39.667 -200.334 -119 -299.001l-98 -120c-79.333 -97.333 -119 -200.333 -119 -309h-233c0 140 38.333 262 115 366c32 43.333 64.333 83.666 97 120.999c76.667 89.333 115 166 115 230
c0 44 -14 81.667 -42 113s-66 47 -114 47s-87.333 -16 -118 -48c-30 -32 -45 -69.333 -45 -112s19 -87 57 -133l-156 -154c-44 31.333 -78 75 -102 131s-36.333 108 -37 156c0 108 38.333 197.333 115 268s172.334 106.334 287.001 107.001z" />
    <glyph glyph-name="at" unicode="@" horiz-adv-x="2086" 
d="M1017 162c82.667 0 144.667 26.667 186 80s62.333 122.333 63 207c0 84.667 -21.667 153.667 -65 207s-105 79.666 -185 78.999c-80 0 -142.333 -26.333 -187 -79c-43.333 -52 -65 -120.667 -65 -206s21.333 -154.666 64 -207.999s105.667 -80 189 -80zM1067 -342
c144.667 0 278.998 37.6641 402.998 112.997l105 -158c-155.333 -91.333 -322.333 -137 -501 -137s-342.667 41.667 -492 125c-148.667 83.333 -267.667 199.333 -357 348c-88.667 148.667 -133 313.334 -133 494.001s44.333 345.667 133 495s207.667 266 357 350
c149.333 83.333 311 125 485 125c264.667 0 485.667 -93 663 -279c176.667 -186.667 265 -422 265 -706c0 -138 -11.667 -243 -35 -315l-113 -113h-497l-68 68c-95.333 -60 -189 -90.333 -281 -91c-122.667 -0.666992 -226 44.333 -310 135s-126 203.334 -126 338.001
s42 247.334 126 338.001s187.333 136 310 136c80.667 0 159.334 -18.667 236.001 -56l82 82h127v-757h328c13.333 86 20 164.333 20 235c0 226.667 -66.333 416.667 -199 570s-309.667 230 -531 230s-404.666 -76.667 -549.999 -230c-146 -153.333 -219 -338.333 -219 -555
s73 -401.667 219 -555s330.333 -230 553 -230z" />
    <glyph glyph-name="A" unicode="A" 
d="M766 1221l-258 -674h516zM911 1462l580 -1462h-256l-125 326h-688l-125 -326h-256l580 1462h290z" />
    <glyph glyph-name="B" unicode="B" horiz-adv-x="1382" 
d="M700 1241h-286v-381h307c170.667 0 256 63 256 189c0 56 -22.333 102 -67 138s-114.667 54 -210 54zM788 647h-374v-426h327c195.333 0 293 70.333 293 211c0 60 -19.667 111 -59 153c-40 41.333 -102.333 62 -187 62zM184 0v1462h531c162 0 283 -38.667 363 -116
s120 -170.333 120 -279c0 -132.667 -58.667 -233 -176 -301c165.333 -69.333 248 -191 248 -365c0 -120.667 -41.333 -217.667 -124 -291s-202 -110 -358 -110h-604z" />
    <glyph glyph-name="C" unicode="C" horiz-adv-x="1449" 
d="M844 197c143.333 0 262.002 51.6689 356.002 155.002l178 -145c-68 -75.333 -149 -133.333 -243 -174s-193.667 -61.334 -299 -62.001c-200.667 0 -375 73.333 -523 220c-147.333 146.667 -221 327 -221 541s73.667 394.333 221 541s321.666 220 522.999 220
s374 -70.333 518 -211l-176 -152c-92.667 90.667 -207.334 136 -344.001 136c-136 0 -252 -52.667 -348 -158s-144 -230.333 -144 -375s47.667 -270.334 143 -377.001c96 -106 215.667 -159 359 -159z" />
    <glyph glyph-name="D" unicode="D" horiz-adv-x="1443" 
d="M416 1241l0.000976562 -1018h233c123.333 0 229.666 35.667 318.999 107c46 36.667 82 89 108 157c26.667 67.333 40 148.333 40 243c0 186 -49.333 320.667 -148 404c-88 71.333 -194.333 107 -319 107h-233zM184.001 0v1462h480c192 0 354.667 -64 488 -192
s200 -307.667 200 -539s-66.667 -411 -200 -539s-296 -192 -488 -192h-480z" />
    <glyph glyph-name="E" unicode="E" horiz-adv-x="1349" 
d="M184 0v1462h1053v-221h-823v-373h778v-221h-778v-424h823v-223h-1053z" />
    <glyph glyph-name="F" unicode="F" horiz-adv-x="1249" 
d="M184 0v1462h963v-221h-731v-410h688v-221h-688v-610h-232z" />
    <glyph glyph-name="G" unicode="G" horiz-adv-x="1632" 
d="M838 197c169.333 0 301.667 57.999 397 173.999v184h-303v221h536v-508c-178.667 -198 -388.667 -297 -630 -297c-210 0 -387 72.333 -531 217c-143.333 144 -215 323.333 -215 538s72.667 396 218 544s319.333 222.333 522 223c202.667 0 380.667 -71 534 -213
l-162 -172c-101.333 105.333 -224 158 -368 158s-262.667 -53 -356 -159s-140 -230.667 -140 -374s47 -268.666 141 -375.999c94.667 -106.667 213.667 -160 357 -160z" />
    <glyph glyph-name="H" unicode="H" horiz-adv-x="1589" 
d="M184 0v1462h234v-620h753v620h234v-1462h-234v621h-753v-621h-234z" />
    <glyph glyph-name="I" unicode="I" horiz-adv-x="643" 
d="M205 0v1462h233v-1462h-233z" />
    <glyph glyph-name="J" unicode="J" horiz-adv-x="1085" 
d="M674 453l-0.000976562 1009h227v-1013c0 -148.667 -39.667 -265.667 -119 -351s-192.666 -127.666 -339.999 -126.999c-102.667 0 -190 23.667 -262 71s-125.333 113.333 -160 198l197 112c56 -108 131 -162 225 -162c74.667 0 132 23.667 172 71s60 111.333 60 192z" />
    <glyph glyph-name="K" unicode="K" horiz-adv-x="1359" 
d="M184 0v1462h236v-712l555 712h299l-490 -608l555 -854h-286l-428 664l-205 -258v-406h-236z" />
    <glyph glyph-name="L" unicode="L" horiz-adv-x="1167" 
d="M184 0v1462h236v-1239h727v-223h-963z" />
    <glyph glyph-name="M" unicode="M" horiz-adv-x="1894" 
d="M184 0v1462h238l526 -741l525 741h237v-1462h-231v1073l-451 -641h-162l-446 637v-1069h-236z" />
    <glyph glyph-name="N" unicode="N" horiz-adv-x="1630" 
d="M184 0v1462h281l747 -1140v1140h234v-1462h-303l-723 1104v-1104h-236z" />
    <glyph glyph-name="O" unicode="O" horiz-adv-x="1712" 
d="M856 197c147.333 0 270 52.333 368 157c97.333 105.333 146 231 146 377s-48.667 271.667 -146 377s-220 158 -368 158s-270.667 -52.667 -368 -158s-146 -231 -146 -377s48.667 -271.667 146 -377c98 -104.667 220.667 -157 368 -157zM856 1493
c210.667 0 390.667 -73 540 -219s224 -327 224 -543s-74.667 -396.667 -224 -542s-329.333 -218 -540 -218s-390.667 72.667 -540 218s-224 326 -224 542s74.667 397 224 543c150 146 330 219 540 219z" />
    <glyph glyph-name="P" unicode="P" horiz-adv-x="1286" 
d="M696 1241h-280v-410h280c82 0.666992 148.667 17.667 200 51s77 81.333 77 144s-22.667 114 -68 154s-115 60.333 -209 61zM184 0v1462h527c231.333 0 383 -93 455 -279c18.667 -48.667 28 -98.334 28 -149.001c0 -121.333 -42 -222.333 -126 -303s-203 -121 -357 -121
h-295v-610h-232z" />
    <glyph glyph-name="Q" unicode="Q" horiz-adv-x="1753" 
d="M854 197c109.333 0 208.334 32 297.001 96l-143 145l163 162l132 -133c44 79.333 65.667 167.333 65 264c0 146 -48.333 271.667 -145 377s-219 158 -367 158s-270.667 -52.667 -368 -158s-146 -231 -146 -377s48.333 -271.667 145 -377
c97.333 -104.667 219.666 -157 366.999 -157zM855.001 1493c210 0 389.666 -73.001 538.999 -219.001s224 -327 224 -543c0 -165.333 -46.333 -312.666 -139 -441.999l57 -58h115v-231h-211l-123 123c-135.333 -101.333 -289.666 -152 -462.999 -152
c-210 0 -389.667 72.667 -539 218c-148.667 145.333 -223 326 -223 542s74.667 397 224 543c150 146 329.667 219 539 219z" />
    <glyph glyph-name="R" unicode="R" horiz-adv-x="1370" 
d="M696 1241h-280v-410h280c82 0.666992 148.667 17.667 200 51s77 81.333 77 144s-22.667 114 -68 154s-115 60.333 -209 61zM184 0v1462h527c231.333 0 383 -93 455 -279c18.667 -48.667 28 -105.667 28 -171s-18.667 -130.666 -56 -195.999
c-37.333 -64.667 -92.333 -114.667 -165 -150l377 -666h-269l-338 610h-327v-610h-232z" />
    <glyph glyph-name="S" unicode="S" horiz-adv-x="1421" 
d="M725 -29c-146 0.666992 -276.997 33.001 -392.997 97.001s-192.667 152 -230 264l213 69c20.667 -61.333 70.334 -110.666 149.001 -147.999s171 -56 277 -56s193.667 25.667 263 77c42 32 63 70 63 114c0 82.667 -59.333 143 -178 181
c-53.333 18 -111.666 35 -174.999 51c-64 16 -128 35.333 -192 58s-122.667 49 -176 79c-53.333 30.667 -96.333 73 -129 127s-49 117.667 -49 191c0 131.333 54.333 233.666 163 306.999s231.667 110.333 369 111c243.333 0 419.666 -70.333 528.999 -211l-176 -137
c-32.667 39.333 -81 70 -145 92s-136 33 -216 33c-79.333 0 -147 -17 -203 -51c-55.333 -34 -83 -78.333 -83 -133s22.667 -100.334 68 -137.001c45.333 -36 101.333 -62.333 168 -79c67.333 -16 140.666 -36 219.999 -60s152.666 -49.667 219.999 -77
s123.666 -70.333 168.999 -129s68 -127.334 68 -206.001s-19.333 -145.667 -58 -201c-66 -95.333 -180 -162.666 -342 -201.999c-66.667 -16 -131.334 -24 -194.001 -24z" />
    <glyph glyph-name="T" unicode="T" horiz-adv-x="1091" 
d="M428 0v1241h-408v221h1051v-221h-407v-1241h-236z" />
    <glyph glyph-name="U" unicode="U" horiz-adv-x="1509" 
d="M1100 594v868h225v-872c0 -203.333 -52 -357.333 -156 -462c-103.333 -104.667 -241 -157 -413 -157s-310.333 52.333 -415 157s-157 258.667 -157 462v872h228v-868c0 -134 32.667 -233.667 98 -299s147.333 -98 246 -98s180.667 32.667 246 98s98 165 98 299z" />
    <glyph glyph-name="V" unicode="V" horiz-adv-x="1376" 
d="M1356 1462l-522 -1462h-291l-523 1462h259l409 -1194l410 1194h258z" />
    <glyph glyph-name="W" unicode="W" horiz-adv-x="1937" 
d="M1917 1462l-514 -1462h-305l-129 401l-127 -401h-307l-515 1462h261l415 -1224l150 491l-232 733h228l125 -409l129 409h227l-233 -733l151 -491l416 1224h260z" />
    <glyph glyph-name="X" unicode="X" horiz-adv-x="1261" 
d="M1229 1462l-451 -721l463 -741h-280l-330 537l-330 -537h-281l463 741l-450 721h274l324 -528l323 528h275z" />
    <glyph glyph-name="Y" unicode="Y" horiz-adv-x="1341" 
d="M553 0v610l-533 852h275l377 -612l375 612h274l-533 -852v-610h-235z" />
    <glyph glyph-name="Z" unicode="Z" horiz-adv-x="1327" 
d="M1225 0h-1123v213l809 1028h-780v221h1079v-213l-813 -1036h828v-213z" />
    <glyph glyph-name="bracketleft" unicode="[" horiz-adv-x="618" 
d="M164 1716h434v-151h-274v-1667h274v-152h-434v1970z" />
    <glyph glyph-name="backslash" unicode="\" horiz-adv-x="841" 
d="M811 -100h-143l-637 1558v76h143l637 -1559v-75z" />
    <glyph glyph-name="bracketright" unicode="]" horiz-adv-x="618" 
d="M20 1716h435v-1970h-435v152h275v1667h-275v151z" />
    <glyph glyph-name="asciicircum" unicode="^" horiz-adv-x="882" 
d="M61 868l318 594h125l317 -594h-203l-178 332l-178 -332h-201z" />
    <glyph glyph-name="underscore" unicode="_" horiz-adv-x="892" 
d="M61 -168v168h770v-168h-770z" />
    <glyph glyph-name="grave" unicode="`" horiz-adv-x="1075" 
d="M299 1374c0 53.333 26 89.668 78 109.001c23.333 6.66699 37.666 10 42.999 10c40.667 0 73.334 -15.667 98.001 -47l242 -279l-72 -73c-198 102.667 -307.333 158.667 -328 168c-40.667 21.333 -61 58.666 -61 111.999z" />
    <glyph glyph-name="a" unicode="a" horiz-adv-x="1103" 
d="M500 162c72 0 126 26 162 78c35.333 52 53 111.333 53 178h-246c-62.667 0 -106.667 -12.333 -132 -37s-38 -54 -38 -88s15.667 -64.333 47 -91c30.667 -26.667 82 -40 154 -40zM920 674v-461.002h81v-213h-163l-88 88c-62.667 -74 -152 -111 -268 -111
c-116 -0.666992 -210 28.333 -282 87s-108 136.334 -108 233.001c0 142.667 74 234 222 274c50 13.333 107.667 20.333 173 21h218v55c0.666992 40.667 -18.333 73.334 -57 98.001s-82.667 37 -132 37c-86 0 -144.667 -31.333 -176 -94l-184 84c56 134 180 201 372 201
c108 0 200.333 -25.333 277 -76s115 -125 115 -223z" />
    <glyph glyph-name="b" unicode="b" horiz-adv-x="1218" 
d="M642 188c78.667 0 145.334 27.667 200.001 83s82 123.333 82 204s-27.333 148.667 -82 204s-121.334 83 -200.001 83s-144.667 -27.667 -198 -83s-80 -123.333 -80 -204s26.667 -148.667 80 -204s119.333 -83 198 -83zM164 0l-0.000976562 1462l74 74h145v-678
c76.667 76.667 168.667 115 276 115c135.333 -0.666992 250.333 -49.667 345 -147s142.334 -214.333 143.001 -351c0 -136.667 -47.333 -253.667 -142 -351s-210.667 -146.333 -348 -147c-112 0 -204 38.333 -276 115l-92 -92h-125z" />
    <glyph glyph-name="c" unicode="c" horiz-adv-x="968" 
d="M562 762c-74.667 0 -137.998 -28.334 -189.998 -85.001s-78.333 -123.667 -79 -201c0.666992 -77.333 27 -144.666 79 -201.999s114 -86 186 -86s135.333 30.333 190 91l170 -134c-100 -112 -217 -168 -351 -168c-134 -0.666992 -250 47.666 -348 144.999
s-147 215 -147 353s48.667 255.333 146 352s213.666 145.334 348.999 146.001c66 0 129.667 -13 191 -39s107.666 -61.667 138.999 -107l-152 -153c-47.333 58.667 -108.333 88 -183 88z" />
    <glyph glyph-name="d" unicode="d" horiz-adv-x="1241" 
d="M577 188c78 0 143.666 27.667 196.999 83s80 123.333 80 204s-26.667 148.667 -80 204s-119.333 83 -198 83s-145 -27.667 -199 -83c-54.667 -55.333 -82 -123.333 -82 -204s27.333 -148.667 82 -204s121.334 -83 200.001 -83zM558.999 973
c108 0 200.334 -38.333 277.001 -115v604l73 74h146v-1323h84v-213h-209l-92 92c-72.667 -76.667 -165 -115 -277 -115c-136.667 0.666992 -252.334 49.667 -347.001 147s-142 214.333 -142 351s47.333 253.667 142 351s209.667 146.333 345 147z" />
    <glyph glyph-name="e" unicode="e" horiz-adv-x="1044" 
d="M538 778c-58 0 -108.998 -17.3311 -152.998 -51.998s-71.333 -79.334 -82 -134.001h461c-6.66699 53.333 -31.334 97.666 -74.001 132.999s-93.334 53 -152.001 53zM522.002 182.002c101.333 0 180.002 44.332 236.002 132.999l180 -98
c-41.333 -69.333 -96 -126.666 -164 -171.999s-146.333 -68 -235 -68c-134 0.666992 -245.333 49.667 -334 147s-133 214 -133 350s44.333 253 133 351s198.667 147 330 147s237.666 -46.333 318.999 -139c81.333 -93.333 124.333 -205 129 -335l-82 -80h-608
c5.33301 -69.333 31.666 -126 78.999 -170c46.667 -44 96.667 -66 150 -66z" />
    <glyph glyph-name="f" unicode="f" horiz-adv-x="645" 
d="M61 754v196h125v183c0 139.333 38 243.333 114 312s167.667 103 275 103s199 -27.333 275 -82v-45l-115 -114c-42 22 -88.333 32.667 -139 32c-126.667 0 -190 -78.333 -190 -235v-154h151v-196h-151v-754h-220v754h-125z" />
    <glyph glyph-name="g" unicode="g" horiz-adv-x="1075" 
d="M536 397c51.333 -0.666992 93.999 17 127.999 53s51 80 51 132s-17 95.667 -51 131s-76.667 53 -128 53s-94 -17.667 -128 -53c-34.667 -35.333 -52 -79 -52 -131s17.333 -96 52 -132s77.334 -53.667 128.001 -53zM308.999 -184c0 -40 15.667 -73 47 -99s75 -39 131 -39
h117c52 0 92.667 13 122 39s44 54.333 44 85s-10 56 -30 76s-47.667 30 -83 30h-256l-20 -2c-48 -20 -72 -50 -72 -90zM970.999 950l-0.00195312 -195.998h-97c28.667 -60 43.334 -117.333 44.001 -172c0 -106.667 -37.333 -197.334 -112 -272.001s-165 -111.667 -271 -111
c-60 0 -119.667 15.667 -179 47c-20 -12 -30 -30 -30 -54s6.33301 -43.333 19 -58s31.334 -21.667 56.001 -21h256c95.333 -0.666992 171.666 -32.334 228.999 -95.001s86.333 -136 87 -220c0 -84 -34.667 -158.667 -104 -224s-157.666 -98 -264.999 -98h-117
c-110.667 0 -200.667 30.667 -270 92s-104 132.333 -104 213c0.666992 42 11.667 83.667 33 125s47 70 77 86c-57.333 44 -86 101.333 -86 172s32 132 96 184c-52.667 65.333 -79 147 -79 245s36.667 185 110 261s160 113.667 260 113c100 0 184.667 -29.333 254 -88l72 71
h121z" />
    <glyph glyph-name="h" unicode="h" horiz-adv-x="1112" 
d="M969 569l-0.000976562 -568.999h-224v569c0 59.333 -15.667 105 -47 137s-73.666 48 -126.999 48s-98 -14.333 -134 -43s-54 -64.334 -54 -107.001v-604h-219v1462l74 74h145v-668c74 64 157.333 96 250 96s171.667 -32.667 237 -98s98.333 -164.333 99 -297z" />
    <glyph glyph-name="i" unicode="i" horiz-adv-x="546" 
d="M121 1335c0 44 15.334 81.334 46.001 112.001s67 46 109 46c41.333 0 78 -15.333 110 -46c32 -31.333 48 -68.333 48 -111s-15.333 -79.334 -46 -110.001s-67.334 -46 -110.001 -46s-79.667 14.667 -111 44c-30.667 29.333 -46 66.333 -46 111zM403.001 0.000976562h-219
v754h-82v196h224l77 -78v-872z" />
    <glyph glyph-name="j" unicode="j" horiz-adv-x="571" 
d="M137 1335c0 44 15.3359 81.334 46.0029 112.001c30 30.667 66.333 46 109 46s79.667 -15.333 111 -46c31.333 -31.333 47 -68.333 47 -111s-15.333 -79.334 -46 -110.001s-67.334 -46 -110.001 -46s-79.334 14.667 -110.001 44s-46.334 66.333 -47.001 111z
M209.003 -169.999v924h-127v196h268l78 -78v-1036c0 -124 -30.333 -215 -91 -273s-141.667 -87 -243 -87c-120 0 -217 54 -291 162l191 98c19.333 -28.667 48.333 -43 87 -43c38.667 -0.666992 69.667 11 93 35s35 58 35 102z" />
    <glyph glyph-name="k" unicode="k" horiz-adv-x="1091" 
d="M379 754v-316l254 316h-254zM383 0h-219v1462l72 74h147v-586h547v-127l-213 -260l375 -563h-250l-262 397l-197 -241v-156z" />
    <glyph glyph-name="l" unicode="l" horiz-adv-x="569" 
d="M377 1536v-1323h84v-213h-215l-92 94v1368l71 74h152z" />
    <glyph glyph-name="m" unicode="m" horiz-adv-x="1695" 
d="M406 614v-613.999h-220v754h-84v196h177l92 -92c88.667 74 185 111 289 111s185.667 -43 245 -129c92.667 86 197.334 129 314.001 129c94 -0.666992 173 -34.334 237 -101.001s96 -165 96 -295v-573h-219v573c0 62 -15 109.667 -45 143s-72 50 -126 50s-98 -15 -132 -45
s-51 -67.667 -51 -113v-608h-217v573c0 62 -15.333 109.667 -46 143s-72.334 50 -125.001 50s-96.667 -14.333 -132 -43s-53 -65 -53 -109z" />
    <glyph glyph-name="n" unicode="n" horiz-adv-x="1132" 
d="M989 573l0.000976562 -573h-221v573c0 59.333 -16 105 -48 137s-74.667 48 -128 48s-98 -14.667 -134 -44s-54.333 -66 -55 -110v-604h-219v754h-82v196h174l91 -88c88.667 70.667 181.667 106 279 106s178.666 -32.667 243.999 -98s98.333 -164.333 99 -297z" />
    <glyph glyph-name="o" unicode="o" horiz-adv-x="1136" 
d="M295 475c0.666992 -78 27 -145.333 79 -202s116.667 -85 194 -85s142.333 28.333 195 85s79 124 79 202s-26 145 -78 201s-117.333 84 -196 84s-144 -28 -196 -84s-77.667 -123 -77 -201zM72 475c0 139.333 48.667 257 146 353s214 143.667 350 143
c136 0.666992 252.667 -47 350 -143s146.333 -213.667 147 -353c0 -139.333 -48.667 -257 -146 -353c-98 -96 -215 -144 -351 -144s-252.667 48 -350 144s-146 213.667 -146 353z" />
    <glyph glyph-name="p" unicode="p" horiz-adv-x="1241" 
d="M666 188c78.667 0 145.335 27.667 200.002 83s82 123.333 82 204s-27.333 148.667 -82 204s-121.334 83 -200.001 83s-145 -27.667 -199 -83c-53.333 -55.333 -80 -123.333 -80 -204s26.667 -148.667 80 -204s119.666 -83 198.999 -83zM406.001 -512h-220v1266h-84v196
h181l106 -108c82 87.333 185 131 309 131c124 -0.666992 233.667 -49.667 329 -147c94.667 -97.333 142 -214.333 142 -351s-47.333 -253.667 -142 -351s-209.667 -146.333 -345 -147c-109.333 0 -201.333 37.667 -276 113v-602z" />
    <glyph glyph-name="q" unicode="q" horiz-adv-x="1218" 
d="M577 188c78 0 143.666 27.667 196.999 83s80 123.333 80 204s-26.667 148.667 -80 204s-119.333 83 -198 83s-145 -27.667 -199 -83c-54.667 -55.333 -82 -123.333 -82 -204s27.333 -148.667 82 -204s121.334 -83 200.001 -83zM1055 -512h-218.998v602
c-79.333 -75.333 -171 -113 -275 -113c-136.667 0.666992 -252.334 49.667 -347.001 147s-142 214.333 -142 351s47.333 253.667 142 351s209.667 146.333 345 147c105.333 0 197.666 -38.333 276.999 -115l92 92h127v-1462z" />
    <glyph glyph-name="r" unicode="r" horiz-adv-x="755" 
d="M406 586l0.000976562 -586h-220v754h-84v196h177l104 -104c57.333 82 136.666 123 237.999 123c32.667 0 64 -5 94 -15l-64 -229c-23.333 8 -52.333 12 -87 12s-69.667 -14.667 -105 -44s-53 -65 -53 -107z" />
    <glyph glyph-name="s" unicode="s" horiz-adv-x="983" 
d="M901 260c0.666992 -87.333 -40.999 -156.333 -124.999 -207s-176 -76 -276 -76c-100 0.666992 -187.333 21 -262 61c-75.333 40 -127.333 101.667 -156 185l205 62c10.667 -34 37.667 -59.667 81 -77c44 -17.333 89.333 -26 136 -26s86.667 8.33301 120 25s50 38 50 64
s-12.333 44.333 -37 55c-47.333 20.667 -102.333 40 -165 58s-109.334 34.333 -140.001 49s-64 33.667 -100 57c-70 48.667 -105 117 -105 205s36.667 156.333 110 205c74 48.667 152.333 73 235 73s156.334 -12.667 221.001 -38s113.667 -60 147 -104l-166 -116
c-53.333 43.333 -107.333 65 -162 65s-95.334 -8 -122.001 -24s-40 -37 -40 -63c0 -26.667 18.667 -49 56 -67c25.333 -12.667 85 -32.334 179 -59.001s170 -62.667 228 -108c58.667 -45.333 88 -111.666 88 -198.999z" />
    <glyph glyph-name="t" unicode="t" horiz-adv-x="626" 
d="M61 754v196h123v293l74 74h145v-367h152v-196h-152v-541h84v-213h-208l-95 94v660h-123z" />
    <glyph glyph-name="u" unicode="u" horiz-adv-x="1107" 
d="M555 -23c-114.667 0 -212 39.001 -292 117.001s-120 184.667 -120 320v536h224v-536c0 -72.667 17.667 -128.334 53 -167.001c35.333 -39.333 80.333 -59 135 -59s99.667 19.333 135 58s53 94.667 53 168v536h222v-536c0 -135.333 -39.667 -242 -119 -320
s-176.333 -117 -291 -117z" />
    <glyph glyph-name="v" unicode="v" horiz-adv-x="1046" 
d="M788 950h228l-365 -950h-254l-366 950h229l264 -717z" />
    <glyph glyph-name="w" unicode="w" horiz-adv-x="1388" 
d="M352 0l-321 950h229l232 -708l106 305l-147 403h184l59 -172l60 172h184l-150 -403l109 -307l231 710h230l-320 -950h-237l-107 289l-106 -289h-236z" />
    <glyph glyph-name="x" unicode="x" horiz-adv-x="997" 
d="M967 0h-256l-211 295l-213 -295h-256l340 475l-340 475h256l213 -297l211 297h256l-340 -475z" />
    <glyph glyph-name="y" unicode="y" horiz-adv-x="1073" 
d="M819 950h223l-518 -1462h-223l180 512h-90l-360 950h221l287 -743h22z" />
    <glyph glyph-name="z" unicode="z" horiz-adv-x="940" 
d="M858 209v-209h-776v166l479 588h-455v196h746v-168l-467 -573h473z" />
    <glyph glyph-name="braceleft" unicode="{" horiz-adv-x="501" 
d="M186 940l-0.00292969 556.999c0 68.667 18 123 54 163s81.667 60 137 60c22 0 43 -2.66699 63 -8l-8 -119c-2.66699 1.33301 -10.667 2 -24 2c-13.333 -0.666992 -26.666 -9.66699 -39.999 -27c-14.667 -17.333 -22 -41 -22 -71v-557c0 -56 -9.66699 -99.667 -29 -131
s-48 -57.333 -86 -78c38 -22 66.667 -48.667 86 -80s29 -74.333 29 -129v-557c0 -30 7.33301 -53.667 22 -71s28.334 -26.333 41.001 -27c12.667 0 20.334 0.666992 23.001 2l8 -119c-20.667 -5.33301 -41.667 -8 -63 -8c-54.667 0 -100 19.667 -136 59s-54.333 94 -55 164
v557c0 90 -31.333 140.667 -94 152v114c62.667 10.667 94 61.334 94 152.001z" />
    <glyph glyph-name="bar" unicode="|" horiz-adv-x="548" 
d="M195 -100v1634h159v-1634h-159z" />
    <glyph glyph-name="braceright" unicode="}" horiz-adv-x="501" 
d="M315 -35c0 -68.667 -17.998 -122.998 -53.998 -162.998s-81.333 -60 -136 -60c-22 0 -43.333 2.66699 -64 8l9 119c2.66699 -1.33301 10.667 -2 24 -2s26.666 9 39.999 27c14.667 18 22 41.667 22 71v557c0 54.667 9.33301 97.667 28 129c19.333 31.333 48 58 86 80
c-38 20.667 -66.667 46.667 -86 78s-28.666 75 -27.999 131v557c0 30 -7.33301 54 -22 72s-28.334 27 -41.001 27s-20.334 -1 -23.001 -3l-9 119c20.667 5.33301 42 8 64 8c54.667 0 100 -19.667 136 -59s54 -94 54 -164v-557
c0.666992 -90.667 32.334 -141.334 95.001 -152.001v-114c-62.667 -10.667 -94.334 -61.334 -95.001 -152.001v-557z" />
    <glyph glyph-name="asciitilde" unicode="~" horiz-adv-x="1046" 
d="M102 444c0 80 24.001 142 72.001 186s101.333 66 160 66s124.667 -16.333 198 -49s122.666 -49 147.999 -49c24 0 44 8 60 24s24 37.333 24 64h180c0 -74.667 -21 -136 -63 -184s-95.333 -72 -160 -72c-42 0 -105.667 16.667 -191 50s-147.333 50 -186 50
c-49.333 0 -74 -28.667 -74 -86h-168z" />
    <glyph glyph-name="exclamdown" unicode="&#xa1;" horiz-adv-x="663" 
d="M340 834c0 -41.333 -14 -76.665 -42 -105.998s-62.333 -44 -103 -44s-76 14.667 -106 44c-29.333 29.333 -44 64.666 -44 105.999s14.667 75.666 44 102.999c28.667 28 63.667 42 105 42s76 -14 104 -42s42 -62.333 42 -103zM309 549.001v-1061h-233v1061h233z" />
    <glyph glyph-name="cent" unicode="&#xa2;" horiz-adv-x="1030" 
d="M324 742c0 -57.333 15.667 -110.667 47 -160s73 -85 125 -107v533c-52 -22 -93.667 -57.333 -125 -106s-47 -102 -47 -160zM496 108.999l-0.000976562 144.997c-112 24.667 -205.667 82.334 -281 173.001s-113 195.334 -113 314.001c0 118 37.667 222.333 113 313
s169 148.334 281 173.001v155h159v-147c121.333 -13.333 212.333 -60.333 273 -141l-152 -154c-35.333 40.667 -75.666 67.334 -120.999 80.001v-559c46.667 13.333 87.667 41.333 123 84l170 -133c-82 -92.667 -179.667 -147.334 -293 -164.001v-139h-159z" />
    <glyph glyph-name="sterling" unicode="&#xa3;" horiz-adv-x="1136" 
d="M1075 301l-0.000976562 -301.001h-848l-98 96c44.667 161.333 67.334 322 68.001 482h-95v167h95v127c0 172 48 308.667 144 410s218 152 366 152c116 0 227.667 -29.333 335 -88l-88 -195c-77.333 44 -159.333 66 -246 66c-86.667 -0.666992 -157.667 -29.667 -213 -87
s-83 -146.666 -83 -267.999v-117h264v-167h-264c0 -82 -7 -171 -21 -267l-18 -121h483v111h219z" />
    <glyph glyph-name="currency" unicode="&#xa4;" horiz-adv-x="1198" 
d="M352 563c0 -66.667 24.667 -124.332 74 -172.999s107 -73 173 -73s123.333 24.667 172 74s73 107 73 173s-24.333 123.333 -73 172s-106 73 -172 73s-123.667 -24.333 -173 -73s-74 -106.334 -74 -173.001zM168 562.002c0 88 25.332 168.334 75.999 241.001l-142 135
l123 123l135 -143c72.667 50.667 151.667 76 237 76s165.666 -25.333 240.999 -76l135 143l123 -123l-144 -135c52 -71.333 78 -150.333 78 -237s-25.333 -167.334 -76 -242.001l142 -134l-123 -122l-133 139c-75.333 -50.667 -155.666 -76 -240.999 -76
s-165.666 25.333 -240.999 76l-133 -139l-123 122l142 134c-50.667 70.667 -76 150 -76 238z" />
    <glyph glyph-name="yen" unicode="&#xa5;" horiz-adv-x="1341" 
d="M223 563v170h273l-476 729h275l377 -612l375 612h274l-475 -729h266v-170h-324v-74h324v-163h-324v-326h-235v326h-330v163h330v74h-330z" />
    <glyph glyph-name="brokenbar" unicode="&#xa6;" horiz-adv-x="548" 
d="M354 1536v-627l-129 -129h-30v756h159zM354 653v-755h-159v626l129 129h30z" />
    <glyph glyph-name="section" unicode="&#xa7;" horiz-adv-x="1163" 
d="M342 684c0 -34 12.667 -64.333 38 -91s53.333 -48.334 84 -65.001c30.667 -17.333 74 -38.666 130 -63.999s99.667 -47.666 131 -66.999c27.333 8.66699 50.333 27 69 55s28 59.333 28 94s-13.333 65 -40 91c-26 26 -54.333 47 -85 63l-129 65
c-55.333 26.667 -98.666 48.667 -129.999 66c-26.667 -6.66699 -49.334 -24.334 -68.001 -53.001s-28 -60 -28 -94zM566 1536c96 0 183.667 -28.334 263 -85.001s127.333 -144.334 144 -263.001l-221 -25c-6.66699 50.667 -28 88.667 -64 114s-75.333 38 -118 38
s-78.667 -11.333 -108 -34c-29.333 -22 -44 -57 -44 -105s21.333 -91 64 -129s94.667 -70.333 156 -97l182 -84c60.667 -29.333 112.667 -66.666 156 -111.999c42.667 -45.333 64 -95.666 64 -150.999s-11.333 -103.666 -34 -144.999s-44.334 -71 -65.001 -89
c-21.333 -18 -49 -39.333 -83 -64c70.667 -64 106 -149.333 106 -256s-36.333 -192.334 -109 -257.001c-74 -64.667 -163 -97 -267 -97s-194.667 32 -272 96s-115.666 148.667 -114.999 254c0 56 18.333 106 55 150l203 -58c-20.667 -23.333 -31 -54.333 -31 -93
s16.333 -71.334 49 -98.001c32.667 -25.333 69.667 -38 111 -38h4c44 1.33301 80.667 14.333 110 39s43.666 61 42.999 109c0 48 -21.333 90.667 -64 128c-43.333 38.667 -95.333 71.334 -156 98.001l-182 83c-60.667 28.667 -112.667 65.667 -156 111
s-64.666 99 -63.999 161c-0.666992 121.333 63.333 214 192 278c-78 58 -117 143.667 -117 257s37.333 202.333 112 267s160 97 256 97z" />
    <glyph glyph-name="dieresis" unicode="&#xa8;" horiz-adv-x="1054" 
d="M160 1266c0 40.667 14 75.667 42 105s62.333 44 103 44s75.667 -14.667 105 -44s44.333 -64.333 45 -105c0 -40 -14.667 -74.667 -44 -104c-28.667 -29.333 -63.667 -44 -105 -44s-76 14.667 -104 44s-42 64 -42 104zM600 1266c0 40.667 14 75.667 42 105
s62.333 44 103 44s75.667 -14.667 105 -44s44.333 -64.333 45 -105c0 -40 -14.667 -74.667 -44 -104c-28.667 -29.333 -63.667 -44 -105 -44s-76 14.667 -104 44s-42 64 -42 104z" />
    <glyph glyph-name="copyright" unicode="&#xa9;" horiz-adv-x="1646" 
d="M847 496c59.333 0 109.999 24.334 151.999 73.001l140 -110c-82 -91.333 -177.667 -137 -287 -137s-204.666 40 -285.999 120s-122 176 -122 288c0 112.667 40 209 120 289s176 120 288 120c54.667 0 107 -10.667 157 -32s87.667 -50.333 113 -87l-125 -127
c-36.667 48 -85.667 72 -147 72s-114 -23.333 -158 -70s-66 -101.334 -66 -164.001s22 -117.667 66 -165c44 -46.667 95.667 -70 155 -70zM251.999 731.001c0 -156.667 55.666 -290.999 166.999 -402.999s246.333 -168 405 -168s293.334 56 404.001 168
c111.333 112 167 246.667 167 404s-55.667 291.666 -167 402.999c-111.333 112 -246.333 168 -405 168c-159.333 0 -294.333 -56 -405 -168s-166 -246.667 -166 -404zM91.998 731.002c0 202 71.333 374.333 214 517s315 214 517 214s374.333 -71.333 517 -214
s214 -315 214 -517s-71.333 -374.333 -214 -517s-315 -214 -517 -214s-374.333 71.333 -517 214s-214 315 -214 517z" />
    <glyph glyph-name="ordfeminine" unicode="&#xaa;" horiz-adv-x="888" 
d="M408 866c94 0 140.999 53.333 140.999 160h-158c-32.667 0 -58.667 -8 -78 -24s-29 -34.667 -29 -56s10.667 -40 32 -56c20.667 -16 51.334 -24 92.001 -24zM738.999 1247l-0.000976562 -347.999h68v-188h-158l-55 55c-45.333 -48 -113.666 -72 -204.999 -72
s-165.333 23 -222 69s-85 103.333 -85 172s22 126.667 66 174c44.667 47.333 127.667 71.666 249 72.999h146v35c0 26 -11 46.333 -33 61s-49.333 22 -82 22c-58.667 0 -98.334 -23.667 -119.001 -71l-176 96c45.333 106.667 144.333 160 297 160
c84.667 -0.666992 157.334 -21 218.001 -61s91 -99 91 -177z" />
    <glyph glyph-name="guillemotleft" unicode="&#xab;" horiz-adv-x="1097" 
d="M578 92h-154l-363 424l363 424h154v-68l-246 -356l246 -356v-68zM1016 92h-154l-362 424l362 424h154v-68l-246 -356l246 -356v-68z" />
    <glyph glyph-name="logicalnot" unicode="&#xac;" horiz-adv-x="1347" 
d="M82 698v197h1163v-518h-196v321h-967z" />
    <glyph glyph-name="registered" unicode="&#xae;" horiz-adv-x="1646" 
d="M252 731c0 -156.667 55.666 -290.999 166.999 -402.999s246.333 -168 405 -168s293.334 56 404.001 168c111.333 112 167 246.667 167 404s-55.667 291.666 -167 402.999c-111.333 112 -246.333 168 -405 168c-159.333 0 -294.333 -56 -405 -168s-166 -246.667 -166 -404
zM91.999 731.001c0 202 71.333 374.333 214 517s315 214 517 214s374.333 -71.333 517 -214s214 -315 214 -517s-71.333 -374.333 -214 -517s-315 -214 -517 -214s-374.333 71.333 -517 214s-214 315 -214 517zM876.999 977.001h-187v-225h187c36.667 0 67.667 10.667 93 32
s38 48 38 80c0 32.667 -12.667 59.667 -38 81s-56.333 32 -93 32zM1167 858.001c0 -105.333 -43 -181.001 -129 -227.001l129 -269v-51h-151l-129 283h-197v-283h-160v819h324c108 0 187.333 -26.333 238 -79c50 -53.333 75 -117.666 75 -192.999z" />
    <glyph glyph-name="macron" unicode="&#xaf;" horiz-adv-x="1452" 
d="M440 1630v164h576v-164h-576z" />
    <glyph glyph-name="degree" unicode="&#xb0;" horiz-adv-x="679" 
d="M215 1164c0 -33.333 12.333 -62.333 37 -87s53.667 -37 87 -37s62.333 12.333 87 37s37 53.667 37 87s-12.333 62.333 -37 87s-53.667 37 -87 37s-62.333 -12.333 -87 -37s-37 -53.667 -37 -87zM41 1164c0 81.333 29.667 151.333 89 210s129.333 88 210 88
s150.667 -29.333 210 -88s89 -128.667 89 -210s-29.667 -151.666 -89 -210.999s-129.333 -89 -210 -89s-150.667 29.667 -210 89s-89 129.666 -89 210.999z" />
    <glyph glyph-name="plusminus" unicode="&#xb1;" horiz-adv-x="1011" 
d="M61 0v197h889v-197h-889zM61 662v196h347v338h196v-338h346v-196h-346v-340h-196v340h-347z" />
    <glyph glyph-name="twosuperior" unicode="&#xb2;" horiz-adv-x="608" 
d="M290 1425c78.667 -0.666992 141.331 -24.332 187.998 -70.999s70.334 -101.334 71.001 -164.001c0 -62.667 -30.667 -129 -92 -199l-166 -188h260v-150h-494v121l262 287c48 52 72 91.333 72 118c0.666992 27.333 -7.66602 50.333 -24.999 69s-42.333 28 -75 28
s-56.667 -8.33301 -72 -25s-23 -39 -23 -67s9.66699 -51.333 29 -70l-102 -104c-54.667 41.333 -82 97.333 -82 168s21.667 129.667 65 177c44 46.667 105.333 70 184 70z" />
    <glyph glyph-name="threesuperior" unicode="&#xb3;" horiz-adv-x="628" 
d="M308 799c30.667 0.666992 57 11.002 79 31.002s33 43 33 69s-11 48.667 -33 68s-49.333 29 -82 29s-58.667 -3 -78 -9l-45 105l168 184h-239v143h432v-129l-168 -178c56 -2.66699 105 -25.334 147 -68.001c42.667 -42.667 64 -99.334 64 -170.001
c0 -72 -26.667 -128.667 -80 -170s-123 -62.333 -209 -63c-52.667 0 -101 12 -145 36s-75 53 -93 87l107 102c12 -20.667 31 -37 57 -49s54.333 -18 85 -18z" />
    <glyph glyph-name="acute" unicode="&#xb4;" horiz-adv-x="1075" 
d="M612 1493c4 0 17.999 -3.66699 41.999 -11s42.667 -22 56 -44s20.333 -44.667 21 -68c0 -53.333 -19.667 -89.333 -59 -108l-328 -168l-74 73l244 279c24.667 31.333 57.334 47 98.001 47z" />
    <glyph glyph-name="mu" unicode="&#xb5;" horiz-adv-x="1150" 
d="M143 -512l0.000976562 1462h224v-536c0 -72.667 17.667 -128.334 53 -167.001c35.333 -39.333 80.333 -59 135 -59s99.667 19.333 135 58s53 94.667 53 168v536h222v-737h84v-213h-166l-84 84c-62.667 -70.667 -144 -106.334 -244 -107.001
c-66.667 0 -129.334 20 -188.001 60v-549h-224z" />
    <glyph glyph-name="paragraph" unicode="&#xb6;" horiz-adv-x="1089" 
d="M733 -254v1716h275v-141h-125v-1575h-150zM61 1067c0 108 38.999 201.001 116.999 279.001s171 116.667 279 116h149v-1716h-149v928c-109.333 0 -202.666 38.667 -279.999 116s-116 169.666 -116 276.999z" />
    <glyph glyph-name="middot" unicode="&#xb7;" horiz-adv-x="468" 
d="M234 356c-45.333 0 -83.333 15.667 -114 47s-46 69.333 -46 114s15.667 83 47 115s69 48 113 48s82 -16 114 -48c31.333 -32 47 -70.333 47 -115s-15.667 -82.667 -47 -114s-69.333 -47 -114 -47z" />
    <glyph glyph-name="cedilla" unicode="&#xb8;" horiz-adv-x="620" 
d="M530 -298c0 -62.667 -24.667 -116.666 -74 -161.999c-49.333 -44 -108 -66 -176 -66c-66.667 0 -122.667 15 -168 45s-73.666 73.667 -84.999 131c0.666992 0 23.667 8 69 24s70.666 26.333 75.999 31c12 -44 40.667 -65.667 86 -65c22.667 0 42 6 58 18s24 28.333 24 49
c0 52 -30 78 -90 78l-29 -2l-61 96l22 191h203l-43 -150c53.333 -5.33301 98 -27.333 134 -66s54 -89.334 54 -152.001z" />
    <glyph glyph-name="onesuperior" unicode="&#xb9;" horiz-adv-x="540" 
d="M113 1276v143h252v-622h81v-144h-352v144h94v479h-75z" />
    <glyph glyph-name="ordmasculine" unicode="&#xba;" horiz-adv-x="956" 
d="M479 870c58.667 0 108.334 21.999 149.001 65.999c40 44 60 95.667 60 155s-20 110.333 -60 153s-89.333 64.334 -148 65.001c-58.667 0 -108.334 -21.667 -149.001 -65c-40.667 -42.667 -61 -94 -61 -154s20 -111.667 60 -155s89.667 -65 149 -65zM82 1090
c0 110.667 38.666 204 115.999 280s170.666 114.333 279.999 115c108.667 0 202 -38.333 280 -115c77.333 -76 116 -169.333 116 -280s-38.667 -204.334 -116 -281.001s-170.666 -115 -279.999 -115s-202.666 38.333 -279.999 115s-116 170.334 -116 281.001z" />
    <glyph glyph-name="guillemotright" unicode="&#xbb;" horiz-adv-x="1097" 
d="M520 940h154l362 -424l-362 -424h-154v68l246 356l-246 356v68zM82 940h154l362 -424l-362 -424h-154v68l246 356l-246 356v68z" />
    <glyph glyph-name="onequarter" unicode="&#xbc;" horiz-adv-x="1429" 
d="M113 1276v143h252v-622h81v-144h-352v144h94v479h-75zM92 0v20l1090 1442h178v-22l-1090 -1440h-178zM1073 238v337l-235 -337h235zM1073 0v115h-432v75l412 576h192v-528h70v-123h-70v-115h-172z" />
    <glyph glyph-name="onehalf" unicode="&#xbd;" horiz-adv-x="1431" 
d="M113 1276v143h252v-622h81v-144h-352v144h94v479h-75zM905 525c-0.666992 71.333 20.998 130.332 64.998 176.999s105.333 70 184 70s141.334 -23.667 188.001 -71s70.334 -102.333 71.001 -165c0 -62.667 -30.667 -128.667 -92 -198l-166 -188h260v-150h-493v121
l262 287c48 52 72 91.333 72 118s-8.66699 49.334 -26 68.001c-17.333 19.333 -42.333 29 -75 29s-56.667 -8.33301 -72 -25c-15.333 -16 -23 -38 -23 -66s10 -51.667 30 -71l-103 -105c-54.667 42 -82 98.333 -82 169zM91.998 -0.000976562v20l1090 1442h178v-22
l-1090 -1440h-178z" />
    <glyph glyph-name="threequarters" unicode="&#xbe;" horiz-adv-x="1437" 
d="M302 799c30.667 0.666992 57 11.002 79 31.002s33 43 33 69s-11 48.667 -33 68s-49.333 29 -82 29s-58.667 -3 -78 -9l-45 105l168 184h-240v143h433v-129l-168 -178c56 -2.66699 105 -25.334 147 -68.001c42.667 -42.667 64 -99.334 64 -170.001
c0 -72 -26.667 -128.667 -80 -170s-123 -62.333 -209 -63c-53.333 0 -102 12 -146 36s-74.667 53 -92 87l107 102c12 -20.667 31 -37 57 -49s54.333 -18 85 -18zM127 0.00195312v20l1090 1442h178v-22l-1090 -1440h-178zM1108 238.002v337l-236 -337h236zM1108 0.00195312
v115h-432v75l411 576h193v-528h70v-123h-70v-115h-172z" />
    <glyph glyph-name="questiondown" unicode="&#xbf;" horiz-adv-x="993" 
d="M575 852c0 -40.667 -13.667 -75.998 -41 -105.998c-28 -29.333 -62.667 -44 -104 -44s-76.333 14.667 -105 44c-29.333 29.333 -44 64.666 -44 105.999s14.667 75.666 44 102.999c29.333 28 64.333 42 105 42s75 -14 103 -42s42 -62.333 42 -103zM375 -523.998
c-114.667 0 -209.667 35.333 -285 106s-113 156.667 -113 258s39.667 200.666 119 297.999l98 120c80 98 119.667 201 119 309h234c0 -74 -11.333 -142.667 -34 -206s-50 -116.333 -82 -159s-64 -83 -96 -121c-77.333 -90 -116 -167 -116 -231c0 -44 14 -81.333 42 -112
s66.333 -46.334 115 -47.001c48.667 0 88 16 118 48s45 69 45 111s-19.333 86.667 -58 134l156 153c44.667 -31.333 79 -74.666 103 -129.999s36 -107.666 36 -156.999c0 -108 -38 -197.333 -114 -268s-171.667 -106 -287 -106z" />
    <glyph glyph-name="Agrave" unicode="&#xc0;" 
d="M766 1221l-258 -674h516zM911 1462l580 -1462h-256l-125 326h-688l-125 -326h-256l580 1462h290zM537 1828c0 54 25.668 90.332 77.001 108.999c23.333 6.66699 37.666 10.334 42.999 11.001c40.667 0 73.667 -15.667 99 -47l241 -279l-71 -74
c-198 102.667 -307.333 158.667 -328 168c-40.667 20.667 -61 58 -61 112z" />
    <glyph glyph-name="Aacute" unicode="&#xc1;" 
d="M877 1948c5.33301 0 19.668 -4.00098 43.001 -12.001s41.666 -22.667 54.999 -44c13.333 -22 20 -44.333 20 -67c0 -53.333 -19.667 -89.666 -59 -108.999l-328 -168l-73 74c15.333 16.667 96.333 109.667 243 279c24.667 31.333 57.667 47 99 47zM766.002 1221
l-258 -674h516zM911.002 1462l580 -1462h-256l-125 326h-688l-125 -326h-256l580 1462h290z" />
    <glyph glyph-name="Acircumflex" unicode="&#xc2;" 
d="M575 1550l-96 60l197 305h180l197 -305l-97 -60l-190 222zM766 1221l-258 -674h516zM911 1462l580 -1462h-256l-125 326h-688l-125 -326h-256l580 1462h290z" />
    <glyph glyph-name="Atilde" unicode="&#xc3;" 
d="M592 1722c-28 0 -50.999 -5.66797 -68.999 -17.001c-18.667 -11.333 -30.667 -23.333 -36 -36l-6 -18l-104 71c3.33301 13.333 12.666 32.333 27.999 57c49.333 80.667 122 122 218 124c39.333 0 94 -14.667 164 -44s119 -44 147 -44s50.667 5.66699 68 17
c18.667 11.333 31.334 23.333 38.001 36l13 16l108 -61c-4 -14.667 -13.333 -35 -28 -61c-50.667 -85.333 -120.334 -128.666 -209.001 -129.999c-45.333 0 -105 15 -179 45s-125 45 -153 45zM766.001 1221l-258 -674h516zM911.001 1462l580 -1462h-256l-125 326h-688
l-125 -326h-256l580 1462h290z" />
    <glyph glyph-name="Adieresis" unicode="&#xc4;" 
d="M399 1749c0 40.667 14.0029 75.667 42.0029 105c27.333 29.333 61.666 44 102.999 44s76.666 -14.667 105.999 -44s44 -64.333 44 -105s-14.667 -75.334 -44 -104.001s-64.333 -43 -105 -43s-75.334 14.333 -104.001 43c-28 28.667 -42 63.334 -42 104.001zM840.003 1749
c0 40.667 14 75.667 42 105s62.333 44 103 44s75.667 -14.667 105 -44s44.333 -64.333 45 -105c0 -40.667 -14.667 -75.334 -44 -104.001c-28.667 -28.667 -63.667 -43 -105 -43s-76 14.333 -104 43s-42 63.334 -42 104.001zM766.003 1221l-258 -674h516zM911.003 1462
l580 -1462h-256l-125 326h-688l-125 -326h-256l580 1462h290z" />
    <glyph glyph-name="Aring" unicode="&#xc5;" 
d="M657 1570c0 -29.333 10.667 -54.666 32 -75.999s47 -32 77 -32s55.667 10.667 77 32c20.667 21.333 31 46.666 31 75.999s-10.333 54.666 -31 75.999c-21.333 21.333 -47 32 -77 32s-55.667 -10.667 -77 -32s-32 -46.666 -32 -75.999zM766 1221l-260 -674h518zM530 1569
c0 64 23.333 119.333 70 166c46.667 46 102 69 166 69s119.333 -23.333 166 -70s70 -101 70 -163c0 -62.667 -22.667 -118 -68 -166l557 -1405h-256l-125 326h-688l-125 -326h-256l557 1405c-45.333 45.333 -68 100 -68 164z" />
    <glyph glyph-name="AE" unicode="&#xc6;" horiz-adv-x="1888" 
d="M723 1210l-225 -618h450zM1776 1462v-221h-828l137 -373h646v-221h-564l156 -424h453v-223h-611l-135 369h-614l-135 -369h-240l537 1462h1198z" />
    <glyph glyph-name="Ccedilla" unicode="&#xc7;" horiz-adv-x="1449" 
d="M836 1493c201.333 0 374.002 -70.3301 518.002 -210.997l-176 -152c-92.667 90.667 -207.334 136 -344.001 136c-136 0 -252 -52.667 -348 -158s-144 -230.333 -144 -375s47.667 -270.334 143 -377.001s215 -160 359 -160s262.667 52 356 156l178 -145
c-121.333 -132.667 -272.666 -209.334 -453.999 -230.001l-17 -57c53.333 -5.33301 98 -27.333 134 -66c36.667 -38.667 55 -89.334 55 -152.001s-25 -116.667 -75 -162c-50 -44 -108.333 -66 -175 -66s-122.667 15 -168 45s-74 73.667 -86 131
c1.33301 0 24.666 8 69.999 24s70.333 26.333 75 31c12 -44 40.667 -65.667 86 -65c22 0 41.333 6 58 18c16 12 24 28.333 24 49c0 52 -30 78 -90 78l-29 -2l-61 96l10 101c-180 24 -332 106.667 -456 248c-124.667 141.333 -187 314 -187 518s73.667 379.667 221 527
c147.333 146.667 321.666 220 522.999 220z" />
    <glyph glyph-name="Egrave" unicode="&#xc8;" horiz-adv-x="1349" 
d="M905 1622l-71 -74.001c-198 102.667 -307.333 158.667 -328 168c-41.333 20.667 -62 58 -62 112s26 90.333 78 109c24.667 6.66699 39 10.334 43 11.001c40.667 0 73.667 -15.667 99 -47zM184 -0.000976562v1462h1053v-221h-823v-373h778v-221h-778v-424h823v-223h-1053z
" />
    <glyph glyph-name="Eacute" unicode="&#xc9;" horiz-adv-x="1349" 
d="M184 0v1462h1053v-221h-823v-373h778v-221h-778v-424h823v-223h-1053zM786 1948c5.33301 0 19.667 -4.00098 43 -12.001s41.666 -22.667 54.999 -44c13.333 -22 20.333 -44.333 21 -67c0 -53.333 -19.667 -89.666 -59 -108.999l-328 -168l-74 74l244 279
c24.667 31.333 57.334 47 98.001 47z" />
    <glyph glyph-name="Ecircumflex" unicode="&#xca;" horiz-adv-x="1349" 
d="M485 1550l-96 60l197 305h180l197 -305l-97 -60l-190 222zM184 0v1462h1053v-221h-823v-373h778v-221h-778v-424h823v-223h-1053z" />
    <glyph glyph-name="Edieresis" unicode="&#xcb;" horiz-adv-x="1349" 
d="M352 1749c0 40.667 14.001 75.667 42.001 105s62.667 44 104 44s76.333 -14.667 105 -44c29.333 -29.333 44 -64.333 44 -105s-14.667 -75.334 -44 -104.001s-64.333 -43 -105 -43s-75.334 14.333 -104.001 43c-28 28.667 -42 63.334 -42 104.001zM793.001 1749
c0 40.667 14 75.667 42 105s62.333 44 103 44s75.667 -14.667 105 -44s44 -64.333 44 -105s-14.667 -75.334 -44 -104.001s-64.333 -43 -105 -43s-75 14.333 -103 43s-42 63.334 -42 104.001zM184.001 0v1462h1053v-221h-823v-373h778v-221h-778v-424h823v-223h-1053z" />
    <glyph glyph-name="Igrave" unicode="&#xcc;" horiz-adv-x="645" 
d="M551 1622l-72.001 -74.001c-198 102.667 -307 158.667 -327 168c-41.333 20.667 -62 58 -62 112s26 90.333 78 109c24.667 6.66699 39 10.334 43 11.001c40.667 0 73.334 -15.667 98.001 -47zM204.999 -0.000976562v1462h235v-1462h-235z" />
    <glyph glyph-name="Iacute" unicode="&#xcd;" horiz-adv-x="645" 
d="M438 1948c5.33301 0 19.667 -4.00098 43 -12.001s41.666 -22.667 54.999 -44c13.333 -22 20.333 -44.333 21 -67c0 -53.333 -19.667 -89.666 -59 -108.999l-328 -168l-74 74l244 279c24.667 31.333 57.334 47 98.001 47zM205.001 -0.000976562v1462h235v-1462h-235z" />
    <glyph glyph-name="Icircumflex" unicode="&#xce;" horiz-adv-x="645" 
d="M133 1550l-96 60l196 305h181l196 -305l-96 -60l-190 222zM205 0v1462h235v-1462h-235z" />
    <glyph glyph-name="Idieresis" unicode="&#xcf;" horiz-adv-x="645" 
d="M-41 1749c0 40.667 13.999 75.667 41.999 105s62.333 44 103 44c41.333 0 76.666 -14.667 105.999 -44s44 -64.333 44 -105s-14.667 -75.334 -44 -104.001s-64.666 -43 -105.999 -43s-75.666 14.333 -102.999 43c-28 28.667 -42 63.334 -42 104.001zM398.999 1749
c0 40.667 14.0029 75.667 42.0029 105c27.333 29.333 61.666 44 102.999 44s76.666 -14.667 105.999 -44s44 -64.333 44 -105s-14.667 -75.334 -44 -104.001s-64.333 -43 -105 -43s-75.334 14.333 -104.001 43c-28 28.667 -42 63.334 -42 104.001zM205.002 0v1462h235v-1462
h-235z" />
    <glyph glyph-name="Eth" unicode="&#xd0;" horiz-adv-x="1443" 
d="M694 664h-277.999v-441h233c123.333 0 229.666 35.667 318.999 107c46 36.667 82 89 108 157c26.667 67.333 40 148.333 40 243c0 186 -49.333 320.667 -148 404c-88 71.333 -194.333 107 -319 107h-233v-395h278v-182zM55.001 664v182h131v616h478
c124 0 237.333 -26.667 340 -80s186 -136 250 -248s96.667 -246.333 98 -403c0 -231.333 -66.333 -411 -199 -539s-295.667 -192 -489 -192h-478v664h-131z" />
    <glyph glyph-name="Ntilde" unicode="&#xd1;" horiz-adv-x="1630" 
d="M184 0v1462h281l747 -1140v1140h234v-1462h-303l-723 1104v-1104h-236zM630 1722c-28 0 -51.334 -5.66797 -70.001 -17.001s-30.667 -23.333 -36 -36l-6 -18l-104 71c3.33301 12.667 12.333 31.667 27 57c15.333 24.667 31.333 45 48 61s40.334 30.333 71.001 43
s64.667 19 102 19s91.333 -14.333 162 -43c70.667 -29.333 119.334 -44 146.001 -44c28 0 51.333 5.66699 70 17s31 23.333 37 36l13 16l108 -61c-4 -14.667 -13.333 -35 -28 -61c-50.667 -85.333 -120.334 -128.666 -209.001 -129.999c-45.333 0 -105 15 -179 45
c-73.333 30 -124 45 -152 45z" />
    <glyph glyph-name="Ograve" unicode="&#xd2;" horiz-adv-x="1712" 
d="M625 1828c0 54 25.668 90.332 77.001 108.999c23.333 6.66699 37.666 10.334 42.999 11.001c40.667 0 73.667 -15.667 99 -47l241 -279l-71 -74c-198 102.667 -307.333 158.667 -328 168c-40.667 20.667 -61 58 -61 112zM856.001 196.999c147.333 0 270 52.333 368 157
c97.333 105.333 146 231 146 377s-48.667 271.667 -146 377s-220 158 -368 158s-270.667 -52.667 -368 -158s-146 -231 -146 -377s48.667 -271.667 146 -377c98 -104.667 220.667 -157 368 -157zM856.001 1493c210.667 0 390.667 -73 540 -219s224 -327 224 -543
s-74.667 -396.667 -224 -542s-329.333 -218 -540 -218s-390.667 72.667 -540 218s-224 326 -224 542s74.667 397 224 543c150 146 330 219 540 219z" />
    <glyph glyph-name="Oacute" unicode="&#xd3;" horiz-adv-x="1712" 
d="M967 1948c5.33301 0 19.668 -4.00098 43.001 -12.001s41.666 -22.667 54.999 -44c13.333 -22 20 -44.333 20 -67c0 -53.333 -19.667 -89.666 -59 -108.999l-328 -168l-73 74c15.333 16.667 96.333 109.667 243 279c24.667 31.333 57.667 47 99 47zM856.002 196.999
c147.333 0 270 52.333 368 157c97.333 105.333 146 231 146 377s-48.667 271.667 -146 377s-220 158 -368 158s-270.667 -52.667 -368 -158s-146 -231 -146 -377s48.667 -271.667 146 -377c98 -104.667 220.667 -157 368 -157zM856.002 1493c210.667 0 390.667 -73 540 -219
s224 -327 224 -543s-74.667 -396.667 -224 -542s-329.333 -218 -540 -218s-390.667 72.667 -540 218s-224 326 -224 542s74.667 397 224 543c150 146 330 219 540 219z" />
    <glyph glyph-name="Ocircumflex" unicode="&#xd4;" horiz-adv-x="1712" 
d="M666 1550l-97 60l197 305h180l197 -305l-96 -60l-191 222zM856 197c147.333 0 270 52.333 368 157c97.333 105.333 146 231 146 377s-48.667 271.667 -146 377s-220 158 -368 158s-270.667 -52.667 -368 -158s-146 -231 -146 -377s48.667 -271.667 146 -377
c98 -104.667 220.667 -157 368 -157zM856 1493c210.667 0 390.667 -73 540 -219s224 -327 224 -543s-74.667 -396.667 -224 -542s-329.333 -218 -540 -218s-390.667 72.667 -540 218s-224 326 -224 542s74.667 397 224 543c150 146 330 219 540 219z" />
    <glyph glyph-name="Otilde" unicode="&#xd5;" horiz-adv-x="1712" 
d="M680 1722c-27.333 0 -50.333 -5.66699 -69 -17s-29.667 -23.333 -33 -36l-9 -18l-104 71c3.33301 13.333 12.666 32.333 27.999 57c49.333 80.667 122 122 218 124c39.333 0 94.333 -14.667 165 -44s119.334 -44 146.001 -44c27.333 0 50.333 5.66699 69 17
s31.667 23.333 39 36l11 16l108 -61c-3.33301 -14 -13.666 -36 -30.999 -66c-46.667 -82 -118 -123.667 -214 -125c-40 0 -97.333 15 -172 45s-125.334 45 -152.001 45zM856 197c147.333 0 270 52.333 368 157c97.333 105.333 146 231 146 377s-48.667 271.667 -146 377
s-220 158 -368 158s-270.667 -52.667 -368 -158s-146 -231 -146 -377s48.667 -271.667 146 -377c98 -104.667 220.667 -157 368 -157zM856 1493c210.667 0 390.667 -73 540 -219s224 -327 224 -543s-74.667 -396.667 -224 -542s-329.333 -218 -540 -218
s-390.667 72.667 -540 218s-224 326 -224 542s74.667 397 224 543c150 146 330 219 540 219z" />
    <glyph glyph-name="Odieresis" unicode="&#xd6;" horiz-adv-x="1712" 
d="M487 1749c0 40.667 14.0029 75.667 42.0029 105c27.333 29.333 61.666 44 102.999 44s76.666 -14.667 105.999 -44s44 -64.333 44 -105s-14.667 -75.334 -44 -104.001s-64.333 -43 -105 -43s-75.334 14.333 -104.001 43c-28 28.667 -42 63.334 -42 104.001zM928.003 1749
c0 40.667 14 75.667 42 105s62.333 44 103 44s75.667 -14.667 105 -44s44.333 -64.333 45 -105c0 -40.667 -14.667 -75.334 -44 -104.001c-28.667 -28.667 -63.667 -43 -105 -43s-76 14.333 -104 43s-42 63.334 -42 104.001zM856.003 197c147.333 0 270 52.333 368 157
c97.333 105.333 146 231 146 377s-48.667 271.667 -146 377s-220 158 -368 158s-270.667 -52.667 -368 -158s-146 -231 -146 -377s48.667 -271.667 146 -377c98 -104.667 220.667 -157 368 -157zM856.003 1493c210.667 0 390.667 -73 540 -219s224 -327 224 -543
s-74.667 -396.667 -224 -542s-329.333 -218 -540 -218s-390.667 72.667 -540 218s-224 326 -224 542s74.667 397 224 543c150 146 330 219 540 219z" />
    <glyph glyph-name="multiply" unicode="&#xd7;" horiz-adv-x="970" 
d="M733 1053l135 -133l-250 -250l250 -250l-133 -133l-250 248l-249 -248l-134 133l248 250l-248 250l134 133l249 -250z" />
    <glyph glyph-name="Oslash" unicode="&#xd8;" horiz-adv-x="1712" 
d="M856 197c147.333 0 270 52.333 368 157c97.333 105.333 146 227.333 146 366s-40.333 257.667 -121 357l-678 -794c83.333 -57.333 178.333 -86 285 -86zM342 739c0 -140.667 42.333 -262.001 127 -364.001l682 796c-86 62.667 -184.333 94.334 -295 95.001
c-148 0 -270.667 -52.667 -368 -158s-146 -228.333 -146 -369zM856 1493c165.333 0 314.333 -46.999 447 -140.999l94 110h182l-172 -200c142 -146 213 -325 213 -537s-74.667 -390.667 -224 -536s-329.333 -218 -540 -218c-162.667 0 -308 44.333 -436 133l-88 -104h-182
l163 193c-147.333 147.333 -221 327.666 -221 540.999s74.667 393.333 224 540c150 146 330 219 540 219z" />
    <glyph glyph-name="Ugrave" unicode="&#xd9;" horiz-adv-x="1509" 
d="M985 1622l-72.001 -74.001c-198 102.667 -307 158.667 -327 168c-41.333 20.667 -62 58 -62 112s26 90.333 78 109c24.667 6.66699 39 10.334 43 11.001c40.667 0 73.334 -15.667 98.001 -47zM1100 593.999v868h225v-872c0 -203.333 -52 -357.333 -156 -462
c-103.333 -104.667 -241 -157 -413 -157s-310.333 52.333 -415 157s-157 258.667 -157 462v872h228v-868c0 -134 32.667 -233.667 98 -299s147.333 -98 246 -98s180.667 32.667 246 98s98 165 98 299z" />
    <glyph glyph-name="Uacute" unicode="&#xda;" horiz-adv-x="1509" 
d="M868 1948c5.33301 0 19.667 -4.00098 43 -12.001s41.666 -22.667 54.999 -44c13.333 -22 20.333 -44.333 21 -67c0 -53.333 -19.667 -89.666 -59 -108.999l-328 -168l-74 74l244 279c24.667 31.333 57.334 47 98.001 47zM1100 593.999v868h225v-872
c0 -203.333 -52 -357.333 -156 -462c-103.333 -104.667 -241 -157 -413 -157s-310.333 52.333 -415 157s-157 258.667 -157 462v872h228v-868c0 -134 32.667 -233.667 98 -299s147.333 -98 246 -98s180.667 32.667 246 98s98 165 98 299z" />
    <glyph glyph-name="Ucircumflex" unicode="&#xdb;" horiz-adv-x="1509" 
d="M565 1550l-96 60l197 305h180l196 -305l-96 -60l-190 222zM1100 594v868h225v-872c0 -203.333 -52 -357.333 -156 -462c-103.333 -104.667 -241 -157 -413 -157s-310.333 52.333 -415 157s-157 258.667 -157 462v872h228v-868c0 -134 32.667 -233.667 98 -299
s147.333 -98 246 -98s180.667 32.667 246 98s98 165 98 299z" />
    <glyph glyph-name="Udieresis" unicode="&#xdc;" horiz-adv-x="1509" 
d="M389 1749c0 40.667 14.0029 75.667 42.0029 105c27.333 29.333 61.666 44 102.999 44s76.666 -14.667 105.999 -44s44 -64.333 44 -105s-14.667 -75.334 -44 -104.001s-64.333 -43 -105 -43s-75.334 14.333 -104.001 43c-28 28.667 -42 63.334 -42 104.001zM829.003 1749
c0 40.667 14.0029 75.667 42.0029 105c27.333 29.333 61.666 44 102.999 44s76.666 -14.667 105.999 -44s44 -64.333 44 -105s-14.667 -75.334 -44 -104.001s-64.333 -43 -105 -43s-75.334 14.333 -104.001 43c-28 28.667 -42 63.334 -42 104.001zM1100.01 594v868h225v-872
c0 -203.333 -52 -357.333 -156 -462c-103.333 -104.667 -241 -157 -413 -157s-310.333 52.333 -415 157s-157 258.667 -157 462v872h228v-868c0 -134 32.667 -233.667 98 -299s147.333 -98 246 -98s180.667 32.667 246 98s98 165 98 299z" />
    <glyph glyph-name="Yacute" unicode="&#xdd;" horiz-adv-x="1341" 
d="M553 0v610l-533 852h275l377 -612l375 612h274l-533 -852v-610h-235zM782 1948c5.33301 0 19.667 -4.00098 43 -12.001s41.666 -22.667 54.999 -44c13.333 -22 20.333 -44.333 21 -67c0 -53.333 -19.667 -89.666 -59 -108.999l-328 -168l-74 74l244 279
c24.667 31.333 57.334 47 98.001 47z" />
    <glyph glyph-name="Thorn" unicode="&#xde;" horiz-adv-x="1286" 
d="M696 928l-280 -0.000976562v-408h280c82 0 148.667 16.333 200 49s77 80.334 77 143.001s-22.667 114.667 -68 156c-45.333 40 -115 60 -209 60zM184 -0.000976562v1462h232v-313h295c83.333 0 157.333 -13 222 -39c64.667 -26.667 115 -61.334 151 -104.001
c73.333 -87.333 110 -187 110 -299s-42 -208.333 -126 -289s-203 -121 -357 -121h-295v-297h-232z" />
    <glyph glyph-name="germandbls" unicode="&#xdf;" horiz-adv-x="1181" 
d="M408 1133l0.00488281 -183.002h628v-180l-217 -227c83.333 -16.667 152.666 -47 207.999 -91s83 -108.333 83 -193c0 -84 -37.333 -152 -112 -204s-160.334 -78 -257.001 -78c-62.667 0 -125.334 12.333 -188.001 37l51 179c52 -11.333 97.333 -17 136 -17s74 9 106 27
c32.667 18 49 42.333 49 73c0.666992 30.667 -20.333 57.667 -63 81c-42.667 24 -105 36 -187 36l-51 172l176 189h-364v-754h-220v754h-110v196h110v183c0 130 40.667 231.667 122 305s172 110 272 110s186 -24.667 258 -74c72.667 -49.333 121.667 -118 147 -206l-176 -86
c-15.333 50.667 -42.333 89.334 -81 116.001s-82.334 40.334 -131.001 41.001c-48.667 0 -92.334 -18 -131.001 -54s-58 -86.667 -58 -152z" />
    <glyph glyph-name="agrave" unicode="&#xe0;" horiz-adv-x="1103" 
d="M301 1374c0 53.333 25.999 89.668 77.999 109.001c24.667 6.66699 39 10 43 10c40.667 0 73.334 -15.667 98.001 -47l242 -279l-72 -73c-198 102.667 -307.333 158.667 -328 168c-40.667 21.333 -61 58.666 -61 111.999zM499.999 162.002c72 0 126 26 162 78
c35.333 52 53 111.333 53 178h-246c-62.667 0 -106.667 -12.333 -132 -37s-38 -54 -38 -88s15.667 -64.333 47 -91c30.667 -26.667 82 -40 154 -40zM919.999 674.002v-461.002h81v-213h-163l-88 88c-62.667 -74 -152 -111 -268 -111c-116 -0.666992 -210 28.333 -282 87
s-108 136.334 -108 233.001c0 142.667 74 234 222 274c50 13.333 107.667 20.333 173 21h218v55c0.666992 40.667 -18.333 73.334 -57 98.001s-82.667 37 -132 37c-86 0 -144.667 -31.333 -176 -94l-184 84c56 134 180 201 372 201c108 0 200.333 -25.333 277 -76
s115 -125 115 -223z" />
    <glyph glyph-name="aacute" unicode="&#xe1;" horiz-adv-x="1103" 
d="M645 1493c4 0 17.999 -3.66699 41.999 -11s42.667 -22 56 -44s20.333 -44.667 21 -68c0 -53.333 -19.667 -89.333 -59 -108l-328 -168l-74 73l244 279c24.667 31.333 57.334 47 98.001 47zM499.999 162c72 0 126 26 162 78c35.333 52 53 111.333 53 178h-246
c-62.667 0 -106.667 -12.333 -132 -37s-38 -54 -38 -88s15.667 -64.333 47 -91c30.667 -26.667 82 -40 154 -40zM919.999 674v-461.002h81v-213h-163l-88 88c-62.667 -74 -152 -111 -268 -111c-116 -0.666992 -210 28.333 -282 87s-108 136.334 -108 233.001
c0 142.667 74 234 222 274c50 13.333 107.667 20.333 173 21h218v55c0.666992 40.667 -18.333 73.334 -57 98.001s-82.667 37 -132 37c-86 0 -144.667 -31.333 -176 -94l-184 84c56 134 180 201 372 201c108 0 200.333 -25.333 277 -76s115 -125 115 -223z" />
    <glyph glyph-name="acircumflex" unicode="&#xe2;" horiz-adv-x="1103" 
d="M342 1098l-96 59l196 305h181l196 -305l-96 -59l-191 221zM500 162c72 0 126 26 162 78c35.333 52 53 111.333 53 178h-246c-62.667 0 -106.667 -12.333 -132 -37s-38 -54 -38 -88s15.667 -64.333 47 -91c30.667 -26.667 82 -40 154 -40zM920 674v-461.002h81v-213h-163
l-88 88c-62.667 -74 -152 -111 -268 -111c-116 -0.666992 -210 28.333 -282 87s-108 136.334 -108 233.001c0 142.667 74 234 222 274c50 13.333 107.667 20.333 173 21h218v55c0.666992 40.667 -18.333 73.334 -57 98.001s-82.667 37 -132 37
c-86 0 -144.667 -31.333 -176 -94l-184 84c56 134 180 201 372 201c108 0 200.333 -25.333 277 -76s115 -125 115 -223z" />
    <glyph glyph-name="atilde" unicode="&#xe3;" horiz-adv-x="1103" 
d="M359 1210c-27.333 0 -50.335 -5.66699 -69.002 -17s-30.667 -23.333 -36 -36l-6 -18l-105 71c2.66699 10.667 11.667 29 27 55c16 26 32.333 47 49 63s40.334 30.333 71.001 43s64.667 19 102 19s91.333 -14.333 162 -43c70.667 -29.333 119.334 -44 146.001 -44
c28 0 51.333 5.66699 70 17s31 23.333 37 36l12 16l109 -61c-4 -14.667 -14.667 -36.667 -32 -66c-46.667 -82 -118 -123.667 -214 -125c-40 0 -96.667 15 -170 45s-124.333 45 -153 45zM499.998 162c72 0 126 26 162 78c35.333 52 53 111.333 53 178h-246
c-62.667 0 -106.667 -12.333 -132 -37s-38 -54 -38 -88s15.667 -64.333 47 -91c30.667 -26.667 82 -40 154 -40zM919.998 674v-461.002h81v-213h-163l-88 88c-62.667 -74 -152 -111 -268 -111c-116 -0.666992 -210 28.333 -282 87s-108 136.334 -108 233.001
c0 142.667 74 234 222 274c50 13.333 107.667 20.333 173 21h218v55c0.666992 40.667 -18.333 73.334 -57 98.001s-82.667 37 -132 37c-86 0 -144.667 -31.333 -176 -94l-184 84c56 134 180 201 372 201c108 0 200.333 -25.333 277 -76s115 -125 115 -223z" />
    <glyph glyph-name="adieresis" unicode="&#xe4;" horiz-adv-x="1103" 
d="M172 1266c0 40.667 14 75.667 42 105s62.333 44 103 44s75.667 -14.667 105 -44s44.333 -64.333 45 -105c0 -40 -14.667 -74.667 -44 -104c-28.667 -29.333 -63.667 -44 -105 -44s-76 14.667 -104 44s-42 64 -42 104zM612 1266c0 40.667 14.001 75.667 42.001 105
s62.667 44 104 44s76.333 -14.667 105 -44c29.333 -29.333 44 -64.333 44 -105c0 -40 -14.667 -74.667 -44 -104s-64.333 -44 -105 -44s-75.334 14.333 -104.001 43c-28 29.333 -42 64.333 -42 105zM500.001 162c72 0 126 26 162 78c35.333 52 53 111.333 53 178h-246
c-62.667 0 -106.667 -12.333 -132 -37s-38 -54 -38 -88s15.667 -64.333 47 -91c30.667 -26.667 82 -40 154 -40zM920.001 674v-461.002h81v-213h-163l-88 88c-62.667 -74 -152 -111 -268 -111c-116 -0.666992 -210 28.333 -282 87s-108 136.334 -108 233.001
c0 142.667 74 234 222 274c50 13.333 107.667 20.333 173 21h218v55c0.666992 40.667 -18.333 73.334 -57 98.001s-82.667 37 -132 37c-86 0 -144.667 -31.333 -176 -94l-184 84c56 134 180 201 372 201c108 0 200.333 -25.333 277 -76s115 -125 115 -223z" />
    <glyph glyph-name="aring" unicode="&#xe5;" horiz-adv-x="1103" 
d="M420 1305c0 -28.667 10.667 -53.334 32 -74.001s46 -31 74 -31s53 10.333 75 31c21.333 20.667 32 45.334 32 74.001s-10.667 53.667 -32 75s-46.333 31.666 -75 30.999c-28 0.666992 -52.667 -9.66602 -74 -30.999s-32 -46.333 -32 -75zM297 1305
c0 62 23 115.667 69 161c46.667 45.333 100.667 68 162 68s115 -22.667 161 -68s69 -99.333 69 -162s-23 -116.667 -69 -162c-46 -46 -100 -69 -162 -69s-115.667 23 -161 69s-68.333 100.333 -69 163zM500 162c72 0 126 26 162 78c35.333 52 53 111.333 53 178h-246
c-62.667 0 -106.667 -12.333 -132 -37s-38 -54 -38 -88s15.667 -64.333 47 -91c30.667 -26.667 82 -40 154 -40zM920 674v-461.002h81v-213h-163l-88 88c-62.667 -74 -152 -111 -268 -111c-116 -0.666992 -210 28.333 -282 87s-108 136.334 -108 233.001
c0 142.667 74 234 222 274c50 13.333 107.667 20.333 173 21h218v55c0.666992 40.667 -18.333 73.334 -57 98.001s-82.667 37 -132 37c-86 0 -144.667 -31.333 -176 -94l-184 84c56 134 180 201 372 201c108 0 200.333 -25.333 277 -76s115 -125 115 -223z" />
    <glyph glyph-name="ae" unicode="&#xe6;" horiz-adv-x="1642" 
d="M1136 778c-58 0 -109 -17.3311 -153 -51.998s-71.333 -79.334 -82 -134.001h463c-6.66699 53.333 -32 97.666 -76 132.999s-94.667 53 -152 53zM500 162.002c72 0 126 26 162 78c35.333 52 53 111.333 53 178h-246c-62.667 0 -106.667 -12.333 -132 -37s-38 -54 -38 -88
s15.667 -64.333 47 -91c30.667 -26.667 82 -40 154 -40zM1120 182.002c101.333 0 180.003 44.3301 236.003 132.997l180 -98c-41.333 -69.333 -96 -126.666 -164 -171.999s-138.667 -68 -212 -68s-141.333 14 -204 42c-64 28 -115.667 62 -155 102
c-76.667 -95.333 -178.334 -143 -305.001 -143s-225.334 28.667 -296.001 86c-72 58.667 -108 136.334 -108 233.001c0 142.667 74 234 222 274c50 13.333 107.667 20.333 173 21h218v55c0.666992 40.667 -18.333 73.334 -57 98.001s-82.667 37 -132 37
c-86 0 -144.667 -31.333 -176 -94l-184 84c56 134 180 201 372 201c138 0 242.667 -36.333 314 -109c85.333 72.667 188 109 308 109s221.333 -46.667 304 -140s125 -205 127 -335l-80 -80h-610c5.33301 -69.333 31.666 -126 78.999 -170c46.667 -44 96.667 -66 150 -66z
" />
    <glyph glyph-name="ccedilla" unicode="&#xe7;" horiz-adv-x="968" 
d="M72 475c0 138 48.6719 255.33 146.005 351.997s213.666 145.334 348.999 146.001c66 0 129.667 -13 191 -39s107.666 -61.667 138.999 -107l-152 -153c-47.333 58.667 -108.333 88 -183 88s-138 -28.333 -190 -85s-78.333 -123.667 -79 -201
c0 -77.333 26.333 -144.666 79 -201.999s115 -86 187 -86s135 30.333 189 91l170 -134c-80.667 -91.333 -176.334 -145 -287.001 -161l-17 -64c53.333 -5.33301 98 -27.333 134 -66s54.333 -89.334 55 -152.001c0 -62.667 -25 -116.667 -75 -162
c-50 -44 -108.333 -66 -175 -66s-122.667 15 -168 45s-74 73.667 -86 131c1.33301 0 24.666 8 69.999 24s70.333 26.333 75 31c12 -44 40.667 -65.667 86 -65c22 0 41.333 6 58 18c16 12 24 28.333 24 49c0 52 -30 78 -90 78l-28 -2l-62 96l12 115
c-106.667 28.667 -195.334 87.334 -266.001 176.001s-106 190.334 -106 305.001z" />
    <glyph glyph-name="egrave" unicode="&#xe8;" horiz-adv-x="1044" 
d="M424 1493c40.667 0 73.334 -15.665 98.001 -46.998l242 -279l-72 -73c-198 102.667 -307 158.667 -327 168c-40.667 21.333 -61 58.666 -61 111.999s25.667 89.666 77 108.999c23.333 6.66699 37.666 10 42.999 10zM538 778.002
c-58 0 -108.998 -17.3311 -152.998 -51.998s-71.333 -79.334 -82 -134.001h461c-6.66699 53.333 -31.334 97.666 -74.001 132.999s-93.334 53 -152.001 53zM522.002 182.004c101.333 0 180.002 44.332 236.002 132.999l180 -98c-41.333 -69.333 -96 -126.666 -164 -171.999
s-146.333 -68 -235 -68c-134 0.666992 -245.333 49.667 -334 147s-133 214 -133 350s44.333 253 133 351s198.667 147 330 147s237.666 -46.333 318.999 -139c81.333 -93.333 124.333 -205 129 -335l-82 -80h-608c5.33301 -69.333 31.666 -126 78.999 -170
c46.667 -44 96.667 -66 150 -66z" />
    <glyph glyph-name="eacute" unicode="&#xe9;" horiz-adv-x="1044" 
d="M631 1493c5.33301 0 19.668 -3.66699 43.001 -11s41.666 -22 54.999 -44s20.333 -44.667 21 -68c0 -53.333 -20 -89.333 -60 -108l-328 -168l-73 73c15.333 16.667 96.333 109.667 243 279c24.667 31.333 57.667 47 99 47zM538.002 778
c-58 0 -108.998 -17.3311 -152.998 -51.998s-71.333 -79.334 -82 -134.001h461c-6.66699 53.333 -31.334 97.666 -74.001 132.999s-93.334 53 -152.001 53zM522.004 182.002c101.333 0 180.002 44.332 236.002 132.999l180 -98c-41.333 -69.333 -96 -126.666 -164 -171.999
s-146.333 -68 -235 -68c-134 0.666992 -245.333 49.667 -334 147s-133 214 -133 350s44.333 253 133 351s198.667 147 330 147s237.666 -46.333 318.999 -139c81.333 -93.333 124.333 -205 129 -335l-82 -80h-608c5.33301 -69.333 31.666 -126 78.999 -170
c46.667 -44 96.667 -66 150 -66z" />
    <glyph glyph-name="ecircumflex" unicode="&#xea;" horiz-adv-x="1044" 
d="M319 1098l-96 59l197 305h180l197 -305l-97 -59l-190 221zM538 778c-58 0 -108.998 -17.3311 -152.998 -51.998s-71.333 -79.334 -82 -134.001h461c-6.66699 53.333 -31.334 97.666 -74.001 132.999s-93.334 53 -152.001 53zM522.002 182.002
c101.333 0 180.002 44.332 236.002 132.999l180 -98c-41.333 -69.333 -96 -126.666 -164 -171.999s-146.333 -68 -235 -68c-134 0.666992 -245.333 49.667 -334 147s-133 214 -133 350s44.333 253 133 351s198.667 147 330 147s237.666 -46.333 318.999 -139
c81.333 -93.333 124.333 -205 129 -335l-82 -80h-608c5.33301 -69.333 31.666 -126 78.999 -170c46.667 -44 96.667 -66 150 -66z" />
    <glyph glyph-name="edieresis" unicode="&#xeb;" horiz-adv-x="1044" 
d="M178 1266c0 40.667 14.001 75.667 42.001 105s62.667 44 104 44s76.333 -14.667 105 -44c29.333 -29.333 44 -64.333 44 -105c0 -40 -14.667 -74.667 -44 -104s-64.333 -44 -105 -44s-75.334 14.333 -104.001 43c-28 29.333 -42 64.333 -42 105zM618.001 1266
c0 40.667 14.001 75.667 42.001 105s62.667 44 104 44s76.333 -14.667 105 -44c29.333 -29.333 44 -64.333 44 -105c0 -40 -14.667 -74.667 -44 -104s-64.333 -44 -105 -44s-75.334 14.333 -104.001 43c-28 29.333 -42 64.333 -42 105zM538.002 778
c-58 0 -108.998 -17.3311 -152.998 -51.998s-71.333 -79.334 -82 -134.001h461c-6.66699 53.333 -31.334 97.666 -74.001 132.999s-93.334 53 -152.001 53zM522.004 182.002c101.333 0 180.002 44.332 236.002 132.999l180 -98c-41.333 -69.333 -96 -126.666 -164 -171.999
s-146.333 -68 -235 -68c-134 0.666992 -245.333 49.667 -334 147s-133 214 -133 350s44.333 253 133 351s198.667 147 330 147s237.666 -46.333 318.999 -139c81.333 -93.333 124.333 -205 129 -335l-82 -80h-608c5.33301 -69.333 31.666 -126 78.999 -170
c46.667 -44 96.667 -66 150 -66z" />
    <glyph glyph-name="igrave" unicode="&#xec;" horiz-adv-x="546" 
d="M403 0h-219v754h-84v196h226l77 -78v-872zM129 1493c40.667 0 73.333 -15.665 98 -46.998l242 -279l-72 -73c-198 102.667 -307 158.667 -327 168c-41.333 21.333 -62 58.666 -62 111.999s26 89.666 78 108.999c24.667 6.66699 39 10 43 10z" />
    <glyph glyph-name="iacute" unicode="&#xed;" horiz-adv-x="546" 
d="M403 0h-219v754h-84v196h226l77 -78v-872zM350 1493c4 0 17.999 -3.66699 41.999 -11s42.667 -22 56 -44s20.333 -44.667 21 -68c0 -53.333 -19.667 -89.333 -59 -108l-328 -168l-74 73l244 279c24.667 31.333 57.334 47 98.001 47z" />
    <glyph glyph-name="icircumflex" unicode="&#xee;" horiz-adv-x="546" 
d="M403 0h-219v754h-84v196h226l77 -78v-872zM49 1098l-96 59l197 305h180l196 -305l-96 -59l-190 221z" />
    <glyph glyph-name="idieresis" unicode="&#xef;" horiz-adv-x="546" 
d="M403 0h-219v754h-84v196h226l77 -78v-872zM-84 1266c0 40.667 14 75.667 42 105s62.333 44 103 44s75.667 -14.667 105 -44s44.333 -64.333 45 -105c0 -40 -14.667 -74.667 -44 -104c-28.667 -29.333 -63.667 -44 -105 -44s-76 14.667 -104 44s-42 64 -42 104zM356 1266
c0 40.667 14.001 75.667 42.001 105s62.667 44 104 44s76.333 -14.667 105 -44c29.333 -29.333 44 -64.333 44 -105c0 -40 -14.667 -74.667 -44 -104s-64.333 -44 -105 -44s-75.334 14.333 -104.001 43c-28 29.333 -42 64.333 -42 105z" />
    <glyph glyph-name="eth" unicode="&#xf0;" horiz-adv-x="1136" 
d="M295 475c0.666992 -78 27 -145.333 79 -202s116.667 -85 194 -85s142.333 28.333 195 85s79 124 79 202s-26 145 -78 201s-117.333 84 -196 84s-144 -28 -196 -84s-77.667 -123 -77 -201zM1065 475c0 -139.333 -48.667 -256.999 -146 -352.999
c-98 -96 -215 -144 -351 -144s-252.667 48 -350 144s-146 213.667 -146 353s49 256.666 147 351.999s216.667 143.333 356 144l-83 135l-175 -111l-81 135l174 109l-156 254h274l80 -131l170 104l82 -133l-170 -104l275 -445c66.667 -109.333 100 -212.333 100 -309z" />
    <glyph glyph-name="ntilde" unicode="&#xf1;" horiz-adv-x="1134" 
d="M380 1210c-26.667 0 -49.333 -5.66699 -68 -17s-29.667 -23.333 -33 -36l-9 -18l-104 71c3.33301 13.333 12.666 32.333 27.999 57c49.333 80.667 122 122 218 124c38.667 0 93.334 -14.667 164.001 -44s119.667 -44 147 -44s50.333 5.66699 69 17s31.667 23.333 39 36
l11 16l108 -61c-3.33301 -14 -12.666 -34 -27.999 -60c-49.333 -85.333 -119 -129 -209 -131c-46.667 0 -107 15 -181 45c-74.667 30 -125.334 45 -152.001 45zM991.001 0h-223.001v573c0 59.333 -15.667 105 -47 137s-73.666 48 -126.999 48s-98 -14.667 -134 -44
s-54 -66 -54 -110v-604h-220v754h-84v196h177l88 -88c88.667 70.667 182 106 280 106s179.667 -32.667 245 -98s98.333 -164.333 99 -297v-573z" />
    <glyph glyph-name="ograve" unicode="&#xf2;" horiz-adv-x="1136" 
d="M336 1374c0 53.333 26 89.668 78 109.001c23.333 6.66699 37.666 10 42.999 10c40.667 0 73.334 -15.667 98.001 -47l242 -279l-72 -73c-198 102.667 -307.333 158.667 -328 168c-40.667 21.333 -61 58.666 -61 111.999zM295 475.002c0.666992 -78 27 -145.333 79 -202
s116.667 -85 194 -85s142.333 28.333 195 85s79 124 79 202s-26 145 -78 201s-117.333 84 -196 84s-144 -28 -196 -84s-77.667 -123 -77 -201zM72 475.002c0 139.333 48.667 257 146 353s214 143.667 350 143c136 0.666992 252.667 -47 350 -143s146.333 -213.667 147 -353
c0 -139.333 -48.667 -257 -146 -353c-98 -96 -215 -144 -351 -144s-252.667 48 -350 144s-146 213.667 -146 353z" />
    <glyph glyph-name="oacute" unicode="&#xf3;" horiz-adv-x="1136" 
d="M680 1493c5.33301 0 19.667 -3.66699 43 -11s41.666 -22 54.999 -44s20.333 -44.667 21 -68c0 -53.333 -20 -89.333 -60 -108l-327 -168l-74 73l244 279c24.667 31.333 57.334 47 98.001 47zM295.001 475c0.666992 -78 27 -145.333 79 -202s116.667 -85 194 -85
s142.333 28.333 195 85s79 124 79 202s-26 145 -78 201s-117.333 84 -196 84s-144 -28 -196 -84s-77.667 -123 -77 -201zM72.001 475c0 139.333 48.667 257 146 353s214 143.667 350 143c136 0.666992 252.667 -47 350 -143s146.333 -213.667 147 -353
c0 -139.333 -48.667 -257 -146 -353c-98 -96 -215 -144 -351 -144s-252.667 48 -350 144s-146 213.667 -146 353z" />
    <glyph glyph-name="ocircumflex" unicode="&#xf4;" horiz-adv-x="1136" 
d="M377 1098l-96 59l196 305h180l197 -305l-96 -59l-191 221zM295 475c0.666992 -78 27 -145.333 79 -202s116.667 -85 194 -85s142.333 28.333 195 85s79 124 79 202s-26 145 -78 201s-117.333 84 -196 84s-144 -28 -196 -84s-77.667 -123 -77 -201zM72 475
c0 139.333 48.667 257 146 353s214 143.667 350 143c136 0.666992 252.667 -47 350 -143s146.333 -213.667 147 -353c0 -139.333 -48.667 -257 -146 -353c-98 -96 -215 -144 -351 -144s-252.667 48 -350 144s-146 213.667 -146 353z" />
    <glyph glyph-name="otilde" unicode="&#xf5;" horiz-adv-x="1136" 
d="M752 1303c38.667 0 72.6631 23.001 101.996 69.001l109 -61c-3.33301 -12 -12.666 -31.667 -27.999 -59c-50 -86.667 -115.333 -130.334 -196 -131.001c-56.667 -0.666992 -121.667 14 -195 44s-123.666 45 -150.999 45s-50.333 -5.66699 -69 -17
s-29.667 -23.333 -33 -36l-8 -18l-105 71c3.33301 13.333 14 34.333 32 63c46 76.667 118.333 115.667 217 117c36.667 0 90.334 -14.333 161.001 -43c70.667 -29.333 125.334 -44 164.001 -44zM294.996 475.001c0.666992 -78 27 -145.333 79 -202s116.667 -85 194 -85
s142.333 28.333 195 85s79 124 79 202s-26 145 -78 201s-117.333 84 -196 84s-144 -28 -196 -84s-77.667 -123 -77 -201zM71.9961 475.001c0 139.333 48.667 257 146 353s214 143.667 350 143c136 0.666992 252.667 -47 350 -143s146.333 -213.667 147 -353
c0 -139.333 -48.667 -257 -146 -353c-98 -96 -215 -144 -351 -144s-252.667 48 -350 144s-146 213.667 -146 353z" />
    <glyph glyph-name="odieresis" unicode="&#xf6;" horiz-adv-x="1136" 
d="M199 1266c0 40.667 13.999 75.667 41.999 105s62.333 44 103 44c41.333 0 76.666 -14.667 105.999 -44s44 -64.333 44 -105c0 -40 -14.667 -74.667 -44 -104s-64.666 -44 -105.999 -44s-75.666 14.667 -102.999 44c-28 29.333 -42 64 -42 104zM638.999 1266
c0 40.667 13.999 75.667 41.999 105s62.333 44 103 44c41.333 0 76.666 -14.667 105.999 -44s44 -64.333 44 -105c0 -40 -14.667 -74.667 -44 -104s-64.666 -44 -105.999 -44s-75.666 14.667 -102.999 44c-28 29.333 -42 64 -42 104zM294.998 475
c0.666992 -78 27 -145.333 79 -202s116.667 -85 194 -85s142.333 28.333 195 85s79 124 79 202s-26 145 -78 201s-117.333 84 -196 84s-144 -28 -196 -84s-77.667 -123 -77 -201zM71.998 475c0 139.333 48.667 257 146 353s214 143.667 350 143
c136 0.666992 252.667 -47 350 -143s146.333 -213.667 147 -353c0 -139.333 -48.667 -257 -146 -353c-98 -96 -215 -144 -351 -144s-252.667 48 -350 144s-146 213.667 -146 353z" />
    <glyph glyph-name="divide" unicode="&#xf7;" horiz-adv-x="1093" 
d="M102 485v199h889v-199h-889zM395 911c0 42 14.333 77.668 43 107.001c28 29.333 63.333 44.333 106 45c42.667 0 78.667 -14.667 108 -44c29.333 -28.667 44 -64.334 44 -107.001s-14.667 -78.667 -44 -108s-65 -44 -107 -44s-77.667 14.667 -107 44
c-28.667 29.333 -43 65 -43 107zM395 257.001c0 42 14.332 77.666 42.999 106.999c28 29.333 63.333 44 106 44s78.667 -14.667 108 -44s44 -64.666 44 -105.999s-14.667 -77 -44 -107s-65 -45 -107 -45s-77.667 14.667 -107 44s-43.666 65 -42.999 107z" />
    <glyph glyph-name="oslash" unicode="&#xf8;" horiz-adv-x="1136" 
d="M569 760c-79.333 0 -145 -28 -197 -84s-77.667 -118 -77 -186c0 -68 15 -126.333 45 -175l352 414c-36.667 20.667 -77.667 31 -123 31zM569 188c76.667 0 141.333 28.334 194 85.001s79 119.667 79 189s-15.667 127.666 -47 174.999l-355 -416
c40.667 -22 83.667 -33 129 -33zM568.999 971.001c96.667 0 185 -26 265 -78l47 57h182l-125 -145c84.667 -94 127 -207.333 127 -340s-48.667 -247 -146 -343s-214 -144.333 -350 -145c-96.667 0 -186 26 -268 78l-47 -55h-182l125 145c-83.333 94 -125 207.333 -125 340
s48.667 247 146 343s214.333 143.667 351 143z" />
    <glyph glyph-name="ugrave" unicode="&#xf9;" horiz-adv-x="1107" 
d="M324 1374c0 53.333 25.667 89.668 77 109.001c24.667 6.66699 39 10 43 10c40.667 0 73.667 -15.667 99 -47l241 -279l-71 -73c-198 102.667 -307.333 158.667 -328 168c-40.667 21.333 -61 58.666 -61 111.999zM555 -22.998c-114.667 0 -212 39.001 -292 117.001
s-120 184.667 -120 320v536h224v-536c0 -72.667 17.667 -128.334 53 -167.001c35.333 -39.333 80.333 -59 135 -59s99.667 19.333 135 58s53 94.667 53 168v536h222v-536c0 -135.333 -39.667 -242 -119 -320s-176.333 -117 -291 -117z" />
    <glyph glyph-name="uacute" unicode="&#xfa;" horiz-adv-x="1107" 
d="M666 1493c4 0 18 -3.66699 42 -11s42.667 -22 56 -44s20 -44.667 20 -68c0 -53.333 -19.667 -89.333 -59 -108l-328 -168l-73 73c15.333 16.667 96.333 109.667 243 279c24.667 31.333 57.667 47 99 47zM555 -23c-114.667 0 -212 39.001 -292 117.001
s-120 184.667 -120 320v536h224v-536c0 -72.667 17.667 -128.334 53 -167.001c35.333 -39.333 80.333 -59 135 -59s99.667 19.333 135 58s53 94.667 53 168v536h222v-536c0 -135.333 -39.667 -242 -119 -320s-176.333 -117 -291 -117z" />
    <glyph glyph-name="ucircumflex" unicode="&#xfb;" horiz-adv-x="1107" 
d="M365 1098l-97 59l197 305h180l197 -305l-97 -59l-190 221zM555 -23c-114.667 0 -212 39.001 -292 117.001s-120 184.667 -120 320v536h224v-536c0 -72.667 17.667 -128.334 53 -167.001c35.333 -39.333 80.333 -59 135 -59s99.667 19.333 135 58s53 94.667 53 168v536
h222v-536c0 -135.333 -39.667 -242 -119 -320s-176.333 -117 -291 -117z" />
    <glyph glyph-name="udieresis" unicode="&#xfc;" horiz-adv-x="1107" 
d="M197 1266c0 40.667 13.999 75.667 41.999 105s62.333 44 103 44s75.667 -14.667 105 -44c30 -29.333 45 -64.333 45 -105c0 -40 -14.667 -74.667 -44 -104s-64.666 -44 -105.999 -44c-40.667 0 -75 14.667 -103 44s-42 64 -42 104zM636.999 1266
c0 40.667 13.999 75.667 41.999 105s62.333 44 103 44c41.333 0 76.666 -14.667 105.999 -44s44 -64.333 44 -105c0 -40 -14.667 -74.667 -44 -104s-64.666 -44 -105.999 -44s-75.666 14.667 -102.999 44c-28 29.333 -42 64 -42 104zM554.998 -23
c-114.667 0 -212 39.001 -292 117.001s-120 184.667 -120 320v536h224v-536c0 -72.667 17.667 -128.334 53 -167.001c35.333 -39.333 80.333 -59 135 -59s99.667 19.333 135 58s53 94.667 53 168v536h222v-536c0 -135.333 -39.667 -242 -119 -320s-176.333 -117 -291 -117z
" />
    <glyph glyph-name="yacute" unicode="&#xfd;" horiz-adv-x="1073" 
d="M680 1493c5.33301 0 19.667 -3.66699 43 -11s41.666 -22 54.999 -44s20.333 -44.667 21 -68c0 -53.333 -20 -89.333 -60 -108l-327 -168l-74 73l244 279c24.667 31.333 57.334 47 98.001 47zM819.001 950h223l-518 -1462h-223l180 512h-90l-360 950h221l287 -743h22z" />
    <glyph glyph-name="thorn" unicode="&#xfe;" horiz-adv-x="1239" 
d="M643 188c79.333 0 146.333 27.667 201 83s82 123.333 82 204s-27.333 148.667 -82 204s-121.667 83 -201 83s-145.666 -27.667 -198.999 -83s-80 -123.333 -80 -204s26.667 -148.667 80 -204s119.666 -83 198.999 -83zM383 -512h-219.001v1974l74 74h145v-678
c76.667 76.667 168.667 115 276 115c135.333 -0.666992 250.333 -49.667 345 -147s142.334 -214.333 143.001 -351c0 -136.667 -47.333 -253.667 -142 -351s-210 -146.333 -346 -147c-109.333 0 -201.333 37.667 -276 113v-602z" />
    <glyph glyph-name="ydieresis" unicode="&#xff;" horiz-adv-x="1073" 
d="M819 950h223l-518 -1462h-223l180 512h-90l-360 950h221l287 -743h22zM158 1266c0 40.667 14.667 76 44 106s64 45 104 45s74.667 -15 104 -45s44.333 -65.333 45 -106c0 -40 -14.667 -74.667 -44 -104c-30 -29.333 -65 -44 -105 -44s-74.667 14.667 -104 44
s-44 64 -44 104zM598 1266c0 40.667 14.667 76 44 106s64 45 104 45s74.667 -15 104 -45s44.333 -65.333 45 -106c0 -40 -14.667 -74.667 -44 -104c-30 -29.333 -65 -44 -105 -44s-74.667 14.667 -104 44s-44 64 -44 104z" />
    <glyph glyph-name="Amacron" unicode="&#x100;" 
d="M479 1630v164h576v-164h-576zM766 1221l-258 -674h516zM911 1462l580 -1462h-256l-125 326h-688l-125 -326h-256l580 1462h290z" />
    <glyph glyph-name="amacron" unicode="&#x101;" horiz-adv-x="1103" 
d="M246 1167v164h575v-164h-575zM500 162c72 0 126 26 162 78c35.333 52 53 111.333 53 178h-246c-62.667 0 -106.667 -12.333 -132 -37s-38 -54 -38 -88s15.667 -64.333 47 -91c30.667 -26.667 82 -40 154 -40zM920 674v-461.002h81v-213h-163l-88 88
c-62.667 -74 -152 -111 -268 -111c-116 -0.666992 -210 28.333 -282 87s-108 136.334 -108 233.001c0 142.667 74 234 222 274c50 13.333 107.667 20.333 173 21h218v55c0.666992 40.667 -18.333 73.334 -57 98.001s-82.667 37 -132 37c-86 0 -144.667 -31.333 -176 -94
l-184 84c56 134 180 201 372 201c108 0 200.333 -25.333 277 -76s115 -125 115 -223z" />
    <glyph glyph-name="Abreve" unicode="&#x102;" 
d="M502 1763l164.001 0.000976562c0 -23.333 10 -42.333 30 -57s43.333 -22.334 70 -23.001c27.333 0 50.666 7.66699 69.999 23s28.666 34.333 27.999 57h166c0 -62.667 -25.667 -114 -77 -154c-51.333 -40.667 -113.666 -61 -186.999 -61s-136 20 -188 60
c-50.667 40 -76 91.667 -76 155zM766.001 1221l-258 -674h516zM911.001 1462l580 -1462h-256l-125 326h-688l-125 -326h-256l580 1462h290z" />
    <glyph glyph-name="abreve" unicode="&#x103;" horiz-adv-x="1103" 
d="M276 1331l163.998 0.000976562c0 -23.333 10 -42.333 30 -57s43.667 -22.334 71 -23.001c27.333 0 50.333 7.66699 69 23s28.334 34.333 29.001 57h166c0 -62.667 -25.667 -114 -77 -154c-52 -40.667 -114.667 -61 -188 -61s-135.666 20 -186.999 60s-77 91.667 -77 155z
M499.998 162.001c72 0 126 26 162 78c35.333 52 53 111.333 53 178h-246c-62.667 0 -106.667 -12.333 -132 -37s-38 -54 -38 -88s15.667 -64.333 47 -91c30.667 -26.667 82 -40 154 -40zM919.998 674.001v-461.002h81v-213h-163l-88 88c-62.667 -74 -152 -111 -268 -111
c-116 -0.666992 -210 28.333 -282 87s-108 136.334 -108 233.001c0 142.667 74 234 222 274c50 13.333 107.667 20.333 173 21h218v55c0.666992 40.667 -18.333 73.334 -57 98.001s-82.667 37 -132 37c-86 0 -144.667 -31.333 -176 -94l-184 84c56 134 180 201 372 201
c108 0 200.333 -25.333 277 -76s115 -125 115 -223z" />
    <glyph glyph-name="Aogonek" unicode="&#x104;" 
d="M766 1221l-258 -674h516zM1223 -238c0 82 43 161.333 129 238h-117l-125 326h-688l-125 -326h-256l580 1462h290l580 -1462v-25c-42 -58 -63 -113 -63 -165s29.333 -78 88 -78l-41 -144c-168 10.667 -252 68.667 -252 174z" />
    <glyph glyph-name="aogonek" unicode="&#x105;" horiz-adv-x="1097" 
d="M500 162c72 0 126 26 162 78c35.333 52 53 111.333 53 178h-246c-62.667 0 -106.667 -12.333 -132 -37s-38 -54 -38 -88s15.667 -64.333 47 -91c30.667 -26.667 82 -40 154 -40zM528 973c108 0 200.333 -25.3369 277 -76.0039s115 -125 115 -223v-699
c-44 -55.333 -66 -109.666 -66 -162.999s30 -80 90 -80l-43 -144c-166.667 10.667 -250 68.667 -250 174c0 45.333 15.333 92.333 46 141s68.667 89.334 114 122.001l-61 63c-62.667 -74 -152 -111 -268 -111c-116 -0.666992 -210 28.333 -282 87s-108 136.334 -108 233.001
c0 142.667 74 234 222 274c50 13.333 107.667 20.333 173 21h218v55c0.666992 40.667 -18.333 73.334 -57 98.001s-82.667 37 -132 37c-86 0 -144.667 -31.333 -176 -94l-184 84c55.333 134 179.333 201 372 201z" />
    <glyph glyph-name="Cacute" unicode="&#x106;" horiz-adv-x="1449" 
d="M936 1948c4 0 17.999 -4.00098 41.999 -12.001s42.667 -22.667 56 -44c13.333 -22 20.333 -44.333 21 -67c0 -53.333 -20 -89.666 -60 -108.999l-327 -168l-74 74l244 279c24.667 31.333 57.334 47 98.001 47zM843.999 196.999
c143.333 0 262.002 51.6689 356.002 155.002l178 -145c-68 -75.333 -149 -133.333 -243 -174s-193.667 -61.334 -299 -62.001c-200.667 0 -375 73.333 -523 220c-147.333 146.667 -221 327 -221 541s73.667 394.333 221 541s321.666 220 522.999 220s374 -70.333 518 -211
l-176 -152c-92.667 90.667 -207.334 136 -344.001 136c-136 0 -252 -52.667 -348 -158s-144 -230.333 -144 -375s47.667 -270.334 143 -377.001c96 -106 215.667 -159 359 -159z" />
    <glyph glyph-name="cacute" unicode="&#x107;" horiz-adv-x="968" 
d="M592 1493c4 0 17.999 -3.66699 41.999 -11s42.667 -22 56 -44s20.333 -44.667 21 -68c0 -53.333 -20 -89.333 -60 -108l-327 -168l-74 73l244 279c24.667 31.333 57.334 47 98.001 47zM561.999 762c-74.667 0 -137.998 -28.334 -189.998 -85.001
s-78.333 -123.667 -79 -201c0.666992 -77.333 27 -144.666 79 -201.999s114 -86 186 -86s135.333 30.333 190 91l170 -134c-100 -112 -217 -168 -351 -168c-134 -0.666992 -250 47.666 -348 144.999s-147 215 -147 353s48.667 255.333 146 352
s213.666 145.334 348.999 146.001c66 0 129.667 -13 191 -39s107.666 -61.667 138.999 -107l-152 -153c-47.333 58.667 -108.333 88 -183 88z" />
    <glyph glyph-name="Ccircumflex" unicode="&#x108;" horiz-adv-x="1449" 
d="M639 1550l-96 60l196 305h181l196 -305l-96 -60l-191 222zM844 197c143.333 0 262.002 51.6689 356.002 155.002l178 -145c-68 -75.333 -149 -133.333 -243 -174s-193.667 -61.334 -299 -62.001c-200.667 0 -375 73.333 -523 220c-147.333 146.667 -221 327 -221 541
s73.667 394.333 221 541s321.666 220 522.999 220s374 -70.333 518 -211l-176 -152c-92.667 90.667 -207.334 136 -344.001 136c-136 0 -252 -52.667 -348 -158s-144 -230.333 -144 -375s47.667 -270.334 143 -377.001c96 -106 215.667 -159 359 -159z" />
    <glyph glyph-name="ccircumflex" unicode="&#x109;" horiz-adv-x="968" 
d="M377 1098l-96 59l196 305h180l197 -305l-96 -59l-191 221zM562 762c-74.667 0 -137.998 -28.334 -189.998 -85.001s-78.333 -123.667 -79 -201c0.666992 -77.333 27 -144.666 79 -201.999s114 -86 186 -86s135.333 30.333 190 91l170 -134c-100 -112 -217 -168 -351 -168
c-134 -0.666992 -250 47.666 -348 144.999s-147 215 -147 353s48.667 255.333 146 352s213.666 145.334 348.999 146.001c66 0 129.667 -13 191 -39s107.666 -61.667 138.999 -107l-152 -153c-47.333 58.667 -108.333 88 -183 88z" />
    <glyph glyph-name="Cdotaccent" unicode="&#x10a;" horiz-adv-x="1449" 
d="M686 1751c0 40.667 14.333 75.666 43 104.999s63.667 44.333 105 45c41.333 0 76.333 -14.667 105 -44c29.333 -28.667 44 -63.667 44 -105s-14.667 -76.333 -44 -105s-64.333 -43 -105 -43s-75.667 14.333 -105 43c-28.667 28.667 -43 63.334 -43 104.001zM844 196.999
c143.333 0 262.002 51.6689 356.002 155.002l178 -145c-68 -75.333 -149 -133.333 -243 -174s-193.667 -61.334 -299 -62.001c-200.667 0 -375 73.333 -523 220c-147.333 146.667 -221 327 -221 541s73.667 394.333 221 541s321.666 220 522.999 220s374 -70.333 518 -211
l-176 -152c-92.667 90.667 -207.334 136 -344.001 136c-136 0 -252 -52.667 -348 -158s-144 -230.333 -144 -375s47.667 -270.334 143 -377.001c96 -106 215.667 -159 359 -159z" />
    <glyph glyph-name="cdotaccent" unicode="&#x10b;" horiz-adv-x="968" 
d="M418 1266c0 40.667 14.332 75.667 42.999 105s63.334 44 104.001 44s75.667 -14.667 105 -44s44.333 -64.333 45 -105c0 -40 -14.667 -74.667 -44 -104c-28.667 -29.333 -63.667 -44 -105 -44s-76.333 14.667 -105 44s-43 64 -43 104zM561.999 762
c-74.667 0 -137.998 -28.334 -189.998 -85.001s-78.333 -123.667 -79 -201c0.666992 -77.333 27 -144.666 79 -201.999s114 -86 186 -86s135.333 30.333 190 91l170 -134c-100 -112 -217 -168 -351 -168c-134 -0.666992 -250 47.666 -348 144.999s-147 215 -147 353
s48.667 255.333 146 352s213.666 145.334 348.999 146.001c66 0 129.667 -13 191 -39s107.666 -61.667 138.999 -107l-152 -153c-47.333 58.667 -108.333 88 -183 88z" />
    <glyph glyph-name="Ccaron" unicode="&#x10c;" horiz-adv-x="1449" 
d="M539 1862l98 61l194 -227l195 227l98 -61l-200 -314h-185zM844 197c143.333 0 262.002 51.6689 356.002 155.002l178 -145c-68 -75.333 -149 -133.333 -243 -174s-193.667 -61.334 -299 -62.001c-200.667 0 -375 73.333 -523 220c-147.333 146.667 -221 327 -221 541
s73.667 394.333 221 541s321.666 220 522.999 220s374 -70.333 518 -211l-176 -152c-92.667 90.667 -207.334 136 -344.001 136c-136 0 -252 -52.667 -348 -158s-144 -230.333 -144 -375s47.667 -270.334 143 -377.001c96 -106 215.667 -159 359 -159z" />
    <glyph glyph-name="ccaron" unicode="&#x10d;" horiz-adv-x="968" 
d="M289 1403l98 61l195 -227l194 227l98 -61l-200 -313h-185zM562 762c-74.667 0 -137.998 -28.334 -189.998 -85.001s-78.333 -123.667 -79 -201c0.666992 -77.333 27 -144.666 79 -201.999s114 -86 186 -86s135.333 30.333 190 91l170 -134c-100 -112 -217 -168 -351 -168
c-134 -0.666992 -250 47.666 -348 144.999s-147 215 -147 353s48.667 255.333 146 352s213.666 145.334 348.999 146.001c66 0 129.667 -13 191 -39s107.666 -61.667 138.999 -107l-152 -153c-47.333 58.667 -108.333 88 -183 88z" />
    <glyph glyph-name="Dcaron" unicode="&#x10e;" horiz-adv-x="1443" 
d="M467 1862l98 61l195 -227l194 227l99 -61l-201 -314h-184zM416 1241l0.000976562 -1018h233c123.333 0 229.666 35.667 318.999 107c46 36.667 82 89 108 157c26.667 67.333 40 148.333 40 243c0 186 -49.333 320.667 -148 404c-88 71.333 -194.333 107 -319 107h-233z
M184.001 0v1462h480c192 0 354.667 -64 488 -192s200 -307.667 200 -539s-66.667 -411 -200 -539s-296 -192 -488 -192h-480z" />
    <glyph glyph-name="dcaron" unicode="&#x10f;" horiz-adv-x="1331" 
d="M1147 1135v67l137 334h252l-256 -401h-133zM577 188c78 0 143.666 27.667 196.999 83s80 123.333 80 204s-26.667 148.667 -80 204s-119.333 83 -198 83s-145 -27.667 -199 -83c-54.667 -55.333 -82 -123.333 -82 -204s27.333 -148.667 82 -204s121.334 -83 200.001 -83z
M558.999 973c108 0 200.335 -38.333 277.002 -115v604l71 74h148v-1323h84v-213h-211l-92 92c-72.667 -76.667 -164.334 -115 -275.001 -115c-136.667 0.666992 -252.334 49.667 -347.001 147s-142 214.333 -142 351s47.333 253.667 142 351s209.667 146.333 345 147z" />
    <glyph glyph-name="Dcroat" unicode="&#x110;" horiz-adv-x="1443" 
d="M694 664h-277.999v-441h233c123.333 0 229.666 35.667 318.999 107c46 36.667 82 89 108 157c26.667 67.333 40 148.333 40 243c0 186 -49.333 320.667 -148 404c-88 71.333 -194.333 107 -319 107h-233v-395h278v-182zM55.001 664v182h131v616h478
c124 0 237.333 -26.667 340 -80s186 -136 250 -248s96.667 -246.333 98 -403c0 -231.333 -66.333 -411 -199 -539s-295.667 -192 -489 -192h-478v664h-131z" />
    <glyph glyph-name="dcroat" unicode="&#x111;" horiz-adv-x="1245" 
d="M577 188c78 0 143.666 27.667 196.999 83s80 123.333 80 204s-26.667 148.667 -80 204s-119.333 83 -198 83s-145 -27.667 -199 -83c-54.667 -55.333 -82 -123.333 -82 -204s27.333 -148.667 82 -204s121.334 -83 200.001 -83zM564.999 1114l0.000976562 158h271v190
l73 74h146v-264h149v-158h-149v-901h84v-213h-209l-92 92c-72.667 -76.667 -165 -115 -277 -115c-136.667 0.666992 -252.334 49.667 -347.001 147s-142 214.333 -142 351s47.333 253.667 142 351s209.667 146.333 345 147c108 0 200.333 -38.333 277 -115v256h-271z" />
    <glyph glyph-name="Emacron" unicode="&#x112;" horiz-adv-x="1349" 
d="M461 1630v164h575v-164h-575zM184 0v1462h1053v-221h-823v-373h778v-221h-778v-424h823v-223h-1053z" />
    <glyph glyph-name="emacron" unicode="&#x113;" horiz-adv-x="1044" 
d="M231 1167v164h576v-164h-576zM538 778c-58 0 -108.998 -17.3311 -152.998 -51.998s-71.333 -79.334 -82 -134.001h461c-6.66699 53.333 -31.334 97.666 -74.001 132.999s-93.334 53 -152.001 53zM522.002 182.002c101.333 0 180.002 44.332 236.002 132.999l180 -98
c-41.333 -69.333 -96 -126.666 -164 -171.999s-146.333 -68 -235 -68c-134 0.666992 -245.333 49.667 -334 147s-133 214 -133 350s44.333 253 133 351s198.667 147 330 147s237.666 -46.333 318.999 -139c81.333 -93.333 124.333 -205 129 -335l-82 -80h-608
c5.33301 -69.333 31.666 -126 78.999 -170c46.667 -44 96.667 -66 150 -66z" />
    <glyph glyph-name="Ebreve" unicode="&#x114;" horiz-adv-x="1349" 
d="M481 1780l164 -0.000976562c0 -23.333 10 -42.666 30 -57.999c20.667 -14.667 44.334 -22 71.001 -22s49.667 7.33301 69 22s29 34 29 58h166c0 -62.667 -25.667 -114 -77 -154s-114 -60.333 -188 -61c-74 0.666992 -136.333 21 -187 61s-76.334 91.333 -77.001 154z
M184 -0.000976562v1462h1053v-221h-823v-373h778v-221h-778v-424h823v-223h-1053z" />
    <glyph glyph-name="ebreve" unicode="&#x115;" horiz-adv-x="1044" 
d="M268 1331l164.001 0.000976562c0 -23.333 10 -42.333 30 -57s43.333 -22.334 70 -23.001c26.667 0 50 7.66699 70 23c19.333 15.333 29 34.333 29 57h166c0 -62.667 -25.667 -114 -77 -154c-51.333 -40.667 -114 -61 -188 -61c-74.667 0 -137.334 20 -188.001 60
s-76 91.667 -76 155zM538.001 778.001c-58 0 -108.998 -17.3311 -152.998 -51.998s-71.333 -79.334 -82 -134.001h461c-6.66699 53.333 -31.334 97.666 -74.001 132.999s-93.334 53 -152.001 53zM522.003 182.003c101.333 0 180.002 44.332 236.002 132.999l180 -98
c-41.333 -69.333 -96 -126.666 -164 -171.999s-146.333 -68 -235 -68c-134 0.666992 -245.333 49.667 -334 147s-133 214 -133 350s44.333 253 133 351s198.667 147 330 147s237.666 -46.333 318.999 -139c81.333 -93.333 124.333 -205 129 -335l-82 -80h-608
c5.33301 -69.333 31.666 -126 78.999 -170c46.667 -44 96.667 -66 150 -66z" />
    <glyph glyph-name="Edotaccent" unicode="&#x116;" horiz-adv-x="1349" 
d="M555 1751c0 40.667 14.332 75.666 42.999 104.999s63.334 44.333 104.001 45c41.333 0 76.666 -14.667 105.999 -44c29.333 -28.667 44 -63.667 44 -105s-14.667 -76.333 -44 -105s-64.666 -43 -105.999 -43s-76 14.333 -104 43c-28.667 28.667 -43 63.334 -43 104.001z
M183.999 -0.000976562v1462h1053v-221h-823v-373h778v-221h-778v-424h823v-223h-1053z" />
    <glyph glyph-name="edotaccent" unicode="&#x117;" horiz-adv-x="1044" 
d="M393 1266c0 40.667 14.334 75.667 43.001 105c28 29.333 62.667 44 104 44s76.666 -14.667 105.999 -44s44 -64.333 44 -105c0 -40 -14.667 -74.667 -44 -104s-64.333 -44 -105 -44s-75.667 14.333 -105 43c-28.667 29.333 -43 64.333 -43 105zM538.001 778
c-58 0 -108.998 -17.3311 -152.998 -51.998s-71.333 -79.334 -82 -134.001h461c-6.66699 53.333 -31.334 97.666 -74.001 132.999s-93.334 53 -152.001 53zM522.003 182.002c101.333 0 180.002 44.332 236.002 132.999l180 -98c-41.333 -69.333 -96 -126.666 -164 -171.999
s-146.333 -68 -235 -68c-134 0.666992 -245.333 49.667 -334 147s-133 214 -133 350s44.333 253 133 351s198.667 147 330 147s237.666 -46.333 318.999 -139c81.333 -93.333 124.333 -205 129 -335l-82 -80h-608c5.33301 -69.333 31.666 -126 78.999 -170
c46.667 -44 96.667 -66 150 -66z" />
    <glyph glyph-name="Eogonek" unicode="&#x118;" horiz-adv-x="1349" 
d="M184 0v1462h1053v-221h-823v-373h778v-221h-778v-424h823v-248c-42 -58.667 -63 -112.334 -63 -161.001c0 -54.667 30 -82 90 -82l-43 -144c-166.667 10.667 -250 68.667 -250 174c0 83.333 42.333 162.666 127 237.999h-914z" />
    <glyph glyph-name="eogonek" unicode="&#x119;" horiz-adv-x="1044" 
d="M538 778c-58 0 -108.998 -17.3311 -152.998 -51.998s-71.333 -79.334 -82 -134.001h461c-6.66699 53.333 -31.334 97.666 -74.001 132.999s-93.334 53 -152.001 53zM522.002 182.002c101.333 0 180 44.335 236 133.002l180 -98l-43 -61
c-1.33301 -1.33301 -16.666 -22 -45.999 -62c-30 -40 -51 -70 -63 -90c-12 -19.333 -25.667 -48 -41 -86s-22.666 -72.667 -21.999 -104c0 -54.667 30 -82 90 -82l-43 -144c-166.667 10.667 -250 68.667 -250 174c0 69.333 45 146.666 135 231.999
c-39.333 -10.667 -78 -16.334 -116 -17.001c-134 0.666992 -245.333 49.667 -334 147s-133 214 -133 350s44.333 253 133 351s198.667 147 330 147s237.666 -46.333 318.999 -139c81.333 -93.333 124.333 -205 129 -335l-82 -80h-608
c5.33301 -69.333 31.666 -126 78.999 -170c46.667 -44 96.667 -66 150 -66z" />
    <glyph glyph-name="Ecaron" unicode="&#x11a;" horiz-adv-x="1349" 
d="M432 1862l98 61l195 -227l195 227l98 -61l-201 -314h-184zM184 0v1462h1053v-221h-823v-373h778v-221h-778v-424h823v-223h-1053z" />
    <glyph glyph-name="ecaron" unicode="&#x11b;" horiz-adv-x="1044" 
d="M254 1403l98 61l195 -227l194 227l99 -61l-201 -313h-184zM538 778c-58 0 -108.998 -17.3311 -152.998 -51.998s-71.333 -79.334 -82 -134.001h461c-6.66699 53.333 -31.334 97.666 -74.001 132.999s-93.334 53 -152.001 53zM522.002 182.002
c101.333 0 180.002 44.332 236.002 132.999l180 -98c-41.333 -69.333 -96 -126.666 -164 -171.999s-146.333 -68 -235 -68c-134 0.666992 -245.333 49.667 -334 147s-133 214 -133 350s44.333 253 133 351s198.667 147 330 147s237.666 -46.333 318.999 -139
c81.333 -93.333 124.333 -205 129 -335l-82 -80h-608c5.33301 -69.333 31.666 -126 78.999 -170c46.667 -44 96.667 -66 150 -66z" />
    <glyph glyph-name="Gcircumflex" unicode="&#x11c;" horiz-adv-x="1632" 
d="M657 1548l-96 60l197 305h180l197 -305l-97 -60l-190 221zM838 197c169.333 0 301.667 57.999 397 173.999v184h-303v221h536v-508c-178.667 -198 -388.667 -297 -630 -297c-210 0 -387 72.333 -531 217c-143.333 144 -215 323.333 -215 538s72.667 396 218 544
s319.333 222.333 522 223c202.667 0 380.667 -71 534 -213l-162 -172c-101.333 105.333 -224 158 -368 158s-262.667 -53 -356 -159s-140 -230.667 -140 -374s47 -268.666 141 -375.999c94.667 -106.667 213.667 -160 357 -160z" />
    <glyph glyph-name="gcircumflex" unicode="&#x11d;" horiz-adv-x="1075" 
d="M346 1098l-96 59l196 305h181l196 -305l-96 -59l-190 221zM536 397c51.333 -0.666992 93.999 17 127.999 53s51 80 51 132s-17 95.667 -51 131s-76.667 53 -128 53s-94 -17.667 -128 -53c-34.667 -35.333 -52 -79 -52 -131s17.333 -96 52 -132
s77.334 -53.667 128.001 -53zM308.999 -184c0 -40 15.667 -73 47 -99s75 -39 131 -39h117c52 0 92.667 13 122 39s44 54.333 44 85s-10 56 -30 76s-47.667 30 -83 30h-256l-20 -2c-48 -20 -72 -50 -72 -90zM970.999 950l-0.00195312 -195.998h-97
c28.667 -60 43.334 -117.333 44.001 -172c0 -106.667 -37.333 -197.334 -112 -272.001s-165 -111.667 -271 -111c-60 0 -119.667 15.667 -179 47c-20 -12 -30 -30 -30 -54s6.33301 -43.333 19 -58s31.334 -21.667 56.001 -21h256
c95.333 -0.666992 171.666 -32.334 228.999 -95.001s86.333 -136 87 -220c0 -84 -34.667 -158.667 -104 -224s-157.666 -98 -264.999 -98h-117c-110.667 0 -200.667 30.667 -270 92s-104 132.333 -104 213c0.666992 42 11.667 83.667 33 125s47 70 77 86
c-57.333 44 -86 101.333 -86 172s32 132 96 184c-52.667 65.333 -79 147 -79 245s36.667 185 110 261s160 113.667 260 113c100 0 184.667 -29.333 254 -88l72 71h121z" />
    <glyph glyph-name="Gbreve" unicode="&#x11e;" horiz-adv-x="1632" 
d="M573 1778l163.999 -0.000976562c0 -23.333 10 -42.666 30 -57.999c20 -14.667 43.667 -22 71 -22c28 0 51.333 7.33301 70 22s28 34 28 58h166c0 -62.667 -25.667 -114 -77 -154s-113.666 -60.333 -186.999 -61c-73.333 0.666992 -136 21 -188 61
c-51.333 40 -77 91.333 -77 154zM837.999 196.999c169.333 0 301.667 57.999 397 173.999v184h-303v221h536v-508c-178.667 -198 -388.667 -297 -630 -297c-210 0 -387 72.333 -531 217c-143.333 144 -215 323.333 -215 538s72.667 396 218 544s319.333 222.333 522 223
c202.667 0 380.667 -71 534 -213l-162 -172c-101.333 105.333 -224 158 -368 158s-262.667 -53 -356 -159s-140 -230.667 -140 -374s47 -268.666 141 -375.999c94.667 -106.667 213.667 -160 357 -160z" />
    <glyph glyph-name="gbreve" unicode="&#x11f;" horiz-adv-x="1075" 
d="M270 1331l163.998 0.000976562c0 -23.333 10 -42.333 30 -57s43.667 -22.334 71 -23.001c27.333 0 50.333 7.66699 69 23s28.334 34.333 29.001 57h166c0 -62.667 -25.667 -114 -77 -154c-52 -40.667 -114.667 -61 -188 -61s-135.666 20 -186.999 60s-77 91.667 -77 155z
M535.998 397.001c51.333 -0.666992 93.999 17 127.999 53s51 80 51 132s-17 95.667 -51 131s-76.667 53 -128 53s-94 -17.667 -128 -53c-34.667 -35.333 -52 -79 -52 -131s17.333 -96 52 -132s77.334 -53.667 128.001 -53zM308.997 -183.999c0 -40 15.667 -73 47 -99
s75 -39 131 -39h117c52 0 92.667 13 122 39s44 54.333 44 85s-10 56 -30 76s-47.667 30 -83 30h-256l-20 -2c-48 -20 -72 -50 -72 -90zM970.997 950.001l-0.00195312 -195.998h-97c28.667 -60 43.334 -117.333 44.001 -172c0 -106.667 -37.333 -197.334 -112 -272.001
s-165 -111.667 -271 -111c-60 0 -119.667 15.667 -179 47c-20 -12 -30 -30 -30 -54s6.33301 -43.333 19 -58s31.334 -21.667 56.001 -21h256c95.333 -0.666992 171.666 -32.334 228.999 -95.001s86.333 -136 87 -220c0 -84 -34.667 -158.667 -104 -224
s-157.666 -98 -264.999 -98h-117c-110.667 0 -200.667 30.667 -270 92s-104 132.333 -104 213c0.666992 42 11.667 83.667 33 125s47 70 77 86c-57.333 44 -86 101.333 -86 172s32 132 96 184c-52.667 65.333 -79 147 -79 245s36.667 185 110 261s160 113.667 260 113
c100 0 184.667 -29.333 254 -88l72 71h121z" />
    <glyph glyph-name="Gdotaccent" unicode="&#x120;" horiz-adv-x="1632" 
d="M686 1751c0 40.667 14.333 75.666 43 104.999s63.667 44.333 105 45c41.333 0 76.333 -14.667 105 -44c29.333 -28.667 44 -63.667 44 -105s-14.667 -76.333 -44 -105s-64.333 -43 -105 -43s-75.667 14.333 -105 43c-28.667 28.667 -43 63.334 -43 104.001zM838 196.999
c169.333 0 301.667 57.999 397 173.999v184h-303v221h536v-508c-178.667 -198 -388.667 -297 -630 -297c-210 0 -387 72.333 -531 217c-143.333 144 -215 323.333 -215 538s72.667 396 218 544s319.333 222.333 522 223c202.667 0 380.667 -71 534 -213l-162 -172
c-101.333 105.333 -224 158 -368 158s-262.667 -53 -356 -159s-140 -230.667 -140 -374s47 -268.666 141 -375.999c94.667 -106.667 213.667 -160 357 -160z" />
    <glyph glyph-name="gdotaccent" unicode="&#x121;" horiz-adv-x="1075" 
d="M389 1266c0 40.667 14.334 75.667 43.001 105c28 29.333 62.667 44 104 44s76.666 -14.667 105.999 -44s44 -64.333 44 -105c0 -40 -14.667 -74.667 -44 -104s-64.333 -44 -105 -44s-75.667 14.333 -105 43c-28.667 29.333 -43 64.333 -43 105zM536.001 397
c51.333 -0.666992 93.999 17 127.999 53s51 80 51 132s-17 95.667 -51 131s-76.667 53 -128 53s-94 -17.667 -128 -53c-34.667 -35.333 -52 -79 -52 -131s17.333 -96 52 -132s77.334 -53.667 128.001 -53zM309 -184c0 -40 15.667 -73 47 -99s75 -39 131 -39h117
c52 0 92.667 13 122 39s44 54.333 44 85s-10 56 -30 76s-47.667 30 -83 30h-256l-20 -2c-48 -20 -72 -50 -72 -90zM971 950l-0.00195312 -195.998h-97c28.667 -60 43.334 -117.333 44.001 -172c0 -106.667 -37.333 -197.334 -112 -272.001s-165 -111.667 -271 -111
c-60 0 -119.667 15.667 -179 47c-20 -12 -30 -30 -30 -54s6.33301 -43.333 19 -58s31.334 -21.667 56.001 -21h256c95.333 -0.666992 171.666 -32.334 228.999 -95.001s86.333 -136 87 -220c0 -84 -34.667 -158.667 -104 -224s-157.666 -98 -264.999 -98h-117
c-110.667 0 -200.667 30.667 -270 92s-104 132.333 -104 213c0.666992 42 11.667 83.667 33 125s47 70 77 86c-57.333 44 -86 101.333 -86 172s32 132 96 184c-52.667 65.333 -79 147 -79 245s36.667 185 110 261s160 113.667 260 113c100 0 184.667 -29.333 254 -88l72 71
h121z" />
    <glyph glyph-name="Gcommaaccent" unicode="&#x122;" horiz-adv-x="1632" 
d="M838 197c169.333 0 301.667 57.999 397 173.999v184h-303v221h536v-508c-178.667 -198 -388.667 -297 -630 -297c-210 0 -387 72.333 -531 217c-143.333 144 -215 323.333 -215 538s72.667 396 218 544s319.333 222.333 522 223c202.667 0 380.667 -71 534 -213
l-162 -172c-101.333 105.333 -224 158 -368 158s-262.667 -53 -356 -159s-140 -230.667 -140 -374s47 -268.666 141 -375.999c94.667 -106.667 213.667 -160 357 -160zM584.001 -512.001v68l137 333h250l-254 -401h-133z" />
    <glyph glyph-name="gcommaaccent" unicode="&#x123;" horiz-adv-x="1075" 
d="M536 397c51.333 -0.666992 93.999 17 127.999 53s51 80 51 132s-17 95.667 -51 131s-76.667 53 -128 53s-94 -17.667 -128 -53c-34.667 -35.333 -52 -79 -52 -131s17.333 -96 52 -132s77.334 -53.667 128.001 -53zM308.999 -184c0 -40 15.667 -73 47 -99s75 -39 131 -39
h117c52 0 92.667 13 122 39s44 54.333 44 85s-10 56 -30 76s-47.667 30 -83 30h-256l-20 -2c-48 -20 -72 -50 -72 -90zM970.999 950l-0.00195312 -195.998h-97c28.667 -60 43.334 -117.333 44.001 -172c0 -106.667 -37.333 -197.334 -112 -272.001s-165 -111.667 -271 -111
c-60 0 -119.667 15.667 -179 47c-20 -12 -30 -30 -30 -54s6.33301 -43.333 19 -58s31.334 -21.667 56.001 -21h256c95.333 -0.666992 171.666 -32.334 228.999 -95.001s86.333 -136 87 -220c0 -84 -34.667 -158.667 -104 -224s-157.666 -98 -264.999 -98h-117
c-110.667 0 -200.667 30.667 -270 92s-104 132.333 -104 213c0.666992 42 11.667 83.667 33 125s47 70 77 86c-57.333 44 -86 101.333 -86 172s32 132 96 184c-52.667 65.333 -79 147 -79 245s36.667 185 110 261s160 113.667 260 113c100 0 184.667 -29.333 254 -88l72 71
h121zM706.997 1462v-67l-138 -332h-250l254 399h134z" />
    <glyph glyph-name="Hcircumflex" unicode="&#x124;" horiz-adv-x="1589" 
d="M184 0v1462h234v-620h753v620h234v-1462h-234v621h-753v-621h-234zM608 1550l-96 60l197 305h180l196 -305l-96 -60l-190 222z" />
    <glyph glyph-name="hcircumflex" unicode="&#x125;" horiz-adv-x="1112" 
d="M471 1550l-96 60l196 305h181l196 -305l-96 -60l-190 222zM969 569l-0.000976562 -568.999h-224v569c0 59.333 -15.667 105 -47 137s-73.666 48 -126.999 48s-98 -14.333 -134 -43s-54 -64.334 -54 -107.001v-604h-219v1462l74 74h145v-668c74 64 157.333 96 250 96
s171.667 -32.667 237 -98s98.333 -164.333 99 -297z" />
    <glyph glyph-name="Hbar" unicode="&#x126;" horiz-adv-x="1591" 
d="M418 1049v-207h753v207h-753zM1534 1049h-127v-1049h-236v621h-753v-621h-234v1049h-127v200h127v213h234v-213h753v213h236v-213h127v-200z" />
    <glyph glyph-name="hbar" unicode="&#x127;" horiz-adv-x="1112" 
d="M53 1118v164.001h111v180l74 74h145v-254h246v-164h-246v-250c75.333 64 159 96 251 96s170.667 -32.667 236 -98s98.333 -164.333 99 -297v-569h-221v569c0 59.333 -16 105 -48 137s-75 48 -129 48c-53.333 0 -98 -14.333 -134 -43s-54 -64.334 -54 -107.001v-604h-219
v1118h-111z" />
    <glyph glyph-name="Itilde" unicode="&#x128;" horiz-adv-x="645" 
d="M154 1722c-28 0 -51.0039 -5.66699 -69.0039 -17c-18.667 -11.333 -30.667 -23.333 -36 -36l-6 -18l-104 71c3.33301 12.667 12.333 31.667 27 57c15.333 24.667 31.333 45 48 61s40.334 30.333 71.001 43s64.667 19 102 19c36.667 0 90.334 -14.333 161.001 -43
c70.667 -29.333 120 -44 148 -44s50.667 5.66699 68 17c18.667 11.333 31.334 23.333 38.001 36l12 16l109 -61c-4 -14.667 -14.667 -36.667 -32 -66c-47.333 -82 -118.666 -123.667 -213.999 -125c-40.667 0 -97.667 15 -171 45s-124 45 -152 45zM204.996 0v1462h235v-1462
h-235z" />
    <glyph glyph-name="itilde" unicode="&#x129;" horiz-adv-x="546" 
d="M403 0h-219v754h-84v196h226l77 -78v-872zM136 1210c-24 0 -45.332 -5.66699 -63.999 -17s-32.334 -23.333 -41.001 -36l-13 -18l-92 71c2.66699 10.667 12.334 29 29.001 55c52.667 82 121.667 124 207 126c35.333 0 76.666 -14.667 123.999 -44
c46.667 -29.333 82 -44 106 -44s46 5.66699 66 17s34.667 23.333 44 36l14 16l94 -61c-3.33301 -12 -13.333 -31.667 -30 -59c-86 -138 -196.667 -167 -332 -87c-50.667 30 -88 45 -112 45z" />
    <glyph glyph-name="Imacron" unicode="&#x12a;" horiz-adv-x="645" 
d="M35 1630v164h575v-164h-575zM205 0v1462h235v-1462h-235z" />
    <glyph glyph-name="imacron" unicode="&#x12b;" horiz-adv-x="546" 
d="M-20 1167v164h575v-164h-575zM403 0h-219v754h-84v196h226l77 -78v-872z" />
    <glyph glyph-name="Ibreve" unicode="&#x12c;" horiz-adv-x="645" 
d="M63 1763l163.999 0.000976562c0 -23.333 10 -42.333 30 -57s43.667 -22.334 71 -23.001c28 0 51.333 7.66699 70 23s28 34.333 28 57h166c0 -62.667 -25.667 -114 -77 -154c-51.333 -40.667 -113.666 -61 -186.999 -61s-136 20 -188 60c-51.333 40 -77 91.667 -77 155z
M204.999 0.000976562v1462h235v-1462h-235z" />
    <glyph glyph-name="ibreve" unicode="&#x12d;" horiz-adv-x="546" 
d="M4 1333l164.002 0.000976562c0 -23.333 10 -42.333 30 -57s43.333 -22.334 70 -23.001c26.667 0 50 7.66699 70 23c19.333 15.333 29 34.333 29 57h165c0 -62.667 -25.333 -114 -76 -154c-50.667 -40.667 -113.334 -61 -188.001 -61s-137.334 20 -188.001 60
s-76 91.667 -76 155zM403.002 0.000976562h-219v754h-84v196h226l77 -78v-872z" />
    <glyph glyph-name="Iogonek" unicode="&#x12e;" horiz-adv-x="645" 
d="M205 0v1462h235v-1487c-42 -58.667 -63 -112.334 -63 -161.001c0 -54.667 30 -82 90 -82l-43 -144c-166.667 10.667 -250 68.667 -250 174c0 83.333 42.333 162.666 127 237.999h-96z" />
    <glyph glyph-name="iogonek" unicode="&#x12f;" horiz-adv-x="546" 
d="M98 1335c0 44 15.333 81.334 46 112.001s67.667 46 111 46s80.333 -15.333 111 -46c30.667 -31.333 46 -68.333 46 -111s-15.333 -79.334 -46 -110.001s-68 -46 -112 -46s-81 14.667 -111 44s-45 66.333 -45 111zM340 -185.999c0 -54.667 30 -81.998 90 -81.998l-43 -144
c-166.667 10.667 -250 68.667 -250 174c0 83.333 42.333 162.666 127 237.999h-80v754h-84v196h226l77 -78v-897c-42 -58.667 -63 -112.334 -63 -161.001z" />
    <glyph glyph-name="Idotaccent" unicode="&#x130;" horiz-adv-x="645" 
d="M174 1751c0 40.667 14.333 75.666 43 104.999s63.667 44.333 105 45c41.333 0 76.333 -14.667 105 -44c29.333 -28.667 44 -63.667 44 -105s-14.667 -76.333 -44 -105s-64.333 -43 -105 -43s-75.667 14.333 -105 43c-28.667 28.667 -43 63.334 -43 104.001z
M205 -0.000976562v1462h235v-1462h-235z" />
    <glyph glyph-name="dotlessi" unicode="&#x131;" horiz-adv-x="546" 
d="M403 0h-219v754h-84v196h226l77 -78v-872z" />
    <glyph glyph-name="IJ" unicode="&#x132;" horiz-adv-x="1529" 
d="M184 0v1462h236v-1462h-236zM1118 453v1009h228v-1013c0 -148.667 -40 -265.667 -120 -351s-193.667 -127.666 -341 -126.999c-180 0 -311 70.333 -393 211v74l170 96c56 -108 130.333 -162 223 -162c76.667 0 134.667 23.667 174 71s59 111.333 59 192z" />
    <glyph glyph-name="ij" unicode="&#x133;" horiz-adv-x="1062" 
d="M127 1335c0 44 15.332 81.334 45.999 112.001s67.667 46 111 46c42.667 0 79.334 -15.333 110.001 -46c30.667 -31.333 46 -68.333 46 -111s-15.333 -79.334 -46 -110.001s-68 -46 -112 -46s-80.667 14.667 -110 44c-30 29.333 -45 66.333 -45 111zM638.999 1335
c0 44 15.332 81.334 45.999 112.001s67.667 46 111 46c42.667 0 79.334 -15.333 110.001 -46c30.667 -31.333 46 -68.333 46 -111s-15.333 -79.334 -46 -110.001s-68 -46 -112 -46s-80.667 14.667 -110 44c-30 29.333 -45 66.333 -45 111zM402.998 0.00195312h-219v754h-84
v196h226l77 -78v-872zM699.998 -169.998v924h-127v196h269l78 -78v-1036c0 -124 -30.667 -215 -92 -273s-142 -87 -242 -87c-120 0 -217 54 -291 162l190 98c18 -28.667 47 -43 87 -43c40 -0.666992 71.333 11 94 35s34 58 34 102z" />
    <glyph glyph-name="Jcircumflex" unicode="&#x134;" horiz-adv-x="1085" 
d="M594 1550l-96 60l196 305h180l197 -305l-96 -60l-191 222zM674 453l-0.000976562 1009h227v-1013c0 -148.667 -39.667 -265.667 -119 -351s-192.666 -127.666 -339.999 -126.999c-102.667 0 -190 23.667 -262 71s-125.333 113.333 -160 198l197 112
c56 -108 131 -162 225 -162c74.667 0 132 23.667 172 71s60 111.333 60 192z" />
    <glyph glyph-name="jcircumflex" unicode="&#x135;" horiz-adv-x="546" 
d="M55 1098l-96 59l197 305h180l196 -305l-96 -59l-190 221zM184 -170l0.000976562 924h-127v196h269l77 -78v-1036c0 -124 -30.333 -215 -91 -273s-141.334 -87 -242.001 -87c-120 0 -217 54 -291 162l190 98c18 -28.667 47 -43 87 -43c40 -0.666992 71.333 11 94 35
s34 58 34 102z" />
    <glyph glyph-name="Kcommaaccent" unicode="&#x136;" horiz-adv-x="1359" 
d="M184 0v1462h236v-712l555 712h299l-490 -608l555 -854h-286l-428 664l-205 -258v-406h-236zM432 -512v68l137 333h250l-254 -401h-133z" />
    <glyph glyph-name="kcommaaccent" unicode="&#x137;" horiz-adv-x="1091" 
d="M379 754v-316l254 316h-254zM383 0h-219v1462l72 74h147v-586h547v-127l-213 -260l375 -563h-250l-262 397l-197 -241v-156zM276 -512v68l138 333h250l-254 -401h-134z" />
    <glyph glyph-name="kgreenlandic" unicode="&#x138;" horiz-adv-x="1009" 
d="M967 950v-41l-283 -346l326 -489v-74h-201l-262 397l-164 -198v-199h-219v754h-82v196h174l127 -125v-342l371 467h213z" />
    <glyph glyph-name="Lacute" unicode="&#x139;" horiz-adv-x="1167" 
d="M510 1948c4 0 17.999 -4.00098 41.999 -12.001s42.667 -22.667 56 -44c13.333 -22 20.333 -44.333 21 -67c0 -53.333 -20 -89.666 -60 -108.999l-327 -168l-74 74l244 279c24.667 31.333 57.334 47 98.001 47zM183.999 -0.000976562v1462h236v-1239h727v-223h-963z" />
    <glyph glyph-name="lacute" unicode="&#x13a;" horiz-adv-x="569" 
d="M418 1968c4 0 18 -3.66699 42 -11s42.667 -22 56 -44s20.333 -44.667 21 -68c0 -53.333 -20 -89.333 -60 -108l-327 -168l-74 73c15.333 16.667 96.333 109.667 243 279c24.667 31.333 57.667 47 99 47zM377 1536v-1323h84v-213h-215l-92 94v1368l71 74h152z" />
    <glyph glyph-name="Lcommaaccent" unicode="&#x13b;" horiz-adv-x="1167" 
d="M184 0v1462h236v-1239h727v-223h-963zM408 -512v68l137 333h252l-256 -401h-133z" />
    <glyph glyph-name="lcommaaccent" unicode="&#x13c;" horiz-adv-x="569" 
d="M377 1536v-1323h84v-213h-215l-92 94v1368l71 74h152zM61 -512v68l138 333h250l-254 -401h-134z" />
    <glyph glyph-name="Lcaron" unicode="&#x13d;" horiz-adv-x="1167" 
d="M184 0v1462h236v-1239h727v-223h-963zM494 1135v67l137 334h250l-254 -401h-133z" />
    <glyph glyph-name="lcaron" unicode="&#x13e;" horiz-adv-x="569" 
d="M377 1536v-1323h84v-213h-215l-92 94v1368l71 74h152zM465 1135v67l137 334h250l-254 -401h-133z" />
    <glyph glyph-name="Ldot" unicode="&#x13f;" horiz-adv-x="1167" 
d="M184 0v1462h236v-1239h727v-223h-963zM889 615c0 -44.667 -15.667 -82.334 -47 -113.001s-69.333 -46.334 -114 -47.001c-44.667 0.666992 -82.667 16.334 -114 47.001s-47 68.334 -47 113.001s15.667 83 47 115s69.333 48 114 48s82.667 -16 114 -48s47 -70.333 47 -115
z" />
    <glyph glyph-name="ldot" unicode="&#x140;" horiz-adv-x="704" 
d="M467 492c0 40.667 14.332 75.667 42.999 105s63.334 44 104.001 44c41.333 0 76.666 -14.667 105.999 -44s44 -64.333 44 -105c0 -40 -14.667 -74.667 -44 -104s-64.666 -44 -105.999 -44s-76 14.667 -104 44c-28.667 29.333 -43 64 -43 104zM376.999 1536v-1323h84v-213
h-215l-92 94v1368l71 74h152z" />
    <glyph glyph-name="Lslash" unicode="&#x141;" horiz-adv-x="1179" 
d="M197 1462h235v-667l217 143l90 -135l-307 -201v-379h727v-223h-962v449l-103 -68l-90 135l193 127v819z" />
    <glyph glyph-name="lslash" unicode="&#x142;" horiz-adv-x="569" 
d="M377 1536v-623l106 68l90 -133l-196 -129v-506h84v-213h-213l-94 94v475l-74 -47l-88 135l162 105v700l73 74h150z" />
    <glyph glyph-name="Nacute" unicode="&#x143;" horiz-adv-x="1630" 
d="M977 1948c4 0 17.999 -4.00098 41.999 -12.001s42.667 -22.667 56 -44c13.333 -22 20.333 -44.333 21 -67c0 -53.333 -20 -89.666 -60 -108.999l-327 -168l-74 74l244 279c24.667 31.333 57.334 47 98.001 47zM183.999 -0.000976562v1462h281l747 -1140v1140h234v-1462
h-303l-723 1104v-1104h-236z" />
    <glyph glyph-name="nacute" unicode="&#x144;" horiz-adv-x="1134" 
d="M719 1493c4 0 17.999 -3.66699 41.999 -11s42.667 -22 56 -44s20.333 -44.667 21 -68c0 -53.333 -20 -89.333 -60 -108l-327 -168l-74 73l244 279c24.667 31.333 57.334 47 98.001 47zM990.999 0h-223.001v573c0 59.333 -15.667 105 -47 137s-73.666 48 -126.999 48
s-98 -14.667 -134 -44s-54 -66 -54 -110v-604h-220v754h-84v196h177l88 -88c88.667 70.667 182 106 280 106s179.667 -32.667 245 -98s98.333 -164.333 99 -297v-573z" />
    <glyph glyph-name="Ncommaaccent" unicode="&#x145;" horiz-adv-x="1630" 
d="M184 0v1462h281l747 -1140v1140h234v-1462h-303l-723 1104v-1104h-236zM575 -512v68l138 333h250l-254 -401h-134z" />
    <glyph glyph-name="ncommaaccent" unicode="&#x146;" horiz-adv-x="1134" 
d="M322 -512v68l137 333h250l-254 -401h-133zM991 573v-573h-223v573c0 59.333 -15.667 105 -47 137s-74 48 -128 48s-98.667 -15.333 -134 -46s-53 -68.667 -53 -114v-598h-220v754h-84v196h177l88 -88c88.667 70.667 182 106 280 106s179.667 -32.667 245 -98
s98.333 -164.333 99 -297z" />
    <glyph glyph-name="Ncaron" unicode="&#x147;" horiz-adv-x="1630" 
d="M543 1862l98 61l195 -227l194 227l98 -61l-200 -314h-185zM184 0v1462h281l747 -1140v1140h234v-1462h-303l-723 1104v-1104h-236z" />
    <glyph glyph-name="ncaron" unicode="&#x148;" horiz-adv-x="1134" 
d="M307 1403l99 61l194 -227l195 227l98 -61l-201 -313h-184zM991 0h-223.001v573c0 59.333 -15.667 105 -47 137s-73.666 48 -126.999 48s-98 -14.667 -134 -44s-54 -66 -54 -110v-604h-220v754h-84v196h177l88 -88c88.667 70.667 182 106 280 106s179.667 -32.667 245 -98
s98.333 -164.333 99 -297v-573z" />
    <glyph glyph-name="napostrophe" unicode="&#x149;" horiz-adv-x="1163" 
d="M1020 573v-573h-221v573c0 59.333 -16 105 -48 137s-74.667 48 -128 48c-54 0 -99 -14.667 -135 -44s-54 -66 -54 -110v-604h-219v754h-82v196h174l90 -88c88.667 70.667 181.667 106 279 106s179.333 -32.667 246 -98c65.333 -65.333 98 -164.333 98 -297zM-82 995
l207 541h256l-285 -541h-178z" />
    <glyph glyph-name="Eng" unicode="&#x14a;" horiz-adv-x="1554" 
d="M184 0v1462h281l678 -1050v1050h227v-1511c0 -148.667 -39.667 -265.334 -119 -350.001s-192.666 -127 -339.999 -127c-102 0 -189 23.333 -261 70s-125.667 112.667 -161 198l197 113c58.667 -108 133.667 -162 225 -162c75.333 0.666992 132.666 24.334 171.999 71.001
s59.333 110.334 60 191.001v45l-723 1104v-1104h-236z" />
    <glyph glyph-name="eng" unicode="&#x14b;" horiz-adv-x="1132" 
d="M768 -170l0.00195312 743c0 59.333 -16 105 -48 137s-74.333 48 -127 48s-97.334 -15 -134.001 -45s-55.334 -66.333 -56.001 -109v-604h-219v754h-82v196h174l91 -88c88.667 70.667 181.667 106 279 106s178.666 -32.667 243.999 -98s98.333 -164.333 99 -297v-737
c0 -124 -30.667 -215 -92 -273s-142.666 -87 -243.999 -87c-121.333 0 -219 54 -293 162l193 98c16.667 -28.667 45 -43 85 -43c40 -0.666992 71.667 11 95 35s35 58 35 102z" />
    <glyph glyph-name="Omacron" unicode="&#x14c;" horiz-adv-x="1712" 
d="M569 1630v164h576v-164h-576zM856 197c147.333 0 270 52.333 368 157c97.333 105.333 146 231 146 377s-48.667 271.667 -146 377s-220 158 -368 158s-270.667 -52.667 -368 -158s-146 -231 -146 -377s48.667 -271.667 146 -377c98 -104.667 220.667 -157 368 -157z
M856 1493c210.667 0 390.667 -73 540 -219s224 -327 224 -543s-74.667 -396.667 -224 -542s-329.333 -218 -540 -218s-390.667 72.667 -540 218s-224 326 -224 542s74.667 397 224 543c150 146 330 219 540 219z" />
    <glyph glyph-name="omacron" unicode="&#x14d;" horiz-adv-x="1136" 
d="M281 1167v164h575v-164h-575zM295 475c0.666992 -78 27 -145.333 79 -202s116.667 -85 194 -85s142.333 28.333 195 85s79 124 79 202s-26 145 -78 201s-117.333 84 -196 84s-144 -28 -196 -84s-77.667 -123 -77 -201zM72 475c0 139.333 48.667 257 146 353
s214 143.667 350 143c136 0.666992 252.667 -47 350 -143s146.333 -213.667 147 -353c0 -139.333 -48.667 -257 -146 -353c-98 -96 -215 -144 -351 -144s-252.667 48 -350 144s-146 213.667 -146 353z" />
    <glyph glyph-name="Obreve" unicode="&#x14e;" horiz-adv-x="1712" 
d="M592 1778l164.001 -0.000976562c0 -23.333 10 -42.666 30 -57.999c20 -14.667 43.333 -22 70 -22c27.333 0 50.666 7.33301 69.999 22s28.666 34 27.999 58h166c0 -62.667 -25.667 -114 -77 -154s-113.666 -60.333 -186.999 -61c-73.333 0.666992 -136 21 -188 61
c-50.667 40 -76 91.333 -76 154zM856.001 196.999c147.333 0 270 52.333 368 157c97.333 105.333 146 231 146 377s-48.667 271.667 -146 377s-220 158 -368 158s-270.667 -52.667 -368 -158s-146 -231 -146 -377s48.667 -271.667 146 -377
c98 -104.667 220.667 -157 368 -157zM856.001 1493c210.667 0 390.667 -73 540 -219s224 -327 224 -543s-74.667 -396.667 -224 -542s-329.333 -218 -540 -218s-390.667 72.667 -540 218s-224 326 -224 542s74.667 397 224 543c150 146 330 219 540 219z" />
    <glyph glyph-name="obreve" unicode="&#x14f;" horiz-adv-x="1136" 
d="M303 1331l164.001 0.000976562c0 -23.333 10 -42.333 30 -57c20.667 -14.667 44.334 -22.334 71.001 -23.001c26.667 0 49.667 7.66699 69 23s29 34.333 29 57h165c-0.666992 -62.667 -26.334 -114 -77.001 -154c-50.667 -40.667 -113 -61 -187 -61s-136.333 20 -187 60
s-76.334 91.667 -77.001 155zM295.001 475.001c0.666992 -78 27 -145.333 79 -202s116.667 -85 194 -85s142.333 28.333 195 85s79 124 79 202s-26 145 -78 201s-117.333 84 -196 84s-144 -28 -196 -84s-77.667 -123 -77 -201zM72.001 475.001c0 139.333 48.667 257 146 353
s214 143.667 350 143c136 0.666992 252.667 -47 350 -143s146.333 -213.667 147 -353c0 -139.333 -48.667 -257 -146 -353c-98 -96 -215 -144 -351 -144s-252.667 48 -350 144s-146 213.667 -146 353z" />
    <glyph glyph-name="Ohungarumlaut" unicode="&#x150;" horiz-adv-x="1712" 
d="M1220 1935c76 -0.666992 113.333 -39.667 112 -117c0 -38.667 -20.667 -70.667 -62 -96l-312 -186l-71 74l241 278c25.333 31.333 56 47 92 47zM864 1935c74 0.666992 111 -38.333 111 -117c0 -38.667 -20.667 -70.667 -62 -96l-309 -186l-74 74l244 278
c24.667 31.333 54.667 47 90 47zM856 197c147.333 0 270 52.333 368 157c97.333 105.333 146 231 146 377s-48.667 271.667 -146 377s-220 158 -368 158s-270.667 -52.667 -368 -158s-146 -231 -146 -377s48.667 -271.667 146 -377c98 -104.667 220.667 -157 368 -157z
M856 1493c210.667 0 390.667 -73 540 -219s224 -327 224 -543s-74.667 -396.667 -224 -542s-329.333 -218 -540 -218s-390.667 72.667 -540 218s-224 326 -224 542s74.667 397 224 543c150 146 330 219 540 219z" />
    <glyph glyph-name="ohungarumlaut" unicode="&#x151;" horiz-adv-x="1136" 
d="M933 1493c75.333 0.666992 112.333 -38.333 111 -117c0 -38.667 -20.333 -70.667 -61 -96l-311 -186l-72 73l242 279c24.667 31.333 55 47 91 47zM578 1493c73.333 -0.666992 110 -40.333 110 -119c0 -38.667 -20.333 -70 -61 -94l-310 -186l-73 73
c15.333 16.667 96.333 109.667 243 279c24.667 31.333 55 47 91 47zM295 475.001c0.666992 -78 27 -145.333 79 -202s116.667 -85 194 -85s142.333 28.333 195 85s79 124 79 202s-26 145 -78 201s-117.333 84 -196 84s-144 -28 -196 -84s-77.667 -123 -77 -201zM72 475.001
c0 139.333 48.667 257 146 353s214 143.667 350 143c136 0.666992 252.667 -47 350 -143s146.333 -213.667 147 -353c0 -139.333 -48.667 -257 -146 -353c-98 -96 -215 -144 -351 -144s-252.667 48 -350 144s-146 213.667 -146 353z" />
    <glyph glyph-name="OE" unicode="&#x152;" horiz-adv-x="2056" 
d="M856 197c74 0 144.333 15 211 45v979c-66.667 30 -137 45 -211 45c-148 0 -270.667 -52.667 -368 -158s-146 -231 -146 -377s48.667 -271.667 146 -377c98 -104.667 220.667 -157 368 -157zM1944 0h-875c-69.333 -19.333 -140.333 -29 -213 -29
c-210 0 -390 72.667 -540 218c-149.333 145.333 -224 326 -224 542s74.667 397 224 543s329.333 219 540 219c74 0 144.333 -10.333 211 -31h877v-221h-648v-373h602v-221h-602v-424h648v-223z" />
    <glyph glyph-name="oe" unicode="&#x153;" horiz-adv-x="1767" 
d="M1261 778c-58 0 -109 -17.3311 -153 -51.998s-72 -79.334 -84 -134.001h463c-7.33301 53.333 -32.333 97.666 -75 132.999s-93 53 -151 53zM295 475.002c0.666992 -78 27 -145.333 79 -202s116.667 -85 194 -85s142.333 28.333 195 85s79 124 79 202s-26 145 -78 201
s-117.333 84 -196 84s-144 -28 -196 -84s-77.667 -123 -77 -201zM1246 182.002c99.333 0 177.669 44.334 235.002 133.001l178 -98c-39.333 -68 -93.666 -125 -162.999 -171s-148 -69 -236 -69c-132.667 0 -245.334 50 -338.001 150
c-94.667 -100 -211.334 -150 -350.001 -150c-138.667 0.666992 -256.667 49 -354 145s-146 213.667 -146 353s48.667 256.666 146 351.999s214.333 143 351 143s255 -49.667 355 -149c90 101.333 201 152 333 152c132.667 0 239.667 -46.667 321 -140s124 -205 128 -335
l-82 -80h-610c6.66699 -69.333 33.667 -126 81 -170s97.666 -66 150.999 -66z" />
    <glyph glyph-name="Racute" unicode="&#x154;" horiz-adv-x="1370" 
d="M801 1948c4 0 18 -4.00098 42 -12.001s42.667 -22.667 56 -44c13.333 -22 20.333 -44.333 21 -67c0 -53.333 -20 -89.666 -60 -108.999l-328 -168l-73 74c15.333 16.667 96.333 109.667 243 279c24.667 31.333 57.667 47 99 47zM696 1241h-280v-410h280
c82 0.666992 148.667 17.667 200 51s77 81.333 77 144s-22.667 114 -68 154s-115 60.333 -209 61zM184 -0.000976562v1462h527c231.333 0 383 -93 455 -279c18.667 -48.667 28 -105.667 28 -171s-18.667 -130.666 -56 -195.999c-37.333 -64.667 -92.333 -114.667 -165 -150
l377 -666h-269l-338 610h-327v-610h-232z" />
    <glyph glyph-name="racute" unicode="&#x155;" horiz-adv-x="755" 
d="M406 586l0.000976562 -586h-220v754h-84v196h177l104 -104c57.333 82 136.666 123 237.999 123c32.667 0 64 -5 94 -15l-64 -229c-23.333 8 -52.333 12 -87 12s-69.667 -14.667 -105 -44s-53 -65 -53 -107zM539.001 1493c4 0 18 -3.66699 42 -11s42.667 -22 56 -44
s20 -44.667 20 -68c0 -53.333 -19.667 -89.333 -59 -108l-328 -168l-73 73c15.333 16.667 96.333 109.667 243 279c24.667 31.333 57.667 47 99 47z" />
    <glyph glyph-name="Rcommaaccent" unicode="&#x156;" horiz-adv-x="1370" 
d="M696 1241h-280v-410h280c82 0.666992 148.667 17.667 200 51s77 81.333 77 144s-22.667 114 -68 154s-115 60.333 -209 61zM184 0v1462h527c231.333 0 383 -93 455 -279c18.667 -48.667 28 -105.667 28 -171s-18.667 -130.666 -56 -195.999
c-37.333 -64.667 -92.333 -114.667 -165 -150l377 -666h-269l-338 610h-327v-610h-232zM438 -512.001v68l137 333h250l-254 -401h-133z" />
    <glyph glyph-name="rcommaaccent" unicode="&#x157;" horiz-adv-x="755" 
d="M406 586l0.000976562 -586h-220v754h-84v196h177l104 -104c57.333 82 136.666 123 237.999 123c32.667 0 64 -5 94 -15l-64 -229c-23.333 8 -52.333 12 -87 12s-69.667 -14.667 -105 -44s-53 -65 -53 -107zM35.001 -512v68l137 333h250l-254 -401h-133z" />
    <glyph glyph-name="Rcaron" unicode="&#x158;" horiz-adv-x="1370" 
d="M412 1862l98 61l195 -227l194 227l98 -61l-200 -314h-185zM696 1241h-280v-410h280c82 0.666992 148.667 17.667 200 51s77 81.333 77 144s-22.667 114 -68 154s-115 60.333 -209 61zM184 0v1462h527c231.333 0 383 -93 455 -279c18.667 -48.667 28 -105.667 28 -171
s-18.667 -130.666 -56 -195.999c-37.333 -64.667 -92.333 -114.667 -165 -150l377 -666h-269l-338 610h-327v-610h-232z" />
    <glyph glyph-name="rcaron" unicode="&#x159;" horiz-adv-x="761" 
d="M135 1403l98 61l195 -227l195 227l98 -61l-201 -313h-184zM406 586l0.000976562 -586h-220v754h-84v196h177l104 -104c57.333 82 136.666 123 237.999 123c32.667 0 64 -5 94 -15l-64 -229c-23.333 8 -52.333 12 -87 12s-69.667 -14.667 -105 -44s-53 -65 -53 -107z" />
    <glyph glyph-name="Sacute" unicode="&#x15a;" horiz-adv-x="1421" 
d="M852 1948c5.33301 0 19.667 -4.00098 43 -12.001s41.666 -22.667 54.999 -44c13.333 -22 20.333 -44.333 21 -67c0 -53.333 -20 -89.666 -60 -108.999l-327 -168l-74 74l244 279c24.667 31.333 57.334 47 98.001 47zM725.001 -29.001
c-146 0.666992 -276.997 33.001 -392.997 97.001s-192.667 152 -230 264l213 69c20.667 -61.333 70.334 -110.666 149.001 -147.999s171 -56 277 -56s193.667 25.667 263 77c42 32 63 70 63 114c0 82.667 -59.333 143 -178 181c-53.333 18 -111.666 35 -174.999 51
c-64 16 -128 35.333 -192 58s-122.667 49 -176 79c-53.333 30.667 -96.333 73 -129 127s-49 117.667 -49 191c0 131.333 54.333 233.666 163 306.999s231.667 110.333 369 111c243.333 0 419.666 -70.333 528.999 -211l-176 -137c-32.667 39.333 -81 70 -145 92
s-136 33 -216 33c-79.333 0 -147 -17 -203 -51c-55.333 -34 -83 -78.333 -83 -133s22.667 -100.334 68 -137.001c45.333 -36 101.333 -62.333 168 -79c67.333 -16 140.666 -36 219.999 -60s152.666 -49.667 219.999 -77s123.666 -70.333 168.999 -129
s68 -127.334 68 -206.001s-19.333 -145.667 -58 -201c-66 -95.333 -180 -162.666 -342 -201.999c-66.667 -16 -131.334 -24 -194.001 -24z" />
    <glyph glyph-name="sacute" unicode="&#x15b;" horiz-adv-x="983" 
d="M612 1493c4 0 17.999 -3.66699 41.999 -11s42.667 -22 56 -44s20.333 -44.667 21 -68c0 -53.333 -19.667 -89.333 -59 -108l-328 -168l-74 73l244 279c24.667 31.333 57.334 47 98.001 47zM900.999 260c0.666992 -87.333 -40.999 -156.333 -124.999 -207
s-176 -76 -276 -76c-100 0.666992 -187.333 21 -262 61c-75.333 40 -127.333 101.667 -156 185l205 62c10.667 -34 37.667 -59.667 81 -77c44 -17.333 89.333 -26 136 -26s86.667 8.33301 120 25s50 38 50 64s-12.333 44.333 -37 55c-47.333 20.667 -102.333 40 -165 58
s-109.334 34.333 -140.001 49s-64 33.667 -100 57c-70 48.667 -105 117 -105 205s36.667 156.333 110 205c74 48.667 152.333 73 235 73s156.334 -12.667 221.001 -38s113.667 -60 147 -104l-166 -116c-53.333 43.333 -107.333 65 -162 65s-95.334 -8 -122.001 -24
s-40 -37 -40 -63c0 -26.667 18.667 -49 56 -67c25.333 -12.667 85 -32.334 179 -59.001s170 -62.667 228 -108c58.667 -45.333 88 -111.666 88 -198.999z" />
    <glyph glyph-name="Scircumflex" unicode="&#x15c;" horiz-adv-x="1421" 
d="M522 1550l-96 60l197 305h180l196 -305l-96 -60l-190 222zM725 -29c-146 0.666992 -276.997 33.001 -392.997 97.001s-192.667 152 -230 264l213 69c20.667 -61.333 70.334 -110.666 149.001 -147.999s171 -56 277 -56s193.667 25.667 263 77c42 32 63 70 63 114
c0 82.667 -59.333 143 -178 181c-53.333 18 -111.666 35 -174.999 51c-64 16 -128 35.333 -192 58s-122.667 49 -176 79c-53.333 30.667 -96.333 73 -129 127s-49 117.667 -49 191c0 131.333 54.333 233.666 163 306.999s231.667 110.333 369 111
c243.333 0 419.666 -70.333 528.999 -211l-176 -137c-32.667 39.333 -81 70 -145 92s-136 33 -216 33c-79.333 0 -147 -17 -203 -51c-55.333 -34 -83 -78.333 -83 -133s22.667 -100.334 68 -137.001c45.333 -36 101.333 -62.333 168 -79c67.333 -16 140.666 -36 219.999 -60
s152.666 -49.667 219.999 -77s123.666 -70.333 168.999 -129s68 -127.334 68 -206.001s-19.333 -145.667 -58 -201c-66 -95.333 -180 -162.666 -342 -201.999c-66.667 -16 -131.334 -24 -194.001 -24z" />
    <glyph glyph-name="scircumflex" unicode="&#x15d;" horiz-adv-x="983" 
d="M309 1100l-96 59l197 305h180l196 -305l-96 -59l-190 221zM901 260c0.666992 -87.333 -40.999 -156.333 -124.999 -207s-176 -76 -276 -76c-100 0.666992 -187.333 21 -262 61c-75.333 40 -127.333 101.667 -156 185l205 62c10.667 -34 37.667 -59.667 81 -77
c44 -17.333 89.333 -26 136 -26s86.667 8.33301 120 25s50 38 50 64s-12.333 44.333 -37 55c-47.333 20.667 -102.333 40 -165 58s-109.334 34.333 -140.001 49s-64 33.667 -100 57c-70 48.667 -105 117 -105 205s36.667 156.333 110 205c74 48.667 152.333 73 235 73
s156.334 -12.667 221.001 -38s113.667 -60 147 -104l-166 -116c-53.333 43.333 -107.333 65 -162 65s-95.334 -8 -122.001 -24s-40 -37 -40 -63c0 -26.667 18.667 -49 56 -67c25.333 -12.667 85 -32.334 179 -59.001s170 -62.667 228 -108
c58.667 -45.333 88 -111.666 88 -198.999z" />
    <glyph glyph-name="Scedilla" unicode="&#x15e;" horiz-adv-x="1421" 
d="M464 253c78.667 -37.333 171.004 -55.9961 277.004 -55.9961s193.667 25.667 263 77c42 32 63 70 63 114c0 82.667 -59.333 143 -178 181c-53.333 18 -111.666 35 -174.999 51c-64 16 -128 35.333 -192 58s-122.667 49 -176 79c-53.333 30.667 -96.333 73 -129 127
s-49 117.667 -49 191c0 131.333 54.333 233.666 163 306.999s231.667 110.333 369 111c243.333 0 419.666 -70.333 528.999 -211l-176 -137c-32.667 39.333 -81 70 -145 92s-136 33 -216 33c-79.333 0 -147 -17 -203 -51c-55.333 -34 -83 -78.333 -83 -133
s22.667 -100.334 68 -137.001c45.333 -36 101.333 -62.333 168 -79c67.333 -16 140.666 -36 219.999 -60s152.666 -49.667 219.999 -77s123.666 -70.333 168.999 -129s68 -125.334 68 -200.001c0 -140 -55.333 -244 -166 -312
c-110.667 -67.333 -229.334 -106.333 -356.001 -117l-15 -55c53.333 -5.33301 98 -27.333 134 -66s54 -89.334 54 -152.001s-24.667 -116.667 -74 -162c-50 -44 -108.333 -66 -175 -66s-122.667 15 -168 45s-74 73.667 -86 131c1.33301 0 24.666 8 69.999 24
s70.333 26.333 75 31c12 -44 40.667 -65.667 86 -65c22 0 41.333 6 58 18c16 12 24 28.333 24 49c0 52 -30 78 -90 78l-28 -2l-62 96l10 101c-122.667 14.667 -230 52.667 -322 114s-154 140.666 -186 237.999l213 69c20.667 -61.333 70.334 -110.666 149.001 -147.999z" />
    <glyph glyph-name="scedilla" unicode="&#x15f;" horiz-adv-x="983" 
d="M504 182c46.667 0 86.668 8.33496 120.001 25.002s50 38 50 64s-12.333 44.333 -37 55c-47.333 20.667 -102.333 40 -165 58s-109.334 34.333 -140.001 49s-64 33.667 -100 57c-70 48.667 -105 117 -105 205s36.667 156.333 110 205c74 48.667 152.333 73 235 73
s156.334 -12.667 221.001 -38s113.667 -60 147 -104l-166 -116c-53.333 43.333 -107.333 65 -162 65s-95.334 -8 -122.001 -24s-40 -37 -40 -63c0 -26.667 18.667 -49 56 -67c25.333 -12.667 60 -25.334 104 -38.001c142.667 -40 243.334 -82.667 302.001 -128
c59.333 -46 89 -109.333 89 -190c0 -80 -31.333 -144.667 -94 -194s-137.667 -80 -225 -92l-19 -64c53.333 -5.33301 98 -27.333 134 -66c36.667 -38.667 55 -89.334 55 -152.001s-25 -116.667 -75 -162c-50 -44 -108.333 -66 -175 -66s-122.667 15 -168 45
s-74 73.667 -86 131c1.33301 0 24.666 8 69.999 24s70.333 26.333 75 31c12 -44 40.667 -65.667 86 -65c22 0 41.333 6 58 18c16 12 24 28.333 24 49c0 52 -30 78 -90 78l-29 -2l-61 96l12 107c-161.333 26 -265 105 -311 237l205 62c10.667 -34 37.667 -59.667 81 -77
c44 -17.333 89.333 -26 136 -26z" />
    <glyph glyph-name="Scaron" unicode="&#x160;" horiz-adv-x="1421" 
d="M438 1862l99 59l194 -225l195 225l98 -59l-201 -312h-184zM725 -29c-146 0.666992 -276.997 33.001 -392.997 97.001s-192.667 152 -230 264l213 69c20.667 -61.333 70.334 -110.666 149.001 -147.999s171 -56 277 -56s193.667 25.667 263 77c42 32 63 70 63 114
c0 82.667 -59.333 143 -178 181c-53.333 18 -111.666 35 -174.999 51c-64 16 -128 35.333 -192 58s-122.667 49 -176 79c-53.333 30.667 -96.333 73 -129 127s-49 117.667 -49 191c0 131.333 54.333 233.666 163 306.999s231.667 110.333 369 111
c243.333 0 419.666 -70.333 528.999 -211l-176 -137c-32.667 39.333 -81 70 -145 92s-136 33 -216 33c-79.333 0 -147 -17 -203 -51c-55.333 -34 -83 -78.333 -83 -133s22.667 -100.334 68 -137.001c45.333 -36 101.333 -62.333 168 -79c67.333 -16 140.666 -36 219.999 -60
s152.666 -49.667 219.999 -77s123.666 -70.333 168.999 -129s68 -127.334 68 -206.001s-19.333 -145.667 -58 -201c-66 -95.333 -180 -162.666 -342 -201.999c-66.667 -16 -131.334 -24 -194.001 -24z" />
    <glyph glyph-name="scaron" unicode="&#x161;" horiz-adv-x="983" 
d="M203 1403l98 59l195 -225l194 225l98 -59l-200 -311h-185zM901 260c0.666992 -87.333 -40.999 -156.333 -124.999 -207s-176 -76 -276 -76c-100 0.666992 -187.333 21 -262 61c-75.333 40 -127.333 101.667 -156 185l205 62c10.667 -34 37.667 -59.667 81 -77
c44 -17.333 89.333 -26 136 -26s86.667 8.33301 120 25s50 38 50 64s-12.333 44.333 -37 55c-47.333 20.667 -102.333 40 -165 58s-109.334 34.333 -140.001 49s-64 33.667 -100 57c-70 48.667 -105 117 -105 205s36.667 156.333 110 205c74 48.667 152.333 73 235 73
s156.334 -12.667 221.001 -38s113.667 -60 147 -104l-166 -116c-53.333 43.333 -107.333 65 -162 65s-95.334 -8 -122.001 -24s-40 -37 -40 -63c0 -26.667 18.667 -49 56 -67c25.333 -12.667 85 -32.334 179 -59.001s170 -62.667 228 -108
c58.667 -45.333 88 -111.666 88 -198.999z" />
    <glyph glyph-name="Tcommaaccent" unicode="&#x162;" horiz-adv-x="1091" 
d="M428 0v1241h-408v221h1051v-221h-407v-1241h-236zM293 -512v68l137 333h250l-254 -401h-133z" />
    <glyph glyph-name="tcommaaccent" unicode="&#x163;" horiz-adv-x="626" 
d="M61 754v196h123v293l74 74h145v-367h152v-196h-152v-541h84v-213h-208l-95 94v660h-123zM90 -512v68l137 333h250l-254 -401h-133z" />
    <glyph glyph-name="Tcaron" unicode="&#x164;" horiz-adv-x="1091" 
d="M252 1862l98 61l195 -227l194 227l99 -61l-201 -314h-184zM428 0v1241h-408v221h1051v-221h-407v-1241h-236z" />
    <glyph glyph-name="tcaron" unicode="&#x165;" horiz-adv-x="669" 
d="M61 754v196h123v293l74 74h145v-367h152v-196h-152v-541h84v-213h-208l-95 94v660h-123zM492 1135v67l137 334h252l-256 -401h-133z" />
    <glyph glyph-name="Tbar" unicode="&#x166;" horiz-adv-x="1091" 
d="M428 0v586h-252v205h252v450h-408v221h1051v-221h-407v-450h249v-205h-249v-586h-236z" />
    <glyph glyph-name="tbar" unicode="&#x167;" horiz-adv-x="626" 
d="M61 754v196h123v293l72 74h147v-367h152v-196h-152v-140h152v-196h-152v-205h84v-213h-211l-92 94v324h-123v196h123v140h-123z" />
    <glyph glyph-name="Utilde" unicode="&#x168;" horiz-adv-x="1509" 
d="M940 1815c38.667 0 72.665 23 101.998 69l109 -61c-4 -14.667 -13.333 -35 -28 -61c-50.667 -85.333 -120.667 -128.666 -210 -129.999c-47.333 0 -107.666 15 -180.999 45s-123.333 45 -150 45s-49.667 -5.66699 -69 -17c-18.667 -11.333 -30 -23.333 -34 -36l-8 -18
l-104 71c1.33301 5.33301 3.66602 12 6.99902 20c48 105.333 128.333 158.666 241 159.999c36.667 0 90.334 -14.333 161.001 -43c70.667 -29.333 125.334 -44 164.001 -44zM1100 594v868h225v-872c0 -203.333 -52 -357.333 -156 -462
c-103.333 -104.667 -241 -157 -413 -157s-310.333 52.333 -415 157s-157 258.667 -157 462v872h228v-868c0 -134 32.667 -233.667 98 -299s147.333 -98 246 -98s180.667 32.667 246 98s98 165 98 299z" />
    <glyph glyph-name="utilde" unicode="&#x169;" horiz-adv-x="1107" 
d="M376 1210c-26.667 0 -49.3301 -5.66797 -67.9971 -17.001s-30 -23.333 -34 -36l-8 -18l-104 71c3.33301 13.333 12.666 32.333 27.999 57c49.333 80.667 122 122 218 124c39.333 0 94 -14.667 164 -44c69.333 -29.333 118 -44 146 -44c50 0 86.333 17.667 109 53l11 16
l108 -61c-4 -14.667 -13.333 -35 -28 -61c-50.667 -85.333 -120.334 -128.666 -209.001 -129.999c-46.667 0 -107 15 -181 45c-74.667 30 -125.334 45 -152.001 45zM555.004 -23.001c-114.667 0 -212 39.001 -292 117.001s-120 184.667 -120 320v536h224v-536
c0 -72.667 17.667 -128.334 53 -167.001c35.333 -39.333 80.333 -59 135 -59s99.667 19.333 135 58s53 94.667 53 168v536h222v-536c0 -135.333 -39.667 -242 -119 -320s-176.333 -117 -291 -117z" />
    <glyph glyph-name="Umacron" unicode="&#x16a;" horiz-adv-x="1509" 
d="M467 1630v164h575v-164h-575zM1100 594v868h225v-872c0 -203.333 -52 -357.333 -156 -462c-103.333 -104.667 -241 -157 -413 -157s-310.333 52.333 -415 157s-157 258.667 -157 462v872h228v-868c0 -134 32.667 -233.667 98 -299s147.333 -98 246 -98
s180.667 32.667 246 98s98 165 98 299z" />
    <glyph glyph-name="umacron" unicode="&#x16b;" horiz-adv-x="1107" 
d="M268 1167v164h576v-164h-576zM555 -23c-114.667 0 -212 39.001 -292 117.001s-120 184.667 -120 320v536h224v-536c0 -72.667 17.667 -128.334 53 -167.001c35.333 -39.333 80.333 -59 135 -59s99.667 19.333 135 58s53 94.667 53 168v536h222v-536
c0 -135.333 -39.667 -242 -119 -320s-176.333 -117 -291 -117z" />
    <glyph glyph-name="Ubreve" unicode="&#x16c;" horiz-adv-x="1509" 
d="M492 1763l162.999 0.000976562c0 -23.333 10 -42.333 30 -57s43.667 -22.334 71 -23.001c28 0 51.333 7.66699 70 23s28 34.333 28 57h166c0 -62.667 -25.667 -114 -77 -154c-51.333 -40.667 -113.666 -61 -186.999 -61s-136 20 -188 60c-50.667 40 -76 91.667 -76 155z
M1100 594.001v868h225v-872c0 -203.333 -52 -357.333 -156 -462c-103.333 -104.667 -241 -157 -413 -157s-310.333 52.333 -415 157s-157 258.667 -157 462v872h228v-868c0 -134 32.667 -233.667 98 -299s147.333 -98 246 -98s180.667 32.667 246 98s98 165 98 299z" />
    <glyph glyph-name="ubreve" unicode="&#x16d;" horiz-adv-x="1107" 
d="M291 1331l164.003 0.000976562c-0.666992 -23.333 9 -42.333 29 -57s43.667 -22.334 71 -23.001c27.333 0 50.666 7.66699 69.999 23s28.666 34.333 27.999 57h166c0 -62.667 -25.667 -114 -77 -154c-52 -40.667 -114.667 -61 -188 -61s-135.333 20 -186 60
s-76.334 91.667 -77.001 155zM555.003 -22.999c-114.667 0 -212 39.001 -292 117.001s-120 184.667 -120 320v536h224v-536c0 -72.667 17.667 -128.334 53 -167.001c35.333 -39.333 80.333 -59 135 -59s99.667 19.333 135 58s53 94.667 53 168v536h222v-536
c0 -135.333 -39.667 -242 -119 -320s-176.333 -117 -291 -117z" />
    <glyph glyph-name="Uring" unicode="&#x16e;" horiz-adv-x="1509" 
d="M647 1725c0 -28.667 10.668 -53.667 32.001 -75s46.666 -32 75.999 -32c30 0 55.667 10.667 77 32s32 46.666 32 75.999s-11 54.333 -33 75c-22 21.333 -47.667 32 -77 32s-54.333 -10.667 -75 -32c-21.333 -21.333 -32 -46.666 -32 -75.999zM756.001 1489
c-64 0.666992 -119.333 24.334 -166 71.001s-70 101.667 -70 165s23.333 118.333 70 165s102 70 166 70s119.333 -23.333 166 -70s70 -101.667 70 -165s-23.333 -118.333 -70 -165s-102 -70.334 -166 -71.001zM1100 594v868h225v-872c0 -203.333 -52 -357.333 -156 -462
c-103.333 -104.667 -241 -157 -413 -157s-310.333 52.333 -415 157s-157 258.667 -157 462v872h228v-868c0 -134 32.667 -233.667 98 -299s147.333 -98 246 -98s180.667 32.667 246 98s98 165 98 299z" />
    <glyph glyph-name="uring" unicode="&#x16f;" horiz-adv-x="1107" 
d="M446 1312c0 -29.333 10.667 -54.666 32 -75.999s46.666 -32 75.999 -32s55 10.667 77 32s33 46.666 33 75.999s-11 54.666 -33 75.999s-47.667 32 -77 32s-54.666 -10.667 -75.999 -32s-32 -46.666 -32 -75.999zM319 1312c0 63.333 23.333 118.334 70 165.001
c46.667 46 102 69 166 69s119.333 -23.333 166 -70s70 -101.334 70 -164.001c0 -63.333 -23.333 -118.666 -70 -165.999s-102 -71 -166 -71s-119.333 23.667 -166 71s-70 102.666 -70 165.999zM555 -22.999c-114.667 0 -212 39.001 -292 117.001s-120 184.667 -120 320v536
h224v-536c0 -72.667 17.667 -128.334 53 -167.001c35.333 -39.333 80.333 -59 135 -59s99.667 19.333 135 58s53 94.667 53 168v536h222v-536c0 -135.333 -39.667 -242 -119 -320s-176.333 -117 -291 -117z" />
    <glyph glyph-name="Uhungarumlaut" unicode="&#x170;" horiz-adv-x="1509" 
d="M1140 1935c76 -0.666992 113.333 -39.667 112 -117c0 -38.667 -20.667 -70.667 -62 -96l-311 -186l-72 74l242 278c24.667 31.333 55 47 91 47zM784 1935c73.333 0.666992 110.333 -38.333 111 -117c0 -38.667 -20.333 -70.667 -61 -96l-310 -186l-73 74l243 278
c24 31.333 54 47 90 47zM1100 594v868h225v-872c0 -203.333 -52 -357.333 -156 -462c-103.333 -104.667 -241 -157 -413 -157s-310.333 52.333 -415 157s-157 258.667 -157 462v872h228v-868c0 -134 32.667 -233.667 98 -299s147.333 -98 246 -98s180.667 32.667 246 98
s98 165 98 299z" />
    <glyph glyph-name="uhungarumlaut" unicode="&#x171;" horiz-adv-x="1107" 
d="M910 1493c74.667 0.666992 112 -38.333 112 -117c0 -38.667 -20.333 -70.667 -61 -96l-312 -186l-71 73l241 279c24.667 31.333 55 47 91 47zM555 1493c74 -0.666992 111 -40.333 111 -119c0 -38.667 -20.667 -70 -62 -94l-309 -186l-74 73l244 279
c24.667 31.333 54.667 47 90 47zM555 -22.999c-114.667 0 -212 39.001 -292 117.001s-120 184.667 -120 320v536h224v-536c0 -72.667 17.667 -128.334 53 -167.001c35.333 -39.333 80.333 -59 135 -59s99.667 19.333 135 58s53 94.667 53 168v536h222v-536
c0 -135.333 -39.667 -242 -119 -320s-176.333 -117 -291 -117z" />
    <glyph glyph-name="Uogonek" unicode="&#x172;" horiz-adv-x="1509" 
d="M569 -238c0 70.667 34.333 141.667 103 213c-148.667 16.667 -267.334 76.667 -356.001 180c-88 103.333 -132 248.333 -132 435v872h228v-868c0 -134 32.667 -233.667 98 -299s147.333 -98 246 -98s180.334 32.667 245.001 98c65.333 65.333 98.333 165 99 299v868h225
v-872c0 -189.333 -44 -335.333 -132 -438s-207 -161.667 -357 -177c-42.667 -58 -64 -113 -64 -165s30 -78 90 -78l-43 -144c-166.667 10.667 -250 68.667 -250 174z" />
    <glyph glyph-name="uogonek" unicode="&#x173;" horiz-adv-x="1107" 
d="M319 -238c0 78 39.668 155.334 119.001 232.001c-87.333 22.667 -158.333 70.667 -213 144s-82 165.333 -82 276v536h224v-536c0 -72.667 17.667 -128.334 53 -167.001c35.333 -39.333 80.333 -59 135 -59s99.667 19.333 135 58s53 94.667 53 168v536h222v-536
c0 -130 -37.333 -234 -112 -312s-166.334 -119.667 -275.001 -125c-37.333 -59.333 -56 -115 -56 -167s30 -78 90 -78l-43 -144c-166.667 10.667 -250 68.667 -250 174z" />
    <glyph glyph-name="Wcircumflex" unicode="&#x174;" horiz-adv-x="1937" 
d="M776 1550l-96 60l197 305h180l196 -305l-96 -60l-190 222zM1917 1462l-514 -1462h-305l-129 401l-127 -401h-307l-515 1462h261l415 -1224l150 491l-232 733h228l125 -409l129 409h227l-233 -733l151 -491l416 1224h260z" />
    <glyph glyph-name="wcircumflex" unicode="&#x175;" horiz-adv-x="1388" 
d="M504 1114l-96 60l196 305h180l197 -305l-96 -60l-191 221zM352 0l-321 950h229l232 -708l106 305l-147 403h184l59 -172l60 172h184l-150 -403l109 -307l231 710h230l-320 -950h-237l-107 289l-106 -289h-236z" />
    <glyph glyph-name="Ycircumflex" unicode="&#x176;" horiz-adv-x="1341" 
d="M481 1550l-96 60l197 305h180l196 -305l-96 -60l-190 222zM553 0v610l-533 852h275l377 -612l375 612h274l-533 -852v-610h-235z" />
    <glyph glyph-name="ycircumflex" unicode="&#x177;" horiz-adv-x="1073" 
d="M336 1100l-96 59l196 305h180l197 -305l-96 -59l-191 221zM819 950h223l-518 -1462h-223l180 512h-90l-360 950h221l287 -743h22z" />
    <glyph glyph-name="Ydieresis" unicode="&#x178;" horiz-adv-x="1341" 
d="M299 1778c0 40.667 13.999 75.667 41.999 105s62.333 44 103 44c41.333 0 76.666 -14.667 105.999 -44s44 -64.333 44 -105c0 -40 -14.667 -74.667 -44 -104s-64.666 -44 -105.999 -44s-75.666 14.667 -102.999 44c-28 29.333 -42 64 -42 104zM738.999 1778
c0 40.667 14.0029 75.667 42.0029 105c27.333 29.333 61.666 44 102.999 44s76.666 -14.667 105.999 -44s44 -64.333 44 -105c0 -40 -14.667 -74.667 -44 -104s-64.333 -44 -105 -44s-75.334 14.333 -104.001 43c-28 29.333 -42 64.333 -42 105zM553.002 0v610l-533 852h275
l377 -612l375 612h274l-533 -852v-610h-235z" />
    <glyph glyph-name="Zacute" unicode="&#x179;" horiz-adv-x="1327" 
d="M799 1948c5.33301 0 19.668 -4.00098 43.001 -12.001s41.666 -22.667 54.999 -44c13.333 -22 20.333 -44.333 21 -67c0 -53.333 -20 -89.666 -60 -108.999l-328 -168l-73 74c15.333 16.667 96.333 109.667 243 279c24.667 31.333 57.667 47 99 47zM1225 -0.000976562
h-1123v213l809 1028h-780v221h1079v-213l-813 -1036h828v-213z" />
    <glyph glyph-name="zacute" unicode="&#x17a;" horiz-adv-x="940" 
d="M590 1493c5.33301 0 19.667 -3.66699 43 -11s41.666 -22 54.999 -44s20.333 -44.667 21 -68c0 -53.333 -20 -89.333 -60 -108l-327 -168l-74 73l244 279c24.667 31.333 57.334 47 98.001 47zM858.001 209v-209h-776v166l479 588h-455v196h746v-168l-467 -573h473z" />
    <glyph glyph-name="Zdotaccent" unicode="&#x17b;" horiz-adv-x="1327" 
d="M522 1751c0 40.667 14.333 75.666 43 104.999s63.667 44.333 105 45c41.333 0 76.333 -14.667 105 -44c29.333 -28.667 44 -63.667 44 -105s-14.667 -76.333 -44 -105s-64.333 -43 -105 -43s-75.667 14.333 -105 43c-28.667 28.667 -43 63.334 -43 104.001z
M1225 -0.000976562h-1123v213l809 1028h-780v221h1079v-213l-813 -1036h828v-213z" />
    <glyph glyph-name="zdotaccent" unicode="&#x17c;" horiz-adv-x="940" 
d="M330 1266c0 40.667 14.332 75.667 42.999 105s63.334 44 104.001 44s75.667 -14.667 105 -44s44.333 -64.333 45 -105c0 -40 -14.667 -74.667 -44 -104c-28.667 -29.333 -63.667 -44 -105 -44s-76.333 14.667 -105 44s-43 64 -43 104zM857.999 209v-209h-776v166l479 588
h-455v196h746v-168l-467 -573h473z" />
    <glyph glyph-name="Zcaron" unicode="&#x17d;" horiz-adv-x="1327" 
d="M422 1862l98 59l195 -225l194 225l99 -59l-201 -312h-184zM1225 0h-1123v213l809 1028h-780v221h1079v-213l-813 -1036h828v-213z" />
    <glyph glyph-name="zcaron" unicode="&#x17e;" horiz-adv-x="940" 
d="M217 1403l98 59l195 -225l195 225l98 -59l-201 -311h-184zM858 209v-209h-776v166l479 588h-455v196h746v-168l-467 -573h473z" />
    <glyph glyph-name="florin" unicode="&#x192;" horiz-adv-x="837" 
d="M236 -80l0.00195312 834h-125v196h125v183c0 139.333 37.667 243.333 113 312c76 68.667 167.667 103 275 103s199 -27.333 275 -82v-45l-115 -114c-42 22 -88.333 32.667 -139 32c-126.667 0 -190 -78.333 -190 -235v-154h331v-196h-331v-863
c0 -139.333 -38 -243.333 -114 -312s-168.667 -103 -278 -103c-70.667 0 -139.334 15 -206.001 45c2.66699 6.66699 25 69.334 67 188.001c39.333 -16.667 79.666 -24.667 120.999 -24c127.333 -0.666992 191 77.666 191 234.999z" />
    <glyph glyph-name="AEacute" unicode="&#x1fc;" horiz-adv-x="1888" 
d="M723 1210l-225 -618h450zM1776 1462v-221h-828l137 -373h646v-221h-564l156 -424h453v-223h-611l-135 369h-614l-135 -369h-240l537 1462h1198zM1169 1948c4 0 17.999 -4.00098 41.999 -12.001c24.667 -8 43.667 -22.667 57 -44c13.333 -22 20 -44.333 20 -67
c0 -53.333 -19.667 -89.666 -59 -108.999l-328 -168l-74 74l244 279c24.667 31.333 57.334 47 98.001 47z" />
    <glyph glyph-name="aeacute" unicode="&#x1fd;" horiz-adv-x="1642" 
d="M979 1493c4 0 17.999 -3.66699 41.999 -11s42.667 -22 56 -44s20.333 -44.667 21 -68c0 -53.333 -20 -89.333 -60 -108l-327 -168l-74 73l244 279c24.667 31.333 57.334 47 98.001 47zM1136 778c-58 0 -109 -17.3311 -153 -51.998s-71.333 -79.334 -82 -134.001h463
c-6.66699 53.333 -32 97.666 -76 132.999s-94.667 53 -152 53zM499.999 162.002c72 0 126 26 162 78c35.333 52 53 111.333 53 178h-246c-62.667 0 -106.667 -12.333 -132 -37s-38 -54 -38 -88s15.667 -64.333 47 -91c30.667 -26.667 82 -40 154 -40zM1120 182.002
c101.333 0 180.003 44.3301 236.003 132.997l180 -98c-41.333 -69.333 -96 -126.666 -164 -171.999s-138.667 -68 -212 -68s-141.333 14 -204 42c-64 28 -115.667 62 -155 102c-76.667 -95.333 -178.334 -143 -305.001 -143s-225.334 28.667 -296.001 86
c-72 58.667 -108 136.334 -108 233.001c0 142.667 74 234 222 274c50 13.333 107.667 20.333 173 21h218v55c0.666992 40.667 -18.333 73.334 -57 98.001s-82.667 37 -132 37c-86 0 -144.667 -31.333 -176 -94l-184 84c56 134 180 201 372 201
c138 0 242.667 -36.333 314 -109c85.333 72.667 188 109 308 109s221.333 -46.667 304 -140s125 -205 127 -335l-80 -80h-610c5.33301 -69.333 31.666 -126 78.999 -170c46.667 -44 96.667 -66 150 -66z" />
    <glyph glyph-name="Oslashacute" unicode="&#x1fe;" horiz-adv-x="1712" 
d="M856 197c147.333 0 270 52.333 368 157c97.333 105.333 146 227.333 146 366s-40.333 257.667 -121 357l-678 -794c83.333 -57.333 178.333 -86 285 -86zM342 739c0 -140.667 42.333 -262.001 127 -364.001l682 796c-86 62.667 -184.333 94.334 -295 95.001
c-148 0 -270.667 -52.667 -368 -158s-146 -228.333 -146 -369zM856 1493c165.333 0 314.333 -46.999 447 -140.999l94 110h182l-172 -200c142 -146 213 -325 213 -537s-74.667 -390.667 -224 -536s-329.333 -218 -540 -218c-162.667 0 -308 44.333 -436 133l-88 -104h-182
l163 193c-147.333 147.333 -221 327.666 -221 540.999s74.667 393.333 224 540c150 146 330 219 540 219zM981 1948c5.33301 0 19.667 -4.00098 43 -12.001s41.666 -22.667 54.999 -44c13.333 -22 20.333 -44.333 21 -67c0 -53.333 -20 -89.666 -60 -108.999l-327 -168
l-74 74l244 279c24.667 31.333 57.334 47 98.001 47z" />
    <glyph glyph-name="oslashacute" unicode="&#x1ff;" horiz-adv-x="1136" 
d="M569 760c-79.333 0 -145 -28 -197 -84s-77.667 -118 -77 -186c0 -68 15 -126.333 45 -175l352 414c-36.667 20.667 -77.667 31 -123 31zM569 188c76.667 0 141.333 28.334 194 85.001s79 119.667 79 189s-15.667 127.666 -47 174.999l-355 -416
c40.667 -22 83.667 -33 129 -33zM568.999 971.001c96.667 0 185 -26 265 -78l47 57h182l-125 -145c84.667 -94 127 -207.333 127 -340s-48.667 -247 -146 -343s-214 -144.333 -350 -145c-96.667 0 -186 26 -268 78l-47 -55h-182l125 145c-83.333 94 -125 207.333 -125 340
s48.667 247 146 343s214.333 143.667 351 143zM679.999 1493c5.33301 0 19.667 -3.66699 43 -11s41.666 -22 54.999 -44s20.333 -44.667 21 -68c0 -53.333 -20 -89.333 -60 -108l-327 -168l-74 73l244 279c24.667 31.333 57.334 47 98.001 47z" />
    <glyph glyph-name="Scommaaccent" unicode="&#x218;" horiz-adv-x="1421" 
d="M725 -29c-146 0.666992 -276.997 33.001 -392.997 97.001s-192.667 152 -230 264l213 69c20.667 -61.333 70.334 -110.666 149.001 -147.999s171 -56 277 -56s193.667 25.667 263 77c42 32 63 70 63 114c0 82.667 -59.333 143 -178 181
c-53.333 18 -111.666 35 -174.999 51c-64 16 -128 35.333 -192 58s-122.667 49 -176 79c-53.333 30.667 -96.333 73 -129 127s-49 117.667 -49 191c0 131.333 54.333 233.666 163 306.999s231.667 110.333 369 111c243.333 0 419.666 -70.333 528.999 -211l-176 -137
c-32.667 39.333 -81 70 -145 92s-136 33 -216 33c-79.333 0 -147 -17 -203 -51c-55.333 -34 -83 -78.333 -83 -133s22.667 -100.334 68 -137.001c45.333 -36 101.333 -62.333 168 -79c67.333 -16 140.666 -36 219.999 -60s152.666 -49.667 219.999 -77
s123.666 -70.333 168.999 -129s68 -127.334 68 -206.001s-19.333 -145.667 -58 -201c-66 -95.333 -180 -162.666 -342 -201.999c-66.667 -16 -131.334 -24 -194.001 -24zM449.003 -511.999v68l137 333h252l-256 -401h-133z" />
    <glyph glyph-name="scommaaccent" unicode="&#x219;" horiz-adv-x="983" 
d="M901 260c0.666992 -87.333 -40.999 -156.333 -124.999 -207s-176 -76 -276 -76c-100 0.666992 -187.333 21 -262 61c-75.333 40 -127.333 101.667 -156 185l205 62c10.667 -34 37.667 -59.667 81 -77c44 -17.333 89.333 -26 136 -26s86.667 8.33301 120 25s50 38 50 64
s-12.333 44.333 -37 55c-47.333 20.667 -102.333 40 -165 58s-109.334 34.333 -140.001 49s-64 33.667 -100 57c-70 48.667 -105 117 -105 205s36.667 156.333 110 205c74 48.667 152.333 73 235 73s156.334 -12.667 221.001 -38s113.667 -60 147 -104l-166 -116
c-53.333 43.333 -107.333 65 -162 65s-95.334 -8 -122.001 -24s-40 -37 -40 -63c0 -26.667 18.667 -49 56 -67c25.333 -12.667 85 -32.334 179 -59.001s170 -62.667 228 -108c58.667 -45.333 88 -111.666 88 -198.999zM219.001 -512v68l137 333h250l-254 -401h-133z" />
    <glyph glyph-name="circumflex" unicode="&#x2c6;" horiz-adv-x="591" 
d="M104 1114l-96 60l197 305h180l197 -305l-97 -60l-190 221z" />
    <glyph glyph-name="caron" unicode="&#x2c7;" horiz-adv-x="583" 
d="M2 1862l98 61l195 -227l194 227l99 -61l-201 -314h-184z" />
    <glyph glyph-name="breve" unicode="&#x2d8;" horiz-adv-x="602" 
d="M37 1585l164.003 0.000976562c-0.666992 -23.333 9 -42.333 29 -57s43.667 -22.334 71 -23.001c27.333 0 50.666 7.66699 69.999 23s28.666 34.333 27.999 57h166c0 -62.667 -25.667 -114 -77 -154c-52 -40.667 -114.667 -61 -188 -61s-135.333 20 -186 60
s-76.334 91.667 -77.001 155z" />
    <glyph glyph-name="dotaccent" unicode="&#x2d9;" horiz-adv-x="436" 
d="M70 1266c0 40.667 14.332 75.667 42.999 105s63.334 44 104.001 44s75.667 -14.667 105 -44s44.333 -64.333 45 -105c0 -40 -14.667 -74.667 -44 -104c-28.667 -29.333 -63.667 -44 -105 -44s-76.333 14.667 -105 44s-43 64 -43 104z" />
    <glyph glyph-name="ring" unicode="&#x2da;" horiz-adv-x="544" 
d="M164 1570c0 -29.333 10.6689 -54.666 32.002 -75.999s46.666 -32 75.999 -32s54.666 10.667 75.999 32c22 21.333 33 46.666 33 75.999s-11 54.666 -33 75.999s-47.667 32 -77 32c-28.667 0 -53.667 -10.667 -75 -32s-32 -46.666 -32 -75.999zM37.002 1570
c0 63.333 23 118.334 69 165.001c46.667 46 102 69 166 69s119.333 -23.333 166 -70s70 -101.334 70 -164.001c0 -63.333 -23.333 -118.666 -70 -165.999s-102 -71 -166 -71s-119.333 23.667 -166 71c-46 47.333 -69 102.666 -69 165.999z" />
    <glyph glyph-name="ogonek" unicode="&#x2db;" horiz-adv-x="428" 
d="M74 -238c0 46.667 16.668 96.001 50.001 148.001s74.666 94.333 123.999 127l92 -29v-33c-42 -58.667 -63.333 -112.334 -64 -161.001c0.666992 -54.667 31 -82 91 -82l-43 -144c-166.667 10.667 -250 68.667 -250 174z" />
    <glyph glyph-name="tilde" unicode="&#x2dc;" horiz-adv-x="882" 
d="M273 1210c-27.333 0 -50.335 -5.66699 -69.002 -17s-30.667 -23.333 -36 -36l-6 -18l-105 71c2.66699 10.667 11.667 29 27 55c16 26 32.333 47 49 63s40.334 30.333 71.001 43s64.667 19 102 19s91.333 -14.333 162 -43c70.667 -29.333 119.334 -44 146.001 -44
c28 0 51.333 5.66699 70 17s31 23.333 37 36l12 16l109 -61c-4 -14.667 -14.667 -36.667 -32 -66c-46.667 -82 -118 -123.667 -214 -125c-40 0 -96.667 15 -170 45s-124.333 45 -153 45z" />
    <glyph glyph-name="hungarumlaut" unicode="&#x2dd;" horiz-adv-x="950" 
d="M771 1493c74.667 0.666992 112 -38.333 112 -117c0 -38.667 -20.667 -70.667 -62 -96l-311 -186l-72 73l242 279c24.667 31.333 55 47 91 47zM416 1493c35.333 0 62.667 -9.99902 82 -29.999c18.667 -20.667 28 -50.334 28 -89.001s-20.333 -70 -61 -94l-309 -186l-74 73
l244 279c24.667 31.333 54.667 47 90 47z" />
    <glyph glyph-name="pi" unicode="&#x3c0;" horiz-adv-x="1103" 
d="M715 768h-324v-768h-201v768h-98v182h909v-182h-86v-614h60v-154h-195l-65 68v700z" />
    <glyph glyph-name="Wgrave" unicode="&#x1e80;" horiz-adv-x="1937" 
d="M1194 1622l-72 -74.001c-198 102.667 -307 158.667 -327 168c-40.667 20.667 -61 58 -61 112s25.667 90.333 77 109c23.333 6.66699 37.666 10.334 42.999 11.001c40.667 0 73.334 -15.667 98.001 -47zM1917 1462l-514 -1462h-305l-129 401l-127 -401h-307l-515 1462h261
l415 -1224l150 491l-232 733h228l125 -409l129 409h227l-233 -733l151 -491l416 1224h260z" />
    <glyph glyph-name="wgrave" unicode="&#x1e81;" horiz-adv-x="1388" 
d="M463 1374c0 53.333 25.999 89.668 77.999 109.001c24.667 6.66699 39 10 43 10c40.667 0 73.334 -15.667 98.001 -47l242 -279l-72 -73c-198 102.667 -307.333 158.667 -328 168c-40.667 21.333 -61 58.666 -61 111.999zM351.999 0.00195312l-321 950h229l232 -708
l106 305l-147 403h184l59 -172l60 172h184l-150 -403l109 -307l231 710h230l-320 -950h-237l-107 289l-106 -289h-236z" />
    <glyph glyph-name="Wacute" unicode="&#x1e82;" horiz-adv-x="1937" 
d="M1087 1948c4 0 17.999 -4.00098 41.999 -12.001c24.667 -8 43.667 -22.667 57 -44c13.333 -22 20 -44.333 20 -67c0 -53.333 -19.667 -89.666 -59 -108.999l-328 -168l-74 74l244 279c24.667 31.333 57.334 47 98.001 47zM1917 1462l-514 -1462h-305l-129 401l-127 -401
h-307l-515 1462h261l415 -1224l150 491l-232 733h228l125 -409l129 409h227l-233 -733l151 -491l416 1224h260z" />
    <glyph glyph-name="wacute" unicode="&#x1e83;" horiz-adv-x="1388" 
d="M805 1493c4 0 17.999 -3.66699 41.999 -11s42.667 -22 56 -44s20.333 -44.667 21 -68c0 -53.333 -20 -89.333 -60 -108l-327 -168l-74 73l244 279c24.667 31.333 57.334 47 98.001 47zM351.999 0l-321 950h229l232 -708l106 305l-147 403h184l59 -172l60 172h184
l-150 -403l109 -307l231 710h230l-320 -950h-237l-107 289l-106 -289h-236z" />
    <glyph glyph-name="Wdieresis" unicode="&#x1e84;" horiz-adv-x="1937" 
d="M598 1749c0 40.667 14 75.667 42 105s62.333 44 103 44s75.667 -14.667 105 -44s44.333 -64.333 45 -105c0 -40.667 -14.667 -75.334 -44 -104.001c-28.667 -28.667 -63.667 -43 -105 -43s-76 14.333 -104 43s-42 63.334 -42 104.001zM1038 1749
c0 40.667 14.001 75.667 42.001 105s62.667 44 104 44s76.333 -14.667 105 -44c29.333 -29.333 44 -64.333 44 -105s-14.667 -75.334 -44 -104.001s-64.333 -43 -105 -43s-75.334 14.333 -104.001 43c-28 28.667 -42 63.334 -42 104.001zM1917 1462l-514 -1462h-305
l-129 401l-127 -401h-307l-515 1462h261l415 -1224l150 491l-232 733h228l125 -409l129 409h227l-233 -733l151 -491l416 1224h260z" />
    <glyph glyph-name="wdieresis" unicode="&#x1e85;" horiz-adv-x="1388" 
d="M326 1266c0 40.667 14 75.667 42 105s62.333 44 103 44s75.667 -14.667 105 -44s44.333 -64.333 45 -105c0 -40 -14.667 -74.667 -44 -104c-28.667 -29.333 -63.667 -44 -105 -44s-76 14.667 -104 44s-42 64 -42 104zM766 1266c0 40.667 14 75.667 42 105
s62.333 44 103 44s75.667 -14.667 105 -44s44.333 -64.333 45 -105c0 -40 -14.667 -74.667 -44 -104c-28.667 -29.333 -63.667 -44 -105 -44s-76 14.667 -104 44s-42 64 -42 104zM352 0l-321 950h229l232 -708l106 305l-147 403h184l59 -172l60 172h184l-150 -403l109 -307
l231 710h230l-320 -950h-237l-107 289l-106 -289h-236z" />
    <glyph glyph-name="Ygrave" unicode="&#x1ef2;" horiz-adv-x="1341" 
d="M897 1622l-72 -74.001c-198 102.667 -307 158.667 -327 168c-41.333 20.667 -62 58 -62 112s26 90.333 78 109c23.333 6.66699 37.666 10.334 42.999 11.001c40.667 0 73.334 -15.667 98.001 -47zM553 -0.000976562v610l-533 852h275l377 -612l375 612h274l-533 -852
v-610h-235z" />
    <glyph glyph-name="ygrave" unicode="&#x1ef3;" horiz-adv-x="1073" 
d="M297 1374c0 53.333 25.999 89.668 77.999 109.001c24.667 6.66699 39 10 43 10c40.667 0 73.334 -15.667 98.001 -47l242 -279l-72 -73c-198 102.667 -307.333 158.667 -328 168c-40.667 21.333 -61 58.666 -61 111.999zM818.999 950.002h223l-518 -1462h-223l180 512
h-90l-360 950h221l287 -743h22z" />
    <glyph glyph-name="figuredash" unicode="&#x2012;" horiz-adv-x="1052" 
d="M82 573v197h889v-197h-889z" />
    <glyph glyph-name="endash" unicode="&#x2013;" horiz-adv-x="1150" 
d="M82 457v196h987v-196h-987z" />
    <glyph glyph-name="emdash" unicode="&#x2014;" horiz-adv-x="1843" 
d="M82 457v196h1679v-196h-1679z" />
    <glyph glyph-name="quoteleft" unicode="&#x2018;" horiz-adv-x="462" 
d="M463 1536l-205 -541h-258l285 541h178z" />
    <glyph glyph-name="quoteright" unicode="&#x2019;" horiz-adv-x="362" 
d="M0 995l207 541h256l-285 -541h-178z" />
    <glyph glyph-name="quotesinglbase" unicode="&#x201a;" horiz-adv-x="432" 
d="M-31 -338l207 541h256l-285 -541h-178z" />
    <glyph glyph-name="quotedblleft" unicode="&#x201c;" horiz-adv-x="739" 
d="M827 1540l-206 -541h-256l284 541h178zM463 1540l-207 -541h-256l285 541h178z" />
    <glyph glyph-name="quotedblright" unicode="&#x201d;" horiz-adv-x="698" 
d="M0 999l207 541h256l-285 -541h-178zM365 999l206 541h256l-284 -541h-178z" />
    <glyph glyph-name="quotedblbase" unicode="&#x201e;" horiz-adv-x="798" 
d="M336 -338l207 541h256l-285 -541h-178zM-31 -338l207 541h256l-285 -541h-178z" />
    <glyph glyph-name="dagger" unicode="&#x2020;" horiz-adv-x="991" 
d="M102 973v141h314v348h159v-348h314v-141h-314v-973h-159v973h-314z" />
    <glyph glyph-name="daggerdbl" unicode="&#x2021;" horiz-adv-x="1011" 
d="M113 973v141h313v348h160v-348h313v-141h-313v-484h313v-141h-313v-348h-160v348h-313v141h313v484h-313z" />
    <glyph glyph-name="bullet" unicode="&#x2022;" horiz-adv-x="702" 
d="M102 531c0 68.667 24.333 127.666 73 176.999s107.334 74 176.001 74s127.334 -24.667 176.001 -74s73 -108.666 73 -177.999c0 -68 -24.333 -126.333 -73 -175s-107.334 -73 -176.001 -73s-127.334 24.667 -176.001 74c-48.667 48 -73 106.333 -73 175z" />
    <glyph glyph-name="ellipsis" unicode="&#x2026;" horiz-adv-x="1755" 
d="M1331 131c0 44 15.667 82 47 114s69 48 113 48s82 -16 114 -48s48 -70 48 -114s-16 -81.667 -48 -113s-70 -47 -114 -47s-81.667 15.667 -113 47s-47 69 -47 113zM717 131c0 44 15.667 82 47 114s69 48 113 48c43.333 0 81 -16 113 -48s48 -70 48 -114
s-16 -81.667 -48 -113s-70 -47 -114 -47s-81.333 15.667 -112 47c-31.333 31.333 -47 69 -47 113zM102 131c0 44 16 82 48 114s69.333 48 112 48c44 0 82 -16 114 -48s48 -70 48 -114s-16 -81.667 -48 -113s-70 -47 -114 -47s-81.667 15.667 -113 47s-47 69 -47 113z" />
    <glyph glyph-name="perthousand" unicode="&#x2030;" horiz-adv-x="1681" 
d="M377 1346c-39.333 0 -73.001 -14.333 -101.001 -43s-41.333 -63 -40 -103c0 -40 13.667 -74 41 -102c27.333 -28.667 60.333 -43 99 -43s71.334 14.333 98.001 43s40 62.667 40 102c0 38.667 -13 72.667 -39 102s-58.667 44 -98 44zM1335 111
c40.667 0 75.334 15 104.001 45c28 30 42 66 42 108c0 41.333 -13.667 77.333 -41 108c-26.667 30.667 -61.334 46 -104.001 46s-77.667 -15 -105 -45s-41 -66.333 -41 -109s14 -78.667 42 -108c28 -30 62.333 -45 103 -45zM901.999 111c41.333 0 76 15 104 45
c27.333 30 41 66 41 108c0 41.333 -13.667 77.333 -41 108c-28 30.667 -62.667 46 -104 46s-76 -15 -104 -45s-42 -66.333 -42 -109s14 -78.667 42 -108c28 -30 62.667 -45 104 -45zM375.999 1485c78.667 0 145.668 -27.333 201.001 -82s83 -122.334 83 -203.001
s-28 -148.667 -84 -204c-54.667 -55.333 -121.334 -83 -200.001 -83s-146 27.667 -202 83s-84 123.333 -84 204s28 148.334 84 203.001s123.333 82 202 82zM61 0l967 1462h189l-969 -1462h-187zM908 549c82.667 0 152.667 -33.333 210 -100c56 66.667 125.667 100 209 100
s153 -27.333 209 -82s84 -122.334 84 -203.001s-28 -148.667 -84 -204s-125.667 -83 -209 -83s-153 33.667 -209 101c-57.333 -66.667 -127.333 -100 -210 -100s-152 27.333 -208 82c-56 55.333 -84 123.333 -84 204s28 148.334 84 203.001s125.333 82 208 82z" />
    <glyph glyph-name="guilsinglleft" unicode="&#x2039;" horiz-adv-x="659" 
d="M578 92h-154l-363 424l363 424h154v-68l-246 -356l246 -356v-68z" />
    <glyph glyph-name="guilsinglright" unicode="&#x203a;" horiz-adv-x="659" 
d="M82 940h154l362 -424l-362 -424h-154v68l246 356l-246 356v68z" />
    <glyph glyph-name="fraction" unicode="&#x2044;" horiz-adv-x="1329" 
d="M31 0v20l1089 1442h178v-22l-1089 -1440h-178z" />
    <glyph glyph-name="zerosuperior" unicode="&#x2070;" horiz-adv-x="735" 
d="M369 805c54.667 0.666992 95.668 23.667 123.001 69s40.666 99.333 39.999 162c0 62.667 -13.333 117.334 -40 164.001c-27.333 46.667 -68.333 70 -123 70s-96 -23.333 -124 -70s-42 -101.334 -42 -164.001s14 -116.667 42 -162s69.333 -68.333 124 -69zM369.001 1432
c102 0 180.335 -39 235.002 -117s82 -171 82 -279s-27.333 -200.667 -82 -278s-133.334 -116.333 -236.001 -117c-102.667 0 -181.334 39 -236.001 117c-55.333 77.333 -83 170 -83 278s27.667 201 83 279s134.333 117 237 117z" />
    <glyph glyph-name="foursuperior" unicode="&#x2074;" horiz-adv-x="667" 
d="M410 891v338l-211 -338h211zM410 653v115h-390v76l369 575h193v-528h69v-123h-69v-115h-172z" />
    <glyph glyph-name="fivesuperior" unicode="&#x2075;" horiz-adv-x="606" 
d="M260 641c-52 0 -99.3311 7.66895 -141.998 23.002s-72.334 30.333 -89.001 45l-27 22l88 125c45.333 -38 101.333 -57 168 -57c32.667 0.666992 61.334 9.66699 86.001 27s37 41.666 37 72.999s-12.667 56 -38 74c-24.667 18 -56.334 27 -95.001 27
s-71.334 -7 -98.001 -21l-101 104l51 336h402v-143h-279l-20 -135c19.333 9.33301 46.666 14 81.999 14c74 0 137 -24 189 -72c52 -48.667 77.667 -111 77 -187c0 -76 -25.667 -137.333 -77 -184s-122.666 -70.334 -213.999 -71.001z" />
    <glyph glyph-name="sixsuperior" unicode="&#x2076;" horiz-adv-x="649" 
d="M207 901c0.666992 -28.667 11 -53.667 31 -75s45.333 -31.666 76 -30.999c30.667 -0.666992 56 9.66602 76 30.999s30 46.333 30 75s-10 53.334 -30 74.001s-45.667 31 -77 31s-57 -10.333 -77 -31s-29.667 -45.334 -29 -74.001zM338 1145
c73.333 0 131.999 -23.999 175.999 -71.999c44 -48.667 66 -109 66 -181s-25.667 -132 -77 -180s-114.666 -71.667 -189.999 -71c-75.333 0 -141 24 -197 72s-83.667 107.667 -83 179c0 71.333 30.667 153.666 92 246.999l182 280h199l-189 -274h21z" />
    <glyph glyph-name="sevensuperior" unicode="&#x2077;" horiz-adv-x="602" 
d="M35 1169v250h592v-133l-406 -633h-186l399 623h-254v-107h-145z" />
    <glyph glyph-name="eightsuperior" unicode="&#x2078;" horiz-adv-x="620" 
d="M311 1133c23.333 -0.666992 43 7.00098 59 23.001s24 34.667 24 56s-8 40 -24 56c-16 14.667 -35.667 22 -59 22s-43 -7.33301 -59 -22s-23.667 -33.334 -23 -56.001c-0.666992 -22 7 -40.667 23 -56s35.667 -23 59 -23zM311 985.001c-30 0 -55 -9.33301 -75 -28
c-20 -19.333 -29.667 -42.333 -29 -69s11 -50 31 -70s44.667 -30 74 -30s54.333 10 75 30s31 43.667 31 71s-10.333 50.333 -31 69s-46 27.667 -76 27zM312 641.001c-77.333 0 -143.332 23.667 -197.999 71s-82.334 105 -83.001 173c0 84.667 38 146 114 184
c-56 32.667 -84 81 -84 145s24.667 116.667 74 158s108.333 62 177 62s127.667 -20.667 177 -62s74 -93.666 74 -156.999c0 -62.667 -27.333 -111.334 -82 -146.001c74 -38 111 -99.333 111 -184c0 -68 -27.333 -125.667 -82 -173s-120.667 -71 -198 -71z" />
    <glyph glyph-name="ninesuperior" unicode="&#x2079;" horiz-adv-x="649" 
d="M455 1174c0 28 -10.332 52.666 -30.999 73.999s-46.334 32 -77.001 32s-56 -10.667 -76 -32c-19.333 -21.333 -29 -46 -29 -74s10 -52.667 30 -74c20 -20.667 45.333 -31 76 -31c31.333 0 57 10.333 77 31s30 45.334 30 74.001zM315.001 919.999
c-56.667 0 -109.667 24.666 -159 73.999s-74 109.333 -74 180s26 131.667 78 183s115.333 77 190 77s139.667 -24 195 -72c56 -48 84 -107.667 84 -179s-30.667 -153.666 -92 -246.999l-183 -283h-198l180 267h-21z" />
    <glyph glyph-name="zeroinferior" unicode="&#x2080;" horiz-adv-x="735" 
d="M369 154c54.667 0 95.668 22.666 123.001 67.999s40.666 99.666 39.999 162.999c0 62.667 -13.333 117.334 -40 164.001c-27.333 46 -68.333 69 -123 69s-96 -23.333 -124 -70s-42 -101 -42 -163c0 -63.333 14 -117.666 42 -162.999s69.333 -68 124 -68zM369.001 779.999
c102 0 180.335 -38.667 235.002 -116s82 -170.333 82 -279c0 -108 -27.333 -201 -82 -279c-54.667 -77.333 -133.334 -116 -236.001 -116s-181.334 38.667 -236.001 116c-55.333 77.333 -83 170.333 -83 279s27.667 201.667 83 279s134.333 116 237 116z" />
    <glyph glyph-name="oneinferior" unicode="&#x2081;" horiz-adv-x="540" 
d="M113 623v143h252v-623h81v-143h-352v143h94v480h-75z" />
    <glyph glyph-name="twoinferior" unicode="&#x2082;" horiz-adv-x="608" 
d="M41 525c-0.666992 71.333 20.998 130.332 64.998 176.999s105.333 70 184 70s141.334 -23.667 188.001 -71s70.334 -102.333 71.001 -165c0 -62.667 -30.667 -128.667 -92 -198l-166 -188h260v-150h-494v121l262 287c48 52 72 91.333 72 118s-8.33301 49.334 -25 68.001
c-17.333 19.333 -42.333 29 -75 29s-56.667 -8.33301 -72 -25c-15.333 -16 -23 -38 -23 -66s9.66699 -51.667 29 -71l-102 -105c-54.667 42 -82 98.333 -82 169z" />
    <glyph glyph-name="threeinferior" unicode="&#x2083;" horiz-adv-x="628" 
d="M308 147c30.667 0 57 10.332 79 30.999s33 44 33 70c0 26.667 -11 49.334 -33 68.001s-49.333 28 -82 28s-58.667 -2.66699 -78 -8l-45 104l168 185h-239v143h432v-129l-168 -178c56 -2 105 -24.333 147 -67c42.667 -42.667 64 -100 64 -172s-26.667 -128.667 -80 -170
s-123 -62 -209 -62c-52.667 0 -101 12 -145 36s-75 53 -93 87l107 102c12 -20.667 31 -37 57 -49s54.333 -18.333 85 -19z" />
    <glyph glyph-name="fourinferior" unicode="&#x2084;" horiz-adv-x="667" 
d="M410 238v337l-211 -337h211zM410 0v115h-390v75l369 576h193v-528h69v-123h-69v-115h-172z" />
    <glyph glyph-name="fiveinferior" unicode="&#x2085;" horiz-adv-x="606" 
d="M260 -10c-52 0 -99.3311 7.33301 -141.998 22s-72.334 29.667 -89.001 45l-27 23l88 125c45.333 -38 101.333 -57.333 168 -58c32.667 0 61.334 9 86.001 27s37 42.667 37 74s-12.667 56 -38 74c-24.667 17.333 -56.334 26 -95.001 26s-71.334 -6.66699 -98.001 -20
l-101 104l51 336h402v-143h-279l-20 -136c19.333 9.33301 46.666 14.333 81.999 15c74 0 137 -24 189 -72s77.667 -110 77 -186c0 -76 -25.667 -138 -77 -186c-51.333 -46.667 -122.666 -70 -213.999 -70z" />
    <glyph glyph-name="sixinferior" unicode="&#x2086;" horiz-adv-x="649" 
d="M207 250c0.666992 -28.667 11 -53.668 31 -75.001s45.333 -32 76 -32s56 10.667 76 32s30 46.333 30 75s-10 53.334 -30 74.001c-20 20 -45.667 30 -77 30s-57 -10 -77 -30s-29.667 -44.667 -29 -74zM338 493.999c73.333 0 131.999 -24 175.999 -72s66 -108 66 -180
s-25.667 -132.333 -77 -181c-51.333 -47.333 -114.666 -71 -189.999 -71s-141 24 -197 72s-83.667 107.333 -83 178c0 72 30.667 154.333 92 247l182 281h199l-189 -274h21z" />
    <glyph glyph-name="seveninferior" unicode="&#x2087;" horiz-adv-x="602" 
d="M35 516v250h592v-133l-406 -633h-186l399 623h-254v-107h-145z" />
    <glyph glyph-name="eightinferior" unicode="&#x2088;" horiz-adv-x="620" 
d="M311 481c23.333 0 43 7.99902 59 23.999c16 16.667 24 35.667 24 57s-8 39.333 -24 54s-35.667 22.334 -59 23.001c-23.333 0 -43 -7.66699 -59 -23c-16 -16 -23.667 -34.667 -23 -56c-0.666992 -21.333 7 -40 23 -56s35.667 -23.667 59 -23zM311 333.999
c-30 0 -55 -9.33203 -75 -27.999s-29.667 -41.334 -29 -68.001s11 -50.334 31 -71.001c20 -20 44.667 -30 74 -30s54.333 10 75 30s31 43.667 31 71c0 26.667 -10.333 49.334 -31 68.001s-46 28 -76 28zM592 233c0 -68.667 -27.332 -126.333 -81.999 -173
s-120.667 -70 -198 -70s-143.333 23.333 -198 70s-82.334 104.334 -83.001 173.001c0 84.667 38 146.334 114 185.001c-56 32.667 -84 81 -84 145c0 63.333 24.667 115.666 74 156.999s108.333 62 177 62s127.667 -20.667 177 -62s74 -93.333 74 -156
s-27.333 -111.334 -82 -146.001c74 -38 111 -99.667 111 -185z" />
    <glyph glyph-name="nineinferior" unicode="&#x2089;" horiz-adv-x="649" 
d="M347 627c-30.667 0 -55.999 -10.666 -75.999 -31.999c-19.333 -21.333 -29 -46.333 -29 -75s10 -53.334 30 -74.001c20 -20 45.333 -30 76 -30c31.333 0 57 10 77 30s30 44.667 30 74c0 28.667 -10.333 53.667 -31 75s-46.334 32 -77.001 32zM315.001 266.001
c-56.667 0 -109.667 24.667 -159 74s-74 109.333 -74 180s26 132 78 184c52 50.667 115.333 76 190 76s139.667 -24 195 -72c56 -48 84 -107.333 84 -178c0 -72 -30.667 -154.333 -92 -247l-183 -283h-198l180 266h-21z" />
    <glyph glyph-name="Euro" unicode="&#x20ac;" horiz-adv-x="1232" 
d="M92 739l-0.00195312 170.001h107c34 155.333 107.333 281.666 220 378.999s266.667 146 462 146c106.667 0 203.334 -18 290.001 -54l-94 -200c-46.667 24.667 -112 37 -196 37c-234.667 0 -385 -102.667 -451 -308h397v-170h-426v-77h426v-168h-397
c64 -203.333 214.333 -305.333 451 -306c79.333 0 147.333 9 204 27l82 -192c-87.333 -34 -182.666 -51.333 -285.999 -52c-194 0.666992 -347.667 49 -461 145s-187 222 -221 378h-107v168h84v77h-84z" />
    <glyph glyph-name="litre" unicode="&#x2113;" horiz-adv-x="763" 
d="M362 1257v-780.001c69.333 62.667 104.333 259.334 105 590.001c0 151.333 -7 242 -21 272c-9.33301 23.333 -24.333 35 -45 35c-26 0 -39 -39 -39 -117zM205 237.999v40.999c-13.333 -5.33301 -26.333 -9.66602 -39 -12.999l-23 74c13.333 5.33301 34 15 62 29v936
c0 162.667 67 243.667 201 243c143.333 0 215 -158.333 215 -475c0 -151.333 -12 -276.333 -36 -375s-52.333 -169.667 -85 -213c-32.667 -44 -78.667 -89 -138 -135v-157c0 -50.667 20.667 -76 62 -76c23.333 0 46 6 68 18l12 4l61 -94c-10.667 -19.333 -32 -35 -64 -47
s-67.333 -18 -106 -18c-62.667 0 -110 20 -142 60s-48 106 -48 198z" />
    <glyph glyph-name="trademark" unicode="&#x2122;" horiz-adv-x="1617" 
d="M264 608v695h-223v159h614v-159h-225v-695h-166zM705 608v854h151l264 -432l262 432h154v-854h-166v514l-158 -256h-184l-158 256v-514h-165z" />
    <glyph glyph-name="Omega" unicode="&#x2126;" horiz-adv-x="1478" 
d="M68 0v223.003h321v15c-100.667 58.667 -180.334 138.667 -239.001 240s-88.334 214.333 -89.001 339c0 191.333 66.333 351.666 199 480.999c133.333 129.333 293.333 194.333 480 195c186.667 0 346.334 -65 479.001 -195s198.667 -290.333 198 -481
c0 -124 -29.667 -237 -89 -339s-138.666 -182 -237.999 -240v-15h321v-223h-553v371c98 31.333 176.333 89.666 235 174.999c58 85.333 87 175.666 87 270.999c0 123.333 -42 229.666 -126 318.999s-188.667 134 -314 134s-230.333 -44.333 -315 -133
c-84 -88.667 -126 -195.334 -126 -320.001c0 -95.333 29 -185.666 87 -270.999s136.333 -143.666 235 -174.999v-371h-553z" />
    <glyph glyph-name="estimated" unicode="&#x212e;" horiz-adv-x="1177" 
d="M588 897c-98.667 0 -183.333 -31.333 -254 -94v-295h510v299c-72 60 -157.333 90 -256 90zM334.001 432l0.000976562 -281.998c72 -64.667 152.667 -97 242 -97c89.333 0.666992 165.666 21.667 228.999 63c62.667 41.333 111 97.666 145 168.999l80 -35
c-40.667 -82 -100.667 -148 -180 -198s-166 -75 -260 -75c-136.667 0.666992 -253.667 49 -351 145s-146.333 213.667 -147 353c0 139.333 48.667 256.666 146 351.999s214.333 143 351 143c136 0 252.667 -47.333 350 -142c97.333 -96 146 -213.667 146 -353l-2 -43h-749z
" />
    <glyph glyph-name="onethird" unicode="&#x2153;" horiz-adv-x="1478" 
d="M113 1276v143h252v-622h81v-144h-352v144h94v479h-75zM1180 147c30.667 0 57.332 10.332 79.999 30.999c22 20.667 32.667 44 32 70c0 26.667 -10.667 49.334 -32 68.001s-48.666 28 -81.999 28s-59.333 -2.66699 -78 -8l-45 104l168 185h-240v143h432v-129l-168 -178
c55.333 -2 104.333 -24.333 147 -67s64 -100 64 -172s-26.667 -128.667 -80 -170s-123 -62 -209 -62c-52.667 0 -101 12 -145 36s-74.667 53 -92 87l106 102c12 -20.667 31 -37 57 -49s54.333 -18.333 85 -19zM91.998 -0.000976562v20l1090 1442h178v-22l-1090 -1440h-178z
" />
    <glyph glyph-name="twothirds" unicode="&#x2154;" horiz-adv-x="1488" 
d="M1176 147c30.667 0 57.001 10.332 79.001 30.999s33 44 33 70c0 26.667 -11 49.334 -33 68.001s-49.333 28 -82 28s-58.334 -2.66699 -77.001 -8l-45 104l168 185h-240v143h432v-129l-168 -178c55.333 -2 104.333 -24.333 147 -67s64 -100 64 -172
s-26.667 -128.667 -80 -170s-123 -62 -209 -62c-52.667 0 -101 12 -145 36s-74.667 53 -92 87l106 102c12 -20.667 31 -37 57 -49s54.333 -18.333 85 -19zM290.001 1425c78.667 -0.666992 141.331 -24.332 187.998 -70.999s70.334 -101.334 71.001 -164.001
c0 -62.667 -30.667 -129 -92 -199l-166 -188h260v-150h-494v121l262 287c48 52 72 91.333 72 118c0.666992 27.333 -7.66602 50.333 -24.999 69s-42.333 28 -75 28s-56.667 -8.33301 -72 -25s-23 -39 -23 -67s9.66699 -51.333 29 -70l-102 -104
c-54.667 41.333 -82 97.333 -82 168s21.667 129.667 65 177c44 46.667 105.333 70 184 70zM136.998 0.000976562v20l1090 1442h178v-22l-1090 -1440h-178z" />
    <glyph glyph-name="oneeighth" unicode="&#x215b;" horiz-adv-x="1474" 
d="M1145 481c23.333 0 43.001 7.99902 59.001 23.999c16 16.667 23.667 35.667 23 57c0 21.333 -8 39.333 -24 54c-16.667 14.667 -36.334 22.334 -59.001 23.001c-22.667 0 -42 -7.66699 -58 -23c-16 -16 -24 -34.667 -24 -56s8 -40 24 -56s35.667 -23.667 59 -23z
M1146 136.999c29.333 0 54.333 10.001 75 30.001s30.667 43.667 30 71c-0.666992 26.667 -11 49.334 -31 68.001s-45 28 -75 28s-55 -9.33301 -75 -28s-30 -41.334 -30 -68.001s10.333 -50.334 31 -71.001c20.667 -20 45.667 -30 75 -30zM1146 -10
c-77.333 0 -143.667 23.334 -199 70.001s-83 104.334 -83 173.001c0 84.667 38.333 146.334 115 185.001c-56 32.667 -84 81 -84 145c0 63.333 24.667 115.666 74 156.999s108.333 62 177 62s127.667 -20.667 177 -62s74 -93.333 74 -156s-27.333 -111.334 -82 -146.001
c74 -38 110.667 -99.667 110 -185c0.666992 -68.667 -26.333 -126.334 -81 -173.001s-120.667 -70 -198 -70zM113 1276v143h252v-622h81v-144h-352v144h94v479h-75zM92 0.000976562v20l1090 1442h178v-22l-1090 -1440h-178z" />
    <glyph glyph-name="threeeighths" unicode="&#x215c;" horiz-adv-x="1429" 
d="M1145 481c23.333 0 43.001 7.99902 59.001 23.999c16 16.667 23.667 35.667 23 57c0 21.333 -8 39.333 -24 54c-16.667 14.667 -36.334 22.334 -59.001 23.001c-22.667 0 -42 -7.66699 -58 -23c-16 -16 -24 -34.667 -24 -56s8 -40 24 -56s35.667 -23.667 59 -23z
M1146 136.999c29.333 0 54.333 10.001 75 30.001s30.667 43.667 30 71c-0.666992 26.667 -11 49.334 -31 68.001s-45 28 -75 28s-55 -9.33301 -75 -28s-30 -41.334 -30 -68.001s10.333 -50.334 31 -71.001c20.667 -20 45.667 -30 75 -30zM1146 -10
c-77.333 0 -143.667 23.334 -199 70.001s-83 104.334 -83 173.001c0 84.667 38.333 146.334 115 185.001c-56 32.667 -84 81 -84 145c0 63.333 24.667 115.666 74 156.999s108.333 62 177 62s127.667 -20.667 177 -62s74 -93.333 74 -156s-27.333 -111.334 -82 -146.001
c74 -38 110.667 -99.667 110 -185c0.666992 -68.667 -26.333 -126.334 -81 -173.001s-120.667 -70 -198 -70zM92 0.000976562v20l1090 1442h178v-22l-1090 -1440h-178zM308 799.001c30.667 0.666992 57 11.002 79 31.002s33 43 33 69s-11 48.667 -33 68s-49.333 29 -82 29
s-58.667 -3 -78 -9l-45 105l168 184h-239v143h432v-129l-168 -178c56 -2.66699 105 -25.334 147 -68.001c42.667 -42.667 64 -99.334 64 -170.001c0 -72 -26.667 -128.667 -80 -170s-123 -62.333 -209 -63c-52.667 0 -101 12 -145 36s-75 53 -93 87l107 102
c12 -20.667 31 -37 57 -49s54.333 -18 85 -18z" />
    <glyph glyph-name="fiveeighths" unicode="&#x215d;" horiz-adv-x="1460" 
d="M299 641c-52.667 0 -100.333 7.66895 -143 23.002s-72.667 30.333 -90 45l-25 22l88 125c45.333 -38 101.333 -57 168 -57c32.667 0.666992 61.334 9.66699 86.001 27s37 41.666 37 72.999s-12.667 56 -38 74s-57.333 27 -96 27s-71.334 -7 -98.001 -21l-100 104l51 336
h402v-143h-279l-20 -135c19.333 9.33301 46.666 14 81.999 14c73.333 0 136 -24 188 -72c52 -48.667 78 -111 78 -187s-25.667 -137.333 -77 -184s-122.666 -70.334 -213.999 -71.001zM1176 481.002c22.667 0 42.001 7.99902 58.001 23.999c16 16.667 24 35.667 24 57
s-8 39.333 -24 54s-35.333 22.334 -58 23.001c-22.667 0 -42.334 -7.66699 -59.001 -23c-15.333 -16 -23 -34.667 -23 -56s8 -40 24 -56s35.333 -23.667 58 -23zM1177 137.001c30 0 55 10.001 75 30.001s30 43.667 30 71c0 26.667 -10.333 49.334 -31 68.001
s-45.667 28 -75 28s-54.333 -9.33301 -75 -28c-20 -18.667 -30 -41.334 -30 -68.001s10.333 -50.334 31 -71.001c20.667 -20 45.667 -30 75 -30zM1177 -9.99805c-77.333 0 -143.665 23.333 -198.998 70s-83 104.334 -83 173.001c0 84.667 38.333 146.334 115 185.001
c-56 32.667 -84 81 -84 145s24.333 116.667 73 158c48.667 40.667 107.667 61 177 61s128.666 -20.667 177.999 -62s74 -93.333 74 -156s-27.333 -111.334 -82 -146.001c74 -38 110.667 -99.667 110 -185c0 -68.667 -27.333 -126.334 -82 -173.001
s-120.334 -70 -197.001 -70zM123.003 0.00195312v20l1089 1442h179v-22l-1090 -1440h-178z" />
    <glyph glyph-name="seveneighths" unicode="&#x215e;" horiz-adv-x="1429" 
d="M1145 481c23.333 0 43.001 7.99902 59.001 23.999c16 16.667 23.667 35.667 23 57c0 21.333 -8 39.333 -24 54c-16.667 14.667 -36.334 22.334 -59.001 23.001c-22.667 0 -42 -7.66699 -58 -23c-16 -16 -24 -34.667 -24 -56s8 -40 24 -56s35.667 -23.667 59 -23z
M1146 136.999c29.333 0 54.333 10.001 75 30.001s30.667 43.667 30 71c-0.666992 26.667 -11 49.334 -31 68.001s-45 28 -75 28s-55 -9.33301 -75 -28s-30 -41.334 -30 -68.001s10.333 -50.334 31 -71.001c20.667 -20 45.667 -30 75 -30zM1146 -10
c-77.333 0 -143.667 23.334 -199 70.001s-83 104.334 -83 173.001c0 84.667 38.333 146.334 115 185.001c-56 32.667 -84 81 -84 145c0 63.333 24.667 115.666 74 156.999s108.333 62 177 62s127.667 -20.667 177 -62s74 -93.333 74 -156s-27.333 -111.334 -82 -146.001
c74 -38 110.667 -99.667 110 -185c0.666992 -68.667 -26.333 -126.334 -81 -173.001s-120.667 -70 -198 -70zM92 0.000976562v20l1090 1442h178v-22l-1090 -1440h-178zM150 1231v188h661v-133l-475 -633h-195l469 623h-315v-45h-145z" />
    <glyph glyph-name="partialdiff" unicode="&#x2202;" horiz-adv-x="1179" 
d="M568 770c-77.333 0 -147.999 -32.332 -211.999 -96.999c-62.667 -64.667 -94 -147 -94 -247s24.667 -172.333 74 -217c49.333 -45.333 116 -68 200 -68s160.667 41.667 230 125s111.666 183.666 126.999 300.999c-26 55.333 -67.333 103 -124 143s-123.667 60 -201 60z
M475.001 1497c169.333 0.666992 310.329 -63.667 422.996 -193s169 -313.333 169 -552s-54 -427 -162 -565c-108 -138.667 -239 -207.667 -393 -207c-132.667 0 -234 42 -304 126c-70.667 84 -106 191.333 -106 322c0 130 43.333 243.333 130 340s193.667 145 321 145
c76.667 0 145.334 -13 206.001 -39s102 -51 124 -75l32 -39v31c0 170 -44.667 307.667 -134 413s-188.666 158 -297.999 158c-51.333 0 -99.666 -4.66699 -144.999 -14s-77.333 -19 -96 -29l-31 -14l-53 116c76.667 50.667 182.334 76 317.001 76z" />
    <glyph glyph-name="uni2206" unicode="&#x2206;" horiz-adv-x="1515" 
d="M758 1239l-420 -1016h840zM1495 0h-1475v74l590 1388h293l592 -1388v-74z" />
    <glyph glyph-name="product" unicode="&#x220f;" horiz-adv-x="1325" 
d="M82 1262v200h1161v-200h-123v-1262h-213v1262h-489v-1262h-213v1262h-123z" />
    <glyph glyph-name="summation" unicode="&#x2211;" horiz-adv-x="1284" 
d="M1020 201v123h203v-324h-1002v244l418 487l-418 486v245h1002v-323h-203v123h-563l383 -443v-172l-383 -446h563z" />
    <glyph glyph-name="radical" unicode="&#x221a;" horiz-adv-x="1153" 
d="M20 809v141h308l260 -1212l407 1724h158v-76l-459 -1898h-213l-293 1321h-168z" />
    <glyph glyph-name="infinity" unicode="&#x221e;" horiz-adv-x="1316" 
d="M944 455c44 -0.666992 77.3311 10.999 99.998 34.999s34.334 53.333 35.001 88c0 34.667 -11.667 64 -35 88c-23.333 24.667 -56.666 36.667 -99.999 36c-70 0.666992 -136.333 -40.666 -199 -123.999c64 -82 130.333 -123 199 -123zM372.998 454.999
c69.333 0 135.332 41.667 197.999 125c-64 82 -130 122.667 -198 122c-44 0 -77.667 -12 -101 -36c-22.667 -24 -34 -52.667 -34 -86c0 -34 11.333 -63.333 34 -88s56.334 -37 101.001 -37zM945.997 298.999c-106.667 0 -203 50 -289 150c-86 -100 -177.333 -150 -274 -150
s-171 25.333 -223 76s-78 118.667 -78 204c0 84.667 26 152.334 78 203.001s126 76 222 76s188.333 -50.333 277 -151c86 101.333 181.667 151.666 287 150.999c88.667 0 159 -25.333 211 -76s78 -118.667 78 -204s-26 -153 -78 -203c-52 -50.667 -122.333 -76 -211 -76z
" />
    <glyph glyph-name="integral" unicode="&#x222b;" horiz-adv-x="675" 
d="M418 -195c0 -110 -35.3311 -192.333 -105.998 -247s-154.334 -82 -251.001 -82c-24.667 0 -48.334 2 -71.001 6l14 133h33c147.333 0 221 63.333 221 190v1414c0 110 35.333 192.333 106 247s154 82 250 82c24.667 0 48.667 -2 72 -6l-14 -133h-33
c-147.333 0 -221 -63.333 -221 -190v-1414z" />
    <glyph glyph-name="approxequal" unicode="&#x2248;" horiz-adv-x="1046" 
d="M102 248c0 80 24.001 142 72.001 186s101.333 66 160 66s124.667 -16.333 198 -49s122.666 -49 147.999 -49c24 0 44 7.66699 60 23c16 16 24 37.333 24 64h180c0 -75.333 -21 -137 -63 -185s-95.333 -71.667 -160 -71c-42 0.666992 -105.667 17.667 -191 51
s-147.333 50 -186 50c-49.333 0 -74 -28.667 -74 -86h-168zM102.001 606c0 80 24.001 142 72.001 186s101.333 66 160 66s124.667 -16.333 198 -49s122.666 -49 147.999 -49c24 0 44 8 60 24s24 37.333 24 64h180c0 -74.667 -21 -136 -63 -184s-95.333 -72 -160 -72
c-42 0 -105.667 16.667 -191 50s-147.333 50 -186 50c-49.333 0 -74 -28.667 -74 -86h-168z" />
    <glyph glyph-name="notequal" unicode="&#x2260;" horiz-adv-x="1093" 
d="M102 698v197h539l125 213h190l-122 -213h157v-197h-272l-131 -227h403v-197h-516l-123 -213h-192l123 213h-181v197h295l129 227h-424z" />
    <glyph glyph-name="lessequal" unicode="&#x2264;" horiz-adv-x="1011" 
d="M930 207l-889 463v127l889 460v-200l-654 -324l654 -323v-203zM930 166v-166h-889v166h889z" />
    <glyph glyph-name="greaterequal" unicode="&#x2265;" horiz-adv-x="1011" 
d="M971 670l-889 -463v203l653 323l-653 324v200l889 -460v-127zM82 0v166h889v-166h-889z" />
    <glyph glyph-name="lozenge" unicode="&#x25ca;" horiz-adv-x="940" 
d="M242 731l229 -461l229 461l-229 457zM879 731l-365 -731h-88l-365 731l369 731h84z" />
    <glyph glyph-name="a.alt" unicode="&#x2702;" horiz-adv-x="1241" 
d="M577 188c78 0 143.666 27.667 196.999 83s80 123.333 80 204s-26.667 148.667 -80 204s-119.333 83 -198 83s-145 -27.667 -199 -83c-54.667 -55.333 -82 -123.333 -82 -204s27.333 -148.667 82 -204s121.334 -83 200.001 -83zM560.999 -23
c-136.667 0.666992 -252.333 49.667 -347 147s-142 214.333 -142 351s47.333 253.667 142 351s209.667 146.333 345 147c104 0 197 -38.333 279 -115l92 92h125v-737h84v-213h-209l-92 92c-72.667 -76.667 -165 -115 -277 -115z" />
    <glyph glyph-name="apple" unicode="&#xf8ff;" horiz-adv-x="1044" 
d="M553 1319l255.999 -0.000976562l-234 -291c70 -4 135 -23.333 195 -58s108.333 -81 145 -139c-47.333 -18 -85.666 -48 -114.999 -90s-44 -90 -44 -144s16.333 -102 49 -144s75 -70.667 127 -86c-37.333 -67.333 -90 -120.333 -158 -159s-141.667 -58 -221 -58
c-122.667 0 -226.667 42 -312 126s-128 187.333 -128 310s42.667 227.334 128 314.001s189.333 130 312 130v289z" />
    <glyph glyph-name="nonmarkingreturn" horiz-adv-x="681" 
 />
    <glyph glyph-name="zero.slash" horiz-adv-x="1363" 
d="M317 682c0 -149.333 36.999 -271.667 110.999 -367l360 883c-39.333 12 -74.666 18.333 -105.999 19c-120 0 -210.667 -51.667 -272 -155c-61.333 -104 -92.333 -230.667 -93 -380zM681.999 187.999c82 0 151.333 26.666 208 79.999
c104.667 98.667 157 238.334 157 419.001s-41 319.667 -123 417l-365 -893c38 -15.333 79 -23 123 -23zM681.999 1434c128.667 0 238.667 -36.332 330 -108.999c172 -136.667 258.333 -344.334 259 -623.001c0.666992 -278 -85.666 -485.333 -258.999 -622
c-91.333 -72.667 -201.333 -109 -330 -109c-96.667 0.666992 -183.667 21.667 -261 63c-144 77.333 -241.667 210.333 -293 399c-24 85.333 -36 175 -36 269c0 194 47.333 361.333 142 502c47.333 69.333 109.666 125 186.999 167s164.333 63 261 63z" />
    <glyph glyph-name="one.alt" horiz-adv-x="595" 
d="M184 0v1237l228 213v-1450h-228z" />
    <glyph glyph-name="w.alt" 
d="M1272 950h229l-262 -950h-283l-190 623l-188 -623h-283l-264 950h229l182 -717l222 717h204l224 -717z" />
    <glyph glyph-name="onesuperior.alt" horiz-adv-x="434" 
d="M113 653v613l184 174v-787h-184z" />
    <glyph glyph-name="oneinferior.alt" horiz-adv-x="434" 
d="M113 0v612l184 174v-786h-184z" />
    <glyph glyph-name="aacute.alt" horiz-adv-x="1241" 
d="M684 1493c5.33301 0 19.667 -3.66699 43 -11s41.666 -22 54.999 -44s20.333 -44.667 21 -68c0 -53.333 -20 -89.333 -60 -108l-327 -168l-74 73l244 279c24.667 31.333 57.334 47 98.001 47zM577.001 188c78 0 143.666 27.667 196.999 83s80 123.333 80 204
s-26.667 148.667 -80 204s-119.333 83 -198 83s-145 -27.667 -199 -83c-54.667 -55.333 -82 -123.333 -82 -204s27.333 -148.667 82 -204s121.334 -83 200.001 -83zM561 -23c-136.667 0.666992 -252.333 49.667 -347 147s-142 214.333 -142 351s47.333 253.667 142 351
s209.667 146.333 345 147c104 0 197 -38.333 279 -115l92 92h125v-737h84v-213h-209l-92 92c-72.667 -76.667 -165 -115 -277 -115z" />
    <glyph glyph-name="abreve.alt" horiz-adv-x="1241" 
d="M307 1331l164 0.000976562c0 -23.333 10 -42.333 30 -57c20.667 -14.667 44.334 -22.334 71.001 -23.001c26.667 0 49.667 7.66699 69 23s29 34.333 29 57h166c0 -62.667 -25.667 -114 -77 -154c-51.333 -40.667 -114 -61 -188 -61s-136.333 20 -187 60
s-76.334 91.667 -77.001 155zM577 188.001c78 0 143.666 27.667 196.999 83s80 123.333 80 204s-26.667 148.667 -80 204s-119.333 83 -198 83s-145 -27.667 -199 -83c-54.667 -55.333 -82 -123.333 -82 -204s27.333 -148.667 82 -204s121.334 -83 200.001 -83z
M560.999 -22.999c-136.667 0.666992 -252.333 49.667 -347 147s-142 214.333 -142 351s47.333 253.667 142 351s209.667 146.333 345 147c104 0 197 -38.333 279 -115l92 92h125v-737h84v-213h-209l-92 92c-72.667 -76.667 -165 -115 -277 -115z" />
    <glyph glyph-name="acircumflex.alt" horiz-adv-x="1241" 
d="M362 1098l-96 59l197 305h180l197 -305l-97 -59l-190 221zM577 188c78 0 143.666 27.667 196.999 83s80 123.333 80 204s-26.667 148.667 -80 204s-119.333 83 -198 83s-145 -27.667 -199 -83c-54.667 -55.333 -82 -123.333 -82 -204s27.333 -148.667 82 -204
s121.334 -83 200.001 -83zM560.999 -23c-136.667 0.666992 -252.333 49.667 -347 147s-142 214.333 -142 351s47.333 253.667 142 351s209.667 146.333 345 147c104 0 197 -38.333 279 -115l92 92h125v-737h84v-213h-209l-92 92c-72.667 -76.667 -165 -115 -277 -115z" />
    <glyph glyph-name="adieresis.alt" horiz-adv-x="1241" 
d="M215 1266c0 40.667 13.999 75.667 41.999 105s62.333 44 103 44c41.333 0 76.666 -14.667 105.999 -44s44 -64.333 44 -105c0 -40 -14.667 -74.667 -44 -104s-64.666 -44 -105.999 -44s-75.666 14.667 -102.999 44c-28 29.333 -42 64 -42 104zM654.999 1266
c0 40.667 14.0029 75.667 42.0029 105c27.333 29.333 61.666 44 102.999 44s76.666 -14.667 105.999 -44s44 -64.333 44 -105c0 -40 -14.667 -74.667 -44 -104s-64.333 -44 -105 -44s-75.334 14.333 -104.001 43c-28 29.333 -42 64.333 -42 105zM577.002 188
c78 0 143.666 27.667 196.999 83s80 123.333 80 204s-26.667 148.667 -80 204s-119.333 83 -198 83s-145 -27.667 -199 -83c-54.667 -55.333 -82 -123.333 -82 -204s27.333 -148.667 82 -204s121.334 -83 200.001 -83zM561.001 -23
c-136.667 0.666992 -252.333 49.667 -347 147s-142 214.333 -142 351s47.333 253.667 142 351s209.667 146.333 345 147c104 0 197 -38.333 279 -115l92 92h125v-737h84v-213h-209l-92 92c-72.667 -76.667 -165 -115 -277 -115z" />
    <glyph glyph-name="agrave.alt" horiz-adv-x="1241" 
d="M324 1374c0 53.333 25.667 89.668 77 109.001c24.667 6.66699 39 10 43 10c40.667 0 73.667 -15.667 99 -47l241 -279l-71 -73c-198 102.667 -307.333 158.667 -328 168c-40.667 21.333 -61 58.666 -61 111.999zM577 188.002c78 0 143.666 27.667 196.999 83
s80 123.333 80 204s-26.667 148.667 -80 204s-119.333 83 -198 83s-145 -27.667 -199 -83c-54.667 -55.333 -82 -123.333 -82 -204s27.333 -148.667 82 -204s121.334 -83 200.001 -83zM560.999 -22.998c-136.667 0.666992 -252.333 49.667 -347 147s-142 214.333 -142 351
s47.333 253.667 142 351s209.667 146.333 345 147c104 0 197 -38.333 279 -115l92 92h125v-737h84v-213h-209l-92 92c-72.667 -76.667 -165 -115 -277 -115z" />
    <glyph glyph-name="amacron.alt" horiz-adv-x="1241" 
d="M283 1167v164h575v-164h-575zM577 188c78 0 143.666 27.667 196.999 83s80 123.333 80 204s-26.667 148.667 -80 204s-119.333 83 -198 83s-145 -27.667 -199 -83c-54.667 -55.333 -82 -123.333 -82 -204s27.333 -148.667 82 -204s121.334 -83 200.001 -83zM560.999 -23
c-136.667 0.666992 -252.333 49.667 -347 147s-142 214.333 -142 351s47.333 253.667 142 351s209.667 146.333 345 147c104 0 197 -38.333 279 -115l92 92h125v-737h84v-213h-209l-92 92c-72.667 -76.667 -165 -115 -277 -115z" />
    <glyph glyph-name="aogonek.alt" horiz-adv-x="1267" 
d="M872 -238c0 46.667 14.001 91.332 42.001 133.999s56.333 77.334 85 104.001h-69l-92 92c-72.667 -76.667 -165 -115 -277 -115c-136.667 0.666992 -252.334 49.667 -347.001 147s-142 214.333 -142 351s47.333 253.667 142 351s209.667 146.333 345 147
c104 0 197 -38.333 279 -115l92 92h125v-737h84v-238c-42 -58 -63 -113 -63 -165s29.667 -78 89 -78l-43 -144c-166.667 10.667 -250 68.667 -250 174zM577.001 187.998c78 0 143.666 27.667 196.999 83s80 123.333 80 204s-26.667 148.667 -80 204s-119.333 83 -198 83
s-145 -27.667 -199 -83c-54.667 -55.333 -82 -123.333 -82 -204s27.333 -148.667 82 -204s121.334 -83 200.001 -83z" />
    <glyph glyph-name="aring.alt" horiz-adv-x="1241" 
d="M481 1312c0 -29.333 10.667 -54.666 32 -75.999s46.666 -32 75.999 -32s55 10.667 77 32c21.333 21.333 32 46.666 32 75.999s-10.667 54.666 -32 75.999c-22 21.333 -47.667 32 -77 32s-54.666 -10.667 -75.999 -32s-32 -46.666 -32 -75.999zM354 1312
c0 63.333 23.334 118.334 70.001 165.001c46.667 46 102 69 166 69s119.333 -23.333 166 -70s70 -101.334 70 -164.001c0 -63.333 -24 -118.666 -72 -165.999c-46.667 -47.333 -101.334 -71 -164.001 -71s-117.667 23.667 -165 71s-71 102.666 -71 165.999zM577.001 188.001
c78 0 143.666 27.667 196.999 83s80 123.333 80 204s-26.667 148.667 -80 204s-119.333 83 -198 83s-145 -27.667 -199 -83c-54.667 -55.333 -82 -123.333 -82 -204s27.333 -148.667 82 -204s121.334 -83 200.001 -83zM561 -22.999
c-136.667 0.666992 -252.333 49.667 -347 147s-142 214.333 -142 351s47.333 253.667 142 351s209.667 146.333 345 147c104 0 197 -38.333 279 -115l92 92h125v-737h84v-213h-209l-92 92c-72.667 -76.667 -165 -115 -277 -115z" />
    <glyph glyph-name="atilde.alt" horiz-adv-x="1241" 
d="M401 1212c-27.333 0 -50.3359 -5.66699 -69.0029 -17s-29.667 -23.333 -33 -36l-8 -18l-105 71c2.66699 10.667 11.667 29 27 55c16 26 32.333 47 49 63s40.334 30.333 71.001 43s64.667 19 102 19c36.667 0 90.334 -14.333 161.001 -43c70.667 -29.333 120 -44 148 -44
c48 0 84 17 108 51l10 18l109 -61c-4 -14.667 -14.667 -36.667 -32 -66c-47.333 -82 -119 -123.667 -215 -125c-40 0 -97.333 15 -172 45c-73.333 30 -123.666 45 -150.999 45zM576.997 188c78 0 143.666 27.667 196.999 83s80 123.333 80 204s-26.667 148.667 -80 204
s-119.333 83 -198 83s-145 -27.667 -199 -83c-54.667 -55.333 -82 -123.333 -82 -204s27.333 -148.667 82 -204s121.334 -83 200.001 -83zM560.996 -23c-136.667 0.666992 -252.333 49.667 -347 147s-142 214.333 -142 351s47.333 253.667 142 351s209.667 146.333 345 147
c104 0 197 -38.333 279 -115l92 92h125v-737h84v-213h-209l-92 92c-72.667 -76.667 -165 -115 -277 -115z" />
    <glyph glyph-name="ae.alt" horiz-adv-x="1789" 
d="M1283 778c-58 0 -109 -17.3311 -153 -51.998s-71 -79.334 -81 -134.001h462c-6.66699 53.333 -31.667 97.666 -75 132.999c-44 35.333 -95 53 -153 53zM577 188.002c78 0 143.666 27.667 196.999 83s80 123.333 80 204s-26.667 148.667 -80 204s-119.333 83 -198 83
s-145 -27.667 -199 -83c-54.667 -55.333 -82 -123.333 -82 -204s27.333 -148.667 82 -204s121.334 -83 200.001 -83zM560.999 -22.998c-136.667 0.666992 -252.332 49.666 -346.999 146.999s-142 214.333 -142 351s47.333 253.667 142 351s209.667 146.333 345 147
c104 0 197 -38.333 279 -115l92 92h63v-84c84.667 70.667 186.334 106 305.001 106s219.667 -46.333 303 -139c82.667 -93.333 125.334 -205 128.001 -335l-80 -80h-611c5.33301 -69.333 31.666 -126 78.999 -170s97.666 -66 150.999 -66
c101.333 0 179.666 44.333 234.999 133l180 -98c-40.667 -69.333 -95 -126.666 -163 -171.999s-149.333 -68 -244 -68s-189 35 -283 105v-82h-63l-92 92c-72.667 -76.667 -165 -115 -277 -115z" />
    </font>
</defs>
</svg>
