<?xml version="1.0" encoding="utf-8"?>
<!-- Generator: Adobe Illustrator 19.0.0, SVG Export Plug-In . SVG Version: 6.00 Build 0)  -->
<svg version="1.1" xmlns="http://www.w3.org/2000/svg" xmlns:xlink="http://www.w3.org/1999/xlink" x="0px" y="0px"
	 viewBox="0 0 500 500" style="enable-background:new 0 0 500 500;" xml:space="preserve">
<style type="text/css">
	.st0{fill:#F7F7F7;}
	.st1{fill:#092C51;}
</style>
<g id="Calque_1">
	<rect id="XMLID_1_" class="st0" width="504.8" height="505.3"/>
</g>
<g id="Calque_2">
	<g id="XMLID_2_">
		<g id="XMLID_378_">
			<path id="XMLID_382_" class="st1" d="M52.6,97.8c0.6,0,0.6-1,0-1C51.9,96.8,51.9,97.8,52.6,97.8L52.6,97.8z"/>
		</g>
	</g>
	<g id="XMLID_3_">
		<g id="XMLID_372_">
			<path id="XMLID_376_" class="st1" d="M71.5,67.8c0.6,0,0.6-1,0-1C70.8,66.8,70.8,67.8,71.5,67.8L71.5,67.8z"/>
		</g>
	</g>
	<g id="XMLID_4_">
		<g id="XMLID_366_">
			<path id="XMLID_370_" class="st1" d="M141.9,110.5c0.6,0,0.6-1,0-1C141.3,109.5,141.3,110.5,141.9,110.5L141.9,110.5z"/>
		</g>
	</g>
	<g id="XMLID_5_">
		<g id="XMLID_360_">
			<path id="XMLID_364_" class="st1" d="M70.7,24.3c0.6,0,0.6-1,0-1C70.1,23.3,70.1,24.3,70.7,24.3L70.7,24.3z"/>
		</g>
	</g>
	<g id="XMLID_6_">
		<g id="XMLID_354_">
			<path id="XMLID_358_" class="st1" d="M177.5,25.8c0.6,0,0.6-1,0-1C176.8,24.8,176.8,25.8,177.5,25.8L177.5,25.8z"/>
		</g>
	</g>
	<g id="XMLID_7_">
		<g id="XMLID_348_">
			<path id="XMLID_352_" class="st1" d="M196.4,161.4c0.6,0,0.6-1,0-1C195.8,160.4,195.8,161.4,196.4,161.4L196.4,161.4z"/>
		</g>
	</g>
	<g id="XMLID_8_">
		<g id="XMLID_342_">
			<path id="XMLID_346_" class="st1" d="M88.9,196.6c0.6,0,0.6-1,0-1C88.3,195.6,88.3,196.6,88.9,196.6L88.9,196.6z"/>
		</g>
	</g>
	<g id="XMLID_10_">
		<g id="XMLID_336_">
			<path id="XMLID_340_" class="st1" d="M270.6,74.5c0.6,0,0.6-1,0-1C270,73.5,270,74.5,270.6,74.5L270.6,74.5z"/>
		</g>
	</g>
	<g id="XMLID_12_">
		<g id="XMLID_329_">
			<path id="XMLID_333_" class="st1" d="M324.4,43.1c0.6,0,0.6-1,0-1C323.7,42.1,323.7,43.1,324.4,43.1L324.4,43.1z"/>
		</g>
	</g>
	<g id="XMLID_19_">
		<g id="XMLID_322_">
			<path id="XMLID_326_" class="st1" d="M342.5,201.9c0.6,0,0.6-1,0-1C341.9,200.9,341.9,201.9,342.5,201.9L342.5,201.9z"/>
		</g>
	</g>
	<g id="XMLID_26_">
		<g id="XMLID_315_">
			<path id="XMLID_319_" class="st1" d="M204,233.4c0.6,0,0.6-1,0-1C203.3,232.4,203.3,233.4,204,233.4L204,233.4z"/>
		</g>
	</g>
	<g id="XMLID_33_">
		<g id="XMLID_308_">
			<path id="XMLID_312_" class="st1" d="M414.5,78.3c0.6,0,0.6-1,0-1C413.8,77.3,413.8,78.3,414.5,78.3L414.5,78.3z"/>
		</g>
	</g>
	<g id="XMLID_40_">
		<g id="XMLID_301_">
			<path id="XMLID_305_" class="st1" d="M383.4,25.8c0.6,0,0.6-1,0-1C382.8,24.8,382.8,25.8,383.4,25.8L383.4,25.8z"/>
		</g>
	</g>
	<g id="XMLID_47_">
		<g id="XMLID_294_">
			<path id="XMLID_298_" class="st1" d="M437.2,18.4c0.6,0,0.6-1,0-1C436.5,17.4,436.5,18.4,437.2,18.4L437.2,18.4z"/>
		</g>
	</g>
	<g id="XMLID_54_">
		<g id="XMLID_287_">
			<path id="XMLID_291_" class="st1" d="M402.4,44.6c0.6,0,0.6-1,0-1C401.7,43.6,401.7,44.6,402.4,44.6L402.4,44.6z"/>
		</g>
	</g>
	<g id="XMLID_61_">
		<g id="XMLID_280_">
			<path id="XMLID_284_" class="st1" d="M456.9,163.7c0.6,0,0.6-1,0-1C456.2,162.7,456.2,163.7,456.9,163.7L456.9,163.7z"/>
		</g>
	</g>
	<g id="XMLID_68_">
		<g id="XMLID_273_">
			<path id="XMLID_277_" class="st1" d="M335.7,150.9c0.6,0,0.6-1,0-1C335.1,149.9,335.1,150.9,335.7,150.9L335.7,150.9z"/>
		</g>
	</g>
	<g id="XMLID_75_">
		<g id="XMLID_266_">
			<path id="XMLID_270_" class="st1" d="M328.9,173.4c0.6,0,0.6-1,0-1C328.3,172.4,328.3,173.4,328.9,173.4L328.9,173.4z"/>
		</g>
	</g>
	<g id="XMLID_82_">
		<g id="XMLID_259_">
			<path id="XMLID_263_" class="st1" d="M322.1,149.4c0.6,0,0.6-1,0-1C321.5,148.4,321.5,149.4,322.1,149.4L322.1,149.4z"/>
		</g>
	</g>
	<g id="XMLID_89_">
		<g id="XMLID_252_">
			<path id="XMLID_256_" class="st1" d="M281.2,192.9c0.6,0,0.6-1,0-1C280.6,191.9,280.6,192.9,281.2,192.9L281.2,192.9z"/>
		</g>
	</g>
	<g id="XMLID_96_">
		<g id="XMLID_246_">
			<path id="XMLID_250_" class="st1" d="M261.5,43.1c0.6,0,0.6-1,0-1C260.9,42.1,260.9,43.1,261.5,43.1L261.5,43.1z"/>
		</g>
	</g>
	<g id="XMLID_103_">
		<g id="XMLID_239_">
			<path id="XMLID_244_" class="st1" d="M54.1,342.7c0.6,0,0.6-1,0-1C53.4,341.7,53.4,342.7,54.1,342.7L54.1,342.7z"/>
		</g>
	</g>
	<g id="XMLID_110_">
		<g id="XMLID_233_">
			<path id="XMLID_237_" class="st1" d="M60.1,230.4c0.6,0,0.6-1,0-1C59.5,229.4,59.5,230.4,60.1,230.4L60.1,230.4z"/>
		</g>
	</g>
	<g id="XMLID_117_">
		<g id="XMLID_226_">
			<path id="XMLID_231_" class="st1" d="M114.6,401.9c0.6,0,0.6-1,0-1C114,400.9,114,401.9,114.6,401.9L114.6,401.9z"/>
		</g>
	</g>
	<g id="XMLID_124_">
		<g id="XMLID_219_">
			<path id="XMLID_224_" class="st1" d="M130.5,340.5c0.6,0,0.6-1,0-1C129.9,339.5,129.9,340.5,130.5,340.5L130.5,340.5z"/>
		</g>
	</g>
	<g id="XMLID_131_">
		<g id="XMLID_212_">
			<path id="XMLID_217_" class="st1" d="M130.5,383.9c0.6,0,0.6-1,0-1C129.9,382.9,129.9,383.9,130.5,383.9L130.5,383.9z"/>
		</g>
	</g>
	<g id="XMLID_138_">
		<g id="XMLID_205_">
			<path id="XMLID_210_" class="st1" d="M142.7,288c0.6,0,0.6-1,0-1C142,287,142,288,142.7,288L142.7,288z"/>
		</g>
	</g>
	<g id="XMLID_145_">
		<g id="XMLID_198_">
			<path id="XMLID_203_" class="st1" d="M155.5,336.7c0.6,0,0.6-1,0-1C154.9,335.7,154.9,336.7,155.5,336.7L155.5,336.7z"/>
		</g>
	</g>
	<g id="XMLID_152_">
		<g id="XMLID_191_">
			<path id="XMLID_196_" class="st1" d="M203.2,339.7c0.6,0,0.6-1,0-1C202.6,338.7,202.6,339.7,203.2,339.7L203.2,339.7z"/>
		</g>
	</g>
	<g id="XMLID_159_">
		<g id="XMLID_184_">
			<path id="XMLID_189_" class="st1" d="M207.8,317.3c0.6,0,0.6-1,0-1C207.1,316.3,207.1,317.3,207.8,317.3L207.8,317.3z"/>
		</g>
	</g>
	<g id="XMLID_166_">
		<g id="XMLID_177_">
			<path id="XMLID_182_" class="st1" d="M249.4,343.5c0.6,0,0.6-1,0-1C248.8,342.5,248.8,343.5,249.4,343.5L249.4,343.5z"/>
		</g>
	</g>
	<g id="XMLID_173_">
		<g id="XMLID_170_">
			<path id="XMLID_175_" class="st1" d="M314.5,254.3c0.6,0,0.6-1,0-1C313.9,253.3,313.9,254.3,314.5,254.3L314.5,254.3z"/>
		</g>
	</g>
	<g id="XMLID_180_">
		<g id="XMLID_163_">
			<path id="XMLID_168_" class="st1" d="M378.9,394.4c0.6,0,0.6-1,0-1C378.2,393.4,378.2,394.4,378.9,394.4L378.9,394.4z"/>
		</g>
	</g>
	<g id="XMLID_187_">
		<g id="XMLID_156_">
			<path id="XMLID_161_" class="st1" d="M453.1,337.5c0.6,0,0.6-1,0-1C452.4,336.5,452.4,337.5,453.1,337.5L453.1,337.5z"/>
		</g>
	</g>
	<g id="XMLID_194_">
		<g id="XMLID_149_">
			<path id="XMLID_154_" class="st1" d="M469.7,408.6c0.6,0,0.6-1,0-1C469.1,407.6,469.1,408.6,469.7,408.6L469.7,408.6z"/>
		</g>
	</g>
	<g id="XMLID_201_">
		<g id="XMLID_142_">
			<path id="XMLID_147_" class="st1" d="M466,270.8c0.6,0,0.6-1,0-1C465.3,269.8,465.3,270.8,466,270.8L466,270.8z"/>
		</g>
	</g>
	<g id="XMLID_208_">
		<g id="XMLID_135_">
			<path id="XMLID_140_" class="st1" d="M420.5,305.3c0.6,0,0.6-1,0-1C419.9,304.3,419.9,305.3,420.5,305.3L420.5,305.3z"/>
		</g>
	</g>
	<g id="XMLID_215_">
		<g id="XMLID_128_">
			<path id="XMLID_133_" class="st1" d="M361.5,341.2c0.6,0,0.6-1,0-1C360.8,340.2,360.8,341.2,361.5,341.2L361.5,341.2z"/>
		</g>
	</g>
	<g id="XMLID_222_">
		<g id="XMLID_121_">
			<path id="XMLID_126_" class="st1" d="M319.1,437.1c0.6,0,0.6-1,0-1C318.4,436.1,318.4,437.1,319.1,437.1L319.1,437.1z"/>
		</g>
	</g>
	<g id="XMLID_229_">
		<g id="XMLID_114_">
			<path id="XMLID_119_" class="st1" d="M475.8,467.8c0.6,0,0.6-1,0-1C475.2,466.8,475.2,467.8,475.8,467.8L475.8,467.8z"/>
		</g>
	</g>
	<g id="XMLID_243_">
		<g id="XMLID_107_">
			<path id="XMLID_112_" class="st1" d="M407.7,466.3c0.6,0,0.6-1,0-1C407,465.3,407,466.3,407.7,466.3L407.7,466.3z"/>
		</g>
	</g>
	<g id="XMLID_257_">
		<g id="XMLID_100_">
			<path id="XMLID_105_" class="st1" d="M303.2,470.8c0.6,0,0.6-1,0-1C302.5,469.8,302.5,470.8,303.2,470.8L303.2,470.8z"/>
		</g>
	</g>
	<g id="XMLID_264_">
		<g id="XMLID_93_">
			<path id="XMLID_98_" class="st1" d="M261.5,420.6c0.6,0,0.6-1,0-1C260.9,419.6,260.9,420.6,261.5,420.6L261.5,420.6z"/>
		</g>
	</g>
	<g id="XMLID_271_">
		<g id="XMLID_86_">
			<path id="XMLID_91_" class="st1" d="M247.9,473.1c0.6,0,0.6-1,0-1C247.3,472.1,247.3,473.1,247.9,473.1L247.9,473.1z"/>
		</g>
	</g>
	<g id="XMLID_278_">
		<g id="XMLID_79_">
			<path id="XMLID_84_" class="st1" d="M188.8,481.3c0.6,0,0.6-1,0-1C188.2,480.3,188.2,481.3,188.8,481.3L188.8,481.3z"/>
		</g>
	</g>
	<g id="XMLID_285_">
		<g id="XMLID_72_">
			<path id="XMLID_77_" class="st1" d="M200.2,428.9c0.6,0,0.6-1,0-1C199.6,427.9,199.6,428.9,200.2,428.9L200.2,428.9z"/>
		</g>
	</g>
	<g id="XMLID_292_">
		<g id="XMLID_65_">
			<path id="XMLID_70_" class="st1" d="M56.3,394.4c0.6,0,0.6-1,0-1C55.7,393.4,55.7,394.4,56.3,394.4L56.3,394.4z"/>
		</g>
	</g>
	<g id="XMLID_299_">
		<g id="XMLID_58_">
			<path id="XMLID_63_" class="st1" d="M50.3,477.6c0.6,0,0.6-1,0-1C49.6,476.6,49.6,477.6,50.3,477.6L50.3,477.6z"/>
		</g>
	</g>
	<g id="XMLID_306_">
		<g id="XMLID_51_">
			<path id="XMLID_56_" class="st1" d="M114.6,460.3c0.6,0,0.6-1,0-1C114,459.3,114,460.3,114.6,460.3L114.6,460.3z"/>
		</g>
	</g>
	<g id="XMLID_313_">
		<g id="XMLID_44_">
			<path id="XMLID_49_" class="st1" d="M175.2,404.2c0.6,0,0.6-1,0-1C174.6,403.2,174.6,404.2,175.2,404.2L175.2,404.2z"/>
		</g>
	</g>
	<g id="XMLID_320_">
		<g id="XMLID_37_">
			<path id="XMLID_42_" class="st1" d="M18.5,278.3c0.6,0,0.6-1,0-1C17.8,277.3,17.8,278.3,18.5,278.3L18.5,278.3z"/>
		</g>
	</g>
	<g id="XMLID_327_">
		<g id="XMLID_30_">
			<path id="XMLID_35_" class="st1" d="M32.9,163.7c0.6,0,0.6-1,0-1C32.2,162.7,32.2,163.7,32.9,163.7L32.9,163.7z"/>
		</g>
	</g>
	<g id="XMLID_334_">
		<g id="XMLID_23_">
			<path id="XMLID_28_" class="st1" d="M479.6,69.3c0.6,0,0.6-1,0-1C478.9,68.3,478.9,69.3,479.6,69.3L479.6,69.3z"/>
		</g>
	</g>
</g>
</svg>
