<?xml version="1.0" encoding="utf-8"?>
<!-- Generator: Adobe Illustrator 19.0.0, SVG Export Plug-In . SVG Version: 6.00 Build 0)  -->
<svg version="1.1" id="Calque_1" xmlns="http://www.w3.org/2000/svg" xmlns:xlink="http://www.w3.org/1999/xlink" x="0px" y="0px"
	 viewBox="0 0 900 279.4" style="enable-background:new 0 0 900 279.4;" xml:space="preserve">
<style type="text/css">
	.st0{fill:none;stroke:#000000;stroke-width:0.5;stroke-miterlimit:10;}
	.st1{fill:none;stroke:#000000;stroke-width:1.1919;stroke-miterlimit:10;}
	.st2{fill:none;stroke:#000000;stroke-width:0.5959;stroke-miterlimit:10;}
	.st3{fill:#FFF0F0;}
</style>
<ellipse id="XMLID_1870_" class="st0" cx="53" cy="254.1" rx="0.5" ry="0.5"/>
<ellipse id="XMLID_1858_" class="st0" cx="820.5" cy="267.5" rx="0.5" ry="0.5"/>
<g id="XMLID_1737_">
	<ellipse id="XMLID_1886_" class="st1" cx="899.5" cy="191.3" rx="0.5" ry="0.1"/>
	<ellipse id="XMLID_1885_" class="st1" cx="899" cy="235.3" rx="0.5" ry="0.1"/>
	<ellipse id="XMLID_1884_" class="st2" cx="30.5" cy="6.9" rx="0.5" ry="0.1"/>
	<ellipse id="XMLID_1883_" class="st2" cx="121.5" cy="6.8" rx="0.5" ry="0.1"/>
	<ellipse id="XMLID_1882_" class="st2" cx="26.5" cy="273.5" rx="0.5" ry="0.1"/>
	<g id="XMLID_1739_">
		<ellipse id="XMLID_1881_" class="st2" cx="87.9" cy="203.5" rx="0.4" ry="0.1"/>
		<rect id="XMLID_1880_" x="-5.9" y="-1.5" class="st3" width="905.9" height="280.8"/>
		<ellipse id="XMLID_1879_" class="st2" cx="360.7" cy="34.4" rx="0.5" ry="0.1"/>
		<ellipse id="XMLID_1878_" class="st2" cx="270.9" cy="34.4" rx="0.5" ry="0.1"/>
		<ellipse id="XMLID_1877_" class="st2" cx="270.4" cy="18.1" rx="0.5" ry="0.1"/>
		<ellipse id="XMLID_1876_" class="st2" cx="179.4" cy="21.6" rx="0.5" ry="0.1"/>
		<ellipse id="XMLID_1875_" class="st2" cx="153.1" cy="40.6" rx="0.5" ry="0.1"/>
		<ellipse id="XMLID_1874_" class="st2" cx="135.8" cy="21.8" rx="0.5" ry="0.1"/>
		<ellipse id="XMLID_1873_" class="st2" cx="79.8" cy="34.2" rx="0.5" ry="0.1"/>
		<ellipse id="XMLID_1872_" class="st2" cx="80.3" cy="24.2" rx="0.5" ry="0.1"/>
		<ellipse id="XMLID_1871_" class="st2" cx="153.1" cy="12.7" rx="0.5" ry="0.1"/>
		<ellipse id="XMLID_15_" class="st2" cx="38.2" cy="57.2" rx="0.5" ry="0.1"/>
		<ellipse id="XMLID_1869_" class="st2" cx="161.7" cy="68" rx="0.5" ry="0.1"/>
		<ellipse id="XMLID_1868_" class="st2" cx="207.7" cy="49.8" rx="0.5" ry="0.1"/>
		<ellipse id="XMLID_1867_" class="st2" cx="271.3" cy="67.8" rx="0.5" ry="0.1"/>
		<ellipse id="XMLID_1866_" class="st2" cx="306.8" cy="52.8" rx="0.5" ry="0.1"/>
		<ellipse id="XMLID_1865_" class="st2" cx="374.3" cy="65.5" rx="0.5" ry="0.1"/>
		<ellipse id="XMLID_1864_" class="st2" cx="446.4" cy="44.7" rx="0.5" ry="0.1"/>
		<ellipse id="XMLID_1863_" class="st2" cx="400.6" cy="18.2" rx="0.5" ry="0.1"/>
		<ellipse id="XMLID_1862_" class="st2" cx="584.9" cy="21.5" rx="0.5" ry="0.1"/>
		<ellipse id="XMLID_1861_" class="st2" cx="584.4" cy="52.8" rx="0.5" ry="0.1"/>
		<ellipse id="XMLID_1860_" class="st2" cx="551.4" cy="14.5" rx="0.5" ry="0.1"/>
		<ellipse id="XMLID_1859_" class="st2" cx="811.3" cy="16.3" rx="0.5" ry="0.1"/>
		<ellipse id="XMLID_14_" class="st2" cx="810.9" cy="60.3" rx="0.5" ry="0.1"/>
		<ellipse id="XMLID_1857_" class="st2" cx="753.4" cy="42.9" rx="0.5" ry="0.1"/>
		<ellipse id="XMLID_1856_" class="st2" cx="637.6" cy="40.7" rx="0.5" ry="0.1"/>
		<ellipse id="XMLID_1855_" class="st2" cx="699.3" cy="21.9" rx="0.5" ry="0.1"/>
		<ellipse id="XMLID_1854_" class="st2" cx="670.6" cy="12.6" rx="0.5" ry="0.1"/>
		<ellipse id="XMLID_1853_" class="st2" cx="542.8" cy="37.1" rx="0.5" ry="0.1"/>
		<ellipse id="XMLID_1852_" class="st2" cx="465.2" cy="16.2" rx="0.5" ry="0.1"/>
		<ellipse id="XMLID_1851_" class="st2" cx="361.6" cy="104.9" rx="0.5" ry="0.1"/>
		<ellipse id="XMLID_1850_" class="st2" cx="271.8" cy="104.9" rx="0.5" ry="0.1"/>
		<ellipse id="XMLID_1849_" class="st2" cx="271.3" cy="88.6" rx="0.5" ry="0.1"/>
		<ellipse id="XMLID_1848_" class="st2" cx="180.4" cy="92.1" rx="0.5" ry="0.1"/>
		<ellipse id="XMLID_1847_" class="st2" cx="154" cy="111.1" rx="0.5" ry="0.1"/>
		<ellipse id="XMLID_1846_" class="st2" cx="136.8" cy="92.3" rx="0.5" ry="0.1"/>
		<ellipse id="XMLID_1845_" class="st2" cx="80.8" cy="104.7" rx="0.5" ry="0.1"/>
		<ellipse id="XMLID_1844_" class="st2" cx="81.3" cy="94.7" rx="0.5" ry="0.1"/>
		<ellipse id="XMLID_1843_" class="st2" cx="31.5" cy="77.4" rx="0.5" ry="0.1"/>
		<ellipse id="XMLID_1842_" class="st2" cx="154" cy="83.2" rx="0.5" ry="0.1"/>
		<ellipse id="XMLID_1841_" class="st2" cx="122.4" cy="77.3" rx="0.5" ry="0.1"/>
		<ellipse id="XMLID_1840_" class="st2" cx="39.1" cy="127.7" rx="0.5" ry="0.1"/>
		<ellipse id="XMLID_1839_" class="st2" cx="162.7" cy="138.5" rx="0.5" ry="0.1"/>
		<ellipse id="XMLID_1838_" class="st2" cx="208.6" cy="120.3" rx="0.5" ry="0.1"/>
		<ellipse id="XMLID_1837_" class="st2" cx="272.3" cy="138.3" rx="0.5" ry="0.1"/>
		<ellipse id="XMLID_1836_" class="st2" cx="307.7" cy="123.3" rx="0.5" ry="0.1"/>
		<ellipse id="XMLID_1835_" class="st2" cx="375.2" cy="136" rx="0.5" ry="0.1"/>
		<ellipse id="XMLID_1834_" class="st2" cx="447.3" cy="115.2" rx="0.5" ry="0.1"/>
		<ellipse id="XMLID_1833_" class="st2" cx="401.5" cy="88.7" rx="0.5" ry="0.1"/>
		<ellipse id="XMLID_1832_" class="st2" cx="585.9" cy="92" rx="0.5" ry="0.1"/>
		<ellipse id="XMLID_1831_" class="st2" cx="585.4" cy="123.3" rx="0.5" ry="0.1"/>
		<ellipse id="XMLID_1830_" class="st2" cx="552.3" cy="85" rx="0.5" ry="0.1"/>
		<ellipse id="XMLID_1829_" class="st2" cx="812.3" cy="86.8" rx="0.5" ry="0.1"/>
		<ellipse id="XMLID_1828_" class="st2" cx="811.8" cy="130.8" rx="0.5" ry="0.1"/>
		<ellipse id="XMLID_1827_" class="st2" cx="754.4" cy="113.4" rx="0.5" ry="0.1"/>
		<ellipse id="XMLID_1826_" class="st2" cx="638.5" cy="111.2" rx="0.5" ry="0.1"/>
		<ellipse id="XMLID_1825_" class="st2" cx="700.3" cy="92.4" rx="0.5" ry="0.1"/>
		<ellipse id="XMLID_1824_" class="st2" cx="671.5" cy="83.1" rx="0.5" ry="0.1"/>
		<ellipse id="XMLID_1823_" class="st2" cx="543.7" cy="107.6" rx="0.5" ry="0.1"/>
		<ellipse id="XMLID_1822_" class="st2" cx="466.2" cy="86.7" rx="0.5" ry="0.1"/>
		<ellipse id="XMLID_1821_" class="st2" cx="368.8" cy="155.6" rx="0.5" ry="0.1"/>
		<ellipse id="XMLID_1820_" class="st2" cx="279" cy="155.6" rx="0.5" ry="0.1"/>
		<ellipse id="XMLID_1819_" class="st2" cx="278.5" cy="139.3" rx="0.5" ry="0.1"/>
		<ellipse id="XMLID_1818_" class="st2" cx="187.6" cy="142.8" rx="0.5" ry="0.1"/>
		<ellipse id="XMLID_1817_" class="st2" cx="161.2" cy="161.8" rx="0.5" ry="0.1"/>
		<ellipse id="XMLID_1816_" class="st2" cx="144" cy="143" rx="0.5" ry="0.1"/>
		<ellipse id="XMLID_1815_" class="st2" cx="88" cy="155.4" rx="0.5" ry="0.1"/>
		<ellipse id="XMLID_1814_" class="st2" cx="88.5" cy="145.4" rx="0.5" ry="0.1"/>
		<ellipse id="XMLID_1813_" class="st2" cx="38.7" cy="128.1" rx="0.5" ry="0.1"/>
		<ellipse id="XMLID_1812_" class="st2" cx="161.2" cy="133.9" rx="0.5" ry="0.1"/>
		<ellipse id="XMLID_1811_" class="st2" cx="129.6" cy="128" rx="0.5" ry="0.1"/>
		<ellipse id="XMLID_1810_" class="st2" cx="46.3" cy="178.4" rx="0.5" ry="0.1"/>
		<ellipse id="XMLID_1809_" class="st2" cx="169.8" cy="189.2" rx="0.5" ry="0.1"/>
		<ellipse id="XMLID_1808_" class="st2" cx="215.8" cy="171" rx="0.5" ry="0.1"/>
		<ellipse id="XMLID_1807_" class="st2" cx="279.5" cy="189" rx="0.5" ry="0.1"/>
		<ellipse id="XMLID_1806_" class="st2" cx="314.9" cy="174" rx="0.5" ry="0.1"/>
		<ellipse id="XMLID_1805_" class="st2" cx="382.4" cy="186.7" rx="0.5" ry="0.1"/>
		<ellipse id="XMLID_1804_" class="st2" cx="454.5" cy="165.9" rx="0.5" ry="0.1"/>
		<ellipse id="XMLID_1803_" class="st2" cx="408.7" cy="139.4" rx="0.5" ry="0.1"/>
		<ellipse id="XMLID_1802_" class="st2" cx="593" cy="142.7" rx="0.5" ry="0.1"/>
		<ellipse id="XMLID_1801_" class="st2" cx="592.6" cy="174" rx="0.5" ry="0.1"/>
		<ellipse id="XMLID_1800_" class="st2" cx="559.5" cy="135.7" rx="0.5" ry="0.1"/>
		<ellipse id="XMLID_1799_" class="st2" cx="819.5" cy="137.5" rx="0.5" ry="0.1"/>
		<ellipse id="XMLID_1798_" class="st2" cx="819" cy="181.5" rx="0.5" ry="0.1"/>
		<ellipse id="XMLID_1797_" class="st2" cx="761.5" cy="164.1" rx="0.5" ry="0.1"/>
		<ellipse id="XMLID_1796_" class="st2" cx="645.7" cy="161.9" rx="0.5" ry="0.1"/>
		<ellipse id="XMLID_1795_" class="st2" cx="707.5" cy="143.1" rx="0.5" ry="0.1"/>
		<ellipse id="XMLID_1794_" class="st2" cx="678.7" cy="133.8" rx="0.5" ry="0.1"/>
		<ellipse id="XMLID_1793_" class="st2" cx="550.9" cy="158.3" rx="0.5" ry="0.1"/>
		<ellipse id="XMLID_1792_" class="st2" cx="473.4" cy="137.4" rx="0.5" ry="0.1"/>
		<ellipse id="XMLID_1791_" class="st2" cx="448.8" cy="209.4" rx="0.5" ry="0.1"/>
		<ellipse id="XMLID_1790_" class="st2" cx="359" cy="209.4" rx="0.5" ry="0.1"/>
		<ellipse id="XMLID_1789_" class="st2" cx="358.6" cy="193" rx="0.5" ry="0.1"/>
		<ellipse id="XMLID_1788_" class="st2" cx="267.6" cy="196.6" rx="0.5" ry="0.1"/>
		<ellipse id="XMLID_1787_" class="st2" cx="241.3" cy="215.6" rx="0.5" ry="0.1"/>
		<ellipse id="XMLID_1786_" class="st2" cx="224" cy="196.8" rx="0.5" ry="0.1"/>
		<ellipse id="XMLID_1785_" class="st2" cx="168" cy="209.2" rx="0.5" ry="0.1"/>
		<ellipse id="XMLID_1784_" class="st2" cx="168.5" cy="199.2" rx="0.5" ry="0.1"/>
		<ellipse id="XMLID_1783_" class="st2" cx="118.7" cy="181.9" rx="0.5" ry="0.1"/>
		<ellipse id="XMLID_1782_" class="st2" cx="241.3" cy="187.7" rx="0.5" ry="0.1"/>
		<ellipse id="XMLID_1781_" class="st2" cx="209.7" cy="181.8" rx="0.5" ry="0.1"/>
		<ellipse id="XMLID_1780_" class="st2" cx="126.4" cy="232.2" rx="0.5" ry="0.1"/>
		<ellipse id="XMLID_1779_" class="st2" cx="249.9" cy="243" rx="0.5" ry="0.1"/>
		<ellipse id="XMLID_1778_" class="st2" cx="295.8" cy="224.8" rx="0.5" ry="0.1"/>
		<ellipse id="XMLID_1777_" class="st2" cx="359.5" cy="242.8" rx="0.5" ry="0.1"/>
		<ellipse id="XMLID_1776_" class="st2" cx="394.9" cy="227.8" rx="0.5" ry="0.1"/>
		<ellipse id="XMLID_1775_" class="st2" cx="462.4" cy="240.5" rx="0.5" ry="0.1"/>
		<ellipse id="XMLID_1774_" class="st2" cx="534.6" cy="219.7" rx="0.5" ry="0.1"/>
		<ellipse id="XMLID_1773_" class="st2" cx="488.8" cy="193.2" rx="0.5" ry="0.1"/>
		<ellipse id="XMLID_1772_" class="st2" cx="673.1" cy="196.5" rx="0.5" ry="0.1"/>
		<ellipse id="XMLID_1771_" class="st2" cx="672.6" cy="227.8" rx="0.5" ry="0.1"/>
		<ellipse id="XMLID_1770_" class="st2" cx="639.6" cy="189.5" rx="0.5" ry="0.1"/>
		<ellipse id="XMLID_1769_" class="st2" cx="841.6" cy="217.9" rx="0.5" ry="0.1"/>
		<ellipse id="XMLID_1768_" class="st2" cx="725.7" cy="215.7" rx="0.5" ry="0.1"/>
		<ellipse id="XMLID_1767_" class="st2" cx="787.5" cy="196.9" rx="0.5" ry="0.1"/>
		<ellipse id="XMLID_1766_" class="st2" cx="758.8" cy="187.6" rx="0.5" ry="0.1"/>
		<ellipse id="XMLID_1765_" class="st2" cx="631" cy="212.1" rx="0.5" ry="0.1"/>
		<ellipse id="XMLID_1764_" class="st2" cx="553.4" cy="191.1" rx="0.5" ry="0.1"/>
		<ellipse id="XMLID_1763_" class="st2" cx="348.9" cy="250.7" rx="0.5" ry="0.1"/>
		<ellipse id="XMLID_1762_" class="st2" cx="259.1" cy="250.7" rx="0.5" ry="0.1"/>
		<ellipse id="XMLID_1761_" class="st2" cx="258.6" cy="234.4" rx="0.5" ry="0.1"/>
		<ellipse id="XMLID_1760_" class="st2" cx="167.7" cy="238" rx="0.5" ry="0.1"/>
		<ellipse id="XMLID_1759_" class="st2" cx="141.4" cy="256.9" rx="0.5" ry="0.1"/>
		<ellipse id="XMLID_1758_" class="st2" cx="124.1" cy="238.1" rx="0.5" ry="0.1"/>
		<ellipse id="XMLID_1757_" class="st2" cx="68.1" cy="250.6" rx="0.5" ry="0.1"/>
		<ellipse id="XMLID_1756_" class="st2" cx="68.6" cy="240.6" rx="0.5" ry="0.1"/>
		<ellipse id="XMLID_1755_" class="st2" cx="141.4" cy="229.1" rx="0.5" ry="0.1"/>
		<ellipse id="XMLID_1754_" class="st2" cx="109.8" cy="223.1" rx="0.5" ry="0.1"/>
		<ellipse id="XMLID_1753_" class="st2" cx="195.9" cy="266.1" rx="0.5" ry="0.1"/>
		<ellipse id="XMLID_1752_" class="st2" cx="295" cy="269.1" rx="0.5" ry="0.1"/>
		<ellipse id="XMLID_1751_" class="st2" cx="434.7" cy="261.1" rx="0.5" ry="0.1"/>
		<ellipse id="XMLID_1750_" class="st2" cx="388.9" cy="234.5" rx="0.5" ry="0.1"/>
		<ellipse id="XMLID_1749_" class="st2" cx="573.2" cy="237.8" rx="0.5" ry="0.1"/>
		<ellipse id="XMLID_1748_" class="st2" cx="572.7" cy="269.1" rx="0.5" ry="0.1"/>
		<ellipse id="XMLID_1747_" class="st2" cx="539.7" cy="230.8" rx="0.5" ry="0.1"/>
		<ellipse id="XMLID_1746_" class="st2" cx="799.6" cy="232.6" rx="0.5" ry="0.1"/>
		<ellipse id="XMLID_1745_" class="st2" cx="741.7" cy="259.2" rx="0.5" ry="0.1"/>
		<ellipse id="XMLID_1744_" class="st2" cx="625.8" cy="257" rx="0.5" ry="0.1"/>
		<ellipse id="XMLID_1743_" class="st2" cx="687.6" cy="238.2" rx="0.5" ry="0.1"/>
		<ellipse id="XMLID_1742_" class="st2" cx="658.9" cy="228.9" rx="0.5" ry="0.1"/>
		<ellipse id="XMLID_1741_" class="st2" cx="531" cy="253.4" rx="0.5" ry="0.1"/>
		<ellipse id="XMLID_1740_" class="st2" cx="453.5" cy="232.5" rx="0.5" ry="0.1"/>
	</g>
	<ellipse id="XMLID_1738_" class="st2" cx="799.1" cy="276.6" rx="0.5" ry="0.1"/>
</g>
</svg>
