<?xml version="1.0" encoding="utf-8"?>
<!-- Generator: Adobe Illustrator 19.0.0, SVG Export Plug-In . SVG Version: 6.00 Build 0)  -->
<svg version="1.1" id="Calque_1" xmlns="http://www.w3.org/2000/svg" xmlns:xlink="http://www.w3.org/1999/xlink" x="0px" y="0px"
	 viewBox="0 0 557 306" style="enable-background:new 0 0 557 306;" xml:space="preserve">
<style type="text/css">
	.st0{fill:#182F4F;}
	.st1{fill:#FF3800;}
</style>
<path id="XMLID_164_" class="st0" d="M478,51c1.1-0.2,2.2-0.4,3.3-0.6c0.3,0,0.5,0,0.8,0.1c-0.2,0.8-1.1,0.6-1.7,1
	c0,0.7-0.6,1.1-1.2,1.6c-1.4,1.2-2.9,2.1-5,2.5c-0.9,0.2-1.7,0.6-2.6,0.5c-1.7-0.2-3.4-0.2-5-0.8c-2.1-0.8-4.1-1.6-6.5-2.5
	c-0.7,0-1.6,0-2.5,0c-1.1,0.5-2.2,1.1-3.3,1.6c-1.6,0.8-3.2,0.7-4.9,0.3c-0.1,0-0.1-0.1-0.2-0.3c0.9-1,1.8-1.9,3.2-2.5
	c1.6-0.7,3.3-1.4,4.9-2.2c1.5-0.1,3,0,4.5,0.4c1.7,0.5,3.3,0.8,4.9,1.5c1,0.5,2.2,0.5,3.3,0.5c1,0,1.9-0.1,2.9-0.2
	c0.8-0.1,1.5-0.2,2.3-0.4C476.1,51.4,477.1,51.2,478,51z"/>
<path id="XMLID_163_" class="st0" d="M145.6,93.3c1.1-0.2,2.2-0.4,3.3-0.6c0.3,0,0.5,0,0.8,0.1c-0.2,0.8-1.1,0.6-1.7,1
	c0,0.7-0.6,1.1-1.2,1.6c-1.4,1.2-2.9,2.1-5,2.5c-0.9,0.2-1.7,0.6-2.6,0.5c-1.7-0.2-3.4-0.2-5-0.8c-2.1-0.8-4.1-1.6-6.5-2.5
	c-0.7,0-1.6,0-2.5,0c-1.1,0.5-2.2,1.1-3.3,1.6c-1.6,0.8-3.2,0.7-4.9,0.3c-0.1,0-0.1-0.1-0.2-0.3c0.9-1,1.8-1.9,3.2-2.5
	c1.6-0.7,3.3-1.4,4.9-2.2c1.5-0.1,3,0,4.5,0.4c1.7,0.5,3.3,0.8,4.9,1.5c1,0.5,2.2,0.5,3.3,0.5c1,0,1.9-0.1,2.9-0.2
	c0.8-0.1,1.5-0.2,2.3-0.4C143.8,93.7,144.7,93.5,145.6,93.3z"/>
<path id="XMLID_162_" class="st0" d="M346.5,225.3c0,0-0.1,0-0.1,0c0,0,0-0.1,0-0.1C346.4,225.2,346.4,225.2,346.5,225.3
	C346.5,225.2,346.5,225.3,346.5,225.3z"/>
<path id="XMLID_161_" class="st1" d="M338.4,224.3c1-0.6,0.5-1.6,1.2-2.2c0.6-0.6,1.2-1.1,1.9-1.7c0,0,0,0,0,0
	c0.1,0.2,0.2,0.3,0.2,0.5c0.1-0.1,0.2-0.2,0.1-0.3c-0.1-0.1-0.2-0.1-0.3-0.2c0,0,0,0,0,0c1.5-0.9,3.1-1.4,5-1.4
	c1.8,0,3.5,0.2,5.2,0.7c1.5,0.4,3,0.4,4.5,0c0.9-0.2,1.8-0.4,2.6-0.6c0.8-0.2,1.5-0.4,2.4-0.7c0.1,0,0.4,0.1,0.7,0.2
	c0,0.3,0.1,0.5,0.1,0.7c-0.6,2-2.7,3.8-5.4,3.8c-1.8,0-3.5,0-5.2-0.3c-1.7-0.3-3.3-0.5-4.9-1c-0.4-0.1-1,0-1.5,0.1
	c-0.8,0.2-1.6,0.5-2.6,0.8c-0.9,0.4-0.9,1.8-2.4,2.1C339.4,224.6,339,224.5,338.4,224.3z"/>
<path id="XMLID_160_" class="st1" d="M516.5,64.5c1-0.6,0.5-1.6,1.2-2.2c0.6-0.6,1.2-1.1,1.9-1.7c0,0,0,0,0,0
	c0.1,0.2,0.2,0.3,0.2,0.5c0.1-0.1,0.2-0.2,0.1-0.3c-0.1-0.1-0.2-0.1-0.4-0.2c0,0,0,0,0,0c1.5-0.9,3.1-1.4,5-1.4
	c1.8,0,3.5,0.2,5.2,0.7c1.5,0.4,3,0.4,4.5,0c0.9-0.2,1.8-0.4,2.6-0.6c0.7-0.2,1.5-0.4,2.4-0.7c0.1,0,0.4,0.1,0.7,0.2
	c0,0.3,0.1,0.5,0.1,0.7c-0.6,2-2.7,3.8-5.4,3.8c-1.8,0-3.5,0-5.2-0.3c-1.6-0.3-3.3-0.5-4.9-1c-0.4-0.1-1,0-1.5,0.1
	c-0.8,0.2-1.6,0.5-2.6,0.8c-0.9,0.4-0.9,1.8-2.4,2.1C517.5,64.9,517,64.7,516.5,64.5z"/>
<path id="XMLID_159_" class="st1" d="M142.4,233.2c1-0.6,0.5-1.6,1.2-2.2c0.6-0.6,1.2-1.1,1.9-1.7c0,0,0,0,0,0
	c0.1,0.2,0.1,0.3,0.2,0.5c0.1-0.1,0.2-0.2,0.1-0.3c-0.1-0.1-0.2-0.1-0.3-0.2c0,0,0,0,0,0c1.5-0.9,3.1-1.4,5-1.4
	c1.8,0,3.5,0.2,5.2,0.7c1.5,0.4,3,0.4,4.5,0c0.9-0.2,1.8-0.4,2.6-0.6c0.7-0.2,1.5-0.4,2.4-0.7c0.1,0,0.4,0.1,0.7,0.2
	c0,0.3,0.1,0.5,0.1,0.7c-0.6,2-2.7,3.8-5.4,3.8c-1.8,0-3.5,0-5.2-0.3c-1.6-0.3-3.3-0.5-4.9-1c-0.4-0.1-1,0-1.5,0.1
	c-0.8,0.2-1.6,0.5-2.6,0.8c-0.9,0.4-0.9,1.8-2.4,2.1C143.5,233.5,143,233.4,142.4,233.2z"/>
<path id="XMLID_158_" class="st0" d="M415.5,216.5c-0.5,0.3-1.1,0.4-1.8,0.4c-1.3,0-2.5,0-3.8,0c-0.6,0-1.2,0-1.7-0.2
	c-2.1-0.7-4.1-0.3-6.1,0.5c-0.8,0.4-1.7,0.6-2.7,1c-0.1-1.1,0.6-1.7,1-2.4c1.1-0.5,2.2-1,3.3-1.5c1.5-0.7,3-0.5,4.5-0.2
	c0.8,0.2,1.6,0.4,2.5,0.4c0.6,0,1.1,0.2,1.4,0.3c1.1-0.1,1.9-0.2,2.7-0.3c0.6-0.1,1.2-0.3,1.9-0.5c0.2,0.2,0.4,0.4,0.7,0.6
	C416.7,215.3,416.1,215.9,415.5,216.5z"/>
<path id="XMLID_157_" class="st0" d="M321.1,111.9c-0.4,0.3-1.1,0.4-1.8,0.4c-1.3,0-2.5,0-3.8,0c-0.6,0-1.2,0-1.7-0.2
	c-2.2-0.7-4.1-0.3-6.1,0.5c-0.8,0.4-1.7,0.6-2.7,1c-0.1-1.1,0.7-1.7,1-2.4c1.1-0.5,2.2-1,3.3-1.5c1.5-0.7,3-0.5,4.5-0.2
	c0.8,0.2,1.6,0.4,2.5,0.4c0.6,0,1.1,0.2,1.4,0.3c1.1-0.1,1.9-0.2,2.7-0.3c0.6-0.1,1.2-0.3,1.9-0.5c0.2,0.2,0.4,0.4,0.7,0.6
	C322.3,110.7,321.7,111.2,321.1,111.9z"/>
<path id="XMLID_156_" class="st0" d="M201,274.7c-0.5,0.3-1.1,0.4-1.8,0.4c-1.3,0-2.5,0-3.8,0c-0.6,0-1.2,0-1.7-0.2
	c-2.1-0.7-4.1-0.4-6.1,0.5c-0.8,0.4-1.7,0.6-2.7,1c-0.1-1.1,0.6-1.7,1-2.4c1.1-0.5,2.2-1,3.3-1.5c1.5-0.7,3-0.5,4.5-0.2
	c0.8,0.2,1.6,0.4,2.5,0.4c0.6,0,1.1,0.2,1.4,0.3c1.1-0.1,1.9-0.2,2.7-0.3c0.6-0.1,1.2-0.3,1.9-0.5c0.2,0.2,0.4,0.4,0.7,0.6
	C202.3,273.4,201.7,274,201,274.7z"/>
<path id="XMLID_155_" class="st0" d="M71.7,174.8c-0.5,0.3-1.1,0.4-1.8,0.4c-1.3,0-2.5,0-3.8,0c-0.6,0-1.2,0-1.7-0.2
	c-2.2-0.7-4.1-0.3-6.1,0.5c-0.8,0.4-1.7,0.6-2.7,1c-0.1-1.1,0.6-1.7,1-2.4c1.1-0.5,2.2-1,3.3-1.5c1.5-0.7,3-0.5,4.5-0.2
	c0.8,0.2,1.6,0.4,2.5,0.4c0.6,0,1.1,0.2,1.4,0.3c1.1-0.1,1.9-0.2,2.7-0.3c0.6-0.1,1.2-0.3,1.9-0.5c0.2,0.2,0.4,0.4,0.7,0.6
	C73,173.6,72.4,174.1,71.7,174.8z"/>
<path id="XMLID_154_" class="st0" d="M312.3,201.7c0.5,0,1.1,0,1.9,0c0.1,0.4,0.1,0.7,0.1,1c-0.8,0.4-1.7,0.9-2.5,1.3
	c-0.7,0.3-1.3,0.7-2,1c-0.4,0.2-0.8,0.3-1.2-0.1C308.7,203.1,310.4,202.4,312.3,201.7z"/>
<path id="XMLID_341_" class="st0" d="M324.5,204.4c0.1,0.3,0.1,0.5,0.2,0.8c0.4,0,0.6,0,0.9-0.1c0-0.3,0-0.5,0-0.9
	C325.1,204.4,324.9,204.4,324.5,204.4z M317,201.6c0.5,0,1,0,1.6,0c1.1,0.6,2.2,1.1,3.3,1.7c0.9,0.5,1.8,0.6,2.9,0.2
	c0.4-0.2,0.9-0.2,1.3-0.2c1.3-0.1,2.7,0.1,4.2-0.7c0,0.5,0,0.8-0.1,0.9c-0.7,0.9-1.6,1.6-2.8,2.1c-4.4,0.4-6.5-0.1-10.3-2.6
	c-0.6-0.1-1.2-0.2-1.8-0.4c-0.1-0.2-0.2-0.3-0.1-0.4c0-0.2,0.1-0.3,0.2-0.4C315.8,201.5,316.4,201.6,317,201.6z"/>
<path id="XMLID_151_" class="st0" d="M491.3,36.9c0.5,0,1.1,0,1.9,0c0.1,0.4,0.1,0.7,0.1,1c-0.8,0.4-1.7,0.9-2.5,1.3
	c-0.7,0.3-1.3,0.7-2,1c-0.4,0.2-0.8,0.3-1.2-0.1C487.7,38.3,489.5,37.6,491.3,36.9z"/>
<path id="XMLID_337_" class="st0" d="M503.5,39.6c0.1,0.3,0.1,0.5,0.2,0.8c0.4,0,0.6,0,0.9-0.1c0-0.3,0-0.5,0-0.9
	C504.2,39.6,503.9,39.6,503.5,39.6z M496,36.8c0.5,0,1,0,1.6,0c1.1,0.6,2.2,1.1,3.3,1.7c0.9,0.5,1.8,0.7,2.9,0.2
	c0.4-0.2,0.9-0.2,1.3-0.2c1.3-0.1,2.7,0.1,4.2-0.7c0,0.5,0,0.8-0.1,0.9c-0.7,0.9-1.6,1.6-2.8,2.1c-4.4,0.4-6.5-0.1-10.3-2.6
	c-0.6-0.1-1.2-0.2-1.8-0.4c-0.1-0.2-0.2-0.3-0.1-0.4c0-0.2,0.1-0.3,0.2-0.4C494.9,36.7,495.5,36.9,496,36.8z"/>
<path id="XMLID_148_" class="st0" d="M128,46.5c0.5,0,1.1,0,1.9,0c0.1,0.4,0.1,0.7,0.1,1c-0.8,0.4-1.7,0.9-2.5,1.3
	c-0.7,0.3-1.3,0.7-2,1c-0.4,0.2-0.8,0.3-1.2-0.1C124.4,47.9,126.2,47.2,128,46.5z"/>
<path id="XMLID_333_" class="st0" d="M140.2,49.2c0.1,0.3,0.1,0.5,0.2,0.8c0.4,0,0.6,0,0.9-0.1c0-0.3,0-0.5,0-0.9
	C140.8,49.2,140.6,49.2,140.2,49.2z M132.7,46.4c0.5,0,1,0,1.6,0c1.1,0.6,2.2,1.1,3.3,1.7c0.9,0.5,1.8,0.7,2.9,0.2
	c0.4-0.2,0.9-0.2,1.3-0.2c1.3,0,2.7,0.1,4.2-0.7c0,0.5,0,0.8-0.1,0.9c-0.7,0.9-1.6,1.6-2.8,2.1c-4.4,0.4-6.5-0.1-10.3-2.6
	c-0.6-0.1-1.2-0.2-1.8-0.4c-0.1-0.2-0.2-0.3-0.1-0.4c0-0.2,0.1-0.3,0.1-0.4C131.5,46.3,132.1,46.4,132.7,46.4z"/>
<path id="XMLID_145_" class="st0" d="M525.4,143.9c0.5,0,1.1,0,1.9,0c0.1,0.4,0.1,0.7,0.1,1c-0.8,0.4-1.7,0.9-2.5,1.3
	c-0.7,0.3-1.3,0.7-2,1c-0.4,0.2-0.8,0.3-1.2-0.1C521.8,145.3,523.6,144.6,525.4,143.9z"/>
<path id="XMLID_144_" class="st0" d="M124.1,212.6c0.3,0.4,0.1,0.7-0.3,0.9c-0.7,0.3-1.4,0.6-2.1,0.9c-0.3,0.1-0.6,0.2-1,0.3
	c-0.7,0.1-1.4,0.3-2.3,0.4c-0.1,0.1-0.3,0.4-0.5,0.7c-2.3,0.4-4.5,0.2-6.7-0.5c-0.6-0.2-1.2-0.4-1.7-0.5c-0.5-0.1-1.1-0.3-1.7-0.2
	c-1.5,0.2-3,0.4-4.5,0.7c-1.3,0.3-2.5,0.4-4-0.4c1.5-0.9,2.7-1.8,4.4-2.2c0.3-0.1,0.7-0.1,1-0.1c0.9,0,1.8,0,2.7,0
	c1.7-0.1,3.3,0.3,4.9,0.9c0.5,0.2,1.1,0.2,1.6,0.2c0.7,0,1.3-0.2,2-0.3c2.3-0.3,4.6-0.5,6.9-0.8
	C123.4,212.5,123.8,212.6,124.1,212.6z"/>
<path id="XMLID_143_" class="st0" d="M433.5,195c-1,0.2-2,0.4-2.9,0.8c-0.6,0.2-1,0.6-1.5,0.9c-0.3,0.2-0.5,0.5-0.8,0.7
	c-1.4,0-1.4,0-2.3-0.6c-0.4-1,0.6-1.8,0.7-2.8c0.6-0.5,1.3-1,2-1.4c0.5-0.3,1.1-0.7,1.8-0.8c2-0.2,3.9-0.8,5.9-0.7
	c0.5,0,1,0.1,1.5,0.2c1,0.3,2,0.3,3,0c0.5-0.2,1.1-0.2,1.6-0.3c0.7-0.4,1.4-0.7,2-1c1.2,0.4,1.2,1.3,1.7,2c-0.3,0.6-0.5,1.2-0.9,2
	c-0.4,0.3-0.9,0.7-1.4,1.2c-1,0.1-2,0.3-2.9,0.3c-2,0-4-0.2-6-0.3C434.5,194.9,434,194.9,433.5,195z"/>
<path id="XMLID_142_" class="st0" d="M40.8,243.4c-1,0.2-2,0.4-2.9,0.8c-0.6,0.2-1,0.6-1.5,0.9c-0.3,0.2-0.5,0.5-0.8,0.7
	c-1.4,0-1.4,0-2.3-0.6c-0.4-1,0.6-1.8,0.7-2.8c0.6-0.5,1.3-1,2-1.4c0.5-0.3,1.1-0.7,1.8-0.8c2-0.2,3.9-0.8,5.9-0.7
	c0.5,0,1,0.1,1.5,0.2c1,0.3,2,0.3,3,0c0.5-0.2,1.1-0.2,1.6-0.3c0.7-0.4,1.4-0.7,2-1c1.2,0.4,1.2,1.3,1.7,2c-0.3,0.6-0.5,1.2-0.9,2
	c-0.4,0.3-0.9,0.7-1.4,1.2c-1,0.1-2,0.3-2.9,0.3c-2,0-4-0.2-6-0.3C41.8,243.3,41.3,243.3,40.8,243.4z"/>
<path id="XMLID_141_" class="st0" d="M139.9,145.2c-1,0.2-2,0.4-2.9,0.8c-0.6,0.2-1,0.6-1.5,0.9c-0.3,0.2-0.5,0.5-0.8,0.7
	c-1.4,0-1.4,0-2.3-0.6c-0.4-1,0.6-1.8,0.7-2.8c0.6-0.5,1.3-1,2-1.4c0.5-0.3,1.1-0.7,1.8-0.8c2-0.2,3.9-0.8,5.9-0.7
	c0.5,0,1,0.1,1.5,0.2c1,0.3,2,0.3,3,0c0.5-0.2,1.1-0.2,1.6-0.3c0.7-0.4,1.4-0.7,2-1c1.2,0.4,1.2,1.3,1.7,2c-0.3,0.6-0.5,1.2-0.9,2
	c-0.4,0.3-0.9,0.7-1.4,1.2c-1,0.1-2,0.3-2.9,0.3c-2,0-4-0.2-6-0.3C140.9,145.1,140.3,145.1,139.9,145.2z"/>
<path id="XMLID_140_" class="st0" d="M424.3,296.2c-1,0.2-2,0.4-2.9,0.8c-0.6,0.2-1,0.6-1.5,0.9c-0.3,0.2-0.5,0.5-0.8,0.7
	c-1.4,0-1.4,0-2.3-0.6c-0.4-1,0.6-1.8,0.7-2.8c0.6-0.5,1.3-1,2-1.4c0.5-0.3,1.1-0.7,1.8-0.8c2-0.2,3.9-0.8,5.9-0.7
	c0.5,0,1,0.1,1.5,0.2c1,0.3,2,0.3,3,0c0.5-0.2,1.1-0.2,1.6-0.3c0.7-0.4,1.4-0.7,2-1c1.2,0.4,1.2,1.3,1.7,2c-0.3,0.6-0.5,1.2-0.9,2
	c-0.4,0.3-0.9,0.7-1.4,1.2c-1,0.1-2,0.3-2.9,0.3c-2,0-4-0.2-6-0.3C425.3,296.1,424.8,296.1,424.3,296.2z"/>
<path id="XMLID_139_" class="st0" d="M385,187.5C385,187.6,385,187.6,385,187.5C385,187.6,385,187.5,385,187.5L385,187.5z"/>
<path id="XMLID_138_" class="st0" d="M385,187.5L385,187.5C385,187.5,385,187.5,385,187.5C385,187.5,385,187.5,385,187.5z"/>
<path id="XMLID_137_" class="st0" d="M393.2,182.4L393.2,182.4c0.1-0.1,0.2-0.3,0.3-0.3c1.1,0.1,2,0.1,2.8,0.1
	c0.9,0.1,1.7,0.2,2.5,0.3c0.3,0,0.7,0,1,0.2c1.1,0.5,2.3,0.4,3.5,0.2c1-0.1,2-0.3,3-0.4c0.4-0.1,0.7-0.2,1.1-0.3
	c0.4-0.1,0.8-0.2,1.2-0.4c1.2,0.7,0,1.4,0.3,1.9c-0.8,0.8-2,1.2-3.1,1.8c-2.6,0-5.2,0.1-7.9,0c-1,0-2-0.3-2.9-0.6
	c-1.2-0.5-2.4-0.4-3.9-0.4c-1.4,0.7-2.9,1.5-4.4,2.3c-0.5,0.3-1.1,0.4-1.6,0.7c0.4-0.8,0.9-1.4,1.7-2c0.9-0.7,1.7-1.4,2.7-2
	c0.6-0.4,1.3-0.7,2-0.9C392,182.5,392.6,182.5,393.2,182.4z"/>
<path id="XMLID_136_" class="st0" d="M333.3,182.2c0.9-1,2.2-1.9,3.6-2.4c1.2-0.4,2.6-0.3,3.9-0.1c1.2,0.2,2.3,0.5,3.4,0.8
	c0.3,0.1,0.6,0.1,0.8,0.1c0.2,0,0.5,0,0.7,0c2,0.3,3.9,0.4,5.9,0.1c0.6-0.1,1.2,0,2.1,0.1c-0.3,0.5-0.4,0.8-0.6,0.9
	c-1.5,0.9-3.1,1.7-5,1.8c-0.3,0-0.7,0-1-0.1c-1.8-0.5-3.7-0.6-5.4-1.3c-1-0.5-2.2-0.3-3.3,0.1c-1.4,0.6-3.9,0.8-5.4,0.7
	C333.2,182.7,333.2,182.4,333.3,182.2z"/>
<path id="XMLID_135_" class="st0" d="M22.4,160.7c-0.1-0.8,0.3-1.4,0.7-2.1c1.1-2,2.7-3.4,5.6-3.7c0.4,0,0.9-0.2,1.3-0.3
	c1.5-0.4,3-0.4,4.5,0c1.1,0.2,2.1,0.2,3.2,0c1.7-0.4,3.2-1,4.8-1.7c0.5-0.2,1.1-0.4,1.8-0.7c0.2,0.6,0.4,1.1,0.6,1.7
	c-0.9,0.9-1.7,1.9-2.6,2.8c-1,1.1-2.5,1.5-4.1,1.7c-1.6,0.2-3.2,0.2-4.7-0.2c-1.1-0.3-2.2-0.2-3.3,0.1c-0.9,0.3-1.8,0.5-2.7,0.7
	c-0.5,0.2-1,0.4-1.4,0.7c-0.6,0.3-1.2,0.6-1.9,0.9C23.5,160.8,23,160.8,22.4,160.7z"/>
<path id="XMLID_134_" class="st0" d="M258.1,101.8c-0.1-0.8,0.3-1.4,0.7-2.1c1.1-2,2.7-3.4,5.6-3.7c0.5,0,0.9-0.2,1.3-0.3
	c1.5-0.4,3-0.4,4.5,0c1.1,0.2,2.1,0.2,3.2,0c1.7-0.4,3.2-1,4.8-1.7c0.5-0.2,1.1-0.4,1.8-0.7c0.2,0.6,0.4,1.1,0.6,1.7
	c-0.9,0.9-1.7,1.9-2.6,2.8c-1,1.1-2.5,1.5-4.1,1.7c-1.6,0.2-3.2,0.2-4.7-0.2c-1.1-0.3-2.2-0.2-3.3,0.2c-0.9,0.3-1.8,0.5-2.7,0.7
	c-0.5,0.2-1,0.4-1.4,0.7c-0.6,0.3-1.2,0.6-1.9,0.9C259.2,101.9,258.7,101.9,258.1,101.8z"/>
<path id="XMLID_133_" class="st0" d="M251.1,265.7c-0.1-0.8,0.3-1.4,0.7-2.1c1.1-2,2.7-3.4,5.6-3.7c0.4,0,0.9-0.2,1.3-0.3
	c1.5-0.4,3-0.4,4.5,0c1.1,0.2,2.1,0.2,3.2,0c1.7-0.4,3.2-1,4.8-1.7c0.5-0.2,1.1-0.4,1.8-0.7c0.2,0.6,0.4,1.1,0.6,1.7
	c-0.9,0.9-1.7,1.9-2.6,2.8c-1,1.1-2.5,1.5-4.1,1.7c-1.6,0.2-3.2,0.2-4.7-0.2c-1.1-0.3-2.2-0.2-3.3,0.2c-0.9,0.3-1.8,0.5-2.7,0.7
	c-0.5,0.2-1,0.4-1.5,0.7c-0.6,0.3-1.2,0.6-1.9,0.9C252.1,265.9,251.6,265.9,251.1,265.7z"/>
<path id="XMLID_132_" class="st0" d="M380.9,154.2c-0.7,1.4-0.7,1.4-2.4,2.6c-0.6,0.4-1.3,0.9-2,1.3c-0.9,0-1.7,0-2.7,0
	c-0.2,0.1-0.4,0.3-0.7,0.5c-1.3,0.1-2.6,0.2-3.8-0.2c-0.3-0.1-0.5-0.2-0.8-0.2c-1.6,0-3.1-0.6-4.6-0.9c-1.4-0.3-2.9-0.4-4.3,0.3
	c-0.7,0.4-1.5,0.7-2.1,1c-2.1,2.6-4.1,3.6-6.1,3.2c0-1.3,0.7-2.4,1.2-3.6c0.2-0.3,0.3-0.7,0.4-1c0.2-0.7,0.7-1.1,1.4-1.6
	c1.5-1.2,3.3-1.9,5.3-2.4c0.7-0.2,1.4-0.3,2.2-0.3c2.3-0.1,4.5,0.2,6.9,0.7c0.5,0.3,0.9,0.6,1.4,0.9c0.3,0,0.5,0.1,0.8,0.1
	c1.4-0.2,2.8-0.3,4.2-0.7c1.3-0.4,2.6-1,3.8-1.6c0.8-0.4,1.6-0.8,2.6-1C381.6,151.9,381.3,153.5,380.9,154.2z"/>
<path id="XMLID_131_" class="st0" d="M164.5,185.5c-0.7,1.4-0.7,1.4-2.4,2.6c-0.6,0.4-1.3,0.9-2,1.3c-0.9,0-1.7,0-2.7,0
	c-0.2,0.1-0.4,0.3-0.7,0.5c-1.3,0.1-2.6,0.2-3.8-0.2c-0.3-0.1-0.5-0.2-0.8-0.2c-1.6,0-3.1-0.6-4.6-0.9c-1.4-0.3-2.9-0.4-4.3,0.3
	c-0.7,0.4-1.5,0.7-2.1,1c-2.1,2.6-4.1,3.6-6.1,3.2c0.1-1.3,0.7-2.4,1.2-3.6c0.1-0.3,0.3-0.7,0.4-1c0.2-0.7,0.7-1.1,1.4-1.6
	c1.5-1.2,3.3-1.9,5.3-2.4c0.7-0.2,1.4-0.3,2.2-0.3c2.3-0.1,4.5,0.2,6.9,0.7c0.5,0.3,0.9,0.6,1.4,0.9c0.2,0,0.5,0.1,0.8,0.1
	c1.4-0.2,2.8-0.3,4.2-0.7c1.3-0.4,2.6-1,3.8-1.6c0.8-0.4,1.6-0.8,2.6-1C165.1,183.3,164.8,184.9,164.5,185.5z"/>
<path id="XMLID_130_" class="st0" d="M489.2,158.8c1.2-0.5,2.6-1,4-1.6c0.5,1.3-0.5,2.3-1.3,3.4c-1.9,1-4,1-6.1,0.9
	c-1.2-0.1-2.5-0.2-3.7-0.4c-1.3-0.2-2.6-0.3-3.9,0.2c-0.4,0.1-0.9,0.1-1.5,0.2c-0.7,0.7-1.5,1.4-2.4,2.2c-0.2-0.2-0.3-0.3-0.5-0.3
	c0.6-1,1.1-2,1.8-2.9c1.2-1.4,2.6-2,4.7-1.8c0.1,0,0.2,0,0.4,0c0.2-0.1,0.5-0.2,0.9-0.5c0.6,0.1,1.4,0.1,2.2,0.3
	C485.6,158.8,487.3,158.9,489.2,158.8z"/>
<path id="XMLID_129_" class="st1" d="M45,27.1c1.2-0.5,2.6-1,4-1.6c0.6,1.3-0.5,2.3-1.3,3.4c-1.9,1-4,1-6.1,0.9
	c-1.2-0.1-2.5-0.2-3.7-0.4c-1.3-0.2-2.6-0.3-3.9,0.2c-0.4,0.1-0.9,0.1-1.5,0.2c-0.7,0.7-1.5,1.4-2.4,2.2c-0.2-0.2-0.3-0.3-0.5-0.3
	c0.6-1,1.1-2,1.8-2.9c1.2-1.4,2.6-2,4.7-1.8c0.1,0,0.2,0,0.4,0c0.2-0.1,0.5-0.2,0.9-0.5c0.6,0.1,1.4,0.1,2.2,0.3
	C41.4,27.1,43,27.2,45,27.1z"/>
<path id="XMLID_128_" class="st0" d="M186,163.2c1.2-0.5,2.6-1,4-1.6c0.5,1.3-0.5,2.3-1.3,3.4c-1.9,1-4,1-6.1,0.9
	c-1.2-0.1-2.5-0.2-3.7-0.4c-1.3-0.2-2.6-0.3-3.9,0.2c-0.4,0.1-0.9,0.1-1.5,0.2c-0.7,0.7-1.5,1.4-2.4,2.2c-0.2-0.2-0.3-0.3-0.5-0.3
	c0.6-1,1.1-2,1.8-2.9c1.2-1.4,2.6-2,4.7-1.8c0.1,0,0.2,0,0.4,0c0.2-0.1,0.5-0.2,0.9-0.5c0.6,0.1,1.4,0.1,2.2,0.3
	C182.5,163.3,184.1,163.4,186,163.2z"/>
<path id="XMLID_127_" class="st0" d="M257.8,235.8c1.2-0.5,2.6-1,4-1.6c0.6,1.3-0.5,2.3-1.3,3.4c-1.9,1-4,1-6.1,0.9
	c-1.2-0.1-2.5-0.2-3.7-0.4c-1.3-0.2-2.6-0.3-3.9,0.2c-0.4,0.1-0.9,0.1-1.5,0.2c-0.7,0.7-1.5,1.4-2.4,2.2c-0.2-0.2-0.3-0.3-0.5-0.3
	c0.6-1,1.1-2,1.8-2.9c1.2-1.4,2.6-2,4.7-1.8c0.1,0,0.2,0,0.4,0c0.2-0.1,0.5-0.2,0.9-0.5c0.6,0.1,1.5,0.1,2.2,0.3
	C254.3,235.9,255.9,236,257.8,235.8z"/>
<path id="XMLID_126_" class="st1" d="M413.6,156.3c-0.1,0.6-0.1,1.1-0.2,1.6c-0.8,0.9-1.9,1.3-3.1,1.3c-1.2,0.1-2.5,0-3.8,0
	c-0.4,0-0.8,0-1.2-0.2c-0.9-0.4-1.9-0.3-2.7-0.3c-1.2,0.6-2.1,1.4-3.5,1.6c-0.3-0.5-0.2-0.9,0.2-1.3c0.7-0.7,1.4-1.4,2.5-1.7
	c0.4-0.1,0.8-0.3,1.2-0.5c0.9-0.1,1.8-0.3,2.8-0.5c1.5,0.6,3.1,0.3,4.6,0.3C411.4,156.3,412.2,155.7,413.6,156.3z"/>
<path id="XMLID_125_" class="st0" d="M90.6,228.5c-0.1,0.6-0.1,1.1-0.2,1.6c-0.8,0.9-1.9,1.3-3.1,1.3c-1.2,0.1-2.5,0-3.8,0
	c-0.4,0-0.8,0-1.2-0.2c-0.9-0.4-1.9-0.3-2.7-0.3c-1.2,0.6-2.1,1.4-3.5,1.6c-0.3-0.5-0.2-0.9,0.1-1.3c0.7-0.7,1.4-1.4,2.5-1.7
	c0.4-0.1,0.8-0.3,1.2-0.5c0.9-0.1,1.8-0.3,2.8-0.5c1.5,0.6,3.1,0.3,4.6,0.3C88.4,228.6,89.2,228,90.6,228.5z"/>
<path id="XMLID_124_" class="st0" d="M131.6,171.5c-0.1,0.6-0.1,1.1-0.2,1.6c-0.8,0.9-1.9,1.3-3.1,1.3c-1.2,0.1-2.5,0-3.8,0
	c-0.4,0-0.8,0-1.1-0.2c-0.9-0.4-1.9-0.3-2.7-0.3c-1.2,0.6-2.1,1.4-3.5,1.6c-0.3-0.5-0.2-0.9,0.2-1.3c0.7-0.7,1.4-1.4,2.5-1.7
	c0.4-0.1,0.8-0.3,1.2-0.5c0.9-0.1,1.8-0.3,2.8-0.5c1.5,0.6,3.1,0.3,4.6,0.3C129.4,171.6,130.3,171,131.6,171.5z"/>
<path id="XMLID_123_" class="st0" d="M196.8,245.7c-0.1,0.6-0.1,1.1-0.2,1.6c-0.8,0.9-1.9,1.3-3.1,1.3c-1.2,0.1-2.5,0-3.8,0
	c-0.4,0-0.8,0-1.2-0.2c-0.9-0.4-1.9-0.3-2.7-0.3c-1.2,0.6-2.1,1.4-3.5,1.6c-0.3-0.5-0.2-0.9,0.2-1.3c0.7-0.7,1.4-1.4,2.5-1.7
	c0.4-0.1,0.8-0.3,1.2-0.5c0.9-0.1,1.8-0.3,2.8-0.5c1.5,0.6,3.1,0.3,4.6,0.3C194.6,245.8,195.4,245.1,196.8,245.7z"/>
<path id="XMLID_122_" class="st0" d="M456.4,18c-0.1,0.6-0.1,1.1-0.2,1.6c-0.8,0.9-1.9,1.3-3.1,1.3c-1.3,0.1-2.5,0-3.8,0
	c-0.4,0-0.8,0-1.1-0.2c-0.9-0.4-1.9-0.3-2.7-0.3c-1.2,0.6-2.1,1.4-3.5,1.6c-0.3-0.5-0.2-0.9,0.1-1.3c0.7-0.7,1.4-1.4,2.5-1.7
	c0.4-0.1,0.8-0.3,1.2-0.5c0.9-0.1,1.8-0.3,2.8-0.5c1.5,0.6,3.1,0.3,4.6,0.3C454.2,18.1,455.1,17.4,456.4,18z"/>
<path id="XMLID_121_" class="st0" d="M255.3,144c-0.1,0.6-0.1,1.1-0.2,1.6c-0.8,0.9-1.9,1.3-3.1,1.3c-1.2,0.1-2.5,0-3.8,0
	c-0.4,0-0.8,0-1.1-0.2c-0.9-0.4-1.9-0.3-2.7-0.3c-1.2,0.6-2.1,1.4-3.5,1.6c-0.3-0.5-0.2-0.9,0.2-1.3c0.7-0.7,1.4-1.4,2.5-1.7
	c0.4-0.1,0.8-0.3,1.2-0.5c0.9-0.1,1.8-0.3,2.8-0.5c1.5,0.6,3.1,0.3,4.6,0.3C253.1,144.1,254,143.4,255.3,144z"/>
<path id="XMLID_120_" class="st1" d="M122.8,284.5c-0.1,0.6-0.1,1.1-0.2,1.6c-0.8,0.9-1.9,1.2-3.1,1.3c-1.2,0.1-2.5,0-3.8,0
	c-0.4,0-0.8,0-1.1-0.2c-0.9-0.4-1.9-0.3-2.7-0.3c-1.2,0.6-2.1,1.4-3.5,1.6c-0.3-0.5-0.2-0.9,0.2-1.3c0.7-0.7,1.4-1.4,2.5-1.7
	c0.4-0.1,0.8-0.3,1.2-0.6c0.9-0.1,1.8-0.3,2.8-0.5c1.5,0.6,3.1,0.3,4.6,0.3C120.6,284.5,121.4,283.9,122.8,284.5z"/>
<path id="XMLID_119_" class="st0" d="M241.9,286.6c-0.1,0.6-0.1,1.1-0.2,1.6c-0.8,0.9-1.9,1.3-3.1,1.3c-1.2,0.1-2.5,0-3.8,0
	c-0.4,0-0.8,0-1.1-0.2c-0.9-0.4-1.9-0.3-2.7-0.3c-1.2,0.6-2.1,1.4-3.5,1.6c-0.3-0.5-0.2-0.9,0.1-1.3c0.7-0.7,1.4-1.4,2.5-1.7
	c0.4-0.1,0.8-0.3,1.2-0.5c0.9-0.1,1.8-0.3,2.8-0.5c1.5,0.6,3.1,0.3,4.6,0.3C239.8,286.7,240.6,286.1,241.9,286.6z"/>
<path id="XMLID_118_" class="st0" d="M529,103.5c-0.1,0.6-0.1,1.1-0.2,1.6c-0.8,0.9-1.9,1.2-3.1,1.3c-1.2,0.1-2.5,0-3.8,0
	c-0.4,0-0.8,0-1.1-0.2c-0.9-0.4-1.9-0.3-2.7-0.3c-1.2,0.6-2.1,1.4-3.5,1.6c-0.3-0.5-0.2-0.9,0.1-1.3c0.7-0.7,1.4-1.4,2.5-1.7
	c0.4-0.1,0.8-0.3,1.2-0.5c0.9-0.1,1.8-0.3,2.8-0.5c1.5,0.6,3.1,0.3,4.6,0.3C526.8,103.6,527.7,102.9,529,103.5z"/>
<path id="XMLID_117_" class="st0" d="M164.8,111.7c-0.1,0.6-0.1,1.1-0.2,1.6c-0.8,0.9-1.9,1.3-3.1,1.3c-1.2,0.1-2.5,0-3.8,0
	c-0.4,0-0.8,0-1.1-0.2c-0.9-0.4-1.9-0.3-2.7-0.3c-1.2,0.6-2.1,1.4-3.5,1.6c-0.3-0.5-0.2-0.9,0.1-1.3c0.7-0.7,1.4-1.4,2.5-1.7
	c0.4-0.1,0.8-0.3,1.2-0.5c0.9-0.1,1.8-0.3,2.8-0.5c1.5,0.6,3.1,0.3,4.6,0.3C162.6,111.7,163.4,111.1,164.8,111.7z"/>
<path id="XMLID_116_" class="st0" d="M130.1,18.6c-0.1,0.6-0.1,1.1-0.2,1.6c-0.8,0.9-1.9,1.3-3.1,1.3c-1.3,0.1-2.5,0-3.8,0
	c-0.4,0-0.8,0-1.1-0.2c-0.9-0.4-1.9-0.3-2.7-0.3c-1.2,0.6-2.1,1.4-3.5,1.6c-0.3-0.5-0.2-0.9,0.1-1.3c0.7-0.7,1.4-1.4,2.5-1.7
	c0.4-0.1,0.8-0.3,1.2-0.5c0.9-0.1,1.8-0.3,2.8-0.5c1.5,0.6,3.1,0.3,4.6,0.3C127.9,18.7,128.8,18.1,130.1,18.6z"/>
<path id="XMLID_115_" class="st1" d="M276.7,170.2c-0.1,0.6-0.1,1.1-0.2,1.6c-0.8,0.9-1.9,1.3-3.1,1.3c-1.3,0.1-2.5,0-3.8,0
	c-0.4,0-0.8,0-1.1-0.2c-0.9-0.4-1.9-0.3-2.7-0.3c-1.2,0.6-2.1,1.4-3.5,1.6c-0.3-0.5-0.2-0.9,0.2-1.3c0.7-0.7,1.4-1.4,2.5-1.7
	c0.4-0.1,0.8-0.3,1.2-0.6c0.9-0.1,1.8-0.3,2.8-0.5c1.5,0.6,3.1,0.3,4.6,0.3C274.5,170.3,275.4,169.6,276.7,170.2z"/>
<path id="XMLID_114_" class="st0" d="M467.7,145.7c-1.2,1-2.7,1.6-4.3,1.9c-1.6,0.3-3.3,0.3-4.9-0.1c-2-0.4-4-0.5-6,0.1
	c-0.8,0.2-1.6,0.4-2.6,0.6c0.1-0.4,0.1-0.6,0.3-0.8c1.1-1.4,2.7-2.4,4.8-2.7c1.9-0.2,3.8-0.3,5.7,0.3c1,0.3,2,0.2,3-0.1
	c0.6-0.1,1.2-0.3,1.8-0.5c0.6-0.4,1.2-0.8,2-1.3c0.2,0.5,0.4,0.8,0.7,1.3C468.1,144.8,467.9,145.2,467.7,145.7z"/>
<path id="XMLID_113_" class="st0" d="M42.3,115.8c-1.2,1-2.8,1.6-4.3,1.9c-1.6,0.3-3.3,0.3-4.9-0.1c-2-0.4-4-0.5-6,0.1
	c-0.8,0.2-1.6,0.4-2.6,0.6c0.1-0.4,0.1-0.6,0.3-0.8c1.1-1.4,2.7-2.4,4.8-2.7c1.9-0.2,3.8-0.3,5.7,0.3c1,0.3,2,0.2,3-0.1
	c0.6-0.1,1.2-0.3,1.8-0.5c0.6-0.4,1.2-0.8,2-1.3c0.2,0.5,0.4,0.8,0.7,1.3C42.7,114.9,42.5,115.3,42.3,115.8z"/>
<path id="XMLID_112_" class="st1" d="M189.1,84.1c-1.2,1-2.7,1.6-4.3,1.9c-1.6,0.3-3.3,0.3-4.9-0.1c-2-0.4-4-0.5-6,0.1
	c-0.8,0.2-1.6,0.4-2.6,0.6c0.1-0.4,0.1-0.6,0.3-0.8c1.1-1.4,2.7-2.4,4.8-2.7c1.9-0.2,3.8-0.3,5.7,0.3c1,0.3,2,0.2,3-0.1
	c0.6-0.1,1.2-0.3,1.8-0.5c0.6-0.4,1.2-0.8,2-1.3c0.2,0.5,0.4,0.8,0.7,1.3C189.5,83.3,189.3,83.7,189.1,84.1z"/>
<path id="XMLID_111_" class="st0" d="M475.5,119.6c0.7,0.3,0.7,0.8,0.4,1.1c-1,0.9-1.6,2.1-2.9,2.7c-2.2,1.1-4.5,1.6-7.1,1.3
	c-1.8-0.2-3.7-0.4-5.4-0.7c-1.8,0.6-3.2,1.4-5.1,1.1c0.1-0.9,0.6-1.5,1.4-2c2.8-1.8,5.9-2.6,9.5-1.7c0.6,0.1,1.2,0.2,1.8,0.2
	c1.9-0.1,3.8-0.4,5.5-1.3C474.1,120.1,474.8,119.8,475.5,119.6z"/>
<path id="XMLID_110_" class="st0" d="M74.4,278.7c0.7,0.3,0.7,0.8,0.4,1.1c-1,0.9-1.6,2.1-2.9,2.7c-2.2,1.1-4.5,1.6-7.1,1.3
	c-1.9-0.2-3.7-0.4-5.4-0.7c-1.8,0.6-3.2,1.4-5.1,1.1c0.1-0.9,0.7-1.5,1.4-2c2.8-1.8,5.9-2.6,9.5-1.7c0.6,0.1,1.2,0.2,1.8,0.2
	c1.9-0.1,3.8-0.4,5.5-1.3C73.1,279.2,73.8,279,74.4,278.7z"/>
<path id="XMLID_109_" class="st0" d="M257.5,197.1c0.7,0.3,0.7,0.8,0.4,1.1c-1,0.9-1.6,2.1-2.9,2.7c-2.2,1.1-4.5,1.6-7.1,1.3
	c-1.8-0.2-3.7-0.4-5.4-0.7c-1.8,0.5-3.2,1.4-5.1,1.1c0.1-0.9,0.6-1.5,1.4-2c2.8-1.8,5.9-2.6,9.5-1.7c0.6,0.1,1.2,0.2,1.8,0.2
	c1.9-0.1,3.8-0.4,5.5-1.3C256.2,197.5,256.9,197.3,257.5,197.1z"/>
<path id="XMLID_108_" class="st0" d="M392.6,132.1c1-0.4,2.2-0.7,3.4-1.1c0,0.3,0.1,0.5,0,0.7c-0.3,0.7-0.6,1.3-1,2
	c-0.4,0.6-1,1-1.9,1c-1.3,0.1-2.6,0.2-3.9,0.3c-1.8,0.1-3.6,0.1-5.3,0.1c-1.5,0.7-2.6,1.3-4.2,2.1c-0.6,0-1.5-0.1-2.5-0.2
	c-0.1-0.2-0.1-0.3-0.3-0.5c0.9-0.8,1.9-1.6,2.9-2.4c0.7-0.5,1.4-1.2,2.4-1.4c0.8-0.2,1.5-0.4,2.4-0.1c0.9-0.6,1.9-0.7,3-0.4
	c0.7,0.2,1.4,0.2,2.2,0.3C390.8,132.6,391.7,132.5,392.6,132.1z"/>
<path id="XMLID_107_" class="st0" d="M193.1,25c0.7,2.6-1.5,5.4-3.9,6c-0.5,0.1-1,0.3-1.5,0.3c-1.6,0.1-3.3,0.2-4.9-0.3
	c-0.7-0.2-1.5-0.1-2.2-0.2c-2-0.7-4-0.7-6.1-0.2c-0.5,0.1-1,0.1-1.8,0.2c-1.4,0.6-2.9,1.5-4.9,2.1c-0.1-0.3-0.2-0.5-0.2-0.6
	c0.3-0.4,0.5-0.9,0.9-1.3c0.8-0.6,1.3-1.2,1.7-2c1.4-0.7,2.7-1.5,4.5-1.8c1-0.2,1.9-0.5,3-0.4c0.8,0,1.6,0,2.3,0.3
	c0.3,0.1,0.7,0.2,1,0.2c0.6,0,1.2,0.1,1.8,0.4c0.8,0.3,1.8,0.3,2.7,0c1.3-0.3,2.5-0.8,3.8-1.1c0.9-0.9,2-1.5,3.3-1.9
	C192.9,24.8,193.1,24.9,193.1,25z"/>
<path id="XMLID_106_" class="st0" d="M358.2,127.1c-1.5,0.3-2.8-0.1-4.1-0.7c-0.2-0.1-0.3-0.1-0.4-0.2c-2.9-1.2-2.9-1.2-6.1-1.2
	c-1.1,0-2.1,0.3-3.3,0.7c-1.3,1.6-3.1,2.5-5.8,1.7c-0.4-0.5-0.4-1,0.1-1.5c0.5-0.5,1.1-0.9,1.8-1.3c0.9-0.5,1.9-1,2.8-1.5
	c0.9-0.2,1.7-0.4,2.5-0.6c0,0,0-0.1,0-0.1c1,0,2.1,0.1,3.1,0c1.4-0.1,2.7,0.3,3.9,0.7c1.4,0.5,2.8,1,4.1,1.5c0.8,0,1.5,0.1,2.2,0.1
	c0.6,0,1.1,0,1.7-0.1c2.2-0.4,4.4-0.8,6.6-1.2c0.1,0.3,0.2,0.5,0.2,0.8c-1.4,0.8-2.8,1.6-4.3,2.2c-1.1,0.5-2.3,0.7-3.6,0.7
	C359.1,127.1,358.6,127,358.2,127.1z"/>
<path id="XMLID_105_" class="st0" d="M511.2,127.8c-0.5,1.7-2,2.7-4.2,2.8c-1.8,0.1-3.5,0.1-5.3,0.1c-1.2,0-2.4,0-3.7,0
	c-0.7,0.4-1.3,0.7-2,1c-0.9,0.4-1.8,0.9-3.1,0.6c0.3-1.5,1.3-2.6,2.9-3.5c2-1,4.1-1.4,6.5-1.3c2.1,0.1,4.2,0,6.1-0.9
	c0.7-0.3,1.4-0.6,2.2-0.9C511.3,126.3,511.4,127,511.2,127.8z"/>
<path id="XMLID_104_" class="st0" d="M396.3,236.2c-0.5,1.7-1.9,2.7-4.2,2.8c-1.8,0.1-3.5,0.1-5.3,0.1c-1.2,0-2.4,0-3.7,0
	c-0.7,0.4-1.3,0.7-2,1c-0.9,0.4-1.8,0.9-3.1,0.6c0.3-1.5,1.3-2.6,2.9-3.4c2-1,4.1-1.4,6.5-1.3c2.1,0.1,4.2,0,6.1-0.9
	c0.6-0.3,1.4-0.6,2.2-0.9C396.4,234.7,396.5,235.4,396.3,236.2z"/>
<path id="XMLID_103_" class="st0" d="M115.3,72.4c-0.5,1.7-1.9,2.7-4.2,2.8c-1.8,0.1-3.5,0.1-5.3,0.1c-1.2,0-2.4,0-3.7,0
	c-0.7,0.4-1.3,0.7-2,1c-0.9,0.4-1.8,0.9-3.1,0.6c0.3-1.5,1.3-2.6,2.9-3.5c2-1,4.1-1.4,6.5-1.3c2.1,0.1,4.2,0,6.1-0.9
	c0.6-0.3,1.4-0.6,2.2-0.9C115.4,70.9,115.5,71.7,115.3,72.4z"/>
<path id="XMLID_102_" class="st0" d="M311.9,24.1c-0.5,1.7-1.9,2.7-4.2,2.8c-1.8,0.1-3.5,0.1-5.3,0.1c-1.2,0-2.4,0-3.7,0
	c-0.7,0.4-1.3,0.7-2,1c-0.9,0.4-1.8,0.9-3.1,0.6c0.3-1.5,1.3-2.6,2.9-3.5c2-1,4.1-1.4,6.5-1.3c2.1,0.1,4.2,0,6.1-0.9
	c0.7-0.3,1.4-0.6,2.2-0.9C312.1,22.6,312.2,23.3,311.9,24.1z"/>
<path id="XMLID_101_" class="st0" d="M368.5,123.7c-0.6-0.1-0.9-0.2-1.3-0.3c0.2-0.1,0.5-0.3,0.8-0.5
	C368.2,123.2,368.3,123.4,368.5,123.7z"/>
<path id="XMLID_100_" class="st0" d="M367.2,123.4C367.2,123.4,367.2,123.4,367.2,123.4C367.2,123.4,367.2,123.4,367.2,123.4
	L367.2,123.4z"/>
<path id="XMLID_99_" class="st0" d="M367.2,123.4C367.2,123.4,367.2,123.4,367.2,123.4L367.2,123.4
	C367.2,123.4,367.2,123.4,367.2,123.4z"/>
<path id="XMLID_98_" class="st0" d="M408,115.1C408,115.1,408,115.1,408,115.1C408,115.1,408,115.1,408,115.1L408,115.1z"/>
<path id="XMLID_282_" class="st0" d="M412.3,111c-0.6,0.3-1.3,0.5-1.9,0.8c-0.5,0.2-1.1,0.5-1.6,0.8c-0.8-0.1-1.5-0.1-2.2-0.2
	c0.3-0.7,0.5-1.3,0.7-1.8c1.3-0.9,2.6-1.3,3.9-1.7c0.7,0,1.4-0.1,2-0.1c0.4,0,0.9,0,1.3,0.1c0.9,0.2,1.7,0.4,2.6,0.6
	c0.8,0.2,1.5,0.5,1.9,1.1c0.4,0.6,1,1,1.8,1.3c1.1,0.1,2.2,0.1,3.3-0.3c0.9-0.3,1.8-0.3,2.6,0c0.2-0.2,0.3-0.4,0.4-0.7
	c0.2,0,0.5,0,0.9,0c-0.9,1.4-2.3,2.2-3.8,2.9c-2.1,0.3-3.9-0.3-5.6-1.1c-1.1-0.5-2.2-1.1-3.3-1.6C414.4,110.7,413.4,110.5,412.3,111
	z M408.2,111.7h0.1H408.2L408.2,111.7z"/>
<path id="XMLID_279_" class="st0" d="M202.5,184.3c-0.6,0.3-1.3,0.5-1.9,0.8c-0.5,0.2-1,0.5-1.6,0.8c-0.8-0.1-1.5-0.1-2.2-0.2
	c0.3-0.7,0.5-1.3,0.7-1.8c1.3-0.9,2.6-1.3,3.9-1.7c0.7,0,1.4-0.1,2-0.1c0.4,0,0.9,0,1.3,0.1c0.9,0.2,1.7,0.4,2.6,0.6
	c0.8,0.2,1.5,0.5,1.9,1.1c0.4,0.6,1,1,1.8,1.3c1.1,0.1,2.2,0.1,3.3-0.3c0.9-0.3,1.8-0.3,2.6,0c0.2-0.2,0.3-0.4,0.4-0.7
	c0.2,0,0.5,0,0.9,0c-0.9,1.4-2.3,2.2-3.8,2.9c-2.1,0.3-3.9-0.3-5.6-1.1c-1.1-0.5-2.2-1.1-3.3-1.6C204.5,184,203.6,183.8,202.5,184.3
	z M198.4,185h0.1H198.4L198.4,185z"/>
<path id="XMLID_276_" class="st0" d="M319.7,52.5c-0.6,0.3-1.3,0.5-1.9,0.8c-0.5,0.2-1,0.5-1.6,0.8c-0.8-0.1-1.5-0.1-2.2-0.2
	c0.3-0.7,0.5-1.3,0.7-1.8c1.3-0.9,2.6-1.3,3.9-1.7c0.7,0,1.4-0.1,2.1-0.1c0.4,0,0.9,0,1.3,0.1c0.9,0.2,1.7,0.4,2.6,0.6
	c0.8,0.2,1.5,0.5,1.9,1.1c0.4,0.6,1,1,1.8,1.3c1.1,0.1,2.2,0.1,3.3-0.3c0.9-0.3,1.8-0.3,2.6,0c0.2-0.2,0.3-0.4,0.4-0.7
	c0.2,0,0.5,0,0.9,0c-0.9,1.4-2.3,2.2-3.8,2.9c-2.1,0.3-3.9-0.3-5.6-1.1c-1.1-0.5-2.2-1.1-3.3-1.6C321.8,52.2,320.8,52,319.7,52.5z
	 M315.6,53.2h0.1H315.6L315.6,53.2z"/>
<path id="XMLID_273_" class="st0" d="M145,266.5c-0.6,0.3-1.3,0.5-1.9,0.8c-0.5,0.2-1,0.5-1.6,0.8c-0.8-0.1-1.5-0.1-2.2-0.2
	c0.3-0.7,0.5-1.3,0.7-1.8c1.3-0.9,2.6-1.3,3.9-1.7c0.7,0,1.4-0.1,2-0.1c0.4,0,0.9,0,1.3,0.1c0.9,0.2,1.7,0.4,2.6,0.6
	c0.8,0.2,1.5,0.5,1.9,1.1c0.4,0.6,1,1,1.8,1.3c1.1,0.1,2.2,0.1,3.3-0.3c0.9-0.3,1.8-0.3,2.6,0c0.2-0.2,0.3-0.4,0.4-0.7
	c0.2,0,0.5,0,0.9,0c-0.8,1.4-2.3,2.2-3.8,2.9c-2.1,0.3-3.9-0.3-5.6-1.1c-1.1-0.5-2.2-1.1-3.3-1.6C147.1,266.2,146.1,266,145,266.5z
	 M140.9,267.2h0.1H140.9L140.9,267.2z"/>
<path id="XMLID_89_" class="st1" d="M66.4,211.9c-1.2,0.8-2,1.9-3.3,2.4c-1.8,0.6-3.7,1.2-5.8,0.4c-0.6-0.2-1.3-0.2-2.4-0.3
	c-2.4-1-5.1-2.3-8.3-2.6c-1.8,1.2-4.1,1.6-6.5,2c-0.1,0-0.4-0.1-0.8-0.2c1.1-1.3,2.7-2.2,4.1-3c2-0.3,3.8-1,6.7-0.4
	c1.1,0.4,3.1,1,5.6,1.8c1.8,0,4,0,6.2,0c0.5,0,1.1-0.2,1.6-0.3c0.6-0.1,1.2-0.2,1.8-0.2C65.8,211.5,66,211.7,66.4,211.9z"/>
<path id="XMLID_88_" class="st0" d="M207.4,133.6c-1.2,0.8-2,1.9-3.3,2.4c-1.8,0.6-3.7,1.2-5.8,0.4c-0.6-0.2-1.3-0.2-2.4-0.3
	c-2.4-1-5.1-2.3-8.3-2.6c-1.8,1.2-4.1,1.6-6.5,2c-0.1,0-0.4-0.1-0.8-0.2c1.1-1.3,2.7-2.2,4.1-3c2-0.3,3.8-1,6.7-0.4
	c1.1,0.4,3.1,1,5.6,1.8c1.8,0,4,0,6.2,0c0.6,0,1.1-0.2,1.6-0.3c0.6-0.1,1.2-0.2,1.8-0.2C206.9,133.2,207.1,133.4,207.4,133.6z"/>
<path id="XMLID_87_" class="st0" d="M452.1,97.6C452,97.7,452,97.7,452.1,97.6C452.1,97.6,452.1,97.6,452.1,97.6z"/>
<path id="XMLID_86_" class="st0" d="M452.1,97.6C452,97.7,452,97.7,452.1,97.6C452.1,97.6,452.1,97.6,452.1,97.6z"/>
<path id="XMLID_85_" class="st0" d="M452.2,97.6C452.2,97.6,452.1,97.6,452.2,97.6C452.1,97.6,452.1,97.6,452.2,97.6L452.2,97.6z"/>
<path id="XMLID_84_" class="st0" d="M452.2,97.6C452.2,97.6,452.2,97.6,452.2,97.6L452.2,97.6L452.2,97.6
	C452.2,97.6,452.2,97.6,452.2,97.6z"/>
<path id="XMLID_83_" class="st0" d="M351.7,80.8c-1.2,0.8-2,1.9-3.3,2.4c-1.8,0.6-3.7,1.2-5.8,0.4c-0.6-0.2-1.3-0.2-2.4-0.3
	c-2.4-1-5.1-2.3-8.3-2.6c-1.8,1.2-4.1,1.6-6.5,2c-0.1,0-0.4-0.1-0.8-0.2c1.1-1.3,2.7-2.2,4.1-3c2-0.3,3.8-1,6.7-0.4
	c1.1,0.4,3.1,1,5.6,1.8c1.8,0,4,0,6.2,0c0.6,0,1.1-0.2,1.7-0.3c0.6-0.1,1.2-0.2,1.8-0.2C351.1,80.4,351.4,80.6,351.7,80.8z"/>
<path id="XMLID_82_" class="st0" d="M451.8,227.3c-1.2,0.8-2,1.9-3.3,2.4c-1.8,0.6-3.7,1.2-5.8,0.4c-0.6-0.2-1.3-0.2-2.4-0.3
	c-2.4-1-5.1-2.3-8.3-2.6c-1.8,1.2-4.1,1.6-6.5,2c-0.1,0-0.4-0.1-0.8-0.2c1.1-1.3,2.7-2.2,4.1-3c2-0.3,3.8-1,6.7-0.4
	c1.1,0.4,3.1,1,5.6,1.8c1.8,0,4,0,6.2,0c0.5,0,1.1-0.2,1.6-0.3c0.6-0.1,1.2-0.2,1.8-0.2C451.3,226.9,451.5,227.1,451.8,227.3z"/>
<path id="XMLID_81_" class="st0" d="M324.7,82.5C324.6,82.6,324.6,82.6,324.7,82.5C324.7,82.5,324.7,82.5,324.7,82.5z"/>
<path id="XMLID_80_" class="st0" d="M324.7,82.5C324.6,82.5,324.6,82.6,324.7,82.5C324.7,82.5,324.7,82.5,324.7,82.5z"/>
<path id="XMLID_79_" class="st0" d="M324.7,82.5C324.7,82.5,324.7,82.5,324.7,82.5C324.7,82.5,324.7,82.5,324.7,82.5L324.7,82.5z"/>
<path id="XMLID_78_" class="st0" d="M324.7,82.5C324.7,82.5,324.7,82.5,324.7,82.5L324.7,82.5L324.7,82.5
	C324.7,82.4,324.7,82.5,324.7,82.5z"/>
<path id="XMLID_77_" class="st0" d="M379.7,96.9c-1.3,0-2.7,0.1-4.2,0.1c-1.4,0-2.6-0.4-3.9-0.9c-0.8-0.3-1.5-0.6-2.2-1
	c-1.6-0.7-3.2-0.7-4.9-0.1c-0.8,0.3-1.7,0.5-2.6,0.7c-0.3,0.1-0.7,0-1.2-0.1c0.3-0.3,0.4-0.6,0.7-0.7c1.3-0.9,2.9-1.4,4.6-1.5
	c0.3,0,0.7,0,1,0c1.1,0,2.2,0.1,3.3,0.4c1.2,0.3,2.4,0.7,3.6,1.2c1.3,0,2.7,0,4,0c0.4,0,0.8-0.1,1.2-0.2c0.9-0.2,1.7-0.4,2.7-0.6
	C382,95.4,381.6,95.9,379.7,96.9z"/>
<path id="XMLID_76_" class="st1" d="M105.3,152.9c-1.3,0-2.7,0.1-4.2,0.1c-1.4,0-2.6-0.4-3.9-0.9c-0.8-0.3-1.5-0.6-2.2-1
	c-1.6-0.7-3.2-0.7-4.9-0.1c-0.8,0.3-1.7,0.5-2.6,0.7c-0.3,0.1-0.7,0-1.2-0.1c0.3-0.3,0.4-0.6,0.7-0.7c1.3-0.9,2.9-1.4,4.6-1.5
	c0.3,0,0.7,0,1,0c1.1,0,2.2,0.1,3.3,0.4c1.2,0.3,2.4,0.7,3.6,1.2c1.3,0,2.7,0,4,0c0.4,0,0.8-0.1,1.2-0.2c0.9-0.2,1.7-0.4,2.7-0.6
	C107.6,151.4,107.2,151.9,105.3,152.9z"/>
<path id="XMLID_75_" class="st0" d="M532.9,203.4c-1.3,0-2.7,0.1-4.2,0.1c-1.4,0-2.6-0.4-3.9-0.9c-0.8-0.3-1.5-0.6-2.2-1
	c-1.6-0.7-3.2-0.7-4.9-0.1c-0.8,0.3-1.7,0.5-2.6,0.7c-0.3,0.1-0.7,0-1.2-0.1c0.3-0.3,0.4-0.6,0.7-0.7c1.3-0.9,2.9-1.4,4.6-1.5
	c0.3,0,0.7,0,1,0c1.1,0,2.2,0.1,3.3,0.4c1.2,0.3,2.4,0.7,3.6,1.2c1.3,0,2.7,0,4,0c0.4,0,0.8-0.1,1.2-0.2c0.9-0.2,1.7-0.4,2.7-0.6
	C535.2,201.9,534.7,202.4,532.9,203.4z"/>
<path id="XMLID_74_" class="st0" d="M478,247.4c-1.3,0-2.7,0.1-4.2,0.1c-1.4,0-2.6-0.4-3.9-0.9c-0.8-0.3-1.5-0.6-2.2-1
	c-1.6-0.7-3.2-0.7-4.9-0.1c-0.8,0.3-1.7,0.5-2.6,0.7c-0.3,0.1-0.7,0-1.2-0.1c0.3-0.3,0.4-0.6,0.7-0.7c1.3-0.9,2.9-1.4,4.6-1.5
	c0.3,0,0.7,0,1,0c1.1,0,2.2,0.1,3.3,0.4c1.2,0.3,2.4,0.7,3.6,1.2c1.3,0,2.7,0,4,0c0.4,0,0.8-0.1,1.2-0.2c0.9-0.2,1.7-0.4,2.7-0.6
	C480.3,245.9,479.9,246.4,478,247.4z"/>
<path id="XMLID_73_" class="st0" d="M288.3,134.1c-1.3,0-2.7,0.1-4.2,0.1c-1.4,0-2.6-0.4-3.9-0.9c-0.8-0.3-1.5-0.6-2.2-1
	c-1.6-0.7-3.2-0.7-4.9-0.1c-0.8,0.3-1.7,0.5-2.6,0.7c-0.3,0.1-0.7,0-1.2-0.1c0.3-0.3,0.4-0.6,0.7-0.7c1.3-0.9,2.9-1.4,4.6-1.5
	c0.3,0,0.7,0,1,0c1.1,0,2.2,0.1,3.3,0.4c1.2,0.3,2.4,0.7,3.6,1.2c1.3,0,2.7,0,4,0c0.4,0,0.8-0.1,1.2-0.2c0.9-0.2,1.7-0.4,2.7-0.6
	C290.6,132.6,290.2,133.1,288.3,134.1z"/>
<path id="XMLID_72_" class="st0" d="M101.9,262.7c-1.3,0-2.7,0.1-4.2,0.1c-1.4,0-2.6-0.4-3.9-0.9c-0.8-0.3-1.5-0.6-2.2-1
	c-1.6-0.7-3.2-0.7-4.9-0.1c-0.8,0.3-1.7,0.5-2.6,0.7c-0.3,0.1-0.7,0-1.2-0.1c0.3-0.3,0.4-0.6,0.7-0.7c1.3-0.9,2.9-1.4,4.6-1.5
	c0.3,0,0.7,0,1,0c1.1,0,2.2,0.1,3.3,0.4c1.2,0.3,2.4,0.7,3.6,1.2c1.3,0,2.7,0,4,0c0.4,0,0.8-0.1,1.2-0.2c0.9-0.2,1.7-0.4,2.7-0.6
	C104.2,261.2,103.7,261.7,101.9,262.7z"/>
<path id="XMLID_71_" class="st0" d="M499.8,223.3c-1.3,0-2.7,0.1-4.2,0.1c-1.4,0-2.6-0.4-3.9-0.9c-0.8-0.3-1.5-0.6-2.2-1
	c-1.6-0.7-3.2-0.7-4.9-0.1c-0.8,0.3-1.7,0.5-2.6,0.7c-0.3,0.1-0.7,0-1.2-0.1c0.3-0.3,0.4-0.6,0.7-0.7c1.3-0.9,2.9-1.4,4.6-1.5
	c0.3,0,0.7,0,1,0c1.1,0,2.2,0.1,3.3,0.4c1.2,0.3,2.4,0.7,3.6,1.2c1.3,0,2.7,0,4,0c0.4,0,0.8-0.1,1.2-0.2c0.9-0.2,1.7-0.4,2.7-0.6
	C502.1,221.8,501.7,222.3,499.8,223.3z"/>
<path id="XMLID_70_" class="st0" d="M71.8,139c-1.3,0-2.7,0.1-4.2,0.1c-1.4,0-2.6-0.4-3.9-0.9c-0.8-0.3-1.5-0.6-2.2-1
	c-1.6-0.7-3.2-0.7-4.9-0.1c-0.8,0.3-1.7,0.5-2.6,0.7c-0.3,0.1-0.7,0-1.2-0.1c0.3-0.3,0.4-0.6,0.7-0.7c1.3-0.9,2.9-1.4,4.6-1.5
	c0.3,0,0.7,0,1,0c1.1,0,2.2,0.1,3.3,0.4c1.2,0.3,2.4,0.7,3.6,1.2c1.3,0,2.7,0,4,0c0.4,0,0.8-0.1,1.2-0.2c0.9-0.2,1.7-0.4,2.7-0.6
	C74.1,137.5,73.7,138,71.8,139z"/>
<path id="XMLID_69_" class="st0" d="M183.7,210.2c-1.3,0-2.7,0.1-4.2,0.1c-1.4,0-2.6-0.4-3.9-0.9c-0.8-0.3-1.5-0.6-2.2-1
	c-1.6-0.7-3.2-0.7-4.9-0.1c-0.8,0.3-1.7,0.5-2.6,0.7c-0.3,0.1-0.7,0-1.2-0.1c0.3-0.3,0.4-0.6,0.7-0.7c1.3-0.9,2.9-1.4,4.6-1.5
	c0.3,0,0.7,0,1,0c1.1,0,2.2,0.1,3.3,0.4c1.2,0.3,2.4,0.7,3.6,1.2c1.3,0,2.7,0,4,0c0.4,0,0.8-0.1,1.2-0.2c0.9-0.2,1.7-0.4,2.7-0.6
	C186,208.7,185.6,209.2,183.7,210.2z"/>
<path id="XMLID_68_" class="st0" d="M229.3,259c-1.3,0-2.7,0.1-4.2,0.1c-1.4,0-2.6-0.4-3.9-0.9c-0.8-0.3-1.5-0.6-2.2-1
	c-1.6-0.7-3.2-0.7-4.9-0.1c-0.8,0.3-1.7,0.5-2.6,0.7c-0.3,0.1-0.7,0-1.2-0.1c0.3-0.3,0.4-0.6,0.7-0.7c1.3-0.9,2.9-1.4,4.6-1.5
	c0.3,0,0.7,0,1,0c1.1,0,2.2,0.1,3.3,0.4c1.2,0.3,2.4,0.7,3.6,1.2c1.3,0,2.7,0,4,0c0.4,0,0.8-0.1,1.2-0.2c0.9-0.2,1.7-0.4,2.7-0.6
	C231.6,257.4,231.2,257.9,229.3,259z"/>
<path id="XMLID_67_" class="st0" d="M289.2,283.3c-1.3,0-2.7,0.1-4.2,0.1c-1.4,0-2.6-0.4-3.9-0.9c-0.8-0.3-1.5-0.6-2.2-1
	c-1.6-0.7-3.2-0.7-4.9-0.1c-0.8,0.3-1.7,0.5-2.6,0.7c-0.3,0.1-0.7,0-1.2-0.1c0.3-0.3,0.4-0.6,0.7-0.7c1.3-0.9,2.9-1.4,4.6-1.5
	c0.3,0,0.7,0,1,0c1.1,0,2.2,0.1,3.3,0.4c1.2,0.3,2.4,0.7,3.6,1.2c1.3,0,2.7,0,4,0c0.4,0,0.8-0.1,1.2-0.2c0.9-0.2,1.7-0.4,2.7-0.6
	C291.5,281.7,291.1,282.2,289.2,283.3z"/>
<path id="XMLID_66_" class="st0" d="M369.1,38.6c-1.3,0-2.7,0.1-4.2,0.1c-1.4,0-2.6-0.4-3.9-0.9c-0.8-0.3-1.5-0.6-2.2-1
	c-1.6-0.7-3.2-0.7-4.9-0.1c-0.8,0.3-1.7,0.5-2.6,0.7c-0.3,0.1-0.7,0-1.2-0.1c0.3-0.3,0.4-0.6,0.7-0.7c1.3-0.9,2.9-1.4,4.6-1.5
	c0.3,0,0.7,0,1,0c1.1,0,2.2,0.1,3.3,0.4c1.2,0.3,2.4,0.7,3.6,1.2c1.3,0,2.7,0,4,0c0.4,0,0.8-0.1,1.2-0.2c0.9-0.2,1.7-0.4,2.7-0.6
	C371.4,37,371,37.5,369.1,38.6z"/>
<path id="XMLID_65_" class="st0" d="M503.5,80.4c-1.3,0-2.7,0.1-4.2,0.1c-1.4,0-2.6-0.4-3.9-0.9c-0.8-0.3-1.5-0.6-2.2-1
	c-1.6-0.7-3.2-0.7-4.9-0.1c-0.8,0.3-1.7,0.5-2.6,0.7c-0.3,0.1-0.7,0-1.2-0.1c0.3-0.3,0.4-0.6,0.7-0.7c1.3-0.9,2.9-1.4,4.6-1.5
	c0.3,0,0.7,0,1,0c1.1,0,2.2,0.1,3.3,0.4c1.2,0.3,2.4,0.7,3.6,1.2c1.3,0,2.7,0,4,0c0.4,0,0.8-0.1,1.2-0.2c0.9-0.2,1.7-0.4,2.7-0.6
	C505.8,78.9,505.3,79.4,503.5,80.4z"/>
<path id="XMLID_64_" class="st0" d="M245.7,121.3c-1.3,0-2.7,0.1-4.2,0.1c-1.4,0-2.6-0.4-3.9-0.9c-0.8-0.3-1.5-0.6-2.2-1
	c-1.6-0.7-3.2-0.7-4.9-0.1c-0.8,0.3-1.7,0.5-2.6,0.7c-0.3,0.1-0.7,0-1.2-0.1c0.3-0.3,0.4-0.6,0.7-0.7c1.3-0.9,2.9-1.4,4.6-1.5
	c0.3,0,0.7,0,1,0c1.1,0,2.2,0.1,3.3,0.4c1.2,0.3,2.4,0.7,3.6,1.2c1.3,0,2.7,0,4,0c0.4,0,0.8-0.1,1.2-0.2c0.9-0.2,1.7-0.4,2.7-0.6
	C248,119.8,247.5,120.3,245.7,121.3z"/>
<path id="XMLID_63_" class="st0" d="M288.3,217.8c-1.3,0-2.7,0.1-4.2,0.1c-1.4,0-2.6-0.4-3.9-0.9c-0.8-0.3-1.5-0.6-2.2-1
	c-1.6-0.7-3.2-0.7-4.9-0.1c-0.8,0.3-1.7,0.5-2.6,0.7c-0.3,0.1-0.7,0-1.2-0.1c0.3-0.3,0.4-0.6,0.7-0.7c1.3-0.9,2.9-1.4,4.6-1.5
	c0.3,0,0.7,0,1,0c1.1,0,2.2,0.1,3.3,0.4c1.2,0.3,2.4,0.7,3.6,1.2c1.3,0,2.7,0,4,0c0.4,0,0.8-0.1,1.2-0.2c0.9-0.2,1.7-0.4,2.7-0.6
	C290.6,216.2,290.2,216.7,288.3,217.8z"/>
<path id="XMLID_62_" class="st0" d="M73,54.6c-1.3,0-2.7,0.1-4.2,0.1c-1.4,0-2.6-0.4-3.9-0.9c-0.8-0.3-1.5-0.6-2.2-1
	c-1.6-0.7-3.2-0.7-4.9-0.1c-0.8,0.3-1.7,0.5-2.6,0.7c-0.3,0.1-0.7,0-1.2-0.1c0.3-0.3,0.4-0.6,0.7-0.7c1.3-0.9,2.9-1.4,4.6-1.5
	c0.3,0,0.7,0,1,0c1.1,0,2.2,0.1,3.3,0.4c1.2,0.3,2.4,0.7,3.6,1.2c1.3,0,2.7,0,4,0c0.4,0,0.8-0.1,1.2-0.2c0.9-0.2,1.7-0.4,2.7-0.6
	C75.2,53.1,74.8,53.6,73,54.6z"/>
<path id="XMLID_61_" class="st0" d="M266.5,52.1c-1.3,0-2.7,0.1-4.2,0.1c-1.4,0-2.6-0.4-3.9-0.9c-0.8-0.3-1.5-0.6-2.2-1
	c-1.6-0.7-3.2-0.7-4.9-0.1c-0.8,0.3-1.7,0.5-2.6,0.7c-0.3,0.1-0.7,0-1.2-0.1c0.3-0.3,0.4-0.6,0.7-0.7c1.3-0.9,2.9-1.4,4.6-1.5
	c0.3,0,0.7,0,1,0c1.1,0,2.2,0.1,3.3,0.4c1.2,0.3,2.4,0.7,3.6,1.2c1.3,0,2.7,0,4,0c0.4,0,0.8-0.1,1.2-0.2c0.9-0.2,1.7-0.4,2.7-0.6
	C268.8,50.5,268.3,51,266.5,52.1z"/>
<path id="XMLID_60_" class="st0" d="M314.8,290.9c0.5,0,1.1,0,1.9,0c0.1,0.4,0.1,0.7,0.1,1c-0.8,0.4-1.7,0.9-2.5,1.3
	c-0.7,0.3-1.3,0.7-2,1c-0.4,0.2-0.8,0.3-1.2-0.1C311.2,292.3,313,291.6,314.8,290.9z"/>
<path id="XMLID_240_" class="st0" d="M327,293.7c0.1,0.3,0.1,0.5,0.2,0.8c0.4,0,0.6,0,0.9-0.1c0-0.3,0-0.5,0-0.9
	C327.7,293.6,327.4,293.6,327,293.7z M319.5,290.9c0.5,0,1,0,1.6,0c1.1,0.6,2.2,1.1,3.3,1.7c0.9,0.5,1.8,0.7,2.9,0.2
	c0.4-0.2,0.9-0.2,1.3-0.2c1.3-0.1,2.7,0.1,4.2-0.7c0,0.5,0,0.8-0.1,0.9c-0.7,0.9-1.6,1.6-2.8,2.1c-4.4,0.4-6.5-0.1-10.3-2.6
	c-0.6-0.1-1.2-0.2-1.8-0.4c-0.1-0.2-0.2-0.3-0.1-0.4c0-0.2,0.1-0.3,0.1-0.4C318.4,290.8,319,290.9,319.5,290.9z"/>
<path id="XMLID_57_" class="st0" d="M508.9,262.3c-0.5,1.7-1.9,2.7-4.2,2.8c-1.8,0.1-3.5,0.1-5.3,0.1c-1.2,0-2.4,0-3.7,0
	c-0.7,0.4-1.3,0.7-2,1c-0.9,0.4-1.8,0.9-3.1,0.6c0.3-1.5,1.3-2.6,2.9-3.5c2-1,4.1-1.4,6.5-1.3c2.1,0.1,4.2,0,6.1-0.9
	c0.7-0.3,1.4-0.6,2.2-0.9C509,260.8,509.1,261.6,508.9,262.3z"/>
<path id="XMLID_236_" class="st1" d="M393.8,263.2c-0.6,0.3-1.3,0.5-1.9,0.8c-0.5,0.2-1,0.5-1.6,0.8c-0.8-0.1-1.5-0.1-2.2-0.2
	c0.3-0.7,0.5-1.3,0.7-1.8c1.3-0.9,2.6-1.3,3.9-1.7c0.7,0,1.4-0.1,2-0.1c0.4,0,0.9,0,1.3,0.1c0.9,0.2,1.7,0.4,2.6,0.6
	c0.8,0.2,1.5,0.5,1.9,1.1c0.4,0.6,1,1,1.8,1.3c1.1,0.1,2.2,0.1,3.3-0.3c0.9-0.3,1.8-0.3,2.6,0c0.2-0.2,0.3-0.4,0.4-0.7
	c0.2,0,0.5,0,0.9,0c-0.9,1.4-2.3,2.2-3.8,2.9c-2.1,0.3-3.9-0.3-5.6-1.1c-1.1-0.5-2.2-1.1-3.3-1.6
	C395.9,262.9,394.9,262.7,393.8,263.2z M389.7,263.9h0.1H389.7L389.7,263.9z"/>
<path id="XMLID_233_" class="st0" d="M464.6,281.2c-0.6,0.3-1.3,0.5-1.9,0.8c-0.5,0.2-1,0.5-1.6,0.8c-0.8-0.1-1.5-0.1-2.2-0.2
	c0.3-0.7,0.5-1.3,0.7-1.8c1.3-0.9,2.6-1.3,3.9-1.7c0.7,0,1.4-0.1,2-0.1c0.4,0,0.9,0,1.3,0.1c0.9,0.2,1.7,0.4,2.6,0.6
	c0.8,0.2,1.5,0.5,1.9,1.1c0.4,0.6,1,1,1.8,1.3c1.1,0.1,2.2,0.1,3.3-0.3c0.9-0.3,1.8-0.3,2.6,0c0.2-0.2,0.3-0.4,0.4-0.7
	c0.2,0,0.5,0,0.9,0c-0.9,1.4-2.3,2.2-3.8,2.9c-2.1,0.3-3.9-0.3-5.6-1.1c-1.1-0.5-2.2-1.1-3.3-1.6
	C466.7,280.9,465.7,280.7,464.6,281.2z M460.5,281.8h0.1H460.5L460.5,281.8z"/>
<path id="XMLID_52_" class="st0" d="M369.1,275.9c-1.3,0-2.7,0.1-4.2,0.1c-1.4,0-2.6-0.4-3.9-0.9c-0.8-0.3-1.5-0.6-2.2-1
	c-1.6-0.7-3.2-0.7-4.9-0.1c-0.8,0.3-1.7,0.5-2.6,0.7c-0.3,0.1-0.7,0-1.2-0.1c0.3-0.3,0.4-0.6,0.7-0.7c1.3-0.9,2.9-1.4,4.6-1.5
	c0.3,0,0.7,0,1,0c1.1,0,2.2,0.1,3.3,0.4c1.2,0.3,2.4,0.7,3.6,1.2c1.3,0,2.7,0,4,0c0.4,0,0.8-0.1,1.2-0.2c0.9-0.2,1.7-0.4,2.7-0.6
	C371.4,274.4,371,274.9,369.1,275.9z"/>
<path id="XMLID_51_" class="st0" d="M323.4,265.3c-1.3,0-2.7,0.1-4.2,0.1c-1.4,0-2.6-0.4-3.9-0.9c-0.8-0.3-1.5-0.6-2.2-1
	c-1.6-0.7-3.3-0.7-4.9-0.1c-0.8,0.3-1.7,0.5-2.6,0.7c-0.3,0.1-0.7,0-1.2-0.1c0.3-0.3,0.4-0.6,0.7-0.7c1.3-0.9,2.9-1.4,4.6-1.5
	c0.3,0,0.7,0,1,0c1.1,0,2.2,0.1,3.3,0.4c1.2,0.3,2.4,0.7,3.6,1.2c1.3,0,2.7,0,4,0c0.4,0,0.8-0.1,1.2-0.2c0.9-0.2,1.7-0.4,2.7-0.6
	C325.7,263.8,325.3,264.3,323.4,265.3z"/>
<path id="XMLID_50_" class="st0" d="M392,292.9c-1.3,0-2.7,0.1-4.2,0.1c-1.4,0-2.6-0.4-3.9-0.9c-0.8-0.3-1.5-0.6-2.2-1
	c-1.6-0.7-3.3-0.7-4.9-0.1c-0.8,0.3-1.7,0.5-2.6,0.7c-0.3,0.1-0.7,0-1.2-0.1c0.3-0.3,0.4-0.6,0.7-0.7c1.3-0.9,2.9-1.4,4.6-1.5
	c0.3,0,0.7,0,1,0c1.1,0,2.2,0.1,3.3,0.4c1.2,0.3,2.4,0.7,3.6,1.2c1.3,0,2.7,0,4,0c0.4,0,0.8-0.1,1.2-0.2c0.9-0.2,1.7-0.4,2.7-0.6
	C394.3,291.3,393.8,291.8,392,292.9z"/>
<path id="XMLID_49_" class="st1" d="M528.1,288.4c-1.3,0-2.7,0.1-4.2,0.1c-1.4,0-2.6-0.4-3.9-0.9c-0.8-0.3-1.5-0.6-2.2-1
	c-1.6-0.7-3.2-0.7-4.9-0.1c-0.8,0.3-1.7,0.5-2.6,0.7c-0.3,0.1-0.7,0-1.2-0.1c0.3-0.3,0.4-0.6,0.7-0.7c1.3-0.9,2.9-1.4,4.6-1.5
	c0.3,0,0.7,0,1,0c1.1,0,2.2,0.1,3.3,0.4c1.2,0.3,2.4,0.7,3.6,1.2c1.3,0,2.7,0,4,0c0.4,0,0.8-0.1,1.2-0.2c0.9-0.2,1.7-0.4,2.7-0.6
	C530.4,286.9,529.9,287.4,528.1,288.4z"/>
<path id="XMLID_226_" class="st0" d="M244.5,32.9c0,0,0.1,0,0.1,0.1c0,0,0.1-0.1,0.1-0.1c0,0-0.1,0-0.1,0
	C244.6,32.8,244.5,32.9,244.5,32.9z M233.1,30.7c-2.2,0.9-4.2,2.3-7,2.8c0.4-1.2,1-2.1,2.2-2.8c1.1-0.6,2.2-1.1,3.3-1.6
	c1.3-0.6,2.6-0.9,4.1-0.7c0.4,0.1,0.9,0.1,1.4,0c1.4-0.2,2.5,0.3,3.6,1c0.8,0.6,1.7,1.1,2.3,1.5c0.9,0.2,1.6,0.4,2.6,0.7
	c0.9,0,2,0,3.2-0.3c0.4-0.1,0.9-0.1,1.3-0.1c1.5,0,3,0.1,4.3-0.6c0.2,0.2,0.3,0.3,0.5,0.5c-0.8,0.7-1.9,1.1-2.9,1.4
	c-2.4,0.8-4.9,1.6-7.6,1.1c-1-0.4-2.1-0.7-3.1-1.1c-0.3-0.1-0.5-0.3-0.8-0.5c-0.5-0.3-0.9-0.7-1.4-1c-0.7-0.5-1.5-0.8-2.5-0.8
	c-1.1,0-2.2,0-3.4,0C233.3,30.3,233.2,30.4,233.1,30.7z"/>
<path id="XMLID_223_" class="st0" d="M83,103.8c0,0,0.1,0,0.1,0.1c0,0,0.1-0.1,0.1-0.1c0,0-0.1,0-0.1-0.1
	C83,103.7,83,103.8,83,103.8z M71.6,101.6c-2.2,0.9-4.2,2.3-7,2.8c0.4-1.2,1-2.1,2.2-2.8c1.1-0.6,2.2-1.1,3.3-1.6
	c1.3-0.6,2.6-0.9,4.1-0.7c0.4,0.1,0.9,0.1,1.4,0c1.4-0.2,2.5,0.3,3.6,1c0.8,0.6,1.7,1.1,2.4,1.5c0.9,0.2,1.6,0.4,2.6,0.7
	c0.9,0,2,0,3.2-0.3c0.4-0.1,0.9-0.1,1.3-0.1c1.5,0,3,0.1,4.3-0.6c0.2,0.2,0.3,0.3,0.5,0.5c-0.8,0.7-1.9,1.1-2.9,1.4
	c-2.4,0.8-4.9,1.6-7.6,1.1c-1-0.4-2.1-0.7-3.1-1.1c-0.3-0.1-0.5-0.3-0.8-0.5c-0.5-0.3-0.9-0.7-1.4-1c-0.7-0.5-1.5-0.8-2.5-0.8
	c-1.1,0-2.2,0-3.4,0C71.8,101.1,71.7,101.3,71.6,101.6z"/>
<path id="XMLID_44_" class="st0" d="M437.5,70.5c0.3,0,0.6-0.1,0.9,0c0.7,0.2,1.3,0.5,1.9,0.8c1.1,0.6,2.2,0.7,3.4,0.4
	c1.5-0.3,3-0.6,4.3-1.3c0.2-0.1,0.5-0.2,0.8-0.3c0.4,0.6,0.3,1.1-0.2,1.5c-0.6,0.5-1.1,1-1.7,1.4c-1,0.1-2,0.2-3,0.3
	c-0.8,0-1.6-0.1-2.3-0.4c-0.5-0.2-1.1-0.4-1.7-0.5c-0.1,0-0.1,0-0.2,0c-0.7-0.3-1.3-0.7-2-1C437.4,71.3,437.1,71,437.5,70.5z"/>
<path id="XMLID_43_" class="st0" d="M433,71c0,0-0.1-0.1-0.1-0.1c0.1-0.1,0.3-0.1,0.4-0.2C433.2,70.8,433.1,70.9,433,71z"/>
<path id="XMLID_42_" class="st0" d="M433.3,70.6C433.3,70.6,433.3,70.6,433.3,70.6C433.3,70.6,433.3,70.6,433.3,70.6L433.3,70.6z"/>
<path id="XMLID_41_" class="st0" d="M433.3,70.6L433.3,70.6C433.3,70.6,433.3,70.6,433.3,70.6C433.3,70.6,433.3,70.6,433.3,70.6z"/>
<path id="XMLID_40_" class="st0" d="M433.3,70.6c0.8-0.9,1.9-0.7,3-0.4c0,0.2,0.1,0.3,0.1,0.5c-0.6-0.1-1.1-0.2-1.6-0.2
	C434.3,70.5,433.8,70.6,433.3,70.6z"/>
<path id="XMLID_39_" class="st0" d="M488,196.1c0.3,0,0.6-0.1,0.9,0c0.7,0.2,1.3,0.5,2,0.8c1.1,0.6,2.2,0.7,3.4,0.4
	c1.5-0.3,3-0.6,4.3-1.3c0.2-0.1,0.5-0.2,0.8-0.3c0.4,0.6,0.2,1.1-0.2,1.5c-0.6,0.5-1.1,1-1.7,1.4c-1,0.1-2,0.2-2.9,0.3
	c-0.8,0-1.6-0.1-2.3-0.4c-0.5-0.2-1.1-0.4-1.7-0.5c-0.1,0-0.1,0-0.2,0c-0.7-0.3-1.3-0.7-2-1C487.9,196.9,487.6,196.6,488,196.1z"/>
<path id="XMLID_38_" class="st0" d="M483.5,196.5c0,0-0.1-0.1-0.1-0.1c0.1-0.1,0.3-0.1,0.4-0.2C483.7,196.3,483.6,196.4,483.5,196.5
	z"/>
<path id="XMLID_37_" class="st0" d="M483.8,196.2C483.8,196.2,483.8,196.2,483.8,196.2C483.8,196.2,483.8,196.2,483.8,196.2
	L483.8,196.2z"/>
<path id="XMLID_36_" class="st0" d="M483.8,196.2L483.8,196.2C483.8,196.2,483.8,196.2,483.8,196.2
	C483.9,196.2,483.9,196.2,483.8,196.2z"/>
<path id="XMLID_35_" class="st0" d="M483.9,196.2c0.9-0.9,1.9-0.7,3-0.4c0,0.2,0.1,0.3,0.1,0.5c-0.6-0.1-1.1-0.2-1.6-0.2
	C484.8,196.1,484.4,196.2,483.9,196.2z"/>
<path id="XMLID_34_" class="st1" d="M415.3,246.3c0.3,0,0.6-0.1,0.9,0c0.7,0.2,1.3,0.5,1.9,0.8c1.1,0.6,2.2,0.7,3.4,0.4
	c1.5-0.3,3-0.6,4.3-1.3c0.2-0.1,0.5-0.2,0.8-0.3c0.4,0.6,0.3,1.1-0.2,1.5c-0.6,0.5-1.1,1-1.7,1.4c-1,0.1-2,0.2-3,0.3
	c-0.8,0-1.6-0.1-2.3-0.4c-0.5-0.2-1.1-0.4-1.7-0.5c-0.1,0-0.1,0-0.2,0c-0.7-0.3-1.3-0.7-2-1C415.2,247.1,414.9,246.8,415.3,246.3z"
	/>
<path id="XMLID_33_" class="st0" d="M410.8,246.7c0,0-0.1-0.1-0.1-0.1c0.1-0.1,0.3-0.1,0.4-0.2C411,246.5,410.9,246.6,410.8,246.7z"
	/>
<path id="XMLID_32_" class="st0" d="M411.1,246.4C411.1,246.4,411.1,246.4,411.1,246.4C411.1,246.4,411.1,246.4,411.1,246.4
	L411.1,246.4z"/>
<path id="XMLID_31_" class="st0" d="M411.1,246.4L411.1,246.4C411.1,246.4,411.1,246.4,411.1,246.4
	C411.1,246.4,411.1,246.4,411.1,246.4z"/>
<path id="XMLID_30_" class="st0" d="M411.1,246.4c0.8-0.9,1.9-0.7,3-0.4c0,0.2,0.1,0.3,0.1,0.5c-0.6-0.1-1.1-0.2-1.6-0.2
	C412.1,246.3,411.6,246.3,411.1,246.4z"/>
<path id="XMLID_29_" class="st0" d="M307.2,151.8c0.3,0,0.6-0.1,0.9,0c0.7,0.2,1.3,0.5,1.9,0.8c1.1,0.6,2.2,0.7,3.4,0.4
	c1.5-0.3,3-0.6,4.3-1.3c0.2-0.1,0.5-0.2,0.8-0.3c0.4,0.6,0.2,1.1-0.3,1.5c-0.6,0.5-1.1,1-1.7,1.4c-1,0.1-2,0.2-2.9,0.3
	c-0.8,0-1.6-0.1-2.3-0.4c-0.5-0.2-1.1-0.4-1.7-0.5c-0.1,0-0.1,0-0.2,0c-0.7-0.3-1.3-0.7-2-1C307,152.6,306.8,152.3,307.2,151.8z"/>
<path id="XMLID_28_" class="st0" d="M302.6,152.2c0,0-0.1-0.1-0.1-0.1c0.1-0.1,0.3-0.1,0.4-0.2C302.8,152,302.7,152.1,302.6,152.2z"
	/>
<path id="XMLID_27_" class="st0" d="M303,151.8C303,151.9,302.9,151.9,303,151.8C302.9,151.9,302.9,151.8,303,151.8L303,151.8z"/>
<path id="XMLID_26_" class="st0" d="M303,151.8L303,151.8C303,151.8,303,151.8,303,151.8C303,151.8,303,151.8,303,151.8z"/>
<path id="XMLID_25_" class="st0" d="M303,151.8c0.9-0.9,1.9-0.7,3-0.4c0,0.2,0.1,0.3,0.1,0.5c-0.6-0.1-1.1-0.2-1.6-0.2
	C304,151.8,303.5,151.8,303,151.8z"/>
<path id="XMLID_24_" class="st0" d="M237.2,70.7c0.3,0,0.6-0.1,0.9,0c0.7,0.2,1.3,0.5,1.9,0.8c1.1,0.6,2.2,0.7,3.4,0.4
	c1.5-0.3,3-0.6,4.3-1.3c0.2-0.1,0.5-0.2,0.8-0.3c0.4,0.6,0.2,1.1-0.3,1.5c-0.6,0.5-1.1,1-1.7,1.4c-1,0.1-2,0.2-2.9,0.3
	c-0.8,0-1.6-0.1-2.3-0.4c-0.5-0.2-1.1-0.4-1.7-0.5c-0.1,0-0.1,0-0.2,0c-0.7-0.3-1.3-0.7-2-1C237,71.5,236.8,71.2,237.2,70.7z"/>
<path id="XMLID_23_" class="st0" d="M232.6,71.1c0,0-0.1-0.1-0.1-0.1c0.1-0.1,0.3-0.1,0.4-0.2C232.8,70.9,232.7,71,232.6,71.1z"/>
<path id="XMLID_22_" class="st0" d="M233,70.8C232.9,70.8,232.9,70.8,233,70.8C232.9,70.8,232.9,70.8,233,70.8L233,70.8z"/>
<path id="XMLID_21_" class="st0" d="M233,70.8L233,70.8C233,70.7,233,70.7,233,70.8C233,70.8,233,70.8,233,70.8z"/>
<path id="XMLID_20_" class="st0" d="M233,70.7c0.8-0.9,1.9-0.7,3-0.4c0,0.2,0.1,0.3,0.1,0.5c-0.6-0.1-1.1-0.2-1.6-0.2
	C234,70.7,233.5,70.7,233,70.7z"/>
<path id="XMLID_19_" class="st0" d="M519.4,16.6c0.3,0,0.6-0.1,0.9,0c0.7,0.2,1.3,0.5,2,0.8c1.1,0.6,2.2,0.7,3.4,0.4
	c1.5-0.3,3-0.6,4.3-1.3c0.2-0.1,0.5-0.2,0.8-0.3c0.4,0.6,0.3,1.1-0.2,1.5c-0.6,0.5-1.1,1-1.7,1.4c-1,0.1-2,0.2-2.9,0.3
	c-0.8,0-1.6-0.1-2.3-0.4c-0.5-0.2-1.1-0.4-1.7-0.5c-0.1,0-0.1,0-0.2,0c-0.7-0.3-1.3-0.7-2-1C519.3,17.3,519,17,519.4,16.6z"/>
<path id="XMLID_18_" class="st0" d="M514.9,17c0,0-0.1-0.1-0.1-0.1c0.1-0.1,0.3-0.1,0.4-0.2C515.1,16.8,515,16.9,514.9,17z"/>
<path id="XMLID_17_" class="st0" d="M515.2,16.6C515.2,16.7,515.2,16.7,515.2,16.6C515.2,16.7,515.2,16.6,515.2,16.6L515.2,16.6z"/>
<path id="XMLID_16_" class="st0" d="M515.2,16.6L515.2,16.6C515.2,16.6,515.2,16.6,515.2,16.6C515.2,16.6,515.2,16.6,515.2,16.6z"/>
<path id="XMLID_15_" class="st0" d="M515.3,16.6c0.9-0.9,1.9-0.7,3-0.4c0,0.2,0.1,0.3,0.1,0.5c-0.6-0.1-1.1-0.2-1.6-0.2
	C516.2,16.5,515.7,16.6,515.3,16.6z"/>
<path id="XMLID_14_" class="st0" d="M344.5,248.1c0.3,0,0.6-0.1,0.9,0c0.7,0.2,1.3,0.5,1.9,0.8c1.1,0.6,2.2,0.7,3.4,0.4
	c1.5-0.3,3-0.6,4.3-1.3c0.2-0.1,0.5-0.2,0.8-0.3c0.4,0.6,0.3,1.1-0.2,1.5c-0.6,0.5-1.1,1-1.7,1.4c-1,0.1-2,0.2-3,0.3
	c-0.8,0-1.6-0.1-2.3-0.4c-0.5-0.2-1.1-0.4-1.7-0.5c-0.1,0-0.1,0-0.2,0c-0.7-0.3-1.3-0.7-2-1C344.4,248.8,344.1,248.5,344.5,248.1z"
	/>
<path id="XMLID_13_" class="st0" d="M339.9,248.5c0,0-0.1-0.1-0.1-0.1c0.1-0.1,0.3-0.1,0.4-0.2C340.1,248.3,340,248.4,339.9,248.5z"
	/>
<path id="XMLID_12_" class="st0" d="M340.3,248.1C340.3,248.1,340.3,248.2,340.3,248.1C340.3,248.2,340.3,248.1,340.3,248.1
	L340.3,248.1z"/>
<path id="XMLID_11_" class="st0" d="M340.3,248.1L340.3,248.1C340.3,248.1,340.3,248.1,340.3,248.1
	C340.3,248.1,340.3,248.1,340.3,248.1z"/>
<path id="XMLID_10_" class="st0" d="M340.3,248.1c0.9-0.9,1.9-0.7,3-0.4c0,0.2,0.1,0.3,0.1,0.5c-0.6-0.1-1.1-0.2-1.6-0.2
	C341.3,248,340.8,248.1,340.3,248.1z"/>
<path id="XMLID_9_" class="st0" d="M79.5,31.3c0,0-0.1-0.1-0.1-0.1c0.1-0.1,0.3-0.1,0.4-0.2C79.7,31.1,79.6,31.2,79.5,31.3z"/>
<path id="XMLID_8_" class="st0" d="M79.8,31C79.8,31,79.8,31,79.8,31C79.8,31,79.8,31,79.8,31L79.8,31z"/>
<path id="XMLID_7_" class="st0" d="M79.8,31L79.8,31C79.8,31,79.8,31,79.8,31C79.8,31,79.8,31,79.8,31z"/>
<path id="XMLID_6_" class="st0" d="M396.3,66.9L396.3,66.9C396.3,66.9,396.3,66.9,396.3,66.9L396.3,66.9z"/>
<path id="XMLID_5_" class="st1" d="M377.3,63.5c0.6-0.4,1.3-0.7,1.9-1.1c1.8-0.4,3.5-0.9,5.6-0.5c1.5,0.7,3.2,1.4,4.9,2.6
	c0.4,0.1,1.1,0.3,1.7,0.4c0.8,0.1,1.6,0.2,2.4,0.1c1.3-0.3,2.7-0.2,4.1-0.4c1.8-0.2,3.7-0.5,5.6-0.8c-0.1,0.6-0.9,0.7-1.1,1
	c-1,0.2-1.9,0.4-2.9,0.6c-0.1,0.1-0.3,0.4-0.6,0.8c-0.8,0.2-1.7,0.5-2.6,0.7l0,0l-0.1-0.1l0,0.1c-3,0.6-5.7,0.3-8.3-1.1
	c-1.2-0.7-2.6-1.3-3.8-1.9c-1.2,0-2.3,0-3.4,0c-1.1,0-2.1,0.4-3.1,0.8c-0.5,0.2-0.9,0.4-1.4,0.1C376.7,64.3,377,63.9,377.3,63.5z"/>
<path id="XMLID_4_" class="st0" d="M181.3,55.2c0.7-0.4,1.3-0.7,1.9-1.1c1.8-0.4,3.5-0.9,5.6-0.5c1.5,0.7,3.2,1.4,4.9,2.6
	c0.4,0.1,1.1,0.3,1.7,0.4c0.8,0.1,1.6,0.2,2.4,0.1c1.4-0.3,2.7-0.2,4.1-0.4c1.8-0.2,3.7-0.5,5.6-0.8c-0.1,0.6-0.9,0.7-1.1,1
	c-1,0.2-1.9,0.4-2.9,0.6c-0.1,0.1-0.3,0.4-0.6,0.8c-0.8,0.2-1.7,0.5-2.6,0.7l0,0l-0.1-0.1l0,0.1c-3,0.6-5.7,0.3-8.3-1.1
	c-1.2-0.7-2.6-1.3-3.8-1.9c-1.2,0-2.3,0-3.3,0c-1.1,0-2.1,0.4-3.1,0.8c-0.5,0.2-0.9,0.4-1.4,0.1C180.7,55.9,181,55.5,181.3,55.2z"/>
<path id="XMLID_3_" class="st0" d="M401.2,35.9c0.9-1.1,1.8-2.3,2.8-3.4c0.4-0.5,1.1-0.9,1.8-1.2c3.1-1.2,6.3-1.2,9.4,0
	c0.5,0.2,1,0.5,1.4,0.8c0.7,0.5,1.4,1,2.3,1.7c0.9,0.2,1.9,0.4,2.9,0.5c1.6,0.2,3-0.4,4.4-0.8c0.6-0.2,1.3-0.4,1.9-0.6
	c0.4,0.6,0.1,1-0.3,1.4c-0.7,0.7-1.4,1.3-2.2,1.9c-2.7,0.3-5.3,0.1-8,0c-0.3-0.1-0.7-0.3-1-0.5c-1.7-1.1-3.6-1.8-5.5-2.4
	c-0.8-0.3-1.7-0.3-2.5,0c-0.9,0.4-1.7,0.7-2.5,1.1c-0.6,0.3-1.2,0.6-1.8,0.9c-0.9,0.6-1.3,2-3.4,1.5C401.1,36.4,401,36.1,401.2,35.9
	z"/>
<path id="XMLID_2_" class="st0" d="M506.2,179.8c0.9-1.1,1.8-2.3,2.8-3.4c0.4-0.5,1.1-0.9,1.8-1.2c3.1-1.2,6.3-1.2,9.4,0
	c0.5,0.2,1,0.5,1.4,0.8c0.7,0.5,1.4,1,2.3,1.7c0.9,0.2,1.9,0.4,2.9,0.5c1.6,0.2,3-0.4,4.4-0.8c0.6-0.2,1.2-0.4,1.9-0.6
	c0.4,0.6,0.1,1-0.3,1.4c-0.7,0.7-1.4,1.3-2.2,1.9c-2.7,0.3-5.3,0.1-8,0c-0.3-0.1-0.7-0.3-1-0.5c-1.7-1.1-3.6-1.8-5.5-2.4
	c-0.8-0.3-1.7-0.3-2.5,0c-0.9,0.4-1.7,0.7-2.5,1.1c-0.6,0.3-1.2,0.6-1.8,0.9c-0.9,0.6-1.3,2-3.4,1.5
	C506.1,180.2,506,179.9,506.2,179.8z"/>
<polygon id="XMLID_1_" class="st0" points="429.3,32.3 429.2,32.3 429.3,32.2 "/>
</svg>
