<?xml version="1.0" encoding="utf-8"?>
<!-- Generator: Adobe Illustrator 19.0.0, SVG Export Plug-In . SVG Version: 6.00 Build 0)  -->
<svg version="1.1" id="レイヤー_4" xmlns="http://www.w3.org/2000/svg" xmlns:xlink="http://www.w3.org/1999/xlink" x="0px"
	 y="0px" viewBox="0 0 475.2 351" style="enable-background:new 0 0 475.2 351;" xml:space="preserve">
<style type="text/css">
	.st0{fill:#182F4F;}
</style>
<path class="st0" d="M394.9,67.2c0.9-0.2,1.8-0.4,2.7-0.6c0.2,0,0.4,0,0.7,0.1c-0.2,0.8-0.9,0.6-1.4,1c0,0.7-0.5,1.1-1,1.6
	c-1.1,1.2-2.4,2.1-4,2.5c-0.7,0.2-1.3,0.6-2.1,0.5c-1.4-0.2-2.7-0.2-4-0.8c-1.7-0.8-3.3-1.6-5.2-2.5c-0.6,0-1.3,0-2,0
	c-0.9,0.6-1.8,1.1-2.7,1.7c-1.3,0.8-2.6,0.7-4,0.3c-0.1,0-0.1-0.1-0.2-0.3c0.7-1,1.5-1.9,2.6-2.6c1.3-0.8,2.6-1.5,4-2.2
	c1.2-0.1,2.4,0,3.6,0.4c1.3,0.5,2.7,0.9,3.9,1.6c0.8,0.5,1.7,0.5,2.7,0.5c0.8,0,1.6-0.1,2.3-0.2c0.6-0.1,1.2-0.2,1.9-0.4
	C393.4,67.5,394.1,67.3,394.9,67.2z"/>
<path class="st0" d="M127.3,110.4c0.9-0.2,1.8-0.4,2.7-0.6c0.2,0,0.4,0,0.7,0.1c-0.2,0.8-0.9,0.6-1.4,1c0,0.7-0.5,1.1-1,1.6
	c-1.1,1.2-2.4,2.1-4,2.5c-0.7,0.2-1.3,0.6-2.1,0.5c-1.4-0.2-2.7-0.2-4-0.8c-1.7-0.8-3.3-1.6-5.2-2.5c-0.6,0-1.3,0-2,0
	c-0.9,0.6-1.8,1.1-2.7,1.7c-1.3,0.8-2.6,0.7-4,0.3c-0.1,0-0.1-0.1-0.2-0.3c0.7-1,1.5-1.9,2.6-2.6c1.3-0.8,2.6-1.5,4-2.2
	c1.2-0.1,2.4,0,3.6,0.4c1.3,0.5,2.7,0.9,3.9,1.6c0.8,0.5,1.7,0.5,2.7,0.5c0.8,0,1.6-0.1,2.3-0.2c0.6-0.1,1.2-0.2,1.9-0.4
	C125.8,110.8,126.5,110.6,127.3,110.4z"/>
<path class="st0" d="M289,245.7c0,0-0.1,0-0.1,0c0,0,0-0.1,0-0.1c0,0,0.1,0,0.1,0C289,245.6,289,245.6,289,245.7z"/>
<path class="st0" d="M282.5,244.6c0.8-0.6,0.4-1.6,1-2.2c0.5-0.6,1-1.2,1.5-1.7c0,0,0,0,0,0c0.1,0.2,0.1,0.3,0.2,0.5
	c0.1-0.1,0.1-0.2,0.1-0.3c-0.1-0.1-0.2-0.1-0.3-0.2c0,0,0,0,0,0c1.2-0.9,2.5-1.4,4-1.4c1.4,0,2.8,0.2,4.2,0.7c1.2,0.4,2.4,0.4,3.6,0
	c0.7-0.2,1.4-0.4,2.1-0.6c0.6-0.2,1.2-0.5,1.9-0.7c0.1,0,0.3,0.1,0.5,0.2c0,0.3,0.1,0.5,0.1,0.7c-0.5,2.1-2.1,3.9-4.4,3.9
	c-1.4,0-2.8,0-4.2-0.4c-1.3-0.3-2.7-0.5-4-1.1c-0.3-0.1-0.8,0-1.2,0.1c-0.6,0.2-1.3,0.5-2.1,0.8c-0.7,0.4-0.7,1.8-1.9,2.2
	C283.3,245,282.9,244.8,282.5,244.6z"/>
<path class="st0" d="M425.9,81c0.8-0.6,0.4-1.6,1-2.2c0.5-0.6,1-1.2,1.5-1.7c0,0,0,0,0,0c0.1,0.2,0.1,0.3,0.2,0.5
	c0.1-0.1,0.1-0.2,0.1-0.3c-0.1-0.1-0.2-0.1-0.3-0.2c0,0,0,0,0,0c1.2-0.9,2.5-1.4,4-1.4c1.5,0,2.8,0.2,4.2,0.7c1.2,0.4,2.4,0.4,3.6,0
	c0.7-0.2,1.4-0.4,2.1-0.6c0.6-0.2,1.2-0.5,1.9-0.7c0.1,0,0.3,0.1,0.5,0.2c0,0.3,0.1,0.5,0.1,0.7c-0.5,2.1-2.1,3.9-4.4,3.9
	c-1.4,0-2.8,0-4.2-0.3c-1.3-0.3-2.7-0.5-4-1.1c-0.3-0.1-0.8,0-1.2,0.1c-0.6,0.2-1.3,0.5-2.1,0.8c-0.7,0.4-0.7,1.8-1.9,2.2
	C426.7,81.3,426.3,81.2,425.9,81z"/>
<path class="st0" d="M124.7,253.7c0.8-0.6,0.4-1.6,1-2.2c0.5-0.6,1-1.2,1.5-1.7c0,0,0,0,0,0c0.1,0.2,0.1,0.3,0.2,0.5
	c0.1-0.1,0.1-0.2,0.1-0.3c-0.1-0.1-0.2-0.1-0.3-0.2c0,0,0,0,0,0c1.2-0.9,2.5-1.4,4-1.4c1.4,0,2.8,0.2,4.2,0.7c1.2,0.4,2.4,0.5,3.6,0
	c0.7-0.2,1.4-0.4,2.1-0.6c0.6-0.2,1.2-0.5,1.9-0.7c0.1,0,0.3,0.1,0.5,0.2c0,0.3,0.1,0.5,0.1,0.7c-0.5,2.1-2.1,3.9-4.4,3.9
	c-1.4,0-2.8,0-4.2-0.3c-1.3-0.3-2.7-0.5-4-1.1c-0.3-0.1-0.8,0-1.2,0.1c-0.7,0.2-1.3,0.5-2.1,0.8c-0.7,0.4-0.7,1.8-1.9,2.2
	C125.5,254.1,125.1,253.9,124.7,253.7z"/>
<path class="st0" d="M344.5,236.7c-0.4,0.3-0.9,0.4-1.5,0.4c-1,0-2,0-3,0c-0.5,0-0.9,0-1.4-0.2c-1.7-0.7-3.3-0.4-4.9,0.5
	c-0.7,0.4-1.4,0.6-2.2,1c-0.1-1.1,0.5-1.8,0.8-2.5c0.9-0.5,1.8-1,2.6-1.5c1.2-0.7,2.4-0.5,3.6-0.2c0.7,0.2,1.3,0.4,2,0.4
	c0.4,0,0.9,0.2,1.1,0.3c0.9-0.1,1.5-0.2,2.2-0.3c0.5-0.1,0.9-0.3,1.5-0.5c0.1,0.2,0.3,0.4,0.6,0.6
	C345.6,235.4,345.1,236,344.5,236.7z"/>
<path class="st0" d="M268.5,129.5c-0.4,0.3-0.9,0.4-1.5,0.4c-1,0-2,0-3,0c-0.5,0-0.9,0-1.4-0.2c-1.7-0.7-3.3-0.4-4.9,0.5
	c-0.7,0.4-1.4,0.6-2.2,1c-0.1-1.1,0.5-1.8,0.8-2.5c0.9-0.5,1.8-1,2.6-1.5c1.2-0.7,2.4-0.5,3.6-0.2c0.7,0.2,1.3,0.4,2,0.4
	c0.4,0,0.9,0.2,1.1,0.3c0.9-0.1,1.5-0.2,2.2-0.3c0.5-0.1,0.9-0.3,1.5-0.5c0.1,0.2,0.3,0.4,0.6,0.6
	C269.5,128.2,269.1,128.8,268.5,129.5z"/>
<path class="st0" d="M171.8,296.3c-0.4,0.3-0.9,0.4-1.5,0.4c-1,0-2,0-3,0c-0.5,0-0.9,0-1.4-0.2c-1.7-0.7-3.3-0.4-4.9,0.5
	c-0.7,0.4-1.4,0.6-2.2,1c-0.1-1.1,0.5-1.8,0.8-2.5c0.9-0.5,1.8-1,2.6-1.5c1.2-0.7,2.4-0.5,3.6-0.2c0.7,0.2,1.3,0.4,2,0.4
	c0.4,0,0.9,0.2,1.1,0.3c0.9-0.1,1.5-0.2,2.2-0.3c0.5-0.1,0.9-0.3,1.5-0.5c0.1,0.2,0.3,0.4,0.6,0.6
	C172.9,295,172.4,295.6,171.8,296.3z"/>
<path class="st0" d="M67.7,193.9c-0.4,0.3-0.9,0.4-1.5,0.4c-1,0-2,0-3,0c-0.5,0-0.9,0-1.4-0.2c-1.7-0.7-3.3-0.4-4.9,0.5
	c-0.7,0.4-1.4,0.6-2.2,1c-0.1-1.1,0.5-1.8,0.8-2.5c0.9-0.5,1.8-1,2.6-1.5c1.2-0.7,2.4-0.5,3.6-0.2c0.7,0.2,1.3,0.4,2,0.4
	c0.4,0,0.9,0.2,1.1,0.3c0.9-0.1,1.5-0.2,2.2-0.3c0.5-0.1,0.9-0.3,1.5-0.5c0.1,0.2,0.3,0.4,0.6,0.6C68.7,192.7,68.3,193.3,67.7,193.9
	z"/>
<path class="st0" d="M261.4,221.5c0.4,0,0.9,0,1.5,0c0,0.4,0.1,0.7,0.1,1c-0.7,0.4-1.4,0.9-2,1.3c-0.5,0.3-1.1,0.7-1.6,1
	c-0.3,0.2-0.7,0.3-1-0.1C258.5,222.9,260,222.2,261.4,221.5z"/>
<path class="st0" d="M271.3,224.3c0.1,0.3,0.1,0.5,0.1,0.8c0.3,0,0.5,0,0.7-0.1c0-0.3,0-0.5,0-0.9
	C271.8,224.2,271.6,224.3,271.3,224.3z M265.2,221.4c0.4,0,0.8,0,1.3,0c0.9,0.6,1.8,1.1,2.7,1.7c0.7,0.5,1.5,0.7,2.3,0.2
	c0.3-0.2,0.7-0.2,1.1-0.2c1.1-0.1,2.2,0.1,3.4-0.7c0,0.5,0,0.8-0.1,1c-0.6,0.9-1.3,1.6-2.2,2.2c-3.5,0.4-5.2-0.1-8.3-2.6
	c-0.5-0.1-1-0.2-1.4-0.4c-0.1-0.2-0.1-0.3-0.1-0.4c0-0.2,0.1-0.3,0.1-0.4C264.3,221.3,264.8,221.4,265.2,221.4z"/>
<path class="st0" d="M405.6,52.7c0.4,0,0.9,0,1.5,0c0,0.4,0.1,0.7,0.1,1c-0.7,0.4-1.4,0.9-2,1.3c-0.5,0.3-1.1,0.7-1.6,1
	c-0.3,0.2-0.7,0.3-1-0.1C402.7,54.1,404.2,53.4,405.6,52.7z"/>
<path class="st0" d="M415.5,55.5c0.1,0.3,0.1,0.5,0.1,0.8c0.3,0,0.5,0,0.7-0.1c0-0.3,0-0.5,0-0.9C416,55.4,415.8,55.4,415.5,55.5z
	 M409.4,52.6c0.4,0,0.8,0,1.3,0c0.9,0.6,1.8,1.1,2.7,1.7c0.7,0.5,1.5,0.7,2.3,0.2c0.3-0.2,0.7-0.2,1.1-0.2c1.1-0.1,2.2,0.1,3.4-0.7
	c0,0.5,0,0.8-0.1,1c-0.6,0.9-1.3,1.6-2.2,2.2c-3.5,0.4-5.2-0.1-8.3-2.6c-0.5-0.1-1-0.2-1.4-0.4c-0.1-0.2-0.1-0.3-0.1-0.4
	c0-0.2,0.1-0.3,0.1-0.4C408.5,52.5,409,52.6,409.4,52.6z"/>
<path class="st0" d="M113,62.5c0.4,0,0.9,0,1.5,0c0,0.4,0.1,0.7,0.1,1c-0.7,0.4-1.4,0.9-2,1.3c-0.5,0.3-1.1,0.7-1.6,1
	c-0.3,0.2-0.7,0.3-1-0.1C110.1,63.9,111.6,63.2,113,62.5z"/>
<path class="st0" d="M122.9,65.3c0.1,0.3,0.1,0.5,0.1,0.8c0.3,0,0.5,0,0.7-0.1c0-0.3,0-0.5,0-0.9C123.4,65.2,123.2,65.3,122.9,65.3z
	 M116.8,62.4c0.4,0,0.8,0,1.3,0c0.9,0.6,1.8,1.1,2.7,1.7c0.7,0.5,1.5,0.7,2.3,0.2c0.3-0.2,0.7-0.2,1.1-0.2c1.1-0.1,2.2,0.1,3.4-0.7
	c0,0.5,0,0.8-0.1,1c-0.6,0.9-1.3,1.6-2.2,2.2c-3.5,0.4-5.2-0.1-8.3-2.6c-0.5-0.1-1-0.2-1.4-0.4c-0.1-0.2-0.1-0.3-0.1-0.4
	c0-0.2,0.1-0.3,0.1-0.4C115.9,62.3,116.4,62.4,116.8,62.4z"/>
<path class="st0" d="M433.1,162.3c0.4,0,0.9,0,1.5,0c0,0.4,0.1,0.7,0.1,1c-0.7,0.4-1.4,0.9-2,1.3c-0.5,0.3-1.1,0.7-1.6,1
	c-0.3,0.2-0.7,0.3-1-0.1C430.2,163.7,431.6,163,433.1,162.3z"/>
<path class="st0" d="M109.9,232.7c0.3,0.4,0.1,0.7-0.2,0.9c-0.5,0.3-1.1,0.6-1.7,0.9c-0.2,0.1-0.5,0.2-0.8,0.3
	c-0.6,0.1-1.1,0.3-1.9,0.4c-0.1,0.1-0.2,0.4-0.4,0.7c-1.9,0.4-3.6,0.2-5.4-0.5c-0.5-0.2-0.9-0.4-1.4-0.5c-0.4-0.1-0.9-0.3-1.3-0.2
	c-1.2,0.2-2.4,0.4-3.6,0.7c-1.1,0.4-2,0.4-3.2-0.4c1.2-0.9,2.2-1.8,3.5-2.2c0.3-0.1,0.5-0.1,0.8-0.1c0.7,0,1.5,0,2.2,0
	c1.4-0.1,2.7,0.3,3.9,0.9c0.4,0.2,0.9,0.3,1.3,0.2c0.5,0,1.1-0.2,1.6-0.3c1.9-0.3,3.7-0.5,5.5-0.8
	C109.3,232.6,109.6,232.7,109.9,232.7z"/>
<path class="st0" d="M359.1,214.6c-0.8,0.2-1.6,0.4-2.3,0.8c-0.4,0.2-0.8,0.6-1.2,0.9c-0.2,0.2-0.4,0.5-0.7,0.7
	c-1.1,0-1.1,0-1.8-0.6c-0.3-1,0.5-1.8,0.6-2.8c0.5-0.5,1-1,1.6-1.4c0.4-0.3,0.9-0.7,1.4-0.8c1.6-0.2,3.1-0.9,4.7-0.8
	c0.4,0,0.8,0.1,1.2,0.2c0.8,0.3,1.6,0.3,2.4,0c0.4-0.2,0.9-0.2,1.3-0.3c0.6-0.4,1.1-0.7,1.6-1.1c0.9,0.4,1,1.3,1.3,2
	c-0.2,0.7-0.4,1.3-0.7,2c-0.3,0.3-0.7,0.8-1.2,1.2c-0.8,0.1-1.6,0.3-2.4,0.3c-1.6,0-3.2-0.2-4.8-0.3
	C359.9,214.5,359.4,214.5,359.1,214.6z"/>
<path class="st0" d="M42.8,264.2c-0.8,0.2-1.6,0.4-2.3,0.8c-0.4,0.2-0.8,0.6-1.2,0.9c-0.2,0.2-0.4,0.5-0.7,0.7c-1.2,0-1.2,0-1.8-0.6
	c-0.3-1,0.5-1.8,0.6-2.8c0.5-0.5,1-1,1.6-1.4c0.4-0.3,0.9-0.7,1.4-0.8c1.6-0.2,3.1-0.9,4.7-0.8c0.4,0,0.8,0.1,1.2,0.2
	c0.8,0.3,1.6,0.3,2.4,0c0.4-0.2,0.9-0.2,1.3-0.3c0.6-0.4,1.1-0.7,1.6-1.1c0.9,0.4,1,1.3,1.3,2c-0.2,0.7-0.4,1.3-0.7,2
	c-0.3,0.3-0.7,0.8-1.2,1.2c-0.8,0.1-1.6,0.3-2.4,0.3c-1.6,0-3.2-0.2-4.8-0.3C43.6,264.1,43.2,264.1,42.8,264.2z"/>
<path class="st0" d="M122.6,163.6c-0.8,0.2-1.6,0.4-2.3,0.8c-0.4,0.2-0.8,0.6-1.2,0.9c-0.2,0.2-0.4,0.5-0.7,0.7
	c-1.2,0-1.2,0-1.8-0.6c-0.3-1,0.5-1.8,0.6-2.8c0.5-0.5,1-1,1.6-1.4c0.4-0.3,0.9-0.7,1.4-0.8c1.6-0.2,3.1-0.9,4.7-0.8
	c0.4,0,0.8,0.1,1.2,0.2c0.8,0.3,1.6,0.3,2.4,0c0.4-0.2,0.9-0.2,1.3-0.3c0.6-0.4,1.1-0.7,1.6-1.1c0.9,0.4,1,1.3,1.3,2
	c-0.2,0.7-0.4,1.3-0.7,2c-0.3,0.3-0.7,0.8-1.2,1.2c-0.8,0.1-1.6,0.3-2.4,0.3c-1.6,0-3.2-0.2-4.8-0.3
	C123.4,163.5,123,163.5,122.6,163.6z"/>
<path class="st0" d="M351.6,318.3c-0.8,0.2-1.6,0.4-2.3,0.8c-0.4,0.2-0.8,0.6-1.2,0.9c-0.2,0.2-0.4,0.5-0.7,0.7
	c-1.1,0-1.1,0-1.8-0.6c-0.3-1,0.5-1.8,0.6-2.8c0.5-0.5,1-1,1.6-1.4c0.4-0.3,0.9-0.7,1.4-0.8c1.6-0.2,3.1-0.9,4.7-0.8
	c0.4,0,0.8,0.1,1.2,0.2c0.8,0.3,1.6,0.3,2.4,0c0.4-0.2,0.9-0.2,1.3-0.3c0.6-0.4,1.1-0.7,1.6-1.1c0.9,0.4,1,1.3,1.3,2
	c-0.2,0.7-0.4,1.3-0.7,2c-0.3,0.3-0.7,0.8-1.2,1.2c-0.8,0.1-1.6,0.3-2.4,0.3c-1.6,0-3.2-0.2-4.8-0.3
	C352.5,318.2,352,318.2,351.6,318.3z"/>
<path class="st0" d="M320,207C320,207,320,207,320,207C320,207,320,207,320,207L320,207z"/>
<path class="st0" d="M320,207L320,207C320,207,320,207,320,207C320,207,320,207,320,207z"/>
<path class="st0" d="M326.6,201.7L326.6,201.7c0.1-0.2,0.2-0.3,0.2-0.3c0.9,0.1,1.6,0.1,2.2,0.1c0.7,0.1,1.4,0.2,2,0.3
	c0.3,0,0.6,0,0.8,0.2c0.9,0.5,1.9,0.4,2.8,0.2c0.8-0.1,1.6-0.3,2.4-0.4c0.3-0.1,0.6-0.2,0.9-0.3c0.3-0.1,0.7-0.3,1-0.4
	c1,0.7,0,1.4,0.2,2c-0.7,0.9-1.6,1.2-2.5,1.8c-2.1,0-4.2,0.1-6.4,0c-0.8,0-1.6-0.3-2.4-0.6c-1-0.5-1.9-0.4-3.1-0.4
	c-1.1,0.7-2.3,1.6-3.5,2.4c-0.4,0.3-0.9,0.5-1.3,0.7c0.3-0.8,0.8-1.4,1.3-2c0.7-0.7,1.4-1.4,2.2-2.1c0.5-0.4,1.1-0.7,1.6-1
	C325.6,201.8,326.1,201.8,326.6,201.7z"/>
<path class="st0" d="M278.4,201.5c0.8-1.1,1.7-1.9,2.9-2.5c1-0.4,2.1-0.3,3.1-0.1c0.9,0.2,1.8,0.5,2.8,0.8c0.2,0.1,0.4,0.1,0.7,0.1
	c0.2,0,0.4,0,0.6,0c1.6,0.3,3.2,0.4,4.8,0.1c0.5-0.1,1,0,1.7,0.1c-0.2,0.5-0.3,0.8-0.5,1c-1.2,1-2.5,1.7-4.1,1.9
	c-0.3,0-0.6,0-0.8-0.1c-1.4-0.5-2.9-0.6-4.3-1.4c-0.8-0.5-1.8-0.3-2.7,0.1c-1.1,0.6-3.1,0.9-4.4,0.7
	C278.3,202,278.3,201.7,278.4,201.5z"/>
<path class="st0" d="M28,179.5c-0.1-0.8,0.3-1.5,0.5-2.1c0.9-2,2.2-3.5,4.5-3.8c0.4,0,0.7-0.2,1.1-0.3c1.2-0.4,2.4-0.4,3.7,0
	c0.9,0.2,1.7,0.2,2.6,0c1.4-0.4,2.6-1.1,3.8-1.8c0.4-0.2,0.9-0.4,1.4-0.7c0.2,0.7,0.3,1.2,0.5,1.8c-0.7,0.9-1.4,1.9-2.1,2.8
	c-0.8,1.1-2,1.6-3.3,1.7c-1.3,0.2-2.6,0.2-3.8-0.2c-0.9-0.3-1.8-0.2-2.7,0.2c-0.7,0.3-1.5,0.5-2.2,0.8c-0.4,0.2-0.8,0.4-1.2,0.7
	c-0.5,0.3-1,0.7-1.5,0.9C28.9,179.6,28.5,179.6,28,179.5z"/>
<path class="st0" d="M217.8,119.1c-0.1-0.8,0.3-1.5,0.5-2.1c0.9-2,2.2-3.5,4.5-3.8c0.4,0,0.7-0.2,1.1-0.3c1.2-0.4,2.4-0.4,3.7,0
	c0.9,0.2,1.7,0.2,2.6,0c1.4-0.4,2.6-1.1,3.8-1.8c0.4-0.2,0.9-0.4,1.4-0.7c0.2,0.7,0.3,1.2,0.5,1.8c-0.7,0.9-1.4,1.9-2.1,2.8
	c-0.8,1.1-2,1.6-3.3,1.7c-1.3,0.2-2.6,0.2-3.8-0.2c-0.9-0.3-1.8-0.2-2.7,0.2c-0.7,0.3-1.5,0.5-2.2,0.8c-0.4,0.2-0.8,0.4-1.2,0.7
	c-0.5,0.3-1,0.7-1.5,0.9C218.7,119.3,218.3,119.2,217.8,119.1z"/>
<path class="st0" d="M212.2,287.1c-0.1-0.8,0.3-1.5,0.5-2.1c0.9-2,2.2-3.5,4.5-3.8c0.4,0,0.7-0.2,1.1-0.3c1.2-0.4,2.4-0.4,3.7,0
	c0.9,0.2,1.7,0.2,2.6,0c1.4-0.4,2.6-1.1,3.8-1.8c0.4-0.2,0.9-0.4,1.4-0.7c0.2,0.7,0.3,1.2,0.5,1.8c-0.7,0.9-1.4,1.9-2.1,2.8
	c-0.8,1.1-2,1.6-3.3,1.7c-1.3,0.2-2.6,0.2-3.8-0.2c-0.9-0.3-1.8-0.2-2.7,0.2c-0.7,0.3-1.5,0.5-2.2,0.8c-0.4,0.2-0.8,0.4-1.2,0.7
	c-0.5,0.3-1,0.7-1.5,0.9C213,287.2,212.6,287.2,212.2,287.1z"/>
<path class="st0" d="M316.7,172.8c-0.6,1.5-0.6,1.5-1.9,2.6c-0.5,0.5-1.1,0.9-1.6,1.3c-0.7,0-1.4,0-2.2,0c-0.1,0.1-0.3,0.3-0.6,0.5
	c-1,0.1-2.1,0.2-3.1-0.2c-0.2-0.1-0.4-0.2-0.7-0.2c-1.3,0-2.5-0.6-3.7-0.9c-1.2-0.3-2.3-0.4-3.4,0.3c-0.6,0.4-1.2,0.7-1.7,1
	c-1.7,2.7-3.3,3.7-4.9,3.2c0-1.3,0.5-2.5,0.9-3.7c0.1-0.3,0.3-0.7,0.4-1c0.2-0.7,0.6-1.2,1.1-1.7c1.2-1.2,2.7-1.9,4.2-2.4
	c0.6-0.2,1.1-0.3,1.7-0.3c1.9-0.1,3.7,0.2,5.5,0.7c0.4,0.3,0.7,0.6,1.1,0.9c0.2,0,0.4,0.1,0.6,0.1c1.1-0.2,2.3-0.3,3.4-0.7
	c1.1-0.4,2.1-1,3-1.6c0.7-0.4,1.3-0.8,2.1-1.1C317.3,170.5,317,172.1,316.7,172.8z"/>
<path class="st0" d="M142.4,204.9c-0.6,1.5-0.6,1.5-1.9,2.6c-0.5,0.5-1.1,0.9-1.6,1.3c-0.7,0-1.4,0-2.2,0c-0.1,0.1-0.3,0.3-0.6,0.5
	c-1,0.1-2.1,0.2-3.1-0.2c-0.2-0.1-0.4-0.2-0.7-0.2c-1.3,0-2.5-0.6-3.7-0.9c-1.2-0.3-2.3-0.4-3.4,0.3c-0.6,0.4-1.2,0.7-1.7,1
	c-1.7,2.7-3.3,3.7-4.9,3.2c0-1.3,0.5-2.5,0.9-3.7c0.1-0.3,0.3-0.7,0.4-1c0.2-0.7,0.6-1.2,1.1-1.7c1.2-1.2,2.7-1.9,4.2-2.4
	c0.6-0.2,1.1-0.3,1.7-0.3c1.9-0.1,3.7,0.2,5.5,0.7c0.4,0.3,0.7,0.6,1.1,0.9c0.2,0,0.4,0.1,0.7,0.1c1.1-0.2,2.3-0.3,3.4-0.7
	c1.1-0.4,2.1-1,3-1.6c0.7-0.4,1.3-0.8,2.1-1.1C143,202.6,142.7,204.3,142.4,204.9z"/>
<path class="st0" d="M403.9,177.5c1-0.5,2.1-1.1,3.2-1.6c0.4,1.4-0.4,2.4-1,3.4c-1.5,1-3.2,1-4.9,0.9c-1-0.1-2-0.2-3-0.4
	c-1-0.2-2.1-0.3-3.1,0.2c-0.3,0.1-0.7,0.1-1.2,0.2c-0.6,0.7-1.2,1.5-1.9,2.3c-0.2-0.2-0.3-0.3-0.4-0.4c0.5-1.1,0.9-2.1,1.5-3
	c0.9-1.4,2.1-2.1,3.8-1.8c0.1,0,0.2,0,0.4,0c0.2-0.1,0.4-0.2,0.8-0.5c0.5,0.1,1.2,0.1,1.8,0.3C401.1,177.6,402.4,177.7,403.9,177.5z
	"/>
<path class="st0" d="M46.2,42.6c1-0.5,2.1-1.1,3.2-1.6c0.4,1.4-0.4,2.4-1,3.4c-1.5,1-3.2,1-4.9,0.9c-1-0.1-2-0.2-3-0.4
	c-1-0.2-2.1-0.3-3.1,0.2c-0.3,0.1-0.7,0.1-1.2,0.2c-0.6,0.7-1.2,1.5-1.9,2.3c-0.2-0.2-0.3-0.3-0.4-0.4c0.5-1.1,0.9-2.1,1.5-3
	c0.9-1.4,2.1-2.1,3.8-1.8c0.1,0,0.2,0,0.4,0c0.2-0.1,0.4-0.2,0.8-0.5c0.5,0.1,1.2,0.1,1.8,0.3C43.3,42.7,44.6,42.8,46.2,42.6z"/>
<path class="st0" d="M159.8,182.1c1-0.5,2.1-1.1,3.2-1.6c0.4,1.4-0.4,2.4-1,3.4c-1.5,1-3.2,1-4.9,0.9c-1-0.1-2-0.2-3-0.4
	c-1-0.2-2.1-0.3-3.1,0.2c-0.3,0.1-0.7,0.1-1.2,0.2c-0.6,0.7-1.2,1.5-1.9,2.3c-0.2-0.2-0.3-0.3-0.4-0.4c0.5-1.1,0.9-2.1,1.5-3
	c0.9-1.4,2.1-2.1,3.8-1.8c0.1,0,0.2,0,0.4,0c0.2-0.1,0.4-0.2,0.8-0.5c0.5,0.1,1.2,0.1,1.8,0.3C156.9,182.1,158.2,182.2,159.8,182.1z
	"/>
<path class="st0" d="M217.6,256.5c1-0.5,2.1-1.1,3.2-1.6c0.4,1.4-0.4,2.4-1,3.4c-1.5,1-3.2,1-4.9,0.9c-1-0.1-2-0.2-3-0.4
	c-1-0.2-2.1-0.3-3.1,0.2c-0.3,0.2-0.7,0.1-1.2,0.2c-0.6,0.7-1.2,1.5-1.9,2.3c-0.2-0.2-0.3-0.3-0.4-0.4c0.5-1.1,0.9-2.1,1.5-3
	c0.9-1.4,2.1-2.1,3.8-1.8c0.1,0,0.2,0,0.4,0c0.2-0.1,0.4-0.2,0.8-0.5c0.5,0.1,1.2,0.1,1.8,0.3C214.8,256.5,216.1,256.6,217.6,256.5z
	"/>
<path class="st0" d="M343,174.9c-0.1,0.6-0.1,1.1-0.2,1.6c-0.7,0.9-1.5,1.3-2.5,1.3c-1,0.1-2,0-3,0c-0.3,0-0.7,0-0.9-0.2
	c-0.7-0.4-1.5-0.3-2.2-0.3c-1,0.6-1.7,1.5-2.8,1.7c-0.3-0.5-0.2-1,0.1-1.3c0.6-0.7,1.2-1.4,2-1.8c0.3-0.1,0.6-0.4,1-0.6
	c0.7-0.1,1.5-0.3,2.3-0.5c1.2,0.6,2.5,0.3,3.7,0.4C341.2,175,341.9,174.4,343,174.9z"/>
<path class="st0" d="M82.9,249c-0.1,0.6-0.1,1.1-0.2,1.6c-0.7,0.9-1.5,1.3-2.5,1.3c-1,0.1-2,0-3,0c-0.3,0-0.7,0-0.9-0.2
	c-0.7-0.4-1.5-0.3-2.2-0.3c-1,0.6-1.7,1.5-2.8,1.7c-0.3-0.5-0.2-1,0.1-1.3c0.6-0.7,1.2-1.4,2-1.8c0.3-0.1,0.6-0.4,1-0.6
	c0.7-0.1,1.5-0.3,2.3-0.5c1.2,0.6,2.5,0.3,3.7,0.4C81.1,249.1,81.8,248.4,82.9,249z"/>
<path class="st0" d="M115.9,190.6c-0.1,0.6-0.1,1.1-0.2,1.6c-0.7,0.9-1.5,1.3-2.5,1.3c-1,0.1-2,0-3,0c-0.3,0-0.7,0-0.9-0.2
	c-0.7-0.4-1.5-0.3-2.2-0.3c-1,0.6-1.7,1.5-2.8,1.7c-0.3-0.5-0.2-1,0.1-1.3c0.6-0.7,1.1-1.4,2-1.8c0.3-0.1,0.6-0.4,1-0.6
	c0.7-0.1,1.5-0.3,2.3-0.5c1.2,0.6,2.5,0.3,3.7,0.4C114.2,190.7,114.9,190,115.9,190.6z"/>
<path class="st0" d="M168.4,266.6c-0.1,0.6-0.1,1.1-0.2,1.6c-0.7,0.9-1.5,1.3-2.5,1.3c-1,0.1-2,0-3,0c-0.3,0-0.7,0-0.9-0.2
	c-0.7-0.4-1.5-0.3-2.2-0.3c-1,0.6-1.7,1.5-2.8,1.7c-0.3-0.5-0.2-1,0.1-1.3c0.6-0.7,1.1-1.4,2-1.8c0.3-0.1,0.6-0.4,1-0.6
	c0.7-0.1,1.5-0.3,2.3-0.5c1.2,0.6,2.5,0.3,3.7,0.4C166.7,266.6,167.3,266,168.4,266.6z"/>
<path class="st0" d="M377.5,33.3c-0.1,0.6-0.1,1.1-0.2,1.6c-0.7,0.9-1.5,1.3-2.5,1.3c-1,0.1-2,0-3,0c-0.3,0-0.7,0-0.9-0.2
	c-0.7-0.4-1.5-0.3-2.2-0.3c-1,0.6-1.7,1.5-2.8,1.7c-0.3-0.5-0.2-1,0.1-1.3c0.6-0.7,1.2-1.4,2-1.8c0.3-0.1,0.6-0.4,1-0.6
	c0.7-0.1,1.5-0.3,2.3-0.5c1.2,0.6,2.5,0.3,3.7,0.4C375.8,33.4,376.4,32.7,377.5,33.3z"/>
<path class="st0" d="M215.6,162.4c-0.1,0.6-0.1,1.1-0.2,1.6c-0.7,0.9-1.5,1.3-2.5,1.3c-1,0.1-2,0-3,0c-0.3,0-0.7,0-0.9-0.2
	c-0.7-0.4-1.5-0.3-2.2-0.3c-1,0.6-1.7,1.5-2.8,1.7c-0.3-0.5-0.2-1,0.1-1.3c0.6-0.7,1.1-1.4,2-1.8c0.3-0.1,0.6-0.4,1-0.6
	c0.7-0.1,1.5-0.3,2.3-0.5c1.2,0.6,2.5,0.3,3.7,0.4C213.8,162.5,214.5,161.8,215.6,162.4z"/>
<path class="st0" d="M108.8,306.3c-0.1,0.6-0.1,1.1-0.2,1.6c-0.7,0.9-1.5,1.3-2.5,1.3c-1,0.1-2,0-3,0c-0.3,0-0.7,0-0.9-0.2
	c-0.7-0.4-1.5-0.3-2.2-0.3c-1,0.6-1.7,1.5-2.8,1.7c-0.3-0.5-0.2-1,0.1-1.3c0.6-0.7,1.1-1.4,2-1.8c0.3-0.1,0.6-0.4,1-0.6
	c0.7-0.1,1.5-0.3,2.3-0.5c1.2,0.6,2.5,0.3,3.7,0.3C107.1,306.4,107.8,305.7,108.8,306.3z"/>
<path class="st0" d="M204.8,308.5c-0.1,0.6-0.1,1.1-0.2,1.6c-0.7,0.9-1.5,1.3-2.5,1.3c-1,0.1-2,0-3,0c-0.3,0-0.7,0-0.9-0.2
	c-0.7-0.4-1.5-0.3-2.2-0.3c-1,0.6-1.7,1.5-2.8,1.7c-0.3-0.5-0.2-1,0.1-1.3c0.6-0.7,1.1-1.4,2-1.8c0.3-0.1,0.6-0.4,1-0.6
	c0.7-0.1,1.5-0.3,2.3-0.5c1.2,0.6,2.5,0.3,3.7,0.4C203,308.6,203.7,307.9,204.8,308.5z"/>
<path class="st0" d="M436,120.9c-0.1,0.6-0.1,1.1-0.2,1.6c-0.7,0.9-1.5,1.3-2.5,1.3c-1,0.1-2,0-3,0c-0.3,0-0.7,0-0.9-0.2
	c-0.7-0.4-1.5-0.3-2.2-0.3c-1,0.6-1.7,1.5-2.8,1.7c-0.3-0.5-0.2-1,0.1-1.3c0.6-0.7,1.2-1.4,2-1.8c0.3-0.1,0.6-0.4,1-0.6
	c0.7-0.1,1.5-0.3,2.3-0.5c1.2,0.6,2.5,0.3,3.7,0.4C434.2,121,434.9,120.3,436,120.9z"/>
<path class="st0" d="M142.7,129.2c-0.1,0.6-0.1,1.1-0.2,1.6c-0.7,0.9-1.5,1.3-2.5,1.3c-1,0.1-2,0-3,0c-0.3,0-0.7,0-0.9-0.2
	c-0.7-0.4-1.5-0.3-2.2-0.3c-1,0.6-1.7,1.5-2.8,1.7c-0.3-0.5-0.2-1,0.1-1.3c0.6-0.7,1.2-1.4,2-1.8c0.3-0.1,0.6-0.4,1-0.6
	c0.7-0.1,1.5-0.3,2.3-0.5c1.2,0.6,2.5,0.3,3.7,0.4C140.9,129.3,141.6,128.7,142.7,129.2z"/>
<path class="st0" d="M114.8,34c-0.1,0.6-0.1,1.1-0.2,1.6c-0.7,0.9-1.5,1.3-2.5,1.3c-1,0.1-2,0-3,0c-0.3,0-0.7,0-0.9-0.2
	c-0.7-0.4-1.5-0.3-2.2-0.3c-1,0.6-1.7,1.5-2.8,1.7c-0.3-0.5-0.2-1,0.1-1.3c0.6-0.7,1.2-1.4,2-1.8c0.3-0.1,0.6-0.4,1-0.6
	c0.7-0.1,1.5-0.3,2.3-0.5c1.2,0.6,2.5,0.3,3.7,0.4C113,34.1,113.7,33.4,114.8,34z"/>
<path class="st0" d="M232.8,189.2c-0.1,0.6-0.1,1.1-0.2,1.6c-0.7,0.9-1.5,1.3-2.5,1.3c-1,0.1-2,0-3,0c-0.3,0-0.7,0-0.9-0.2
	c-0.7-0.4-1.5-0.3-2.2-0.3c-1,0.6-1.7,1.5-2.8,1.7c-0.3-0.5-0.2-1,0.1-1.3c0.6-0.7,1.2-1.4,2-1.8c0.3-0.1,0.6-0.4,1-0.6
	c0.7-0.1,1.5-0.3,2.3-0.5c1.2,0.6,2.5,0.3,3.7,0.4C231,189.3,231.7,188.6,232.8,189.2z"/>
<path class="st0" d="M386.6,164.1c-1,1.1-2.2,1.6-3.5,1.9c-1.3,0.3-2.6,0.3-3.9-0.1c-1.6-0.5-3.2-0.5-4.9,0.1
	c-0.6,0.2-1.3,0.4-2.1,0.7c0.1-0.4,0.1-0.6,0.2-0.8c0.9-1.5,2.2-2.5,3.9-2.8c1.5-0.2,3.1-0.3,4.6,0.3c0.8,0.3,1.6,0.2,2.4-0.1
	c0.5-0.1,1-0.3,1.5-0.5c0.5-0.4,1-0.9,1.6-1.4c0.2,0.5,0.4,0.8,0.5,1.3C386.9,163.2,386.7,163.7,386.6,164.1z"/>
<path class="st0" d="M44,133.4c-1,1.1-2.2,1.6-3.5,1.9c-1.3,0.3-2.6,0.3-3.9-0.1c-1.6-0.5-3.2-0.5-4.9,0.1c-0.6,0.2-1.3,0.4-2.1,0.7
	c0.1-0.4,0.1-0.6,0.2-0.8c0.9-1.5,2.2-2.5,3.9-2.8c1.5-0.2,3.1-0.3,4.6,0.3c0.8,0.3,1.6,0.2,2.4-0.1c0.5-0.1,1-0.3,1.5-0.5
	c0.5-0.4,1-0.9,1.6-1.4c0.2,0.5,0.4,0.8,0.5,1.3C44.3,132.5,44.2,133,44,133.4z"/>
<path class="st0" d="M162.3,101.1c-1,1.1-2.2,1.6-3.5,1.9c-1.3,0.3-2.6,0.3-3.9-0.1c-1.6-0.5-3.2-0.5-4.9,0.1
	c-0.6,0.2-1.3,0.4-2.1,0.7c0.1-0.4,0.1-0.6,0.2-0.8c0.9-1.5,2.2-2.5,3.9-2.8c1.5-0.2,3.1-0.3,4.6,0.3c0.8,0.3,1.6,0.2,2.4-0.1
	c0.5-0.1,1-0.3,1.5-0.5c0.5-0.4,1-0.9,1.6-1.4c0.2,0.5,0.4,0.8,0.5,1.3C162.6,100.2,162.4,100.6,162.3,101.1z"/>
<path class="st0" d="M392.8,137.4c0.6,0.4,0.6,0.8,0.3,1.1c-0.8,0.9-1.3,2.1-2.4,2.8c-1.8,1.1-3.7,1.6-5.7,1.3
	c-1.5-0.2-3-0.5-4.4-0.7c-1.5,0.6-2.6,1.4-4.1,1.2c0.1-0.9,0.5-1.5,1.1-2c2.2-1.9,4.8-2.6,7.7-1.7c0.5,0.1,1,0.2,1.5,0.2
	c1.6-0.1,3.1-0.5,4.4-1.3C391.8,137.9,392.3,137.6,392.8,137.4z"/>
<path class="st0" d="M69.9,300.4c0.6,0.4,0.6,0.8,0.3,1.1c-0.8,0.9-1.3,2.1-2.4,2.8c-1.8,1.1-3.7,1.6-5.7,1.3
	c-1.5-0.2-3-0.5-4.4-0.7c-1.5,0.6-2.6,1.4-4.1,1.2c0.1-0.9,0.5-1.5,1.1-2c2.2-1.9,4.8-2.6,7.7-1.7c0.5,0.1,1,0.2,1.5,0.2
	c1.6-0.1,3.1-0.5,4.4-1.3C68.8,300.9,69.4,300.6,69.9,300.4z"/>
<path class="st0" d="M217.4,216.7c0.6,0.4,0.6,0.8,0.3,1.1c-0.8,0.9-1.3,2.1-2.4,2.8c-1.8,1.1-3.7,1.6-5.7,1.3
	c-1.5-0.2-3-0.5-4.4-0.7c-1.5,0.6-2.6,1.4-4.1,1.2c0.1-0.9,0.5-1.5,1.1-2c2.2-1.9,4.8-2.6,7.7-1.7c0.5,0.1,1,0.2,1.5,0.2
	c1.6-0.1,3.1-0.5,4.4-1.3C216.3,217.2,216.9,217,217.4,216.7z"/>
<path class="st0" d="M326.2,150.2c0.8-0.4,1.8-0.7,2.7-1.1c0,0.3,0.1,0.5,0,0.7c-0.2,0.7-0.5,1.4-0.8,2c-0.3,0.6-0.8,1-1.5,1.1
	c-1,0.1-2.1,0.2-3.1,0.3c-1.5,0.1-2.9,0.1-4.3,0.1c-1.2,0.8-2.1,1.4-3.4,2.2c-0.4,0-1.2-0.1-2-0.2c-0.1-0.2-0.1-0.3-0.2-0.5
	c0.8-0.8,1.5-1.7,2.3-2.4c0.6-0.5,1.1-1.2,1.9-1.5c0.6-0.2,1.2-0.4,1.9-0.1c0.7-0.6,1.5-0.7,2.4-0.4c0.6,0.2,1.2,0.2,1.8,0.3
	C324.7,150.7,325.4,150.6,326.2,150.2z"/>
<path class="st0" d="M165.5,40.5c0.6,2.6-1.2,5.5-3.1,6.1c-0.4,0.1-0.8,0.3-1.2,0.3c-1.3,0.1-2.6,0.2-3.9-0.4
	c-0.5-0.2-1.2-0.1-1.8-0.2c-1.6-0.7-3.2-0.7-4.9-0.2c-0.4,0.1-0.8,0.1-1.5,0.2c-1.1,0.7-2.4,1.6-3.9,2.2c-0.1-0.3-0.2-0.5-0.1-0.7
	c0.2-0.5,0.4-1,0.7-1.3c0.6-0.6,1.1-1.2,1.4-2.1c1.1-0.7,2.2-1.5,3.6-1.9c0.8-0.2,1.6-0.5,2.4-0.4c0.6,0,1.3,0,1.9,0.3
	c0.2,0.1,0.5,0.2,0.8,0.2c0.5,0,1,0.1,1.4,0.4c0.7,0.3,1.4,0.3,2.1,0c1-0.4,2-0.8,3-1.2c0.7-0.9,1.6-1.5,2.7-1.9
	C165.3,40.2,165.4,40.4,165.5,40.5z"/>
<path class="st0" d="M298.4,145c-1.2,0.3-2.3-0.1-3.3-0.7c-0.1-0.1-0.2-0.1-0.4-0.2c-2.3-1.3-2.3-1.2-4.9-1.3
	c-0.9,0-1.7,0.3-2.6,0.7c-1,1.6-2.5,2.6-4.7,1.7c-0.4-0.5-0.3-1.1,0.1-1.5c0.4-0.5,0.9-0.9,1.4-1.3c0.7-0.6,1.5-1,2.2-1.5
	c0.7-0.2,1.3-0.4,2-0.6c0,0,0-0.1,0-0.1c0.8,0,1.7,0.1,2.5,0c1.1-0.1,2.2,0.3,3.2,0.7c1.1,0.5,2.2,1,3.3,1.5c0.7,0,1.2,0.1,1.8,0.1
	c0.5,0,0.9,0,1.4-0.1c1.8-0.4,3.6-0.8,5.3-1.2c0.1,0.3,0.1,0.5,0.2,0.8c-1.2,0.8-2.3,1.6-3.4,2.3c-0.9,0.5-1.9,0.7-2.9,0.7
	C299.1,145.1,298.7,144.9,298.4,145z"/>
<path class="st0" d="M421.6,145.8c-0.4,1.8-1.6,2.8-3.4,2.9c-1.4,0.1-2.8,0.1-4.3,0.1c-1,0-1.9,0-3,0c-0.6,0.4-1.1,0.8-1.6,1.1
	c-0.7,0.4-1.5,0.9-2.5,0.6c0.2-1.5,1-2.7,2.3-3.5c1.6-1.1,3.3-1.4,5.2-1.3c1.7,0.1,3.4,0,4.9-0.9c0.5-0.3,1.1-0.6,1.7-0.9
	C421.7,144.2,421.8,145,421.6,145.8z"/>
<path class="st0" d="M329.1,256.8c-0.4,1.8-1.6,2.8-3.4,2.9c-1.4,0.1-2.8,0.1-4.3,0.1c-1,0-1.9,0-3,0c-0.6,0.4-1.1,0.8-1.6,1.1
	c-0.7,0.4-1.5,0.9-2.5,0.6c0.2-1.5,1-2.7,2.3-3.5c1.6-1.1,3.3-1.4,5.2-1.3c1.7,0.1,3.4,0,4.9-1c0.5-0.3,1.1-0.6,1.7-0.9
	C329.2,255.3,329.3,256,329.1,256.8z"/>
<path class="st0" d="M102.8,89c-0.4,1.8-1.6,2.8-3.4,2.9C98,92,96.6,92,95.2,92c-1,0-1.9,0-3,0c-0.6,0.4-1.1,0.8-1.6,1.1
	c-0.7,0.4-1.5,0.9-2.5,0.6c0.2-1.5,1-2.7,2.3-3.5c1.6-1.1,3.3-1.4,5.2-1.3c1.7,0.1,3.4,0,4.9-0.9c0.5-0.3,1.1-0.6,1.7-0.9
	C102.9,87.5,103,88.3,102.8,89z"/>
<path class="st0" d="M261.2,39.5c-0.4,1.8-1.6,2.8-3.4,2.9c-1.4,0.1-2.8,0.1-4.3,0.1c-1,0-1.9,0-3,0c-0.6,0.4-1.1,0.8-1.6,1.1
	c-0.7,0.4-1.5,0.9-2.5,0.6c0.2-1.5,1-2.7,2.3-3.5c1.6-1.1,3.3-1.4,5.2-1.3c1.7,0.1,3.4,0,4.9-0.9c0.5-0.3,1.1-0.6,1.7-0.9
	C261.3,38,261.4,38.8,261.2,39.5z"/>
<path class="st0" d="M306.7,141.6c-0.5-0.1-0.8-0.2-1-0.3c0.2-0.1,0.4-0.3,0.6-0.5C306.5,141.1,306.5,141.2,306.7,141.6z"/>
<path class="st0" d="M305.7,141.3C305.7,141.3,305.7,141.3,305.7,141.3C305.7,141.3,305.6,141.3,305.7,141.3L305.7,141.3z"/>
<path class="st0" d="M305.7,141.3C305.7,141.3,305.7,141.3,305.7,141.3L305.7,141.3C305.7,141.3,305.7,141.3,305.7,141.3z"/>
<path class="st0" d="M338.5,132.7C338.5,132.7,338.5,132.7,338.5,132.7C338.5,132.7,338.5,132.8,338.5,132.7L338.5,132.7z"/>
<path class="st0" d="M342,128.6c-0.5,0.3-1.1,0.5-1.6,0.8c-0.4,0.3-0.8,0.5-1.3,0.8c-0.6-0.1-1.2-0.1-1.8-0.2
	c0.2-0.7,0.4-1.4,0.6-1.9c1-0.9,2.1-1.3,3.1-1.8c0.6,0,1.1-0.1,1.6-0.1c0.4,0,0.7,0,1.1,0.1c0.7,0.2,1.4,0.5,2.1,0.6
	c0.7,0.2,1.2,0.5,1.5,1.1c0.3,0.6,0.8,1,1.4,1.3c0.9,0.1,1.8,0.1,2.6-0.3c0.7-0.3,1.4-0.3,2.1,0c0.1-0.3,0.2-0.4,0.4-0.7
	c0.2,0,0.4,0,0.7,0c-0.7,1.5-1.9,2.2-3.1,2.9c-1.7,0.3-3.1-0.3-4.5-1.1c-0.9-0.5-1.8-1.1-2.7-1.7C343.7,128.3,342.9,128.1,342,128.6
	z M338.7,129.3L338.7,129.3L338.7,129.3L338.7,129.3z"/>
<path class="st0" d="M173,203.7c-0.5,0.3-1.1,0.5-1.6,0.8c-0.4,0.3-0.8,0.5-1.3,0.8c-0.6-0.1-1.2-0.1-1.8-0.2
	c0.2-0.7,0.4-1.4,0.6-1.9c1-0.9,2.1-1.3,3.1-1.8c0.6,0,1.1-0.1,1.7-0.1c0.4,0,0.7,0,1.1,0.1c0.7,0.2,1.4,0.5,2.1,0.6
	c0.7,0.2,1.2,0.5,1.5,1.1c0.3,0.6,0.8,1,1.4,1.3c0.9,0.1,1.8,0.1,2.6-0.3c0.7-0.3,1.4-0.3,2.1,0c0.1-0.3,0.2-0.4,0.4-0.7
	c0.2,0,0.4,0,0.7,0c-0.7,1.5-1.9,2.2-3.1,2.9c-1.7,0.3-3.1-0.3-4.5-1.1c-0.9-0.5-1.8-1.1-2.7-1.7C174.7,203.4,173.9,203.1,173,203.7
	z M169.7,204.3L169.7,204.3L169.7,204.3L169.7,204.3z"/>
<path class="st0" d="M267.4,68.7c-0.5,0.3-1.1,0.5-1.6,0.8c-0.4,0.3-0.8,0.5-1.3,0.8c-0.6-0.1-1.2-0.1-1.8-0.2
	c0.2-0.7,0.4-1.4,0.6-1.9c1-0.9,2.1-1.3,3.1-1.8c0.6,0,1.1-0.1,1.7-0.1c0.4,0,0.7,0,1.1,0.1c0.7,0.2,1.4,0.5,2.1,0.6
	c0.7,0.2,1.2,0.5,1.5,1.1c0.3,0.6,0.8,1,1.4,1.3c0.9,0.1,1.8,0.1,2.6-0.3c0.7-0.3,1.4-0.3,2.1,0c0.1-0.3,0.2-0.4,0.4-0.7
	c0.2,0,0.4,0,0.7,0c-0.7,1.5-1.9,2.2-3.1,2.9c-1.7,0.3-3.1-0.3-4.5-1.1c-0.9-0.5-1.8-1.1-2.7-1.6C269.1,68.4,268.3,68.2,267.4,68.7z
	 M264.1,69.4L264.1,69.4L264.1,69.4L264.1,69.4z"/>
<path class="st0" d="M126.8,287.9c-0.5,0.3-1.1,0.5-1.6,0.8c-0.4,0.3-0.8,0.5-1.3,0.8c-0.6-0.1-1.2-0.1-1.8-0.2
	c0.2-0.7,0.4-1.4,0.6-1.9c1-0.9,2.1-1.3,3.1-1.8c0.6,0,1.1-0.1,1.6-0.1c0.4,0,0.7,0,1.1,0.1c0.7,0.2,1.4,0.5,2.1,0.6
	c0.7,0.2,1.2,0.5,1.5,1.1c0.3,0.6,0.8,1,1.4,1.3c0.9,0.1,1.8,0.1,2.6-0.3c0.7-0.3,1.4-0.3,2.1,0c0.1-0.3,0.2-0.4,0.4-0.7
	c0.2,0,0.4,0,0.7,0c-0.7,1.5-1.9,2.2-3.1,2.9c-1.7,0.3-3.1-0.3-4.5-1.1c-0.9-0.5-1.8-1.1-2.7-1.7
	C128.4,287.6,127.6,287.4,126.8,287.9z M123.5,288.6L123.5,288.6L123.5,288.6L123.5,288.6z"/>
<path class="st0" d="M63.4,232c-0.9,0.9-1.6,2-2.7,2.4c-1.5,0.6-3,1.2-4.6,0.5c-0.5-0.2-1.1-0.2-1.9-0.3c-2-1-4.1-2.4-6.7-2.7
	c-1.5,1.2-3.3,1.6-5.2,2c-0.1,0-0.4-0.1-0.6-0.2c0.9-1.3,2.1-2.2,3.3-3.1c1.6-0.3,3.1-1,5.4-0.4c0.9,0.4,2.5,1.1,4.5,1.9
	c1.4,0,3.2,0,5,0c0.4,0,0.9-0.2,1.3-0.3c0.5-0.1,1-0.2,1.5-0.2C63,231.6,63.1,231.8,63.4,232z"/>
<path class="st0" d="M177,151.8c-0.9,0.9-1.6,2-2.7,2.4c-1.5,0.6-3,1.2-4.6,0.5c-0.5-0.2-1.1-0.2-1.9-0.3c-2-1-4.1-2.4-6.7-2.7
	c-1.5,1.2-3.3,1.6-5.2,2c-0.1,0-0.4-0.1-0.6-0.2c0.9-1.3,2.1-2.2,3.3-3.1c1.6-0.3,3.1-1,5.4-0.4c0.9,0.4,2.5,1.1,4.5,1.9
	c1.4,0,3.2,0,5,0c0.4,0,0.9-0.2,1.3-0.3c0.5-0.1,1-0.2,1.5-0.2C176.6,151.4,176.7,151.6,177,151.8z"/>
<path class="st0" d="M374,114.9C374,114.9,374,114.9,374,114.9C374,114.9,374,114.9,374,114.9z"/>
<path class="st0" d="M374,114.9C374,114.9,374,114.9,374,114.9C374,114.9,374,114.9,374,114.9z"/>
<path class="st0" d="M374.1,114.8C374.1,114.8,374.1,114.8,374.1,114.8C374.1,114.8,374.1,114.8,374.1,114.8L374.1,114.8z"/>
<path class="st0" d="M374.1,114.8C374.1,114.8,374.1,114.8,374.1,114.8L374.1,114.8L374.1,114.8
	C374.1,114.8,374.1,114.8,374.1,114.8z"/>
<path class="st0" d="M293.2,97.7c-0.9,0.9-1.6,2-2.7,2.4c-1.5,0.6-3,1.2-4.6,0.5c-0.5-0.2-1.1-0.2-1.9-0.3c-2-1-4.1-2.4-6.7-2.7
	c-1.5,1.2-3.3,1.6-5.2,2c-0.1,0-0.4-0.1-0.6-0.2c0.9-1.3,2.1-2.2,3.3-3.1c1.6-0.3,3.1-1,5.4-0.4c0.9,0.4,2.5,1.1,4.5,1.9
	c1.4,0,3.2,0,5,0c0.4,0,0.9-0.2,1.3-0.3c0.5-0.1,1-0.2,1.5-0.2C292.7,97.3,292.9,97.5,293.2,97.7z"/>
<path class="st0" d="M373.8,247.7c-0.9,0.9-1.6,2-2.7,2.4c-1.5,0.6-3,1.2-4.6,0.5c-0.5-0.2-1.1-0.2-1.9-0.3c-2-1-4.1-2.4-6.7-2.7
	c-1.5,1.2-3.3,1.6-5.2,2c-0.1,0-0.4-0.1-0.6-0.2c0.9-1.3,2.1-2.2,3.3-3.1c1.6-0.3,3.1-1,5.4-0.4c0.9,0.4,2.5,1.1,4.5,1.9
	c1.4,0,3.2,0,5,0c0.4,0,0.9-0.2,1.3-0.3c0.5-0.1,1-0.2,1.5-0.2C373.4,247.3,373.5,247.5,373.8,247.7z"/>
<path class="st0" d="M271.4,99.4C271.4,99.5,271.4,99.4,271.4,99.4C271.4,99.4,271.4,99.4,271.4,99.4z"/>
<path class="st0" d="M271.4,99.4C271.4,99.4,271.4,99.4,271.4,99.4C271.4,99.4,271.4,99.4,271.4,99.4z"/>
<path class="st0" d="M271.5,99.3C271.5,99.4,271.4,99.4,271.5,99.3C271.4,99.4,271.4,99.3,271.5,99.3L271.5,99.3z"/>
<path class="st0" d="M271.5,99.3C271.5,99.3,271.5,99.3,271.5,99.3L271.5,99.3L271.5,99.3C271.5,99.3,271.5,99.3,271.5,99.3z"/>
<path class="st0" d="M315.8,114.1c-1.1,0-2.2,0.1-3.4,0.1c-1.1,0-2.1-0.4-3.1-0.9c-0.6-0.3-1.2-0.7-1.8-1c-1.3-0.7-2.6-0.7-4-0.1
	c-0.7,0.3-1.4,0.5-2.1,0.7c-0.2,0.1-0.5,0-1-0.1c0.2-0.3,0.4-0.6,0.5-0.7c1.1-0.9,2.3-1.4,3.7-1.5c0.3,0,0.6,0,0.8,0
	c0.9,0,1.8,0.1,2.7,0.4c1,0.3,2,0.7,2.9,1.3c1,0,2.1,0,3.2,0c0.3,0,0.6-0.1,0.9-0.2c0.7-0.2,1.4-0.4,2.2-0.6
	C317.6,112.6,317.3,113.1,315.8,114.1z"/>
<path class="st0" d="M94.8,171.5c-1.1,0-2.2,0.1-3.4,0.1c-1.1,0-2.1-0.4-3.1-0.9c-0.6-0.3-1.2-0.7-1.8-1c-1.3-0.7-2.6-0.7-4-0.1
	c-0.7,0.3-1.4,0.5-2.1,0.7c-0.2,0.1-0.5,0-1-0.1c0.2-0.3,0.4-0.6,0.5-0.7c1.1-0.9,2.3-1.4,3.7-1.5c0.3,0,0.6,0,0.8,0
	c0.9,0,1.8,0.1,2.7,0.4c1,0.3,2,0.7,2.9,1.3c1,0,2.1,0,3.2,0c0.3,0,0.6-0.1,0.9-0.2c0.7-0.2,1.4-0.4,2.2-0.6
	C96.6,170,96.3,170.5,94.8,171.5z"/>
<path class="st0" d="M439.1,223.3c-1.1,0-2.2,0.1-3.4,0.1c-1.1,0-2.1-0.4-3.1-0.9c-0.6-0.3-1.2-0.7-1.8-1c-1.3-0.7-2.6-0.7-4-0.1
	c-0.7,0.3-1.4,0.5-2.1,0.7c-0.2,0.1-0.5,0-1-0.1c0.2-0.3,0.4-0.6,0.5-0.7c1.1-0.9,2.3-1.4,3.7-1.5c0.3,0,0.6,0,0.8,0
	c0.9,0,1.8,0.1,2.7,0.4c1,0.3,2,0.7,2.9,1.3c1,0,2.1,0,3.2,0c0.3,0,0.6-0.1,0.9-0.2c0.7-0.2,1.4-0.4,2.2-0.6
	C440.9,221.7,440.6,222.2,439.1,223.3z"/>
<path class="st0" d="M394.9,268.3c-1.1,0-2.2,0.1-3.4,0.1c-1.1,0-2.1-0.4-3.1-0.9c-0.6-0.3-1.2-0.7-1.8-1c-1.3-0.7-2.6-0.7-4-0.1
	c-0.7,0.3-1.4,0.5-2.1,0.7c-0.2,0.1-0.5,0-1-0.1c0.2-0.3,0.4-0.6,0.5-0.7c1.1-0.9,2.3-1.4,3.7-1.5c0.3,0,0.6,0,0.8,0
	c0.9,0,1.8,0.1,2.7,0.4c1,0.3,2,0.7,2.9,1.3c1,0,2.1,0,3.2,0c0.3,0,0.6-0.1,0.9-0.2c0.7-0.2,1.4-0.4,2.2-0.6
	C396.8,266.8,396.4,267.3,394.9,268.3z"/>
<path class="st0" d="M242.1,152.3c-1.1,0-2.2,0.1-3.4,0.1c-1.1,0-2.1-0.4-3.1-0.9c-0.6-0.3-1.2-0.7-1.8-1c-1.3-0.7-2.6-0.7-4-0.1
	c-0.7,0.3-1.4,0.5-2.1,0.7c-0.2,0.1-0.5,0-1-0.1c0.2-0.3,0.4-0.6,0.5-0.7c1.1-0.9,2.3-1.4,3.7-1.5c0.3,0,0.6,0,0.8,0
	c0.9,0,1.8,0.1,2.7,0.4c1,0.3,2,0.7,2.9,1.3c1,0,2.1,0,3.2,0c0.3,0,0.6-0.1,0.9-0.2c0.7-0.2,1.4-0.4,2.2-0.6
	C244,150.7,243.6,151.2,242.1,152.3z"/>
<path class="st0" d="M92,284c-1.1,0-2.2,0.1-3.4,0.1c-1.1,0-2.1-0.4-3.1-0.9c-0.6-0.3-1.2-0.7-1.8-1c-1.3-0.7-2.6-0.7-4-0.2
	c-0.7,0.3-1.4,0.5-2.1,0.7c-0.2,0.1-0.5,0-1-0.1c0.2-0.3,0.4-0.6,0.5-0.7c1.1-0.9,2.3-1.4,3.7-1.5c0.3,0,0.6,0,0.8,0
	c0.9,0,1.8,0.1,2.7,0.4c1,0.3,2,0.7,2.9,1.3c1,0,2.1,0,3.2,0c0.3,0,0.6-0.1,0.9-0.2c0.7-0.2,1.4-0.4,2.2-0.6
	C93.9,282.5,93.5,283,92,284z"/>
<path class="st0" d="M412.5,243.6c-1.1,0-2.2,0.1-3.4,0.1c-1.1,0-2.1-0.4-3.1-0.9c-0.6-0.3-1.2-0.7-1.8-1c-1.3-0.7-2.6-0.7-4-0.2
	c-0.7,0.3-1.4,0.5-2.1,0.7c-0.2,0.1-0.5,0-1-0.1c0.2-0.3,0.4-0.6,0.5-0.7c1.1-0.9,2.3-1.4,3.7-1.5c0.3,0,0.6,0,0.8,0
	c0.9,0,1.8,0.1,2.7,0.4c1,0.3,2,0.7,2.9,1.3c1,0,2.1,0,3.2,0c0.3,0,0.6-0.1,0.9-0.2c0.7-0.2,1.4-0.4,2.2-0.6
	C414.3,242.1,414,242.6,412.5,243.6z"/>
<path class="st0" d="M67.8,157.3c-1.1,0-2.2,0.1-3.4,0.1c-1.1,0-2.1-0.4-3.1-0.9c-0.6-0.3-1.2-0.7-1.8-1c-1.3-0.7-2.6-0.7-4-0.1
	c-0.7,0.3-1.4,0.5-2.1,0.7c-0.2,0.1-0.5,0-1-0.1c0.2-0.3,0.4-0.6,0.5-0.7c1.1-0.9,2.3-1.4,3.7-1.5c0.3,0,0.6,0,0.8,0
	c0.9,0,1.8,0.1,2.7,0.4c1,0.3,2,0.7,2.9,1.3c1,0,2.1,0,3.2,0c0.3,0,0.6-0.1,0.9-0.2c0.7-0.2,1.4-0.4,2.2-0.6
	C69.7,155.7,69.3,156.2,67.8,157.3z"/>
<path class="st0" d="M157.9,230.2c-1.1,0-2.2,0.1-3.4,0.1c-1.1,0-2.1-0.4-3.1-0.9c-0.6-0.3-1.2-0.7-1.8-1c-1.3-0.7-2.6-0.7-4-0.1
	c-0.7,0.3-1.4,0.5-2.1,0.7c-0.2,0.1-0.5,0-1-0.1c0.2-0.3,0.4-0.6,0.5-0.7c1.1-0.9,2.3-1.4,3.7-1.5c0.3,0,0.6,0,0.8,0
	c0.9,0,1.8,0.1,2.7,0.4c1,0.3,2,0.7,2.9,1.3c1,0,2.1,0,3.2,0c0.3,0,0.6-0.1,0.9-0.2c0.7-0.2,1.4-0.4,2.2-0.6
	C159.8,228.6,159.4,229.1,157.9,230.2z"/>
<path class="st0" d="M194.7,280.1c-1.1,0-2.2,0.1-3.4,0.1c-1.1,0-2.1-0.4-3.1-0.9c-0.6-0.3-1.2-0.7-1.8-1c-1.3-0.7-2.6-0.7-4-0.1
	c-0.7,0.3-1.4,0.5-2.1,0.7c-0.2,0.1-0.5,0-1-0.1c0.2-0.3,0.4-0.6,0.5-0.7c1.1-0.9,2.3-1.4,3.7-1.5c0.3,0,0.6,0,0.8,0
	c0.9,0,1.8,0.1,2.7,0.4c1,0.3,2,0.7,2.9,1.3c1,0,2.1,0,3.2,0c0.3,0,0.6-0.1,0.9-0.2c0.7-0.2,1.4-0.4,2.2-0.6
	C196.5,278.6,196.2,279.1,194.7,280.1z"/>
<path class="st0" d="M242.9,305.1c-1.1,0-2.2,0.1-3.4,0.1c-1.1,0-2.1-0.4-3.1-0.9c-0.6-0.3-1.2-0.7-1.8-1c-1.3-0.7-2.6-0.7-4-0.1
	c-0.7,0.3-1.4,0.5-2.1,0.7c-0.2,0.1-0.5,0-1-0.1c0.2-0.3,0.4-0.6,0.5-0.7c1.1-0.9,2.3-1.4,3.7-1.5c0.3,0,0.6,0,0.8,0
	c0.9,0,1.8,0.1,2.7,0.4c1,0.3,2,0.7,2.9,1.3c1,0,2.1,0,3.2,0c0.3,0,0.6-0.1,0.9-0.2c0.7-0.2,1.4-0.4,2.2-0.6
	C244.7,303.5,244.4,304,242.9,305.1z"/>
<path class="st0" d="M307.2,54.4c-1.1,0-2.2,0.1-3.4,0.1c-1.1,0-2.1-0.4-3.1-0.9c-0.6-0.3-1.2-0.7-1.8-1c-1.3-0.7-2.6-0.7-4-0.1
	c-0.7,0.3-1.4,0.5-2.1,0.7c-0.2,0.1-0.5,0-1-0.1c0.2-0.3,0.4-0.6,0.5-0.7c1.1-0.9,2.3-1.4,3.7-1.5c0.3,0,0.6,0,0.8,0
	c0.9,0,1.8,0.1,2.7,0.4c1,0.3,2,0.7,2.9,1.3c1,0,2.1,0,3.2,0c0.3,0,0.6-0.1,0.9-0.2c0.7-0.2,1.4-0.4,2.2-0.6
	C309.1,52.8,308.7,53.3,307.2,54.4z"/>
<path class="st0" d="M415.4,97.3c-1.1,0-2.2,0.1-3.4,0.1c-1.1,0-2.1-0.4-3.1-0.9c-0.6-0.3-1.2-0.7-1.8-1c-1.3-0.7-2.6-0.7-4-0.1
	c-0.7,0.3-1.4,0.5-2.1,0.7c-0.2,0.1-0.5,0-1-0.1c0.2-0.3,0.4-0.6,0.5-0.7c1.1-0.9,2.3-1.4,3.7-1.5c0.3,0,0.5,0,0.8,0
	c0.9,0,1.8,0.1,2.7,0.4c1,0.3,2,0.7,2.9,1.3c1,0,2.1,0,3.2,0c0.3,0,0.6-0.1,0.9-0.2c0.7-0.2,1.4-0.4,2.2-0.6
	C417.3,95.7,416.9,96.2,415.4,97.3z"/>
<path class="st0" d="M207.8,139.1c-1.1,0-2.2,0.1-3.4,0.1c-1.1,0-2.1-0.4-3.1-0.9c-0.6-0.3-1.2-0.7-1.8-1c-1.3-0.7-2.6-0.7-4-0.1
	c-0.7,0.3-1.4,0.5-2.1,0.7c-0.2,0.1-0.5,0-1-0.1c0.2-0.3,0.4-0.6,0.5-0.7c1.1-0.9,2.3-1.4,3.7-1.5c0.3,0,0.6,0,0.8,0
	c0.9,0,1.8,0.1,2.7,0.4c1,0.3,2,0.7,2.9,1.3c1,0,2.1,0,3.2,0c0.3,0,0.6-0.1,0.9-0.2c0.7-0.2,1.4-0.4,2.2-0.6
	C209.7,137.6,209.3,138.1,207.8,139.1z"/>
<path class="st0" d="M242.1,237.9c-1.1,0-2.2,0.1-3.4,0.1c-1.1,0-2.1-0.4-3.1-0.9c-0.6-0.3-1.2-0.7-1.8-1c-1.3-0.7-2.6-0.7-4-0.1
	c-0.7,0.3-1.4,0.5-2.1,0.7c-0.2,0.1-0.5,0-1-0.1c0.2-0.3,0.4-0.6,0.5-0.7c1.1-0.9,2.3-1.4,3.7-1.5c0.3,0,0.6,0,0.8,0
	c0.9,0,1.8,0.1,2.7,0.4c1,0.3,2,0.7,2.9,1.3c1,0,2.1,0,3.2,0c0.3,0,0.6-0.1,0.9-0.2c0.7-0.2,1.4-0.4,2.2-0.6
	C244,236.4,243.6,236.9,242.1,237.9z"/>
<path class="st0" d="M68.7,70.8c-1.1,0-2.2,0.1-3.4,0.1c-1.1,0-2.1-0.4-3.1-0.9c-0.6-0.3-1.2-0.7-1.8-1c-1.3-0.7-2.6-0.7-4-0.1
	c-0.7,0.3-1.4,0.5-2.1,0.7c-0.2,0.1-0.5,0-1-0.1c0.2-0.3,0.4-0.6,0.5-0.7c1.1-0.9,2.3-1.4,3.7-1.5c0.3,0,0.6,0,0.8,0
	c0.9,0,1.8,0.1,2.7,0.4c1,0.3,2,0.7,2.9,1.3c1,0,2.1,0,3.2,0c0.3,0,0.6-0.1,0.9-0.2c0.7-0.2,1.4-0.4,2.2-0.6
	C70.6,69.3,70.2,69.8,68.7,70.8z"/>
<path class="st0" d="M224.5,68.2c-1.1,0-2.2,0.1-3.4,0.1c-1.1,0-2.1-0.4-3.1-0.9c-0.6-0.3-1.2-0.7-1.8-1c-1.3-0.7-2.6-0.7-4-0.1
	c-0.7,0.3-1.4,0.5-2.1,0.7c-0.2,0.1-0.5,0-1-0.1c0.2-0.3,0.4-0.6,0.5-0.7c1.1-0.9,2.3-1.4,3.7-1.5c0.3,0,0.6,0,0.8,0
	c0.9,0,1.8,0.1,2.7,0.4c1,0.3,2,0.7,2.9,1.3c1,0,2.1,0,3.2,0c0.3,0,0.6-0.1,0.9-0.2c0.7-0.2,1.4-0.4,2.2-0.6
	C226.4,66.6,226,67.1,224.5,68.2z"/>
<path class="st0" d="M263.5,312.9c0.4,0,0.9,0,1.5,0c0,0.4,0.1,0.7,0.1,1c-0.7,0.4-1.4,0.9-2,1.3c-0.5,0.3-1.1,0.7-1.6,1
	c-0.3,0.2-0.7,0.3-1-0.1C260.6,314.3,262,313.6,263.5,312.9z"/>
<path class="st0" d="M273.3,315.7c0.1,0.3,0.1,0.5,0.1,0.8c0.3,0,0.5,0,0.7-0.1c0-0.3,0-0.5,0-0.9
	C273.8,315.7,273.6,315.7,273.3,315.7z M267.3,312.8c0.4,0,0.8,0,1.3,0c0.9,0.6,1.8,1.1,2.7,1.7c0.7,0.5,1.5,0.7,2.3,0.2
	c0.3-0.2,0.7-0.2,1.1-0.2c1.1-0.1,2.2,0.1,3.4-0.7c0,0.5,0,0.8-0.1,1c-0.6,0.9-1.3,1.6-2.2,2.2c-3.5,0.4-5.2-0.1-8.3-2.6
	c-0.5-0.1-1-0.2-1.4-0.4c-0.1-0.2-0.1-0.3-0.1-0.4c0-0.2,0.1-0.3,0.1-0.4C266.3,312.7,266.8,312.8,267.3,312.8z"/>
<path class="st0" d="M419.8,283.6c-0.4,1.8-1.6,2.8-3.4,2.9c-1.4,0.1-2.8,0.1-4.3,0.1c-1,0-1.9,0-3,0c-0.6,0.4-1.1,0.8-1.6,1.1
	c-0.7,0.4-1.5,0.9-2.5,0.6c0.2-1.5,1-2.7,2.3-3.5c1.6-1.1,3.3-1.4,5.2-1.3c1.7,0.1,3.4,0,4.9-1c0.5-0.3,1.1-0.6,1.7-0.9
	C419.9,282,420,282.8,419.8,283.6z"/>
<path class="st0" d="M327.1,284.5c-0.5,0.3-1.1,0.5-1.6,0.8c-0.4,0.3-0.8,0.5-1.3,0.8c-0.6-0.1-1.2-0.1-1.8-0.2
	c0.2-0.7,0.4-1.4,0.6-1.9c1-0.9,2.1-1.3,3.1-1.8c0.6,0,1.1-0.1,1.6-0.1c0.4,0,0.7,0,1.1,0.1c0.7,0.2,1.4,0.5,2.1,0.7
	c0.7,0.2,1.2,0.5,1.5,1.1c0.3,0.6,0.8,1,1.4,1.3c0.9,0.1,1.8,0.1,2.6-0.3c0.7-0.3,1.4-0.3,2.1,0c0.1-0.3,0.2-0.4,0.4-0.7
	c0.2,0,0.4,0,0.7,0c-0.7,1.5-1.9,2.2-3.1,2.9c-1.7,0.3-3.1-0.3-4.5-1.1c-0.9-0.5-1.8-1.1-2.7-1.7C328.8,284.2,328,284,327.1,284.5z
	 M323.8,285.2L323.8,285.2L323.8,285.2L323.8,285.2z"/>
<path class="st0" d="M384.1,302.9c-0.5,0.3-1.1,0.5-1.6,0.8c-0.4,0.3-0.8,0.5-1.3,0.8c-0.6-0.1-1.2-0.1-1.8-0.2
	c0.2-0.7,0.4-1.4,0.6-1.9c1-0.9,2.1-1.3,3.1-1.8c0.6,0,1.1-0.1,1.6-0.1c0.4,0,0.7,0,1.1,0.1c0.7,0.2,1.4,0.5,2.1,0.6
	c0.7,0.2,1.2,0.5,1.5,1.1c0.3,0.6,0.8,1,1.4,1.3c0.9,0.1,1.8,0.1,2.6-0.3c0.7-0.3,1.4-0.3,2.1,0c0.1-0.3,0.2-0.5,0.4-0.7
	c0.2,0,0.4,0,0.7,0c-0.7,1.5-1.9,2.2-3.1,2.9c-1.7,0.3-3.1-0.3-4.5-1.1c-0.9-0.5-1.8-1.1-2.7-1.6C385.8,302.6,385,302.4,384.1,302.9
	z M380.8,303.6L380.8,303.6L380.8,303.6L380.8,303.6z"/>
<path class="st0" d="M307.2,297.5c-1.1,0-2.2,0.1-3.4,0.1c-1.1,0-2.1-0.4-3.1-0.9c-0.6-0.3-1.2-0.7-1.8-1c-1.3-0.7-2.6-0.7-4-0.1
	c-0.7,0.3-1.4,0.5-2.1,0.7c-0.2,0.1-0.5,0-1-0.1c0.2-0.3,0.4-0.6,0.5-0.7c1.1-0.9,2.3-1.4,3.7-1.5c0.3,0,0.6,0,0.8,0
	c0.9,0,1.8,0.1,2.7,0.4c1,0.3,2,0.7,2.9,1.3c1,0,2.1,0,3.2,0c0.3,0,0.6-0.1,0.9-0.2c0.7-0.2,1.4-0.4,2.2-0.6
	C309.1,296,308.7,296.5,307.2,297.5z"/>
<path class="st0" d="M270.4,286.7c-1.1,0-2.2,0.1-3.4,0.1c-1.1,0-2.1-0.4-3.1-0.9c-0.6-0.3-1.2-0.7-1.8-1c-1.3-0.7-2.6-0.7-4-0.1
	c-0.7,0.3-1.4,0.5-2.1,0.7c-0.2,0.1-0.5,0-1-0.1c0.2-0.3,0.4-0.6,0.5-0.7c1.1-0.9,2.3-1.4,3.7-1.5c0.3,0,0.6,0,0.8,0
	c0.9,0,1.8,0.1,2.7,0.4c1,0.3,2,0.7,2.9,1.3c1,0,2.1,0,3.2,0c0.3,0,0.6-0.1,0.9-0.2c0.7-0.2,1.4-0.4,2.2-0.6
	C272.3,285.1,271.9,285.6,270.4,286.7z"/>
<path class="st0" d="M325.6,314.9c-1.1,0-2.2,0.1-3.4,0.1c-1.1,0-2.1-0.4-3.1-0.9c-0.6-0.3-1.2-0.7-1.8-1c-1.3-0.7-2.6-0.7-4-0.2
	c-0.7,0.3-1.4,0.5-2.1,0.7c-0.2,0.1-0.5,0-1-0.1c0.2-0.3,0.4-0.6,0.5-0.7c1.1-0.9,2.3-1.4,3.7-1.5c0.3,0,0.6,0,0.8,0
	c0.9,0,1.8,0.1,2.7,0.4c1,0.3,2,0.7,2.9,1.3c1,0,2.1,0,3.2,0c0.3,0,0.6-0.1,0.9-0.2c0.7-0.2,1.4-0.4,2.2-0.6
	C327.5,313.3,327.1,313.8,325.6,314.9z"/>
<path class="st0" d="M435.2,310.4c-1.1,0-2.2,0.1-3.4,0.1c-1.1,0-2.1-0.4-3.1-0.9c-0.6-0.3-1.2-0.7-1.8-1c-1.3-0.7-2.6-0.7-4-0.1
	c-0.7,0.3-1.4,0.5-2.1,0.7c-0.2,0.1-0.5,0-1-0.1c0.2-0.3,0.4-0.6,0.5-0.7c1.1-0.9,2.3-1.4,3.7-1.5c0.3,0,0.6,0,0.8,0
	c0.9,0,1.8,0.1,2.7,0.4c1,0.3,2,0.7,2.9,1.3c1,0,2.1,0,3.2,0c0.3,0,0.6-0.1,0.9-0.2c0.7-0.2,1.4-0.4,2.2-0.6
	C437.1,308.8,436.7,309.3,435.2,310.4z"/>
<path class="st0" d="M206.9,48.6c0,0,0.1,0,0.1,0.1c0,0,0.1-0.1,0-0.1c0,0-0.1,0-0.1-0.1C206.9,48.5,206.9,48.6,206.9,48.6z
	 M197.7,46.3c-1.8,0.9-3.4,2.3-5.6,2.8c0.3-1.2,0.8-2.2,1.8-2.9c0.9-0.6,1.8-1.1,2.7-1.7c1-0.6,2.1-0.9,3.3-0.7
	c0.4,0.1,0.7,0.1,1.1,0c1.2-0.2,2.1,0.3,2.9,1c0.7,0.6,1.3,1.1,1.9,1.6c0.7,0.2,1.3,0.4,2.1,0.7c0.7,0,1.6,0,2.6-0.3
	c0.3-0.1,0.7-0.1,1.1-0.1c1.2,0,2.4,0.1,3.5-0.6c0.2,0.2,0.3,0.3,0.4,0.5c-0.7,0.7-1.5,1.1-2.3,1.5c-1.9,0.8-3.9,1.6-6.1,1.2
	c-0.8-0.4-1.7-0.7-2.5-1.1c-0.2-0.1-0.4-0.3-0.6-0.5c-0.4-0.3-0.7-0.7-1.1-1c-0.6-0.5-1.2-0.8-2-0.8c-0.9,0-1.7,0-2.8,0
	C197.9,45.9,197.8,46.1,197.7,46.3z"/>
<path class="st0" d="M76.8,121.2c0,0,0.1,0,0.1,0.1c0,0,0.1-0.1,0-0.1c0,0-0.1,0-0.1-0.1C76.8,121.1,76.8,121.2,76.8,121.2z
	 M67.6,118.9c-1.8,0.9-3.4,2.3-5.6,2.8c0.3-1.2,0.8-2.2,1.8-2.9c0.9-0.6,1.8-1.1,2.7-1.7c1-0.6,2.1-0.9,3.3-0.7
	c0.4,0.1,0.7,0.1,1.1,0c1.2-0.2,2.1,0.3,2.9,1c0.7,0.6,1.3,1.1,1.9,1.6c0.7,0.2,1.3,0.4,2.1,0.7c0.7,0,1.6,0,2.6-0.3
	c0.3-0.1,0.7-0.1,1.1-0.1c1.2,0,2.4,0.1,3.5-0.6c0.2,0.2,0.3,0.3,0.4,0.5c-0.7,0.7-1.5,1.2-2.3,1.5c-1.9,0.8-3.9,1.6-6.1,1.2
	c-0.8-0.4-1.7-0.7-2.5-1.1c-0.2-0.1-0.4-0.3-0.6-0.5c-0.4-0.3-0.7-0.7-1.1-1c-0.6-0.5-1.2-0.8-2-0.8c-0.9,0-1.7,0-2.8,0
	C67.8,118.5,67.7,118.7,67.6,118.9z"/>
<path class="st0" d="M362.3,87.1c0.2,0,0.5-0.1,0.7,0c0.5,0.2,1.1,0.5,1.6,0.8c0.9,0.6,1.8,0.7,2.8,0.4c1.2-0.3,2.4-0.6,3.4-1.3
	c0.2-0.1,0.4-0.2,0.6-0.3c0.3,0.6,0.2,1.1-0.2,1.6c-0.5,0.5-0.9,1-1.4,1.5c-0.8,0.1-1.6,0.2-2.4,0.3c-0.6,0-1.3-0.1-1.8-0.4
	c-0.4-0.2-0.9-0.4-1.4-0.5c0,0-0.1,0-0.2,0c-0.5-0.4-1.1-0.7-1.6-1.1C362.2,87.9,362,87.6,362.3,87.1z"/>
<path class="st0" d="M358.6,87.6c0,0-0.1-0.1-0.1-0.1c0.1-0.1,0.2-0.1,0.3-0.2C358.8,87.4,358.7,87.5,358.6,87.6z"/>
<path class="st0" d="M358.9,87.2C358.9,87.2,358.9,87.2,358.9,87.2C358.9,87.2,358.9,87.2,358.9,87.2L358.9,87.2z"/>
<path class="st0" d="M358.9,87.2L358.9,87.2C358.9,87.2,358.9,87.2,358.9,87.2C358.9,87.2,358.9,87.2,358.9,87.2z"/>
<path class="st0" d="M358.9,87.2c0.7-0.9,1.5-0.7,2.4-0.4c0,0.2,0,0.3,0.1,0.5c-0.5-0.1-0.9-0.2-1.3-0.2
	C359.7,87.1,359.3,87.2,358.9,87.2z"/>
<path class="st0" d="M403,215.8c0.2,0,0.5-0.1,0.7,0c0.5,0.2,1.1,0.5,1.6,0.8c0.9,0.6,1.8,0.7,2.8,0.4c1.2-0.3,2.4-0.6,3.4-1.3
	c0.2-0.1,0.4-0.2,0.6-0.3c0.3,0.6,0.2,1.1-0.2,1.6c-0.5,0.5-0.9,1-1.4,1.5c-0.8,0.1-1.6,0.2-2.4,0.3c-0.6,0-1.3-0.1-1.8-0.4
	c-0.4-0.2-0.9-0.4-1.4-0.5c0,0-0.1,0-0.1,0c-0.5-0.3-1.1-0.7-1.6-1.1C402.9,216.6,402.7,216.3,403,215.8z"/>
<path class="st0" d="M399.3,216.2c0,0-0.1-0.1-0.1-0.1c0.1-0.1,0.2-0.1,0.3-0.2C399.5,216,399.4,216.1,399.3,216.2z"/>
<path class="st0" d="M399.6,215.9C399.6,215.9,399.6,215.9,399.6,215.9C399.6,215.9,399.6,215.9,399.6,215.9L399.6,215.9z"/>
<path class="st0" d="M399.6,215.9L399.6,215.9C399.6,215.9,399.6,215.9,399.6,215.9C399.6,215.9,399.6,215.9,399.6,215.9z"/>
<path class="st0" d="M399.6,215.9c0.7-0.9,1.5-0.7,2.4-0.4c0,0.2,0,0.3,0.1,0.5c-0.5-0.1-0.9-0.2-1.3-0.2
	C400.4,215.8,400,215.8,399.6,215.9z"/>
<path class="st0" d="M344.4,267.2c0.2,0,0.5-0.1,0.7,0c0.5,0.2,1.1,0.5,1.6,0.8c0.9,0.6,1.8,0.7,2.8,0.5c1.2-0.3,2.4-0.6,3.4-1.3
	c0.2-0.1,0.4-0.2,0.6-0.3c0.3,0.6,0.2,1.1-0.2,1.6c-0.5,0.5-0.9,1-1.4,1.5c-0.8,0.1-1.6,0.2-2.4,0.3c-0.6,0-1.3-0.1-1.8-0.4
	c-0.4-0.2-0.9-0.4-1.4-0.5c0,0-0.1,0-0.2,0c-0.5-0.4-1.1-0.7-1.6-1.1C344.3,268,344.1,267.7,344.4,267.2z"/>
<path class="st0" d="M340.8,267.6c0,0-0.1-0.1-0.1-0.1c0.1-0.1,0.2-0.1,0.3-0.2C340.9,267.4,340.8,267.5,340.8,267.6z"/>
<path class="st0" d="M341,267.3C341,267.3,341,267.3,341,267.3C341,267.3,341,267.3,341,267.3L341,267.3z"/>
<path class="st0" d="M341,267.3L341,267.3C341,267.2,341,267.2,341,267.3C341,267.2,341,267.2,341,267.3z"/>
<path class="st0" d="M341.1,267.2c0.7-0.9,1.5-0.7,2.4-0.4c0,0.2,0,0.3,0.1,0.5c-0.5-0.1-0.9-0.2-1.3-0.2
	C341.8,267.2,341.5,267.2,341.1,267.2z"/>
<path class="st0" d="M257.3,170.3c0.2,0,0.5-0.1,0.7,0c0.5,0.2,1.1,0.5,1.6,0.8c0.9,0.6,1.8,0.7,2.8,0.4c1.2-0.3,2.4-0.6,3.4-1.3
	c0.2-0.1,0.4-0.2,0.7-0.3c0.3,0.6,0.2,1.1-0.2,1.6c-0.5,0.5-0.9,1-1.4,1.5c-0.8,0.1-1.6,0.2-2.4,0.3c-0.6,0-1.3-0.1-1.8-0.4
	c-0.4-0.2-0.9-0.4-1.4-0.5c0,0-0.1,0-0.2,0c-0.5-0.3-1.1-0.7-1.6-1.1C257.2,171.1,257,170.8,257.3,170.3z"/>
<path class="st0" d="M253.7,170.8c0,0-0.1-0.1-0.1-0.1c0.1-0.1,0.2-0.1,0.3-0.2C253.8,170.6,253.8,170.7,253.7,170.8z"/>
<path class="st0" d="M254,170.4C253.9,170.4,253.9,170.4,254,170.4C253.9,170.4,253.9,170.4,254,170.4L254,170.4z"/>
<path class="st0" d="M254,170.4L254,170.4C254,170.4,254,170.4,254,170.4C254,170.4,254,170.4,254,170.4z"/>
<path class="st0" d="M254,170.4c0.7-0.9,1.5-0.7,2.4-0.4c0,0.2,0,0.3,0.1,0.5c-0.5-0.1-0.9-0.2-1.3-0.2
	C254.8,170.3,254.4,170.4,254,170.4z"/>
<path class="st0" d="M200.9,87.3c0.2,0,0.5-0.1,0.7,0c0.5,0.2,1.1,0.5,1.6,0.8c0.9,0.6,1.8,0.7,2.8,0.4c1.2-0.3,2.4-0.6,3.4-1.3
	c0.2-0.1,0.4-0.2,0.7-0.3c0.3,0.6,0.2,1.1-0.2,1.6c-0.5,0.5-0.9,1-1.4,1.5c-0.8,0.1-1.6,0.2-2.4,0.3c-0.6,0-1.3-0.1-1.8-0.4
	c-0.4-0.2-0.9-0.4-1.4-0.5c0,0-0.1,0-0.2,0c-0.5-0.4-1.1-0.7-1.6-1.1C200.9,88.1,200.6,87.8,200.9,87.3z"/>
<path class="st0" d="M197.3,87.7c0,0-0.1-0.1-0.1-0.1c0.1-0.1,0.2-0.1,0.3-0.2C197.5,87.5,197.4,87.6,197.3,87.7z"/>
<path class="st0" d="M197.6,87.3C197.6,87.4,197.5,87.4,197.6,87.3C197.5,87.4,197.5,87.3,197.6,87.3L197.6,87.3z"/>
<path class="st0" d="M197.6,87.3L197.6,87.3C197.6,87.3,197.6,87.3,197.6,87.3C197.6,87.3,197.6,87.3,197.6,87.3z"/>
<path class="st0" d="M197.6,87.3c0.7-0.9,1.5-0.7,2.4-0.4c0,0.2,0,0.3,0.1,0.5c-0.5-0.1-0.9-0.2-1.3-0.2
	C198.4,87.3,198,87.3,197.6,87.3z"/>
<path class="st0" d="M428.3,31.8c0.2,0,0.5-0.1,0.7,0c0.5,0.2,1.1,0.5,1.6,0.8c0.9,0.6,1.8,0.7,2.8,0.4c1.2-0.3,2.4-0.6,3.4-1.3
	c0.2-0.1,0.4-0.2,0.6-0.3c0.3,0.6,0.2,1.1-0.2,1.6c-0.5,0.5-0.9,1-1.4,1.5c-0.8,0.1-1.6,0.2-2.4,0.3c-0.6,0-1.3-0.1-1.8-0.4
	c-0.4-0.2-0.9-0.4-1.4-0.5c0,0-0.1,0-0.1,0c-0.5-0.4-1.1-0.7-1.6-1.1C428.2,32.6,428,32.3,428.3,31.8z"/>
<path class="st0" d="M424.6,32.3c0,0-0.1-0.1-0.1-0.1c0.1-0.1,0.2-0.1,0.3-0.2C424.8,32,424.7,32.2,424.6,32.3z"/>
<path class="st0" d="M424.9,31.9C424.9,31.9,424.9,31.9,424.9,31.9C424.9,31.9,424.9,31.9,424.9,31.9L424.9,31.9z"/>
<path class="st0" d="M424.9,31.9L424.9,31.9C424.9,31.9,424.9,31.9,424.9,31.9C424.9,31.9,424.9,31.9,424.9,31.9z"/>
<path class="st0" d="M424.9,31.9c0.7-0.9,1.5-0.7,2.4-0.4c0,0.2,0,0.3,0.1,0.5c-0.5-0.1-0.9-0.2-1.3-0.2
	C425.7,31.8,425.3,31.9,424.9,31.9z"/>
<path class="st0" d="M287.4,269c0.2,0,0.5-0.1,0.7,0c0.5,0.2,1.1,0.5,1.6,0.8c0.9,0.6,1.8,0.7,2.8,0.4c1.2-0.3,2.4-0.6,3.4-1.3
	c0.2-0.1,0.4-0.2,0.6-0.3c0.3,0.6,0.2,1.1-0.2,1.6c-0.5,0.5-0.9,1-1.4,1.5c-0.8,0.1-1.6,0.2-2.4,0.3c-0.6,0-1.3-0.1-1.8-0.4
	c-0.4-0.2-0.9-0.4-1.4-0.5c0,0-0.1,0-0.2,0c-0.5-0.3-1.1-0.7-1.6-1.1C287.3,269.8,287.1,269.5,287.4,269z"/>
<path class="st0" d="M283.7,269.4c0,0-0.1-0.1-0.1-0.1c0.1-0.1,0.2-0.1,0.3-0.2C283.9,269.2,283.8,269.3,283.7,269.4z"/>
<path class="st0" d="M284,269.1C284,269.1,284,269.1,284,269.1C284,269.1,284,269.1,284,269.1L284,269.1z"/>
<path class="st0" d="M284,269.1L284,269.1C284,269.1,284,269.1,284,269.1C284,269.1,284,269.1,284,269.1z"/>
<path class="st0" d="M284,269.1c0.7-0.9,1.5-0.7,2.4-0.4c0,0.2,0,0.3,0.1,0.5c-0.5-0.1-0.9-0.2-1.3-0.2
	C284.8,269,284.4,269,284,269.1z"/>
<path class="st0" d="M74,47c0,0-0.1-0.1-0.1-0.1c0.1-0.1,0.2-0.1,0.3-0.2C74.1,46.7,74.1,46.8,74,47z"/>
<path class="st0" d="M74.3,46.6C74.2,46.6,74.2,46.6,74.3,46.6C74.2,46.6,74.2,46.6,74.3,46.6L74.3,46.6z"/>
<path class="st0" d="M74.3,46.6L74.3,46.6C74.2,46.6,74.3,46.6,74.3,46.6C74.3,46.6,74.3,46.6,74.3,46.6z"/>
<path class="st0" d="M329.1,83.4L329.1,83.4C329.1,83.4,329.1,83.4,329.1,83.4L329.1,83.4z"/>
<path class="st0" d="M313.8,80c0.5-0.4,1.1-0.7,1.6-1.1c1.4-0.4,2.8-0.9,4.5-0.5c1.2,0.7,2.6,1.4,3.9,2.6c0.3,0.1,0.9,0.3,1.4,0.4
	c0.6,0.1,1.3,0.2,1.9,0.1c1.1-0.3,2.2-0.3,3.3-0.4c1.5-0.2,3-0.6,4.5-0.9c-0.1,0.6-0.7,0.7-0.9,1.1c-0.8,0.2-1.5,0.4-2.3,0.6
	c-0.1,0.1-0.3,0.4-0.5,0.8c-0.7,0.2-1.4,0.5-2.1,0.7l0,0l-0.1-0.1l0,0.1c-2.4,0.6-4.6,0.3-6.7-1.1c-1-0.7-2.1-1.3-3.1-2
	c-1,0-1.8,0-2.7,0c-0.9,0-1.7,0.5-2.5,0.8c-0.4,0.2-0.7,0.4-1.2,0.1C313.3,80.7,313.6,80.3,313.8,80z"/>
<path class="st0" d="M156,71.4c0.5-0.4,1.1-0.7,1.6-1.1c1.4-0.4,2.8-0.9,4.5-0.5c1.2,0.7,2.6,1.4,3.9,2.6c0.3,0.1,0.9,0.3,1.4,0.4
	c0.6,0.1,1.3,0.2,1.9,0.1c1.1-0.3,2.2-0.3,3.3-0.4c1.5-0.2,3-0.6,4.5-0.9c-0.1,0.6-0.7,0.7-0.9,1.1c-0.8,0.2-1.5,0.4-2.3,0.6
	c-0.1,0.1-0.3,0.4-0.5,0.8c-0.7,0.2-1.4,0.5-2.1,0.7l0,0l-0.1-0.1l0,0.1c-2.4,0.6-4.6,0.3-6.7-1.1c-1-0.7-2.1-1.3-3.1-2
	c-1,0-1.8,0-2.7,0c-0.9,0-1.7,0.5-2.5,0.8c-0.4,0.2-0.7,0.4-1.2,0.1C155.5,72.1,155.7,71.7,156,71.4z"/>
<path class="st0" d="M333,51.7c0.7-1.2,1.5-2.3,2.2-3.5c0.4-0.5,0.9-0.9,1.5-1.2c2.5-1.2,5.1-1.2,7.6,0c0.4,0.2,0.8,0.5,1.1,0.8
	c0.6,0.5,1.1,1.1,1.9,1.8c0.7,0.2,1.5,0.4,2.3,0.5c1.3,0.2,2.4-0.4,3.6-0.8c0.5-0.2,1-0.4,1.5-0.6c0.3,0.6,0.1,1.1-0.2,1.5
	c-0.6,0.7-1.2,1.3-1.7,1.9c-2.2,0.3-4.3,0.1-6.5,0c-0.2-0.1-0.5-0.3-0.8-0.6c-1.3-1.1-2.9-1.8-4.4-2.5c-0.7-0.3-1.3-0.3-2,0
	c-0.7,0.4-1.4,0.7-2,1.1c-0.5,0.3-0.9,0.6-1.5,0.9c-0.8,0.6-1.1,2.1-2.7,1.5C333,52.2,332.9,51.9,333,51.7z"/>
<path class="st0" d="M417.6,199c0.7-1.2,1.5-2.3,2.2-3.5c0.4-0.5,0.9-0.9,1.5-1.2c2.5-1.2,5.1-1.2,7.6,0c0.4,0.2,0.8,0.5,1.1,0.8
	c0.6,0.5,1.1,1.1,1.9,1.8c0.7,0.2,1.5,0.4,2.3,0.5c1.3,0.2,2.4-0.4,3.6-0.8c0.5-0.2,1-0.4,1.5-0.6c0.3,0.6,0.1,1.1-0.2,1.5
	c-0.6,0.7-1.2,1.3-1.7,1.9c-2.1,0.3-4.3,0.1-6.5,0c-0.2-0.1-0.5-0.3-0.8-0.6c-1.3-1.1-2.9-1.8-4.4-2.5c-0.7-0.3-1.3-0.3-2,0
	c-0.7,0.4-1.4,0.7-2,1.1c-0.5,0.3-0.9,0.6-1.5,0.9c-0.8,0.6-1.1,2.1-2.7,1.5C417.5,199.5,417.5,199.2,417.6,199z"/>
<polygon class="st0" points="355.7,48 355.6,48 355.7,47.9 "/>
</svg>
