<?xml version="1.0" encoding="utf-8"?>
<!-- Generator: Adobe Illustrator 19.0.0, SVG Export Plug-In . SVG Version: 6.00 Build 0)  -->
<svg version="1.1" id="Calque_1" xmlns="http://www.w3.org/2000/svg" xmlns:xlink="http://www.w3.org/1999/xlink" x="0px" y="0px"
	 viewBox="-20 15.9 110.9 72.1" style="enable-background:new -20 15.9 110.9 72.1;" xml:space="preserve">
<style type="text/css">
	.st0{fill:none;stroke:#002FA7;stroke-width:3;stroke-miterlimit:10;}
	.st1{fill:#002FA7;}
</style>
<g id="XMLID_7225_">
	<line id="XMLID_7231_" class="st0" x1="62.2" y1="58.5" x2="72" y2="68.3"/>
	<line id="XMLID_7230_" class="st0" x1="48.9" y1="64.2" x2="53.7" y2="75.9"/>
	<line id="XMLID_7229_" class="st0" x1="36" y1="66" x2="36" y2="78.7"/>
	<line id="XMLID_7228_" class="st0" x1="22" y1="64.2" x2="15.2" y2="75.9"/>
	<line id="XMLID_7227_" class="st0" x1="8" y1="58.5" x2="-0.9" y2="70"/>
	<path id="XMLID_7226_" class="st0" d="M-1.7,51.4c0,0,34,32.4,74.4,0"/>
</g>
<g id="XMLID_7120_">
	<line id="XMLID_7126_" class="st0" x1="8.7" y1="45.4" x2="-1.1" y2="35.6"/>
	<line id="XMLID_7125_" class="st0" x1="22.1" y1="39.8" x2="17.2" y2="28"/>
	<line id="XMLID_7124_" class="st0" x1="34.9" y1="37.9" x2="34.9" y2="25.3"/>
	<line id="XMLID_7123_" class="st0" x1="48.9" y1="39.8" x2="55.7" y2="28"/>
	<line id="XMLID_7122_" class="st0" x1="62.9" y1="45.4" x2="71.8" y2="33.9"/>
	<path id="XMLID_7121_" class="st0" d="M72.6,52.5c0,0-34-32.4-74.4,0"/>
</g>
<circle id="XMLID_7100_" class="st1" cx="35.3" cy="52.1" r="13.4"/>
</svg>
