<?xml version="1.0" encoding="utf-8"?>
<!-- Generator: Adobe Illustrator 19.0.0, SVG Export Plug-In . SVG Version: 6.00 Build 0)  -->
<svg version="1.1" id="Layer_1" xmlns="http://www.w3.org/2000/svg" xmlns:xlink="http://www.w3.org/1999/xlink" x="0px" y="0px"
	 viewBox="0 0 280 200" style="enable-background:new 0 0 280 200;" xml:space="preserve">
<style type="text/css">
	.st0{fill:#00FFB0;}
	.st1{fill:#EC1E24;}
	.st2{fill:#150D30;}
	.st3{fill:#47BFB9;}
</style>
<polygon id="XMLID_30_" class="st0" points="109,116.7 193.5,63.7 221.4,130.1 211.4,151.1 "/>
<polygon id="XMLID_31_" class="st1" points="109,116.7 212.8,189.6 211.4,151.1 "/>
<polygon id="XMLID_32_" class="st2" points="109,116.7 131.2,90.5 193.5,63.7 "/>
<polygon id="XMLID_36_" class="st2" points="48.4,101.9 116.8,73.3 103.2,37.4 "/>
<polygon id="XMLID_37_" class="st1" points="48.4,101.9 53.1,56.5 85.3,32.7 116.8,27.4 103.2,37.4 "/>
<polygon id="XMLID_56_" class="st3" points="116.8,27.4 120.4,84.7 116.8,73.3 103.2,37.4 "/>
<polygon id="XMLID_63_" class="st3" points="151.2,44.3 217.3,10.4 209.3,36.2 "/>
<polygon id="XMLID_64_" class="st1" points="151.2,44.3 145.5,57.5 209.3,36.2 "/>
<polygon id="XMLID_65_" class="st2" points="217.3,10.4 217.3,54.1 145.5,57.5 209.3,36.2 "/>
</svg>
