<?xml version="1.0" encoding="utf-8"?>
<!-- Generator: Adobe Illustrator 19.0.0, SVG Export Plug-In . SVG Version: 6.00 Build 0)  -->
<svg version="1.1" id="Calque_1" xmlns="http://www.w3.org/2000/svg" xmlns:xlink="http://www.w3.org/1999/xlink" x="0px" y="0px"
	 viewBox="45 -30.7 50 150" style="enable-background:new 45 -30.7 50 150;" xml:space="preserve">
<style type="text/css">
	.st0{fill:none;stroke:#03287C;stroke-width:1.3631;stroke-miterlimit:10;}
</style>
<g id="XMLID_3_">
	<path id="XMLID_4_" class="st0" d="M78.9,105.9H54.1v-8.9c0-3.9,1.6-6.5,4.8-7.7c0.9-0.3,1.7-0.5,2.6-0.5c2,0,3.7,0.7,5.1,2.1
		s2,3.4,2,6v5h10.3C78.9,101.9,78.9,105.9,78.9,105.9z M57.8,97.2v4.8h7v-4.8c0-1.4-0.3-2.6-0.9-3.4c-0.5-0.9-1.4-1.3-2.5-1.3
		s-2,0.4-2.6,1.2C58.2,94.4,57.8,95.6,57.8,97.2z"/>
	<path id="XMLID_7_" class="st0" d="M68.9,80.5H79v3.7H66.2v1.4h-3.3v-3l1.8-1.8c-1.4-0.9-2-2.3-2-4c0-0.6,0.1-1.1,0.3-1.6l3.9,1.1
		c-0.2,0.4-0.3,0.9-0.3,1.4c0,0.6,0.3,1.2,0.8,1.8C67.6,80.2,68.2,80.5,68.9,80.5z"/>
	<path id="XMLID_9_" class="st0" d="M76.8,71.2c-1.6,1.6-3.7,2.5-6,2.5s-4.3-0.9-6-2.5c-1.6-1.6-2.5-3.7-2.4-6c0-2.3,0.8-4.3,2.4-6
		c1.6-1.7,3.7-2.5,6-2.5c2.4,0,4.3,0.9,6,2.5c1.6,1.7,2.5,3.7,2.5,6C79.3,67.6,78.5,69.6,76.8,71.2z M67.5,68.5
		c0.9,0.9,2,1.3,3.4,1.3c1.3,0,2.5-0.4,3.4-1.4c0.9-0.9,1.4-2,1.4-3.3c0-1.3-0.5-2.4-1.4-3.3c-0.9-0.9-2.1-1.4-3.4-1.4
		c-1.3,0-2.5,0.4-3.4,1.4c-0.9,0.9-1.4,2-1.4,3.3C66,66.5,66.5,67.7,67.5,68.5z"/>
	<path id="XMLID_12_" class="st0" d="M81.7,52.1H66.1v2.1h-3.3v-4.5l1.4-1.4h17.5c2.1,0,3.7,0.5,4.6,1.5c1,1,1.4,2.4,1.4,4.1
		c0,2-0.9,3.7-2.8,4.9l-1.7-3.2c0.5-0.3,0.8-0.9,0.8-1.4c0-0.7-0.2-1.2-0.6-1.6C83.1,52.3,82.5,52.1,81.7,52.1z M56.3,53.3
		c-0.8,0-1.4-0.3-1.9-0.8c-0.5-0.5-0.8-1.1-0.8-1.9s0.3-1.4,0.8-1.9c0.5-0.5,1.2-0.8,1.9-0.8s1.4,0.3,1.9,0.8
		c0.5,0.5,0.8,1.1,0.8,1.9s-0.3,1.4-0.8,1.9C57.7,53,57,53.3,56.3,53.3z"/>
	<path id="XMLID_15_" class="st0" d="M75.7,37.1c0-1.7-0.8-3.1-2.2-4l1.6-3.1c1.2,0.7,2.2,1.6,3,2.8c0.8,1.2,1.2,2.5,1.2,4
		c0,2.3-0.9,4.2-2.6,5.6c-1.7,1.5-3.7,2.2-6,2.2s-4.3-0.8-5.9-2.2c-1.7-1.5-2.5-3.4-2.5-5.6c0-2.2,0.8-4,2.4-5.4
		c1.6-1.4,3.5-2.1,5.7-2.2l1.4,1.4v10.3c1.1-0.1,2-0.5,2.8-1.4C75.4,38.8,75.7,38,75.7,37.1z M65.8,36.8c0,1,0.3,1.9,0.9,2.6
		c0.6,0.8,1.4,1.2,2.2,1.4V33c-0.9,0.1-1.6,0.5-2.2,1.3C66,35,65.8,35.8,65.8,36.8z"/>
	<path id="XMLID_18_" class="st0" d="M66.1,27.2h-3.3v-2h-4.9l-1.3-1.4v-2.5h6.2v-2.6h3.3v2.6h9.2v-1.4h3.6v3.5L77.3,25H66.1V27.2z"
		/>
	<path id="XMLID_20_" class="st0" d="M74.5,2.3c1.4,0,2.6,0.7,3.5,2.1c0.9,1.4,1.3,3,1.3,4.7s-0.3,3.2-1,4.4
		c-0.7,1.3-1.8,2.1-3.2,2.6l-1-3.5c0.6-0.2,1-0.6,1.3-1.4c0.3-0.8,0.4-1.5,0.4-2.3c0-0.8-0.2-1.4-0.4-2c-0.3-0.6-0.6-0.9-1.1-0.9
		c-0.4,0-0.8,0.2-0.9,0.6c-0.3,0.8-0.7,1.7-0.9,2.8c-0.3,1-0.6,1.9-0.9,2.4c-0.3,0.5-0.6,1.1-0.9,1.7c-0.9,1.2-2,1.8-3.5,1.8
		c-1.4,0-2.6-0.6-3.5-1.9s-1.3-2.6-1.3-4c0-1.4,0.3-2.6,0.7-3.7c0.4-1.1,1-2,1.8-2.5l2,2.8c-0.8,0.9-1.1,1.8-1.1,2.7s0.2,1.6,0.4,2
		c0.3,0.4,0.6,0.7,1,0.7c0.4,0,0.9-0.3,1.1-0.9c0.3-0.4,0.5-1.4,1-3.1c0.4-1.6,1-2.9,1.8-3.8C71.9,2.9,73,2.3,74.5,2.3z"/>
	<path id="XMLID_22_" class="st0" d="M67-0.6h-3.3v-19.7h8.8v3.4H67C67-16.8,67-0.6,67-0.6z"/>
</g>
</svg>
